M48
; DRILL file {KiCad 5.1.5} date sob, 30 maj 2020, 17:30:59
; FORMAT={-:-/ absolute / metric / decimal}
; #@! TF.CreationDate,2020-05-30T17:30:59+02:00
; #@! TF.GenerationSoftware,Kicad,Pcbnew,5.1.5
FMAT,2
METRIC
T1C0.400
T2C1.000
T3C0.900
%
G90
G05
T1
X68.5Y-69.0
X69.944Y-61.75
X69.985Y-63.877
X71.1Y-57.4
X71.3Y-74.1
X72.25Y-67.0
X72.25Y-68.5
X72.3Y-69.7
X73.3Y-66.2
X74.2Y-57.6
X74.25Y-68.5
X74.38Y-62.5
X74.9Y-74.3
X75.6Y-57.5
X75.75Y-69.75
X76.8Y-57.5
X76.9Y-65.2
X77.5Y-69.8
X78.2Y-57.4
X78.25Y-75.0
X78.3Y-61.1
X78.5Y-67.5
X78.5Y-71.75
X80.0Y-70.0
X80.3Y-76.2
X81.5Y-71.75
X82.4Y-67.5
X83.5Y-56.7
X83.6Y-65.3
X83.742Y-74.727
X83.9Y-71.1
X85.2Y-79.0
X85.5Y-69.7
X86.2Y-74.8
X87.7Y-69.7
X87.75Y-74.5
X88.4Y-59.3
X89.0Y-74.5
X90.3Y-70.1
X90.75Y-53.75
X90.8Y-78.9
X90.9Y-74.5
X91.1Y-65.6
T2
X66.0Y-48.0
X66.0Y-50.54
X66.0Y-53.08
X66.0Y-55.62
X66.0Y-58.16
X66.0Y-60.7
X66.0Y-63.24
X66.0Y-65.78
T3
X68.3Y-74.25
X72.7Y-74.25
T0
M30
