G04 #@! TF.GenerationSoftware,KiCad,Pcbnew,5.1.5*
G04 #@! TF.CreationDate,2020-05-30T17:31:02+02:00*
G04 #@! TF.ProjectId,lichtenprog,6c696368-7465-46e7-9072-6f672e6b6963,rev?*
G04 #@! TF.SameCoordinates,Original*
G04 #@! TF.FileFunction,Legend,Bot*
G04 #@! TF.FilePolarity,Positive*
%FSLAX46Y46*%
G04 Gerber Fmt 4.6, Leading zero omitted, Abs format (unit mm)*
G04 Created by KiCad (PCBNEW 5.1.5) date 2020-05-30 17:31:02*
%MOMM*%
%LPD*%
G04 APERTURE LIST*
%ADD10C,0.120000*%
%ADD11C,0.150000*%
%ADD12C,0.200000*%
G04 APERTURE END LIST*
D10*
X76618145Y-58340825D02*
G75*
G02X75700001Y-58299999I-418145J940825D01*
G01*
D11*
X69766666Y-56252380D02*
X70100000Y-55776190D01*
X70338095Y-56252380D02*
X70338095Y-55252380D01*
X69957142Y-55252380D01*
X69861904Y-55300000D01*
X69814285Y-55347619D01*
X69766666Y-55442857D01*
X69766666Y-55585714D01*
X69814285Y-55680952D01*
X69861904Y-55728571D01*
X69957142Y-55776190D01*
X70338095Y-55776190D01*
X69433333Y-55252380D02*
X68766666Y-56252380D01*
X68766666Y-55252380D02*
X69433333Y-56252380D01*
X68385714Y-56252380D02*
X68385714Y-55252380D01*
X68147619Y-55252380D01*
X68004761Y-55300000D01*
X67909523Y-55395238D01*
X67861904Y-55490476D01*
X67814285Y-55680952D01*
X67814285Y-55823809D01*
X67861904Y-56014285D01*
X67909523Y-56109523D01*
X68004761Y-56204761D01*
X68147619Y-56252380D01*
X68385714Y-56252380D01*
X71333333Y-65452380D02*
X71000000Y-66452380D01*
X70666666Y-65452380D01*
X70000000Y-65928571D02*
X69857142Y-65976190D01*
X69809523Y-66023809D01*
X69761904Y-66119047D01*
X69761904Y-66261904D01*
X69809523Y-66357142D01*
X69857142Y-66404761D01*
X69952380Y-66452380D01*
X70333333Y-66452380D01*
X70333333Y-65452380D01*
X70000000Y-65452380D01*
X69904761Y-65500000D01*
X69857142Y-65547619D01*
X69809523Y-65642857D01*
X69809523Y-65738095D01*
X69857142Y-65833333D01*
X69904761Y-65880952D01*
X70000000Y-65928571D01*
X70333333Y-65928571D01*
X69333333Y-65452380D02*
X69333333Y-66261904D01*
X69285714Y-66357142D01*
X69238095Y-66404761D01*
X69142857Y-66452380D01*
X68952380Y-66452380D01*
X68857142Y-66404761D01*
X68809523Y-66357142D01*
X68761904Y-66261904D01*
X68761904Y-65452380D01*
X68333333Y-66404761D02*
X68190476Y-66452380D01*
X67952380Y-66452380D01*
X67857142Y-66404761D01*
X67809523Y-66357142D01*
X67761904Y-66261904D01*
X67761904Y-66166666D01*
X67809523Y-66071428D01*
X67857142Y-66023809D01*
X67952380Y-65976190D01*
X68142857Y-65928571D01*
X68238095Y-65880952D01*
X68285714Y-65833333D01*
X68333333Y-65738095D01*
X68333333Y-65642857D01*
X68285714Y-65547619D01*
X68238095Y-65500000D01*
X68142857Y-65452380D01*
X67904761Y-65452380D01*
X67761904Y-65500000D01*
X69647619Y-51252380D02*
X69980952Y-50776190D01*
X70219047Y-51252380D02*
X70219047Y-50252380D01*
X69838095Y-50252380D01*
X69742857Y-50300000D01*
X69695238Y-50347619D01*
X69647619Y-50442857D01*
X69647619Y-50585714D01*
X69695238Y-50680952D01*
X69742857Y-50728571D01*
X69838095Y-50776190D01*
X70219047Y-50776190D01*
X69361904Y-50252380D02*
X68790476Y-50252380D01*
X69076190Y-51252380D02*
X69076190Y-50252380D01*
X68504761Y-51204761D02*
X68361904Y-51252380D01*
X68123809Y-51252380D01*
X68028571Y-51204761D01*
X67980952Y-51157142D01*
X67933333Y-51061904D01*
X67933333Y-50966666D01*
X67980952Y-50871428D01*
X68028571Y-50823809D01*
X68123809Y-50776190D01*
X68314285Y-50728571D01*
X68409523Y-50680952D01*
X68457142Y-50633333D01*
X68504761Y-50538095D01*
X68504761Y-50442857D01*
X68457142Y-50347619D01*
X68409523Y-50300000D01*
X68314285Y-50252380D01*
X68076190Y-50252380D01*
X67933333Y-50300000D01*
X69861904Y-62800000D02*
X69957142Y-62752380D01*
X70100000Y-62752380D01*
X70242857Y-62800000D01*
X70338095Y-62895238D01*
X70385714Y-62990476D01*
X70433333Y-63180952D01*
X70433333Y-63323809D01*
X70385714Y-63514285D01*
X70338095Y-63609523D01*
X70242857Y-63704761D01*
X70100000Y-63752380D01*
X70004761Y-63752380D01*
X69861904Y-63704761D01*
X69814285Y-63657142D01*
X69814285Y-63323809D01*
X70004761Y-63323809D01*
X69385714Y-63752380D02*
X69385714Y-62752380D01*
X68814285Y-63752380D01*
X68814285Y-62752380D01*
X68338095Y-63752380D02*
X68338095Y-62752380D01*
X68100000Y-62752380D01*
X67957142Y-62800000D01*
X67861904Y-62895238D01*
X67814285Y-62990476D01*
X67766666Y-63180952D01*
X67766666Y-63323809D01*
X67814285Y-63514285D01*
X67861904Y-63609523D01*
X67957142Y-63704761D01*
X68100000Y-63752380D01*
X68338095Y-63752380D01*
X71261904Y-48321428D02*
X70500000Y-48321428D01*
X70880952Y-48702380D02*
X70880952Y-47940476D01*
X70119047Y-47702380D02*
X69500000Y-47702380D01*
X69833333Y-48083333D01*
X69690476Y-48083333D01*
X69595238Y-48130952D01*
X69547619Y-48178571D01*
X69500000Y-48273809D01*
X69500000Y-48511904D01*
X69547619Y-48607142D01*
X69595238Y-48654761D01*
X69690476Y-48702380D01*
X69976190Y-48702380D01*
X70071428Y-48654761D01*
X70119047Y-48607142D01*
X69214285Y-47702380D02*
X68880952Y-48702380D01*
X68547619Y-47702380D01*
X68309523Y-47702380D02*
X67690476Y-47702380D01*
X68023809Y-48083333D01*
X67880952Y-48083333D01*
X67785714Y-48130952D01*
X67738095Y-48178571D01*
X67690476Y-48273809D01*
X67690476Y-48511904D01*
X67738095Y-48607142D01*
X67785714Y-48654761D01*
X67880952Y-48702380D01*
X68166666Y-48702380D01*
X68261904Y-48654761D01*
X68309523Y-48607142D01*
X70242857Y-53752380D02*
X70242857Y-52752380D01*
X70004761Y-52752380D01*
X69861904Y-52800000D01*
X69766666Y-52895238D01*
X69719047Y-52990476D01*
X69671428Y-53180952D01*
X69671428Y-53323809D01*
X69719047Y-53514285D01*
X69766666Y-53609523D01*
X69861904Y-53704761D01*
X70004761Y-53752380D01*
X70242857Y-53752380D01*
X69385714Y-52752380D02*
X68814285Y-52752380D01*
X69100000Y-53752380D02*
X69100000Y-52752380D01*
X67909523Y-53752380D02*
X68242857Y-53276190D01*
X68480952Y-53752380D02*
X68480952Y-52752380D01*
X68100000Y-52752380D01*
X68004761Y-52800000D01*
X67957142Y-52847619D01*
X67909523Y-52942857D01*
X67909523Y-53085714D01*
X67957142Y-53180952D01*
X68004761Y-53228571D01*
X68100000Y-53276190D01*
X68480952Y-53276190D01*
X70361904Y-57752380D02*
X69790476Y-57752380D01*
X70076190Y-58752380D02*
X70076190Y-57752380D01*
X69552380Y-57752380D02*
X68885714Y-58752380D01*
X68885714Y-57752380D02*
X69552380Y-58752380D01*
X68504761Y-58752380D02*
X68504761Y-57752380D01*
X68266666Y-57752380D01*
X68123809Y-57800000D01*
X68028571Y-57895238D01*
X67980952Y-57990476D01*
X67933333Y-58180952D01*
X67933333Y-58323809D01*
X67980952Y-58514285D01*
X68028571Y-58609523D01*
X68123809Y-58704761D01*
X68266666Y-58752380D01*
X68504761Y-58752380D01*
X69861904Y-60300000D02*
X69957142Y-60252380D01*
X70100000Y-60252380D01*
X70242857Y-60300000D01*
X70338095Y-60395238D01*
X70385714Y-60490476D01*
X70433333Y-60680952D01*
X70433333Y-60823809D01*
X70385714Y-61014285D01*
X70338095Y-61109523D01*
X70242857Y-61204761D01*
X70100000Y-61252380D01*
X70004761Y-61252380D01*
X69861904Y-61204761D01*
X69814285Y-61157142D01*
X69814285Y-60823809D01*
X70004761Y-60823809D01*
X69385714Y-61252380D02*
X69385714Y-60252380D01*
X68814285Y-61252380D01*
X68814285Y-60252380D01*
X68338095Y-61252380D02*
X68338095Y-60252380D01*
X68100000Y-60252380D01*
X67957142Y-60300000D01*
X67861904Y-60395238D01*
X67814285Y-60490476D01*
X67766666Y-60680952D01*
X67766666Y-60823809D01*
X67814285Y-61014285D01*
X67861904Y-61109523D01*
X67957142Y-61204761D01*
X68100000Y-61252380D01*
X68338095Y-61252380D01*
X81208037Y-59154992D02*
X80568274Y-59458037D01*
X80871320Y-58818274D01*
X79861167Y-58683587D02*
X79894839Y-58784602D01*
X80029526Y-58919289D01*
X80130541Y-58952961D01*
X80197885Y-58952961D01*
X80298900Y-58919289D01*
X80500931Y-58717259D01*
X80534602Y-58616244D01*
X80534602Y-58548900D01*
X80500931Y-58447885D01*
X80366244Y-58313198D01*
X80265228Y-58279526D01*
X79255076Y-58077496D02*
X79288748Y-58178511D01*
X79423435Y-58313198D01*
X79524450Y-58346870D01*
X79591793Y-58346870D01*
X79692809Y-58313198D01*
X79894839Y-58111167D01*
X79928511Y-58010152D01*
X79928511Y-57942809D01*
X79894839Y-57841793D01*
X79760152Y-57707106D01*
X79659137Y-57673435D01*
X78985702Y-57740778D02*
X78918358Y-57740778D01*
X78918358Y-57808122D01*
X78985702Y-57808122D01*
X78985702Y-57740778D01*
X78918358Y-57808122D01*
X78345938Y-57168358D02*
X78379610Y-57269374D01*
X78514297Y-57404061D01*
X78615312Y-57437732D01*
X78716328Y-57404061D01*
X78985702Y-57134687D01*
X79019374Y-57033671D01*
X78985702Y-56932656D01*
X78851015Y-56797969D01*
X78750000Y-56764297D01*
X78648984Y-56797969D01*
X78581641Y-56865312D01*
X78851015Y-57269374D01*
X77672503Y-56562267D02*
X78042893Y-56191877D01*
X78143908Y-56158206D01*
X78244923Y-56191877D01*
X78379610Y-56326564D01*
X78413282Y-56427580D01*
X77706175Y-56528595D02*
X77739847Y-56629610D01*
X77908206Y-56797969D01*
X78009221Y-56831641D01*
X78110236Y-56797969D01*
X78177580Y-56730625D01*
X78211251Y-56629610D01*
X78177580Y-56528595D01*
X78009221Y-56360236D01*
X77975549Y-56259221D01*
X77335786Y-56225549D02*
X77807190Y-55754145D01*
X77672503Y-55888832D02*
X77706175Y-55787816D01*
X77706175Y-55720473D01*
X77672503Y-55619458D01*
X77605160Y-55552114D01*
X77470473Y-55417427D02*
X77201099Y-55148053D01*
X77605160Y-55080710D02*
X76999068Y-55686801D01*
X76898053Y-55720473D01*
X76797038Y-55686801D01*
X76729694Y-55619458D01*
X76493992Y-55383755D02*
X77201099Y-54676649D01*
X76190946Y-55080710D02*
X76561336Y-54710320D01*
X76662351Y-54676649D01*
X76763366Y-54710320D01*
X76864381Y-54811336D01*
X76898053Y-54912351D01*
X76898053Y-54979694D01*
X80779526Y-57601946D02*
X80813198Y-57702961D01*
X80947885Y-57837648D01*
X81048900Y-57871320D01*
X81116244Y-57871320D01*
X81217259Y-57837648D01*
X81419289Y-57635618D01*
X81452961Y-57534602D01*
X81452961Y-57467259D01*
X81419289Y-57366244D01*
X81284602Y-57231557D01*
X81183587Y-57197885D01*
X80442809Y-57332572D02*
X80914213Y-56861167D01*
X80779526Y-56995854D02*
X80813198Y-56894839D01*
X80813198Y-56827496D01*
X80779526Y-56726480D01*
X80712183Y-56659137D01*
X80005076Y-56894839D02*
X80476480Y-56423435D01*
X80712183Y-56187732D02*
X80712183Y-56255076D01*
X80644839Y-56255076D01*
X80644839Y-56187732D01*
X80712183Y-56187732D01*
X80644839Y-56255076D01*
X80240778Y-56187732D02*
X79971404Y-55918358D01*
X80375465Y-55851015D02*
X79769374Y-56457106D01*
X79668358Y-56490778D01*
X79567343Y-56457106D01*
X79499999Y-56389763D01*
X79264297Y-56154061D02*
X79971404Y-55446954D01*
X79702030Y-55716328D02*
X79668358Y-55615312D01*
X79533671Y-55480625D01*
X79432656Y-55446954D01*
X79365312Y-55446954D01*
X79264297Y-55480625D01*
X79062267Y-55682656D01*
X79028595Y-55783671D01*
X79028595Y-55851015D01*
X79062267Y-55952030D01*
X79196954Y-56086717D01*
X79297969Y-56120389D01*
X78624534Y-55514297D02*
X79095938Y-55042893D01*
X79331641Y-54807190D02*
X79331641Y-54874534D01*
X79264297Y-54874534D01*
X79264297Y-54807190D01*
X79331641Y-54807190D01*
X79264297Y-54874534D01*
X78860236Y-54807190D02*
X78590862Y-54537816D01*
X78994923Y-54470473D02*
X78388832Y-55076564D01*
X78287816Y-55110236D01*
X78186801Y-55076564D01*
X78119458Y-55009221D01*
X77782740Y-53999068D02*
X77850084Y-53999068D01*
X77951099Y-54032740D01*
X78018442Y-54100084D01*
X78052114Y-54201099D01*
X78052114Y-54268442D01*
X78018442Y-54369458D01*
X77951099Y-54436801D01*
X77850084Y-54470473D01*
X77782740Y-54470473D01*
X77681725Y-54436801D01*
X77614381Y-54369458D01*
X77580710Y-54268442D01*
X77580710Y-54201099D01*
X77850084Y-53931725D02*
X77580710Y-54201099D01*
X77513366Y-54201099D01*
X77479694Y-54167427D01*
X77446023Y-54066412D01*
X77479694Y-53965397D01*
X77648053Y-53797038D01*
X77816412Y-53763366D01*
X77984771Y-53797038D01*
X78153129Y-53898053D01*
X78254145Y-54066412D01*
X78287816Y-54234771D01*
X78254145Y-54403129D01*
X78153129Y-54571488D01*
X77984771Y-54672503D01*
X77816412Y-54706175D01*
X77648053Y-54672503D01*
X77479694Y-54571488D01*
X77378679Y-54403129D01*
X77345007Y-54234771D01*
D12*
X80385714Y-78747619D02*
X80909523Y-78747619D01*
X80909523Y-77647619D01*
X80019047Y-78747619D02*
X80019047Y-78014285D01*
X80019047Y-77647619D02*
X80071428Y-77700000D01*
X80019047Y-77752380D01*
X79966666Y-77700000D01*
X80019047Y-77647619D01*
X80019047Y-77752380D01*
X79023809Y-78695238D02*
X79128571Y-78747619D01*
X79338095Y-78747619D01*
X79442857Y-78695238D01*
X79495238Y-78642857D01*
X79547619Y-78538095D01*
X79547619Y-78223809D01*
X79495238Y-78119047D01*
X79442857Y-78066666D01*
X79338095Y-78014285D01*
X79128571Y-78014285D01*
X79023809Y-78066666D01*
X78552380Y-78747619D02*
X78552380Y-77647619D01*
X78080952Y-78747619D02*
X78080952Y-78171428D01*
X78133333Y-78066666D01*
X78238095Y-78014285D01*
X78395238Y-78014285D01*
X78500000Y-78066666D01*
X78552380Y-78119047D01*
X77714285Y-78014285D02*
X77295238Y-78014285D01*
X77557142Y-77647619D02*
X77557142Y-78590476D01*
X77504761Y-78695238D01*
X77400000Y-78747619D01*
X77295238Y-78747619D01*
X76509523Y-78695238D02*
X76614285Y-78747619D01*
X76823809Y-78747619D01*
X76928571Y-78695238D01*
X76980952Y-78590476D01*
X76980952Y-78171428D01*
X76928571Y-78066666D01*
X76823809Y-78014285D01*
X76614285Y-78014285D01*
X76509523Y-78066666D01*
X76457142Y-78171428D01*
X76457142Y-78276190D01*
X76980952Y-78380952D01*
X75985714Y-78014285D02*
X75985714Y-78747619D01*
X75985714Y-78119047D02*
X75933333Y-78066666D01*
X75828571Y-78014285D01*
X75671428Y-78014285D01*
X75566666Y-78066666D01*
X75514285Y-78171428D01*
X75514285Y-78747619D01*
X74990476Y-78014285D02*
X74990476Y-79114285D01*
X74990476Y-78066666D02*
X74885714Y-78014285D01*
X74676190Y-78014285D01*
X74571428Y-78066666D01*
X74519047Y-78119047D01*
X74466666Y-78223809D01*
X74466666Y-78538095D01*
X74519047Y-78642857D01*
X74571428Y-78695238D01*
X74676190Y-78747619D01*
X74885714Y-78747619D01*
X74990476Y-78695238D01*
X73995238Y-78747619D02*
X73995238Y-78014285D01*
X73995238Y-78223809D02*
X73942857Y-78119047D01*
X73890476Y-78066666D01*
X73785714Y-78014285D01*
X73680952Y-78014285D01*
X73157142Y-78747619D02*
X73261904Y-78695238D01*
X73314285Y-78642857D01*
X73366666Y-78538095D01*
X73366666Y-78223809D01*
X73314285Y-78119047D01*
X73261904Y-78066666D01*
X73157142Y-78014285D01*
X73000000Y-78014285D01*
X72895238Y-78066666D01*
X72842857Y-78119047D01*
X72790476Y-78223809D01*
X72790476Y-78538095D01*
X72842857Y-78642857D01*
X72895238Y-78695238D01*
X73000000Y-78747619D01*
X73157142Y-78747619D01*
X71847619Y-78014285D02*
X71847619Y-78904761D01*
X71900000Y-79009523D01*
X71952380Y-79061904D01*
X72057142Y-79114285D01*
X72214285Y-79114285D01*
X72319047Y-79061904D01*
X71847619Y-78695238D02*
X71952380Y-78747619D01*
X72161904Y-78747619D01*
X72266666Y-78695238D01*
X72319047Y-78642857D01*
X72371428Y-78538095D01*
X72371428Y-78223809D01*
X72319047Y-78119047D01*
X72266666Y-78066666D01*
X72161904Y-78014285D01*
X71952380Y-78014285D01*
X71847619Y-78066666D01*
X70485714Y-78747619D02*
X70485714Y-78014285D01*
X70485714Y-78223809D02*
X70433333Y-78119047D01*
X70380952Y-78066666D01*
X70276190Y-78014285D01*
X70171428Y-78014285D01*
X69385714Y-78695238D02*
X69490476Y-78747619D01*
X69700000Y-78747619D01*
X69804761Y-78695238D01*
X69857142Y-78590476D01*
X69857142Y-78171428D01*
X69804761Y-78066666D01*
X69700000Y-78014285D01*
X69490476Y-78014285D01*
X69385714Y-78066666D01*
X69333333Y-78171428D01*
X69333333Y-78276190D01*
X69857142Y-78380952D01*
X68966666Y-78014285D02*
X68704761Y-78747619D01*
X68442857Y-78014285D01*
X67238095Y-77752380D02*
X67185714Y-77700000D01*
X67080952Y-77647619D01*
X66819047Y-77647619D01*
X66714285Y-77700000D01*
X66661904Y-77752380D01*
X66609523Y-77857142D01*
X66609523Y-77961904D01*
X66661904Y-78119047D01*
X67290476Y-78747619D01*
X66609523Y-78747619D01*
X66138095Y-78642857D02*
X66085714Y-78695238D01*
X66138095Y-78747619D01*
X66190476Y-78695238D01*
X66138095Y-78642857D01*
X66138095Y-78747619D01*
X65404761Y-77647619D02*
X65300000Y-77647619D01*
X65195238Y-77700000D01*
X65142857Y-77752380D01*
X65090476Y-77857142D01*
X65038095Y-78066666D01*
X65038095Y-78328571D01*
X65090476Y-78538095D01*
X65142857Y-78642857D01*
X65195238Y-78695238D01*
X65300000Y-78747619D01*
X65404761Y-78747619D01*
X65509523Y-78695238D01*
X65561904Y-78642857D01*
X65614285Y-78538095D01*
X65666666Y-78328571D01*
X65666666Y-78066666D01*
X65614285Y-77857142D01*
X65561904Y-77752380D01*
X65509523Y-77700000D01*
X65404761Y-77647619D01*
D11*
X92238095Y-63952380D02*
X92238095Y-62952380D01*
X92000000Y-62952380D01*
X91857142Y-63000000D01*
X91761904Y-63095238D01*
X91714285Y-63190476D01*
X91666666Y-63380952D01*
X91666666Y-63523809D01*
X91714285Y-63714285D01*
X91761904Y-63809523D01*
X91857142Y-63904761D01*
X92000000Y-63952380D01*
X92238095Y-63952380D01*
X91333333Y-62952380D02*
X90666666Y-62952380D01*
X91095238Y-63952380D01*
X92238095Y-61202380D02*
X92238095Y-60202380D01*
X92000000Y-60202380D01*
X91857142Y-60250000D01*
X91761904Y-60345238D01*
X91714285Y-60440476D01*
X91666666Y-60630952D01*
X91666666Y-60773809D01*
X91714285Y-60964285D01*
X91761904Y-61059523D01*
X91857142Y-61154761D01*
X92000000Y-61202380D01*
X92238095Y-61202380D01*
X90809523Y-60202380D02*
X91000000Y-60202380D01*
X91095238Y-60250000D01*
X91142857Y-60297619D01*
X91238095Y-60440476D01*
X91285714Y-60630952D01*
X91285714Y-61011904D01*
X91238095Y-61107142D01*
X91190476Y-61154761D01*
X91095238Y-61202380D01*
X90904761Y-61202380D01*
X90809523Y-61154761D01*
X90761904Y-61107142D01*
X90714285Y-61011904D01*
X90714285Y-60773809D01*
X90761904Y-60678571D01*
X90809523Y-60630952D01*
X90904761Y-60583333D01*
X91095238Y-60583333D01*
X91190476Y-60630952D01*
X91238095Y-60678571D01*
X91285714Y-60773809D01*
X92238095Y-58452380D02*
X92238095Y-57452380D01*
X92000000Y-57452380D01*
X91857142Y-57500000D01*
X91761904Y-57595238D01*
X91714285Y-57690476D01*
X91666666Y-57880952D01*
X91666666Y-58023809D01*
X91714285Y-58214285D01*
X91761904Y-58309523D01*
X91857142Y-58404761D01*
X92000000Y-58452380D01*
X92238095Y-58452380D01*
X90761904Y-57452380D02*
X91238095Y-57452380D01*
X91285714Y-57928571D01*
X91238095Y-57880952D01*
X91142857Y-57833333D01*
X90904761Y-57833333D01*
X90809523Y-57880952D01*
X90761904Y-57928571D01*
X90714285Y-58023809D01*
X90714285Y-58261904D01*
X90761904Y-58357142D01*
X90809523Y-58404761D01*
X90904761Y-58452380D01*
X91142857Y-58452380D01*
X91238095Y-58404761D01*
X91285714Y-58357142D01*
X92238095Y-55702380D02*
X92238095Y-54702380D01*
X92000000Y-54702380D01*
X91857142Y-54750000D01*
X91761904Y-54845238D01*
X91714285Y-54940476D01*
X91666666Y-55130952D01*
X91666666Y-55273809D01*
X91714285Y-55464285D01*
X91761904Y-55559523D01*
X91857142Y-55654761D01*
X92000000Y-55702380D01*
X92238095Y-55702380D01*
X90809523Y-55035714D02*
X90809523Y-55702380D01*
X91047619Y-54654761D02*
X91285714Y-55369047D01*
X90666666Y-55369047D01*
X92238095Y-52952380D02*
X92238095Y-51952380D01*
X92000000Y-51952380D01*
X91857142Y-52000000D01*
X91761904Y-52095238D01*
X91714285Y-52190476D01*
X91666666Y-52380952D01*
X91666666Y-52523809D01*
X91714285Y-52714285D01*
X91761904Y-52809523D01*
X91857142Y-52904761D01*
X92000000Y-52952380D01*
X92238095Y-52952380D01*
X91333333Y-51952380D02*
X90714285Y-51952380D01*
X91047619Y-52333333D01*
X90904761Y-52333333D01*
X90809523Y-52380952D01*
X90761904Y-52428571D01*
X90714285Y-52523809D01*
X90714285Y-52761904D01*
X90761904Y-52857142D01*
X90809523Y-52904761D01*
X90904761Y-52952380D01*
X91190476Y-52952380D01*
X91285714Y-52904761D01*
X91333333Y-52857142D01*
X92238095Y-50452380D02*
X92238095Y-49452380D01*
X92000000Y-49452380D01*
X91857142Y-49500000D01*
X91761904Y-49595238D01*
X91714285Y-49690476D01*
X91666666Y-49880952D01*
X91666666Y-50023809D01*
X91714285Y-50214285D01*
X91761904Y-50309523D01*
X91857142Y-50404761D01*
X92000000Y-50452380D01*
X92238095Y-50452380D01*
X91285714Y-49547619D02*
X91238095Y-49500000D01*
X91142857Y-49452380D01*
X90904761Y-49452380D01*
X90809523Y-49500000D01*
X90761904Y-49547619D01*
X90714285Y-49642857D01*
X90714285Y-49738095D01*
X90761904Y-49880952D01*
X91333333Y-50452380D01*
X90714285Y-50452380D01*
X92238095Y-47952380D02*
X92238095Y-46952380D01*
X92000000Y-46952380D01*
X91857142Y-47000000D01*
X91761904Y-47095238D01*
X91714285Y-47190476D01*
X91666666Y-47380952D01*
X91666666Y-47523809D01*
X91714285Y-47714285D01*
X91761904Y-47809523D01*
X91857142Y-47904761D01*
X92000000Y-47952380D01*
X92238095Y-47952380D01*
X90714285Y-47952380D02*
X91285714Y-47952380D01*
X91000000Y-47952380D02*
X91000000Y-46952380D01*
X91095238Y-47095238D01*
X91190476Y-47190476D01*
X91285714Y-47238095D01*
M02*
