G04 #@! TF.GenerationSoftware,KiCad,Pcbnew,5.1.5*
G04 #@! TF.CreationDate,2020-02-06T17:38:06+01:00*
G04 #@! TF.ProjectId,lichtenprog,6c696368-7465-46e7-9072-6f672e6b6963,rev?*
G04 #@! TF.SameCoordinates,Original*
G04 #@! TF.FileFunction,Soldermask,Top*
G04 #@! TF.FilePolarity,Negative*
%FSLAX46Y46*%
G04 Gerber Fmt 4.6, Leading zero omitted, Abs format (unit mm)*
G04 Created by KiCad (PCBNEW 5.1.5) date 2020-02-06 17:38:06*
%MOMM*%
%LPD*%
G04 APERTURE LIST*
%ADD10C,0.100000*%
G04 APERTURE END LIST*
D10*
G36*
X86713674Y-77003465D02*
G01*
X86751367Y-77014899D01*
X86786103Y-77033466D01*
X86816548Y-77058452D01*
X86841534Y-77088897D01*
X86860101Y-77123633D01*
X86871535Y-77161326D01*
X86876000Y-77206661D01*
X86876000Y-78293339D01*
X86871535Y-78338674D01*
X86860101Y-78376367D01*
X86841534Y-78411103D01*
X86816548Y-78441548D01*
X86786103Y-78466534D01*
X86751367Y-78485101D01*
X86713674Y-78496535D01*
X86668339Y-78501000D01*
X85831661Y-78501000D01*
X85786326Y-78496535D01*
X85748633Y-78485101D01*
X85713897Y-78466534D01*
X85683452Y-78441548D01*
X85658466Y-78411103D01*
X85639899Y-78376367D01*
X85628465Y-78338674D01*
X85624000Y-78293339D01*
X85624000Y-77206661D01*
X85628465Y-77161326D01*
X85639899Y-77123633D01*
X85658466Y-77088897D01*
X85683452Y-77058452D01*
X85713897Y-77033466D01*
X85748633Y-77014899D01*
X85786326Y-77003465D01*
X85831661Y-76999000D01*
X86668339Y-76999000D01*
X86713674Y-77003465D01*
G37*
G36*
X84663674Y-77003465D02*
G01*
X84701367Y-77014899D01*
X84736103Y-77033466D01*
X84766548Y-77058452D01*
X84791534Y-77088897D01*
X84810101Y-77123633D01*
X84821535Y-77161326D01*
X84826000Y-77206661D01*
X84826000Y-78293339D01*
X84821535Y-78338674D01*
X84810101Y-78376367D01*
X84791534Y-78411103D01*
X84766548Y-78441548D01*
X84736103Y-78466534D01*
X84701367Y-78485101D01*
X84663674Y-78496535D01*
X84618339Y-78501000D01*
X83781661Y-78501000D01*
X83736326Y-78496535D01*
X83698633Y-78485101D01*
X83663897Y-78466534D01*
X83633452Y-78441548D01*
X83608466Y-78411103D01*
X83589899Y-78376367D01*
X83578465Y-78338674D01*
X83574000Y-78293339D01*
X83574000Y-77206661D01*
X83578465Y-77161326D01*
X83589899Y-77123633D01*
X83608466Y-77088897D01*
X83633452Y-77058452D01*
X83663897Y-77033466D01*
X83698633Y-77014899D01*
X83736326Y-77003465D01*
X83781661Y-76999000D01*
X84618339Y-76999000D01*
X84663674Y-77003465D01*
G37*
G36*
X82664499Y-77328445D02*
G01*
X82701995Y-77339820D01*
X82736554Y-77358292D01*
X82766847Y-77383153D01*
X82791708Y-77413446D01*
X82810180Y-77448005D01*
X82821555Y-77485501D01*
X82826000Y-77530638D01*
X82826000Y-78269362D01*
X82821555Y-78314499D01*
X82810180Y-78351995D01*
X82791708Y-78386554D01*
X82766847Y-78416847D01*
X82736554Y-78441708D01*
X82701995Y-78460180D01*
X82664499Y-78471555D01*
X82619362Y-78476000D01*
X81980638Y-78476000D01*
X81935501Y-78471555D01*
X81898005Y-78460180D01*
X81863446Y-78441708D01*
X81833153Y-78416847D01*
X81808292Y-78386554D01*
X81789820Y-78351995D01*
X81778445Y-78314499D01*
X81774000Y-78269362D01*
X81774000Y-77530638D01*
X81778445Y-77485501D01*
X81789820Y-77448005D01*
X81808292Y-77413446D01*
X81833153Y-77383153D01*
X81863446Y-77358292D01*
X81898005Y-77339820D01*
X81935501Y-77328445D01*
X81980638Y-77324000D01*
X82619362Y-77324000D01*
X82664499Y-77328445D01*
G37*
G36*
X80451000Y-78301000D02*
G01*
X78349000Y-78301000D01*
X78349000Y-75699000D01*
X80451000Y-75699000D01*
X80451000Y-78301000D01*
G37*
G36*
X71651000Y-78301000D02*
G01*
X69549000Y-78301000D01*
X69549000Y-75699000D01*
X71651000Y-75699000D01*
X71651000Y-78301000D01*
G37*
G36*
X82664499Y-75578445D02*
G01*
X82701995Y-75589820D01*
X82736554Y-75608292D01*
X82766847Y-75633153D01*
X82791708Y-75663446D01*
X82810180Y-75698005D01*
X82821555Y-75735501D01*
X82826000Y-75780638D01*
X82826000Y-76519362D01*
X82821555Y-76564499D01*
X82810180Y-76601995D01*
X82791708Y-76636554D01*
X82766847Y-76666847D01*
X82736554Y-76691708D01*
X82701995Y-76710180D01*
X82664499Y-76721555D01*
X82619362Y-76726000D01*
X81980638Y-76726000D01*
X81935501Y-76721555D01*
X81898005Y-76710180D01*
X81863446Y-76691708D01*
X81833153Y-76666847D01*
X81808292Y-76636554D01*
X81789820Y-76601995D01*
X81778445Y-76564499D01*
X81774000Y-76519362D01*
X81774000Y-75780638D01*
X81778445Y-75735501D01*
X81789820Y-75698005D01*
X81808292Y-75663446D01*
X81833153Y-75633153D01*
X81863446Y-75608292D01*
X81898005Y-75589820D01*
X81935501Y-75578445D01*
X81980638Y-75574000D01*
X82619362Y-75574000D01*
X82664499Y-75578445D01*
G37*
G36*
X90214499Y-74478445D02*
G01*
X90251995Y-74489820D01*
X90286554Y-74508292D01*
X90316847Y-74533153D01*
X90341708Y-74563446D01*
X90360180Y-74598005D01*
X90371555Y-74635501D01*
X90376000Y-74680638D01*
X90376000Y-75319362D01*
X90371555Y-75364499D01*
X90360180Y-75401995D01*
X90341708Y-75436554D01*
X90316847Y-75466847D01*
X90286554Y-75491708D01*
X90251995Y-75510180D01*
X90214499Y-75521555D01*
X90169362Y-75526000D01*
X89430638Y-75526000D01*
X89385501Y-75521555D01*
X89348005Y-75510180D01*
X89313446Y-75491708D01*
X89283153Y-75466847D01*
X89258292Y-75436554D01*
X89239820Y-75401995D01*
X89228445Y-75364499D01*
X89224000Y-75319362D01*
X89224000Y-74680638D01*
X89228445Y-74635501D01*
X89239820Y-74598005D01*
X89258292Y-74563446D01*
X89283153Y-74533153D01*
X89313446Y-74508292D01*
X89348005Y-74489820D01*
X89385501Y-74478445D01*
X89430638Y-74474000D01*
X90169362Y-74474000D01*
X90214499Y-74478445D01*
G37*
G36*
X88464499Y-74478445D02*
G01*
X88501995Y-74489820D01*
X88536554Y-74508292D01*
X88566847Y-74533153D01*
X88591708Y-74563446D01*
X88610180Y-74598005D01*
X88621555Y-74635501D01*
X88626000Y-74680638D01*
X88626000Y-75319362D01*
X88621555Y-75364499D01*
X88610180Y-75401995D01*
X88591708Y-75436554D01*
X88566847Y-75466847D01*
X88536554Y-75491708D01*
X88501995Y-75510180D01*
X88464499Y-75521555D01*
X88419362Y-75526000D01*
X87680638Y-75526000D01*
X87635501Y-75521555D01*
X87598005Y-75510180D01*
X87563446Y-75491708D01*
X87533153Y-75466847D01*
X87508292Y-75436554D01*
X87489820Y-75401995D01*
X87478445Y-75364499D01*
X87474000Y-75319362D01*
X87474000Y-74680638D01*
X87478445Y-74635501D01*
X87489820Y-74598005D01*
X87508292Y-74563446D01*
X87533153Y-74533153D01*
X87563446Y-74508292D01*
X87598005Y-74489820D01*
X87635501Y-74478445D01*
X87680638Y-74474000D01*
X88419362Y-74474000D01*
X88464499Y-74478445D01*
G37*
G36*
X86414499Y-74478445D02*
G01*
X86451995Y-74489820D01*
X86486554Y-74508292D01*
X86516847Y-74533153D01*
X86541708Y-74563446D01*
X86560180Y-74598005D01*
X86571555Y-74635501D01*
X86576000Y-74680638D01*
X86576000Y-75319362D01*
X86571555Y-75364499D01*
X86560180Y-75401995D01*
X86541708Y-75436554D01*
X86516847Y-75466847D01*
X86486554Y-75491708D01*
X86451995Y-75510180D01*
X86414499Y-75521555D01*
X86369362Y-75526000D01*
X85630638Y-75526000D01*
X85585501Y-75521555D01*
X85548005Y-75510180D01*
X85513446Y-75491708D01*
X85483153Y-75466847D01*
X85458292Y-75436554D01*
X85439820Y-75401995D01*
X85428445Y-75364499D01*
X85424000Y-75319362D01*
X85424000Y-74680638D01*
X85428445Y-74635501D01*
X85439820Y-74598005D01*
X85458292Y-74563446D01*
X85483153Y-74533153D01*
X85513446Y-74508292D01*
X85548005Y-74489820D01*
X85585501Y-74478445D01*
X85630638Y-74474000D01*
X86369362Y-74474000D01*
X86414499Y-74478445D01*
G37*
G36*
X84664499Y-74478445D02*
G01*
X84701995Y-74489820D01*
X84736554Y-74508292D01*
X84766847Y-74533153D01*
X84791708Y-74563446D01*
X84810180Y-74598005D01*
X84821555Y-74635501D01*
X84826000Y-74680638D01*
X84826000Y-75319362D01*
X84821555Y-75364499D01*
X84810180Y-75401995D01*
X84791708Y-75436554D01*
X84766847Y-75466847D01*
X84736554Y-75491708D01*
X84701995Y-75510180D01*
X84664499Y-75521555D01*
X84619362Y-75526000D01*
X83880638Y-75526000D01*
X83835501Y-75521555D01*
X83798005Y-75510180D01*
X83763446Y-75491708D01*
X83733153Y-75466847D01*
X83708292Y-75436554D01*
X83689820Y-75401995D01*
X83678445Y-75364499D01*
X83674000Y-75319362D01*
X83674000Y-74680638D01*
X83678445Y-74635501D01*
X83689820Y-74598005D01*
X83708292Y-74563446D01*
X83733153Y-74533153D01*
X83763446Y-74508292D01*
X83798005Y-74489820D01*
X83835501Y-74478445D01*
X83880638Y-74474000D01*
X84619362Y-74474000D01*
X84664499Y-74478445D01*
G37*
G36*
X77297740Y-73608627D02*
G01*
X77346136Y-73618253D01*
X77383902Y-73633896D01*
X77437311Y-73656019D01*
X77437312Y-73656020D01*
X77519369Y-73710848D01*
X77589152Y-73780631D01*
X77589153Y-73780633D01*
X77643981Y-73862689D01*
X77681747Y-73953865D01*
X77701000Y-74050655D01*
X77701000Y-74149345D01*
X77681747Y-74246135D01*
X77643981Y-74337311D01*
X77643980Y-74337312D01*
X77589152Y-74419369D01*
X77519369Y-74489152D01*
X77478062Y-74516752D01*
X77437311Y-74543981D01*
X77390318Y-74563446D01*
X77346136Y-74581747D01*
X77300196Y-74590885D01*
X77249345Y-74601000D01*
X77150655Y-74601000D01*
X77099804Y-74590885D01*
X77053864Y-74581747D01*
X77009682Y-74563446D01*
X76962689Y-74543981D01*
X76921938Y-74516752D01*
X76880631Y-74489152D01*
X76810848Y-74419369D01*
X76756020Y-74337312D01*
X76756019Y-74337311D01*
X76718253Y-74246135D01*
X76699000Y-74149345D01*
X76699000Y-74050655D01*
X76718253Y-73953865D01*
X76756019Y-73862689D01*
X76810847Y-73780633D01*
X76810848Y-73780631D01*
X76880631Y-73710848D01*
X76962688Y-73656020D01*
X76962689Y-73656019D01*
X77016098Y-73633896D01*
X77053864Y-73618253D01*
X77102260Y-73608627D01*
X77150655Y-73599000D01*
X77249345Y-73599000D01*
X77297740Y-73608627D01*
G37*
G36*
X72897740Y-73608627D02*
G01*
X72946136Y-73618253D01*
X72983902Y-73633896D01*
X73037311Y-73656019D01*
X73037312Y-73656020D01*
X73119369Y-73710848D01*
X73189152Y-73780631D01*
X73189153Y-73780633D01*
X73243981Y-73862689D01*
X73281747Y-73953865D01*
X73301000Y-74050655D01*
X73301000Y-74149345D01*
X73281747Y-74246135D01*
X73243981Y-74337311D01*
X73243980Y-74337312D01*
X73189152Y-74419369D01*
X73119369Y-74489152D01*
X73078062Y-74516752D01*
X73037311Y-74543981D01*
X72990318Y-74563446D01*
X72946136Y-74581747D01*
X72900196Y-74590885D01*
X72849345Y-74601000D01*
X72750655Y-74601000D01*
X72699804Y-74590885D01*
X72653864Y-74581747D01*
X72609682Y-74563446D01*
X72562689Y-74543981D01*
X72521938Y-74516752D01*
X72480631Y-74489152D01*
X72410848Y-74419369D01*
X72356020Y-74337312D01*
X72356019Y-74337311D01*
X72318253Y-74246135D01*
X72299000Y-74149345D01*
X72299000Y-74050655D01*
X72318253Y-73953865D01*
X72356019Y-73862689D01*
X72410847Y-73780633D01*
X72410848Y-73780631D01*
X72480631Y-73710848D01*
X72562688Y-73656020D01*
X72562689Y-73656019D01*
X72616098Y-73633896D01*
X72653864Y-73618253D01*
X72702260Y-73608627D01*
X72750655Y-73599000D01*
X72849345Y-73599000D01*
X72897740Y-73608627D01*
G37*
G36*
X82664499Y-72428445D02*
G01*
X82701995Y-72439820D01*
X82736554Y-72458292D01*
X82766847Y-72483153D01*
X82791708Y-72513446D01*
X82810180Y-72548005D01*
X82821555Y-72585501D01*
X82826000Y-72630638D01*
X82826000Y-73369362D01*
X82821555Y-73414499D01*
X82810180Y-73451995D01*
X82791708Y-73486554D01*
X82766847Y-73516847D01*
X82736554Y-73541708D01*
X82701995Y-73560180D01*
X82664499Y-73571555D01*
X82619362Y-73576000D01*
X81980638Y-73576000D01*
X81935501Y-73571555D01*
X81898005Y-73560180D01*
X81863446Y-73541708D01*
X81833153Y-73516847D01*
X81808292Y-73486554D01*
X81789820Y-73451995D01*
X81778445Y-73414499D01*
X81774000Y-73369362D01*
X81774000Y-72630638D01*
X81778445Y-72585501D01*
X81789820Y-72548005D01*
X81808292Y-72513446D01*
X81833153Y-72483153D01*
X81863446Y-72458292D01*
X81898005Y-72439820D01*
X81935501Y-72428445D01*
X81980638Y-72424000D01*
X82619362Y-72424000D01*
X82664499Y-72428445D01*
G37*
G36*
X85501000Y-73551000D02*
G01*
X83899000Y-73551000D01*
X83899000Y-71449000D01*
X85501000Y-71449000D01*
X85501000Y-73551000D01*
G37*
G36*
X87801000Y-73551000D02*
G01*
X86199000Y-73551000D01*
X86199000Y-71449000D01*
X87801000Y-71449000D01*
X87801000Y-73551000D01*
G37*
G36*
X90101000Y-73551000D02*
G01*
X88499000Y-73551000D01*
X88499000Y-71449000D01*
X90101000Y-71449000D01*
X90101000Y-73551000D01*
G37*
G36*
X76901000Y-72801000D02*
G01*
X73099000Y-72801000D01*
X73099000Y-70199000D01*
X76901000Y-70199000D01*
X76901000Y-72801000D01*
G37*
G36*
X80451000Y-72801000D02*
G01*
X78349000Y-72801000D01*
X78349000Y-70199000D01*
X80451000Y-70199000D01*
X80451000Y-72801000D01*
G37*
G36*
X71651000Y-72801000D02*
G01*
X69549000Y-72801000D01*
X69549000Y-70199000D01*
X71651000Y-70199000D01*
X71651000Y-72801000D01*
G37*
G36*
X82664499Y-70678445D02*
G01*
X82701995Y-70689820D01*
X82736554Y-70708292D01*
X82766847Y-70733153D01*
X82791708Y-70763446D01*
X82810180Y-70798005D01*
X82821555Y-70835501D01*
X82826000Y-70880638D01*
X82826000Y-71619362D01*
X82821555Y-71664499D01*
X82810180Y-71701995D01*
X82791708Y-71736554D01*
X82766847Y-71766847D01*
X82736554Y-71791708D01*
X82701995Y-71810180D01*
X82664499Y-71821555D01*
X82619362Y-71826000D01*
X81980638Y-71826000D01*
X81935501Y-71821555D01*
X81898005Y-71810180D01*
X81863446Y-71791708D01*
X81833153Y-71766847D01*
X81808292Y-71736554D01*
X81789820Y-71701995D01*
X81778445Y-71664499D01*
X81774000Y-71619362D01*
X81774000Y-70880638D01*
X81778445Y-70835501D01*
X81789820Y-70798005D01*
X81808292Y-70763446D01*
X81833153Y-70733153D01*
X81863446Y-70708292D01*
X81898005Y-70689820D01*
X81935501Y-70678445D01*
X81980638Y-70674000D01*
X82619362Y-70674000D01*
X82664499Y-70678445D01*
G37*
G36*
X79174354Y-67945699D02*
G01*
X79211850Y-67957074D01*
X79246409Y-67975546D01*
X79281473Y-68004322D01*
X79733114Y-68455963D01*
X79761890Y-68491027D01*
X79780362Y-68525586D01*
X79791737Y-68563082D01*
X79795577Y-68602081D01*
X79791737Y-68641080D01*
X79780362Y-68678576D01*
X79761890Y-68713135D01*
X79733114Y-68748199D01*
X79210763Y-69270550D01*
X79175699Y-69299326D01*
X79141140Y-69317798D01*
X79103644Y-69329173D01*
X79064645Y-69333013D01*
X79025646Y-69329173D01*
X78988150Y-69317798D01*
X78953591Y-69299326D01*
X78918527Y-69270550D01*
X78466886Y-68818909D01*
X78438110Y-68783845D01*
X78419638Y-68749286D01*
X78408263Y-68711790D01*
X78404423Y-68672791D01*
X78408263Y-68633792D01*
X78419638Y-68596296D01*
X78438110Y-68561737D01*
X78466886Y-68526673D01*
X78989237Y-68004322D01*
X79024301Y-67975546D01*
X79058860Y-67957074D01*
X79096356Y-67945699D01*
X79135355Y-67941859D01*
X79174354Y-67945699D01*
G37*
G36*
X76903644Y-67908263D02*
G01*
X76941140Y-67919638D01*
X76975699Y-67938110D01*
X77010763Y-67966886D01*
X77533114Y-68489237D01*
X77561890Y-68524301D01*
X77580362Y-68558860D01*
X77591737Y-68596356D01*
X77595577Y-68635355D01*
X77591737Y-68674354D01*
X77580362Y-68711850D01*
X77561890Y-68746409D01*
X77533114Y-68781473D01*
X77081473Y-69233114D01*
X77046409Y-69261890D01*
X77011850Y-69280362D01*
X76974354Y-69291737D01*
X76935355Y-69295577D01*
X76896356Y-69291737D01*
X76858860Y-69280362D01*
X76824301Y-69261890D01*
X76789237Y-69233114D01*
X76266886Y-68710763D01*
X76238110Y-68675699D01*
X76219638Y-68641140D01*
X76208263Y-68603644D01*
X76204423Y-68564645D01*
X76208263Y-68525646D01*
X76219638Y-68488150D01*
X76238110Y-68453591D01*
X76266886Y-68418527D01*
X76718527Y-67966886D01*
X76753591Y-67938110D01*
X76788150Y-67919638D01*
X76825646Y-67908263D01*
X76864645Y-67904423D01*
X76903644Y-67908263D01*
G37*
G36*
X82664499Y-67878444D02*
G01*
X82701995Y-67889819D01*
X82736554Y-67908291D01*
X82766847Y-67933152D01*
X82791708Y-67963445D01*
X82810180Y-67998004D01*
X82821555Y-68035500D01*
X82826000Y-68080637D01*
X82826000Y-68819361D01*
X82821555Y-68864498D01*
X82810180Y-68901994D01*
X82791708Y-68936553D01*
X82766847Y-68966846D01*
X82736554Y-68991707D01*
X82701995Y-69010179D01*
X82664499Y-69021554D01*
X82619362Y-69025999D01*
X81980638Y-69025999D01*
X81935501Y-69021554D01*
X81898005Y-69010179D01*
X81863446Y-68991707D01*
X81833153Y-68966846D01*
X81808292Y-68936553D01*
X81789820Y-68901994D01*
X81778445Y-68864498D01*
X81774000Y-68819361D01*
X81774000Y-68080637D01*
X81778445Y-68035500D01*
X81789820Y-67998004D01*
X81808292Y-67963445D01*
X81833153Y-67933152D01*
X81863446Y-67908291D01*
X81898005Y-67889819D01*
X81935501Y-67878444D01*
X81980638Y-67873999D01*
X82619362Y-67873999D01*
X82664499Y-67878444D01*
G37*
G36*
X80411790Y-66708263D02*
G01*
X80449286Y-66719638D01*
X80483845Y-66738110D01*
X80518909Y-66766886D01*
X80970550Y-67218527D01*
X80999326Y-67253591D01*
X81017798Y-67288150D01*
X81029173Y-67325646D01*
X81033013Y-67364645D01*
X81029173Y-67403644D01*
X81017798Y-67441140D01*
X80999326Y-67475699D01*
X80970550Y-67510763D01*
X80448199Y-68033114D01*
X80413135Y-68061890D01*
X80378576Y-68080362D01*
X80341080Y-68091737D01*
X80302081Y-68095577D01*
X80263082Y-68091737D01*
X80225586Y-68080362D01*
X80191027Y-68061890D01*
X80155963Y-68033114D01*
X79704322Y-67581473D01*
X79675546Y-67546409D01*
X79657074Y-67511850D01*
X79645699Y-67474354D01*
X79641859Y-67435355D01*
X79645699Y-67396356D01*
X79657074Y-67358860D01*
X79675546Y-67324301D01*
X79704322Y-67289237D01*
X80226673Y-66766886D01*
X80261737Y-66738110D01*
X80296296Y-66719638D01*
X80333792Y-66708263D01*
X80372791Y-66704423D01*
X80411790Y-66708263D01*
G37*
G36*
X75666208Y-66670827D02*
G01*
X75703704Y-66682202D01*
X75738263Y-66700674D01*
X75773327Y-66729450D01*
X76295678Y-67251801D01*
X76324454Y-67286865D01*
X76342926Y-67321424D01*
X76354301Y-67358920D01*
X76358141Y-67397919D01*
X76354301Y-67436918D01*
X76342926Y-67474414D01*
X76324454Y-67508973D01*
X76295678Y-67544037D01*
X75844037Y-67995678D01*
X75808973Y-68024454D01*
X75774414Y-68042926D01*
X75736918Y-68054301D01*
X75697919Y-68058141D01*
X75658920Y-68054301D01*
X75621424Y-68042926D01*
X75586865Y-68024454D01*
X75551801Y-67995678D01*
X75029450Y-67473327D01*
X75000674Y-67438263D01*
X74982202Y-67403704D01*
X74970827Y-67366208D01*
X74966987Y-67327209D01*
X74970827Y-67288210D01*
X74982202Y-67250714D01*
X75000674Y-67216155D01*
X75029450Y-67181091D01*
X75481091Y-66729450D01*
X75516155Y-66700674D01*
X75550714Y-66682202D01*
X75588210Y-66670827D01*
X75627209Y-66666987D01*
X75666208Y-66670827D01*
G37*
G36*
X82664499Y-66128444D02*
G01*
X82701995Y-66139819D01*
X82736554Y-66158291D01*
X82766847Y-66183152D01*
X82791708Y-66213445D01*
X82810180Y-66248004D01*
X82821555Y-66285500D01*
X82826000Y-66330637D01*
X82826000Y-67069361D01*
X82821555Y-67114498D01*
X82810180Y-67151994D01*
X82791708Y-67186553D01*
X82766847Y-67216846D01*
X82736554Y-67241707D01*
X82701995Y-67260179D01*
X82664499Y-67271554D01*
X82619362Y-67275999D01*
X81980638Y-67275999D01*
X81935501Y-67271554D01*
X81898005Y-67260179D01*
X81863446Y-67241707D01*
X81833153Y-67216846D01*
X81808292Y-67186553D01*
X81789820Y-67151994D01*
X81778445Y-67114498D01*
X81774000Y-67069361D01*
X81774000Y-66330637D01*
X81778445Y-66285500D01*
X81789820Y-66248004D01*
X81808292Y-66213445D01*
X81833153Y-66183152D01*
X81863446Y-66158291D01*
X81898005Y-66139819D01*
X81935501Y-66128444D01*
X81980638Y-66123999D01*
X82619362Y-66123999D01*
X82664499Y-66128444D01*
G37*
G36*
X88951000Y-67251000D02*
G01*
X85049000Y-67251000D01*
X85049000Y-65149000D01*
X88951000Y-65149000D01*
X88951000Y-67251000D01*
G37*
G36*
X80603473Y-63640040D02*
G01*
X80608147Y-63641458D01*
X80612449Y-63643757D01*
X80620988Y-63650765D01*
X81214058Y-64243835D01*
X81221066Y-64252374D01*
X81223365Y-64256676D01*
X81224783Y-64261350D01*
X81225261Y-64266205D01*
X81224783Y-64271060D01*
X81223365Y-64275734D01*
X81221066Y-64280036D01*
X81214058Y-64288575D01*
X81009896Y-64492737D01*
X81001357Y-64499745D01*
X80997055Y-64502044D01*
X80992381Y-64503462D01*
X80984179Y-64504270D01*
X80960145Y-64509051D01*
X80937507Y-64518429D01*
X80917133Y-64532044D01*
X80899806Y-64549371D01*
X80886193Y-64569746D01*
X80876816Y-64592385D01*
X80872037Y-64616412D01*
X80871229Y-64624614D01*
X80869811Y-64629288D01*
X80867512Y-64633590D01*
X80860504Y-64642129D01*
X80656342Y-64846291D01*
X80647803Y-64853299D01*
X80643501Y-64855598D01*
X80638827Y-64857016D01*
X80630625Y-64857824D01*
X80606592Y-64862606D01*
X80583953Y-64871984D01*
X80563579Y-64885598D01*
X80546253Y-64902926D01*
X80532640Y-64923300D01*
X80523263Y-64945939D01*
X80518484Y-64969965D01*
X80517676Y-64978167D01*
X80516258Y-64982841D01*
X80513959Y-64987143D01*
X80506951Y-64995682D01*
X80302789Y-65199844D01*
X80294250Y-65206852D01*
X80289948Y-65209151D01*
X80285274Y-65210569D01*
X80277072Y-65211377D01*
X80253039Y-65216159D01*
X80230400Y-65225537D01*
X80210026Y-65239151D01*
X80192700Y-65256479D01*
X80179087Y-65276853D01*
X80169710Y-65299492D01*
X80164931Y-65323519D01*
X80164123Y-65331721D01*
X80162705Y-65336395D01*
X80160406Y-65340697D01*
X80153398Y-65349236D01*
X79949236Y-65553398D01*
X79940697Y-65560406D01*
X79936395Y-65562705D01*
X79931721Y-65564123D01*
X79923519Y-65564931D01*
X79899485Y-65569712D01*
X79876847Y-65579090D01*
X79856473Y-65592705D01*
X79839146Y-65610032D01*
X79825533Y-65630407D01*
X79816156Y-65653046D01*
X79811377Y-65677072D01*
X79810569Y-65685274D01*
X79809151Y-65689948D01*
X79806852Y-65694250D01*
X79799844Y-65702789D01*
X79595682Y-65906951D01*
X79587143Y-65913959D01*
X79582841Y-65916258D01*
X79578167Y-65917676D01*
X79569965Y-65918484D01*
X79545932Y-65923266D01*
X79523293Y-65932644D01*
X79502919Y-65946258D01*
X79485593Y-65963586D01*
X79471980Y-65983960D01*
X79462603Y-66006599D01*
X79457824Y-66030625D01*
X79457016Y-66038827D01*
X79455598Y-66043501D01*
X79453299Y-66047803D01*
X79446291Y-66056342D01*
X79242129Y-66260504D01*
X79233590Y-66267512D01*
X79229288Y-66269811D01*
X79224614Y-66271229D01*
X79216412Y-66272037D01*
X79192378Y-66276818D01*
X79169740Y-66286196D01*
X79149366Y-66299811D01*
X79132039Y-66317138D01*
X79118426Y-66337513D01*
X79109049Y-66360152D01*
X79104270Y-66384179D01*
X79103462Y-66392381D01*
X79102044Y-66397055D01*
X79099745Y-66401357D01*
X79092737Y-66409896D01*
X78888575Y-66614058D01*
X78880036Y-66621066D01*
X78875734Y-66623365D01*
X78871060Y-66624783D01*
X78866205Y-66625261D01*
X78861350Y-66624783D01*
X78856676Y-66623365D01*
X78852374Y-66621066D01*
X78843835Y-66614058D01*
X78250765Y-66020988D01*
X78243757Y-66012449D01*
X78241458Y-66008147D01*
X78240040Y-66003473D01*
X78239562Y-65998618D01*
X78240040Y-65993763D01*
X78241458Y-65989089D01*
X78243757Y-65984787D01*
X78250765Y-65976248D01*
X78454927Y-65772086D01*
X78463466Y-65765078D01*
X78467768Y-65762779D01*
X78472442Y-65761361D01*
X78480644Y-65760553D01*
X78504678Y-65755772D01*
X78527316Y-65746394D01*
X78547690Y-65732779D01*
X78565017Y-65715452D01*
X78578630Y-65695077D01*
X78588007Y-65672438D01*
X78592786Y-65648411D01*
X78593594Y-65640209D01*
X78595012Y-65635535D01*
X78597311Y-65631233D01*
X78604319Y-65622694D01*
X78808481Y-65418532D01*
X78817020Y-65411524D01*
X78821322Y-65409225D01*
X78825996Y-65407807D01*
X78834198Y-65406999D01*
X78858231Y-65402217D01*
X78880870Y-65392839D01*
X78901244Y-65379225D01*
X78918570Y-65361897D01*
X78932183Y-65341523D01*
X78941560Y-65318884D01*
X78946339Y-65294858D01*
X78947147Y-65286656D01*
X78948565Y-65281982D01*
X78950864Y-65277680D01*
X78957872Y-65269141D01*
X79162034Y-65064979D01*
X79170573Y-65057971D01*
X79174875Y-65055672D01*
X79179549Y-65054254D01*
X79187751Y-65053446D01*
X79211785Y-65048665D01*
X79234423Y-65039287D01*
X79254797Y-65025672D01*
X79272124Y-65008345D01*
X79285737Y-64987970D01*
X79295114Y-64965331D01*
X79299893Y-64941305D01*
X79300701Y-64933103D01*
X79302119Y-64928429D01*
X79304418Y-64924127D01*
X79311426Y-64915588D01*
X79515588Y-64711426D01*
X79524127Y-64704418D01*
X79528429Y-64702119D01*
X79533103Y-64700701D01*
X79541305Y-64699893D01*
X79565338Y-64695111D01*
X79587977Y-64685733D01*
X79608351Y-64672119D01*
X79625677Y-64654791D01*
X79639290Y-64634417D01*
X79648667Y-64611778D01*
X79653446Y-64587751D01*
X79654254Y-64579549D01*
X79655672Y-64574875D01*
X79657971Y-64570573D01*
X79664979Y-64562034D01*
X79869141Y-64357872D01*
X79877680Y-64350864D01*
X79881982Y-64348565D01*
X79886656Y-64347147D01*
X79894858Y-64346339D01*
X79918891Y-64341557D01*
X79941530Y-64332179D01*
X79961904Y-64318565D01*
X79979230Y-64301237D01*
X79992843Y-64280863D01*
X80002220Y-64258224D01*
X80006999Y-64234198D01*
X80007807Y-64225996D01*
X80009225Y-64221322D01*
X80011524Y-64217020D01*
X80018532Y-64208481D01*
X80222694Y-64004319D01*
X80231233Y-63997311D01*
X80235535Y-63995012D01*
X80240209Y-63993594D01*
X80248411Y-63992786D01*
X80272445Y-63988005D01*
X80295083Y-63978627D01*
X80315457Y-63965012D01*
X80332784Y-63947685D01*
X80346397Y-63927310D01*
X80355774Y-63904671D01*
X80360553Y-63880644D01*
X80361361Y-63872442D01*
X80362779Y-63867768D01*
X80365078Y-63863466D01*
X80372086Y-63854927D01*
X80576248Y-63650765D01*
X80584787Y-63643757D01*
X80589089Y-63641458D01*
X80593763Y-63640040D01*
X80598618Y-63639562D01*
X80603473Y-63640040D01*
G37*
G36*
X75406237Y-63640040D02*
G01*
X75410911Y-63641458D01*
X75415213Y-63643757D01*
X75423752Y-63650765D01*
X75627914Y-63854927D01*
X75634922Y-63863466D01*
X75637221Y-63867768D01*
X75638639Y-63872442D01*
X75639447Y-63880644D01*
X75644228Y-63904678D01*
X75653606Y-63927316D01*
X75667221Y-63947690D01*
X75684548Y-63965017D01*
X75704923Y-63978630D01*
X75727562Y-63988007D01*
X75751589Y-63992786D01*
X75759791Y-63993594D01*
X75764465Y-63995012D01*
X75768767Y-63997311D01*
X75777306Y-64004319D01*
X75981468Y-64208481D01*
X75988476Y-64217020D01*
X75990775Y-64221322D01*
X75992193Y-64225996D01*
X75993001Y-64234198D01*
X75997783Y-64258231D01*
X76007161Y-64280870D01*
X76020775Y-64301244D01*
X76038103Y-64318570D01*
X76058477Y-64332183D01*
X76081116Y-64341560D01*
X76105142Y-64346339D01*
X76113344Y-64347147D01*
X76118018Y-64348565D01*
X76122320Y-64350864D01*
X76130859Y-64357872D01*
X76335021Y-64562034D01*
X76342029Y-64570573D01*
X76344328Y-64574875D01*
X76345746Y-64579549D01*
X76346554Y-64587751D01*
X76351335Y-64611785D01*
X76360713Y-64634423D01*
X76374328Y-64654797D01*
X76391655Y-64672124D01*
X76412030Y-64685737D01*
X76434669Y-64695114D01*
X76458695Y-64699893D01*
X76466897Y-64700701D01*
X76471571Y-64702119D01*
X76475873Y-64704418D01*
X76484412Y-64711426D01*
X76688574Y-64915588D01*
X76695582Y-64924127D01*
X76697881Y-64928429D01*
X76699299Y-64933103D01*
X76700107Y-64941305D01*
X76704889Y-64965338D01*
X76714267Y-64987977D01*
X76727881Y-65008351D01*
X76745209Y-65025677D01*
X76765583Y-65039290D01*
X76788222Y-65048667D01*
X76812249Y-65053446D01*
X76820451Y-65054254D01*
X76825125Y-65055672D01*
X76829427Y-65057971D01*
X76837966Y-65064979D01*
X77042128Y-65269141D01*
X77049136Y-65277680D01*
X77051435Y-65281982D01*
X77052853Y-65286656D01*
X77053661Y-65294858D01*
X77058443Y-65318891D01*
X77067821Y-65341530D01*
X77081435Y-65361904D01*
X77098763Y-65379230D01*
X77119137Y-65392843D01*
X77141776Y-65402220D01*
X77165802Y-65406999D01*
X77174004Y-65407807D01*
X77178678Y-65409225D01*
X77182980Y-65411524D01*
X77191519Y-65418532D01*
X77395681Y-65622694D01*
X77402689Y-65631233D01*
X77404988Y-65635535D01*
X77406406Y-65640209D01*
X77407214Y-65648411D01*
X77411995Y-65672445D01*
X77421373Y-65695083D01*
X77434988Y-65715457D01*
X77452315Y-65732784D01*
X77472690Y-65746397D01*
X77495329Y-65755774D01*
X77519356Y-65760553D01*
X77527558Y-65761361D01*
X77532232Y-65762779D01*
X77536534Y-65765078D01*
X77545073Y-65772086D01*
X77749235Y-65976248D01*
X77756243Y-65984787D01*
X77758542Y-65989089D01*
X77759960Y-65993763D01*
X77760438Y-65998618D01*
X77759960Y-66003473D01*
X77758542Y-66008147D01*
X77756243Y-66012449D01*
X77749235Y-66020988D01*
X77156165Y-66614058D01*
X77147626Y-66621066D01*
X77143324Y-66623365D01*
X77138650Y-66624783D01*
X77133795Y-66625261D01*
X77128940Y-66624783D01*
X77124266Y-66623365D01*
X77119964Y-66621066D01*
X77111425Y-66614058D01*
X76907263Y-66409896D01*
X76900255Y-66401357D01*
X76897956Y-66397055D01*
X76896538Y-66392381D01*
X76895730Y-66384179D01*
X76890949Y-66360145D01*
X76881571Y-66337507D01*
X76867956Y-66317133D01*
X76850629Y-66299806D01*
X76830254Y-66286193D01*
X76807615Y-66276816D01*
X76783588Y-66272037D01*
X76775386Y-66271229D01*
X76770712Y-66269811D01*
X76766410Y-66267512D01*
X76757871Y-66260504D01*
X76553709Y-66056342D01*
X76546701Y-66047803D01*
X76544402Y-66043501D01*
X76542984Y-66038827D01*
X76542176Y-66030625D01*
X76537394Y-66006592D01*
X76528016Y-65983953D01*
X76514402Y-65963579D01*
X76497074Y-65946253D01*
X76476700Y-65932640D01*
X76454061Y-65923263D01*
X76430035Y-65918484D01*
X76421833Y-65917676D01*
X76417159Y-65916258D01*
X76412857Y-65913959D01*
X76404318Y-65906951D01*
X76200156Y-65702789D01*
X76193148Y-65694250D01*
X76190849Y-65689948D01*
X76189431Y-65685274D01*
X76188623Y-65677072D01*
X76183841Y-65653039D01*
X76174463Y-65630400D01*
X76160849Y-65610026D01*
X76143521Y-65592700D01*
X76123147Y-65579087D01*
X76100508Y-65569710D01*
X76076481Y-65564931D01*
X76068279Y-65564123D01*
X76063605Y-65562705D01*
X76059303Y-65560406D01*
X76050764Y-65553398D01*
X75846602Y-65349236D01*
X75839594Y-65340697D01*
X75837295Y-65336395D01*
X75835877Y-65331721D01*
X75835069Y-65323519D01*
X75830288Y-65299485D01*
X75820910Y-65276847D01*
X75807295Y-65256473D01*
X75789968Y-65239146D01*
X75769593Y-65225533D01*
X75746954Y-65216156D01*
X75722928Y-65211377D01*
X75714726Y-65210569D01*
X75710052Y-65209151D01*
X75705750Y-65206852D01*
X75697211Y-65199844D01*
X75493049Y-64995682D01*
X75486041Y-64987143D01*
X75483742Y-64982841D01*
X75482324Y-64978167D01*
X75481516Y-64969965D01*
X75476734Y-64945932D01*
X75467356Y-64923293D01*
X75453742Y-64902919D01*
X75436414Y-64885593D01*
X75416040Y-64871980D01*
X75393401Y-64862603D01*
X75369375Y-64857824D01*
X75361173Y-64857016D01*
X75356499Y-64855598D01*
X75352197Y-64853299D01*
X75343658Y-64846291D01*
X75139496Y-64642129D01*
X75132488Y-64633590D01*
X75130189Y-64629288D01*
X75128771Y-64624614D01*
X75127963Y-64616412D01*
X75123182Y-64592378D01*
X75113804Y-64569740D01*
X75100189Y-64549366D01*
X75082862Y-64532039D01*
X75062487Y-64518426D01*
X75039848Y-64509049D01*
X75015821Y-64504270D01*
X75007619Y-64503462D01*
X75002945Y-64502044D01*
X74998643Y-64499745D01*
X74990104Y-64492737D01*
X74785942Y-64288575D01*
X74778934Y-64280036D01*
X74776635Y-64275734D01*
X74775217Y-64271060D01*
X74774739Y-64266205D01*
X74775217Y-64261350D01*
X74776635Y-64256676D01*
X74778934Y-64252374D01*
X74785942Y-64243835D01*
X75379012Y-63650765D01*
X75387551Y-63643757D01*
X75391853Y-63641458D01*
X75396527Y-63640040D01*
X75401382Y-63639562D01*
X75406237Y-63640040D01*
G37*
G36*
X78029394Y-61025224D02*
G01*
X78057657Y-61033798D01*
X78083704Y-61047721D01*
X78111303Y-61070370D01*
X80329630Y-63288697D01*
X80352279Y-63316296D01*
X80366202Y-63342343D01*
X80374776Y-63370606D01*
X80377670Y-63400000D01*
X80374776Y-63429394D01*
X80366202Y-63457657D01*
X80352279Y-63483704D01*
X80329630Y-63511303D01*
X78111303Y-65729630D01*
X78083704Y-65752279D01*
X78057657Y-65766202D01*
X78029394Y-65774776D01*
X78000000Y-65777670D01*
X77970606Y-65774776D01*
X77942343Y-65766202D01*
X77916296Y-65752279D01*
X77888697Y-65729630D01*
X75670370Y-63511303D01*
X75647721Y-63483704D01*
X75633798Y-63457657D01*
X75625224Y-63429394D01*
X75622330Y-63400000D01*
X75625224Y-63370606D01*
X75633798Y-63342343D01*
X75647721Y-63316296D01*
X75670370Y-63288697D01*
X77888697Y-61070370D01*
X77916296Y-61047721D01*
X77942343Y-61033798D01*
X77970606Y-61025224D01*
X78000000Y-61022330D01*
X78029394Y-61025224D01*
G37*
G36*
X89901000Y-63241000D02*
G01*
X88099000Y-63241000D01*
X88099000Y-61439000D01*
X89901000Y-61439000D01*
X89901000Y-63241000D01*
G37*
G36*
X78871060Y-60175217D02*
G01*
X78875734Y-60176635D01*
X78880036Y-60178934D01*
X78888575Y-60185942D01*
X79092737Y-60390104D01*
X79099745Y-60398643D01*
X79102044Y-60402945D01*
X79103462Y-60407619D01*
X79104270Y-60415821D01*
X79109051Y-60439855D01*
X79118429Y-60462493D01*
X79132044Y-60482867D01*
X79149371Y-60500194D01*
X79169746Y-60513807D01*
X79192385Y-60523184D01*
X79216412Y-60527963D01*
X79224614Y-60528771D01*
X79229288Y-60530189D01*
X79233590Y-60532488D01*
X79242129Y-60539496D01*
X79446291Y-60743658D01*
X79453299Y-60752197D01*
X79455598Y-60756499D01*
X79457016Y-60761173D01*
X79457824Y-60769375D01*
X79462606Y-60793408D01*
X79471984Y-60816047D01*
X79485598Y-60836421D01*
X79502926Y-60853747D01*
X79523300Y-60867360D01*
X79545939Y-60876737D01*
X79569965Y-60881516D01*
X79578167Y-60882324D01*
X79582841Y-60883742D01*
X79587143Y-60886041D01*
X79595682Y-60893049D01*
X79799844Y-61097211D01*
X79806852Y-61105750D01*
X79809151Y-61110052D01*
X79810569Y-61114726D01*
X79811377Y-61122928D01*
X79816159Y-61146961D01*
X79825537Y-61169600D01*
X79839151Y-61189974D01*
X79856479Y-61207300D01*
X79876853Y-61220913D01*
X79899492Y-61230290D01*
X79923519Y-61235069D01*
X79931721Y-61235877D01*
X79936395Y-61237295D01*
X79940697Y-61239594D01*
X79949236Y-61246602D01*
X80153398Y-61450764D01*
X80160406Y-61459303D01*
X80162705Y-61463605D01*
X80164123Y-61468279D01*
X80164931Y-61476481D01*
X80169712Y-61500515D01*
X80179090Y-61523153D01*
X80192705Y-61543527D01*
X80210032Y-61560854D01*
X80230407Y-61574467D01*
X80253046Y-61583844D01*
X80277072Y-61588623D01*
X80285274Y-61589431D01*
X80289948Y-61590849D01*
X80294250Y-61593148D01*
X80302789Y-61600156D01*
X80506951Y-61804318D01*
X80513959Y-61812857D01*
X80516258Y-61817159D01*
X80517676Y-61821833D01*
X80518484Y-61830035D01*
X80523266Y-61854068D01*
X80532644Y-61876707D01*
X80546258Y-61897081D01*
X80563586Y-61914407D01*
X80583960Y-61928020D01*
X80606599Y-61937397D01*
X80630625Y-61942176D01*
X80638827Y-61942984D01*
X80643501Y-61944402D01*
X80647803Y-61946701D01*
X80656342Y-61953709D01*
X80860504Y-62157871D01*
X80867512Y-62166410D01*
X80869811Y-62170712D01*
X80871229Y-62175386D01*
X80872037Y-62183588D01*
X80876818Y-62207622D01*
X80886196Y-62230260D01*
X80899811Y-62250634D01*
X80917138Y-62267961D01*
X80937513Y-62281574D01*
X80960152Y-62290951D01*
X80984179Y-62295730D01*
X80992381Y-62296538D01*
X80997055Y-62297956D01*
X81001357Y-62300255D01*
X81009896Y-62307263D01*
X81214058Y-62511425D01*
X81221066Y-62519964D01*
X81223365Y-62524266D01*
X81224783Y-62528940D01*
X81225261Y-62533795D01*
X81224783Y-62538650D01*
X81223365Y-62543324D01*
X81221066Y-62547626D01*
X81214058Y-62556165D01*
X80620988Y-63149235D01*
X80612449Y-63156243D01*
X80608147Y-63158542D01*
X80603473Y-63159960D01*
X80598618Y-63160438D01*
X80593763Y-63159960D01*
X80589089Y-63158542D01*
X80584787Y-63156243D01*
X80576248Y-63149235D01*
X80372086Y-62945073D01*
X80365078Y-62936534D01*
X80362779Y-62932232D01*
X80361361Y-62927558D01*
X80360553Y-62919356D01*
X80355772Y-62895322D01*
X80346394Y-62872684D01*
X80332779Y-62852310D01*
X80315452Y-62834983D01*
X80295077Y-62821370D01*
X80272438Y-62811993D01*
X80248411Y-62807214D01*
X80240209Y-62806406D01*
X80235535Y-62804988D01*
X80231233Y-62802689D01*
X80222694Y-62795681D01*
X80018532Y-62591519D01*
X80011524Y-62582980D01*
X80009225Y-62578678D01*
X80007807Y-62574004D01*
X80006999Y-62565802D01*
X80002217Y-62541769D01*
X79992839Y-62519130D01*
X79979225Y-62498756D01*
X79961897Y-62481430D01*
X79941523Y-62467817D01*
X79918884Y-62458440D01*
X79894858Y-62453661D01*
X79886656Y-62452853D01*
X79881982Y-62451435D01*
X79877680Y-62449136D01*
X79869141Y-62442128D01*
X79664979Y-62237966D01*
X79657971Y-62229427D01*
X79655672Y-62225125D01*
X79654254Y-62220451D01*
X79653446Y-62212249D01*
X79648665Y-62188215D01*
X79639287Y-62165577D01*
X79625672Y-62145203D01*
X79608345Y-62127876D01*
X79587970Y-62114263D01*
X79565331Y-62104886D01*
X79541305Y-62100107D01*
X79533103Y-62099299D01*
X79528429Y-62097881D01*
X79524127Y-62095582D01*
X79515588Y-62088574D01*
X79311426Y-61884412D01*
X79304418Y-61875873D01*
X79302119Y-61871571D01*
X79300701Y-61866897D01*
X79299893Y-61858695D01*
X79295111Y-61834662D01*
X79285733Y-61812023D01*
X79272119Y-61791649D01*
X79254791Y-61774323D01*
X79234417Y-61760710D01*
X79211778Y-61751333D01*
X79187751Y-61746554D01*
X79179549Y-61745746D01*
X79174875Y-61744328D01*
X79170573Y-61742029D01*
X79162034Y-61735021D01*
X78957872Y-61530859D01*
X78950864Y-61522320D01*
X78948565Y-61518018D01*
X78947147Y-61513344D01*
X78946339Y-61505142D01*
X78941557Y-61481109D01*
X78932179Y-61458470D01*
X78918565Y-61438096D01*
X78901237Y-61420770D01*
X78880863Y-61407157D01*
X78858224Y-61397780D01*
X78834198Y-61393001D01*
X78825996Y-61392193D01*
X78821322Y-61390775D01*
X78817020Y-61388476D01*
X78808481Y-61381468D01*
X78604319Y-61177306D01*
X78597311Y-61168767D01*
X78595012Y-61164465D01*
X78593594Y-61159791D01*
X78592786Y-61151589D01*
X78588005Y-61127555D01*
X78578627Y-61104917D01*
X78565012Y-61084543D01*
X78547685Y-61067216D01*
X78527310Y-61053603D01*
X78504671Y-61044226D01*
X78480644Y-61039447D01*
X78472442Y-61038639D01*
X78467768Y-61037221D01*
X78463466Y-61034922D01*
X78454927Y-61027914D01*
X78250765Y-60823752D01*
X78243757Y-60815213D01*
X78241458Y-60810911D01*
X78240040Y-60806237D01*
X78239562Y-60801382D01*
X78240040Y-60796527D01*
X78241458Y-60791853D01*
X78243757Y-60787551D01*
X78250765Y-60779012D01*
X78843835Y-60185942D01*
X78852374Y-60178934D01*
X78856676Y-60176635D01*
X78861350Y-60175217D01*
X78866205Y-60174739D01*
X78871060Y-60175217D01*
G37*
G36*
X77138650Y-60175217D02*
G01*
X77143324Y-60176635D01*
X77147626Y-60178934D01*
X77156165Y-60185942D01*
X77749235Y-60779012D01*
X77756243Y-60787551D01*
X77758542Y-60791853D01*
X77759960Y-60796527D01*
X77760438Y-60801382D01*
X77759960Y-60806237D01*
X77758542Y-60810911D01*
X77756243Y-60815213D01*
X77749235Y-60823752D01*
X77545073Y-61027914D01*
X77536534Y-61034922D01*
X77532232Y-61037221D01*
X77527558Y-61038639D01*
X77519356Y-61039447D01*
X77495322Y-61044228D01*
X77472684Y-61053606D01*
X77452310Y-61067221D01*
X77434983Y-61084548D01*
X77421370Y-61104923D01*
X77411993Y-61127562D01*
X77407214Y-61151589D01*
X77406406Y-61159791D01*
X77404988Y-61164465D01*
X77402689Y-61168767D01*
X77395681Y-61177306D01*
X77191519Y-61381468D01*
X77182980Y-61388476D01*
X77178678Y-61390775D01*
X77174004Y-61392193D01*
X77165802Y-61393001D01*
X77141769Y-61397783D01*
X77119130Y-61407161D01*
X77098756Y-61420775D01*
X77081430Y-61438103D01*
X77067817Y-61458477D01*
X77058440Y-61481116D01*
X77053661Y-61505142D01*
X77052853Y-61513344D01*
X77051435Y-61518018D01*
X77049136Y-61522320D01*
X77042128Y-61530859D01*
X76837966Y-61735021D01*
X76829427Y-61742029D01*
X76825125Y-61744328D01*
X76820451Y-61745746D01*
X76812249Y-61746554D01*
X76788215Y-61751335D01*
X76765577Y-61760713D01*
X76745203Y-61774328D01*
X76727876Y-61791655D01*
X76714263Y-61812030D01*
X76704886Y-61834669D01*
X76700107Y-61858695D01*
X76699299Y-61866897D01*
X76697881Y-61871571D01*
X76695582Y-61875873D01*
X76688574Y-61884412D01*
X76484412Y-62088574D01*
X76475873Y-62095582D01*
X76471571Y-62097881D01*
X76466897Y-62099299D01*
X76458695Y-62100107D01*
X76434662Y-62104889D01*
X76412023Y-62114267D01*
X76391649Y-62127881D01*
X76374323Y-62145209D01*
X76360710Y-62165583D01*
X76351333Y-62188222D01*
X76346554Y-62212249D01*
X76345746Y-62220451D01*
X76344328Y-62225125D01*
X76342029Y-62229427D01*
X76335021Y-62237966D01*
X76130859Y-62442128D01*
X76122320Y-62449136D01*
X76118018Y-62451435D01*
X76113344Y-62452853D01*
X76105142Y-62453661D01*
X76081109Y-62458443D01*
X76058470Y-62467821D01*
X76038096Y-62481435D01*
X76020770Y-62498763D01*
X76007157Y-62519137D01*
X75997780Y-62541776D01*
X75993001Y-62565802D01*
X75992193Y-62574004D01*
X75990775Y-62578678D01*
X75988476Y-62582980D01*
X75981468Y-62591519D01*
X75777306Y-62795681D01*
X75768767Y-62802689D01*
X75764465Y-62804988D01*
X75759791Y-62806406D01*
X75751589Y-62807214D01*
X75727555Y-62811995D01*
X75704917Y-62821373D01*
X75684543Y-62834988D01*
X75667216Y-62852315D01*
X75653603Y-62872690D01*
X75644226Y-62895329D01*
X75639447Y-62919356D01*
X75638639Y-62927558D01*
X75637221Y-62932232D01*
X75634922Y-62936534D01*
X75627914Y-62945073D01*
X75423752Y-63149235D01*
X75415213Y-63156243D01*
X75410911Y-63158542D01*
X75406237Y-63159960D01*
X75401382Y-63160438D01*
X75396527Y-63159960D01*
X75391853Y-63158542D01*
X75387551Y-63156243D01*
X75379012Y-63149235D01*
X74785942Y-62556165D01*
X74778934Y-62547626D01*
X74776635Y-62543324D01*
X74775217Y-62538650D01*
X74774739Y-62533795D01*
X74775217Y-62528940D01*
X74776635Y-62524266D01*
X74778934Y-62519964D01*
X74785942Y-62511425D01*
X74990104Y-62307263D01*
X74998643Y-62300255D01*
X75002945Y-62297956D01*
X75007619Y-62296538D01*
X75015821Y-62295730D01*
X75039855Y-62290949D01*
X75062493Y-62281571D01*
X75082867Y-62267956D01*
X75100194Y-62250629D01*
X75113807Y-62230254D01*
X75123184Y-62207615D01*
X75127963Y-62183588D01*
X75128771Y-62175386D01*
X75130189Y-62170712D01*
X75132488Y-62166410D01*
X75139496Y-62157871D01*
X75343658Y-61953709D01*
X75352197Y-61946701D01*
X75356499Y-61944402D01*
X75361173Y-61942984D01*
X75369375Y-61942176D01*
X75393408Y-61937394D01*
X75416047Y-61928016D01*
X75436421Y-61914402D01*
X75453747Y-61897074D01*
X75467360Y-61876700D01*
X75476737Y-61854061D01*
X75481516Y-61830035D01*
X75482324Y-61821833D01*
X75483742Y-61817159D01*
X75486041Y-61812857D01*
X75493049Y-61804318D01*
X75697211Y-61600156D01*
X75705750Y-61593148D01*
X75710052Y-61590849D01*
X75714726Y-61589431D01*
X75722928Y-61588623D01*
X75746961Y-61583841D01*
X75769600Y-61574463D01*
X75789974Y-61560849D01*
X75807300Y-61543521D01*
X75820913Y-61523147D01*
X75830290Y-61500508D01*
X75835069Y-61476481D01*
X75835877Y-61468279D01*
X75837295Y-61463605D01*
X75839594Y-61459303D01*
X75846602Y-61450764D01*
X76050764Y-61246602D01*
X76059303Y-61239594D01*
X76063605Y-61237295D01*
X76068279Y-61235877D01*
X76076481Y-61235069D01*
X76100515Y-61230288D01*
X76123153Y-61220910D01*
X76143527Y-61207295D01*
X76160854Y-61189968D01*
X76174467Y-61169593D01*
X76183844Y-61146954D01*
X76188623Y-61122928D01*
X76189431Y-61114726D01*
X76190849Y-61110052D01*
X76193148Y-61105750D01*
X76200156Y-61097211D01*
X76404318Y-60893049D01*
X76412857Y-60886041D01*
X76417159Y-60883742D01*
X76421833Y-60882324D01*
X76430035Y-60881516D01*
X76454068Y-60876734D01*
X76476707Y-60867356D01*
X76497081Y-60853742D01*
X76514407Y-60836414D01*
X76528020Y-60816040D01*
X76537397Y-60793401D01*
X76542176Y-60769375D01*
X76542984Y-60761173D01*
X76544402Y-60756499D01*
X76546701Y-60752197D01*
X76553709Y-60743658D01*
X76757871Y-60539496D01*
X76766410Y-60532488D01*
X76770712Y-60530189D01*
X76775386Y-60528771D01*
X76783588Y-60527963D01*
X76807622Y-60523182D01*
X76830260Y-60513804D01*
X76850634Y-60500189D01*
X76867961Y-60482862D01*
X76881574Y-60462487D01*
X76890951Y-60439848D01*
X76895730Y-60415821D01*
X76896538Y-60407619D01*
X76897956Y-60402945D01*
X76900255Y-60398643D01*
X76907263Y-60390104D01*
X77111425Y-60185942D01*
X77119964Y-60178934D01*
X77124266Y-60176635D01*
X77128940Y-60175217D01*
X77133795Y-60174739D01*
X77138650Y-60175217D01*
G37*
G36*
X82114499Y-60328445D02*
G01*
X82151995Y-60339820D01*
X82186554Y-60358292D01*
X82216847Y-60383153D01*
X82241708Y-60413446D01*
X82260180Y-60448005D01*
X82271555Y-60485501D01*
X82276000Y-60530638D01*
X82276000Y-61269362D01*
X82271555Y-61314499D01*
X82260180Y-61351995D01*
X82241708Y-61386554D01*
X82216847Y-61416847D01*
X82186554Y-61441708D01*
X82151995Y-61460180D01*
X82114499Y-61471555D01*
X82069362Y-61476000D01*
X81430638Y-61476000D01*
X81385501Y-61471555D01*
X81348005Y-61460180D01*
X81313446Y-61441708D01*
X81283153Y-61416847D01*
X81258292Y-61386554D01*
X81239820Y-61351995D01*
X81228445Y-61314499D01*
X81224000Y-61269362D01*
X81224000Y-60530638D01*
X81228445Y-60485501D01*
X81239820Y-60448005D01*
X81258292Y-60413446D01*
X81283153Y-60383153D01*
X81313446Y-60358292D01*
X81348005Y-60339820D01*
X81385501Y-60328445D01*
X81430638Y-60324000D01*
X82069362Y-60324000D01*
X82114499Y-60328445D01*
G37*
G36*
X83864499Y-60303445D02*
G01*
X83901995Y-60314820D01*
X83936554Y-60333292D01*
X83966847Y-60358153D01*
X83991708Y-60388446D01*
X84010180Y-60423005D01*
X84021555Y-60460501D01*
X84026000Y-60505638D01*
X84026000Y-61244362D01*
X84021555Y-61289499D01*
X84010180Y-61326995D01*
X83991708Y-61361554D01*
X83966847Y-61391847D01*
X83936554Y-61416708D01*
X83901995Y-61435180D01*
X83864499Y-61446555D01*
X83819362Y-61451000D01*
X83180638Y-61451000D01*
X83135501Y-61446555D01*
X83098005Y-61435180D01*
X83063446Y-61416708D01*
X83033153Y-61391847D01*
X83008292Y-61361554D01*
X82989820Y-61326995D01*
X82978445Y-61289499D01*
X82974000Y-61244362D01*
X82974000Y-60505638D01*
X82978445Y-60460501D01*
X82989820Y-60423005D01*
X83008292Y-60388446D01*
X83033153Y-60358153D01*
X83063446Y-60333292D01*
X83098005Y-60314820D01*
X83135501Y-60303445D01*
X83180638Y-60299000D01*
X83819362Y-60299000D01*
X83864499Y-60303445D01*
G37*
G36*
X89113512Y-58903927D02*
G01*
X89262812Y-58933624D01*
X89426784Y-59001544D01*
X89574354Y-59100147D01*
X89699853Y-59225646D01*
X89798456Y-59373216D01*
X89866376Y-59537188D01*
X89887193Y-59641847D01*
X89900786Y-59710180D01*
X89901000Y-59711259D01*
X89901000Y-59888741D01*
X89866376Y-60062812D01*
X89798456Y-60226784D01*
X89699853Y-60374354D01*
X89574354Y-60499853D01*
X89426784Y-60598456D01*
X89262812Y-60666376D01*
X89113512Y-60696073D01*
X89088742Y-60701000D01*
X88911258Y-60701000D01*
X88886488Y-60696073D01*
X88737188Y-60666376D01*
X88573216Y-60598456D01*
X88425646Y-60499853D01*
X88300147Y-60374354D01*
X88201544Y-60226784D01*
X88133624Y-60062812D01*
X88099000Y-59888741D01*
X88099000Y-59711259D01*
X88099215Y-59710180D01*
X88112807Y-59641847D01*
X88133624Y-59537188D01*
X88201544Y-59373216D01*
X88300147Y-59225646D01*
X88425646Y-59100147D01*
X88573216Y-59001544D01*
X88737188Y-58933624D01*
X88886488Y-58903927D01*
X88911258Y-58899000D01*
X89088742Y-58899000D01*
X89113512Y-58903927D01*
G37*
G36*
X82114499Y-58578445D02*
G01*
X82151995Y-58589820D01*
X82186554Y-58608292D01*
X82216847Y-58633153D01*
X82241708Y-58663446D01*
X82260180Y-58698005D01*
X82271555Y-58735501D01*
X82276000Y-58780638D01*
X82276000Y-59519362D01*
X82271555Y-59564499D01*
X82260180Y-59601995D01*
X82241708Y-59636554D01*
X82216847Y-59666847D01*
X82186554Y-59691708D01*
X82151995Y-59710180D01*
X82114499Y-59721555D01*
X82069362Y-59726000D01*
X81430638Y-59726000D01*
X81385501Y-59721555D01*
X81348005Y-59710180D01*
X81313446Y-59691708D01*
X81283153Y-59666847D01*
X81258292Y-59636554D01*
X81239820Y-59601995D01*
X81228445Y-59564499D01*
X81224000Y-59519362D01*
X81224000Y-58780638D01*
X81228445Y-58735501D01*
X81239820Y-58698005D01*
X81258292Y-58663446D01*
X81283153Y-58633153D01*
X81313446Y-58608292D01*
X81348005Y-58589820D01*
X81385501Y-58578445D01*
X81430638Y-58574000D01*
X82069362Y-58574000D01*
X82114499Y-58578445D01*
G37*
G36*
X83864499Y-58553445D02*
G01*
X83901995Y-58564820D01*
X83936554Y-58583292D01*
X83966847Y-58608153D01*
X83991708Y-58638446D01*
X84010180Y-58673005D01*
X84021555Y-58710501D01*
X84026000Y-58755638D01*
X84026000Y-59494362D01*
X84021555Y-59539499D01*
X84010180Y-59576995D01*
X83991708Y-59611554D01*
X83966847Y-59641847D01*
X83936554Y-59666708D01*
X83901995Y-59685180D01*
X83864499Y-59696555D01*
X83819362Y-59701000D01*
X83180638Y-59701000D01*
X83135501Y-59696555D01*
X83098005Y-59685180D01*
X83063446Y-59666708D01*
X83033153Y-59641847D01*
X83008292Y-59611554D01*
X82989820Y-59576995D01*
X82978445Y-59539499D01*
X82974000Y-59494362D01*
X82974000Y-58755638D01*
X82978445Y-58710501D01*
X82989820Y-58673005D01*
X83008292Y-58638446D01*
X83033153Y-58608153D01*
X83063446Y-58583292D01*
X83098005Y-58564820D01*
X83135501Y-58553445D01*
X83180638Y-58549000D01*
X83819362Y-58549000D01*
X83864499Y-58553445D01*
G37*
G36*
X89113512Y-56363927D02*
G01*
X89262812Y-56393624D01*
X89426784Y-56461544D01*
X89574354Y-56560147D01*
X89699853Y-56685646D01*
X89798456Y-56833216D01*
X89866376Y-56997188D01*
X89901000Y-57171259D01*
X89901000Y-57348741D01*
X89866376Y-57522812D01*
X89798456Y-57686784D01*
X89699853Y-57834354D01*
X89574354Y-57959853D01*
X89426784Y-58058456D01*
X89262812Y-58126376D01*
X89113512Y-58156073D01*
X89088742Y-58161000D01*
X88911258Y-58161000D01*
X88886488Y-58156073D01*
X88737188Y-58126376D01*
X88573216Y-58058456D01*
X88425646Y-57959853D01*
X88300147Y-57834354D01*
X88201544Y-57686784D01*
X88133624Y-57522812D01*
X88099000Y-57348741D01*
X88099000Y-57171259D01*
X88133624Y-56997188D01*
X88201544Y-56833216D01*
X88300147Y-56685646D01*
X88425646Y-56560147D01*
X88573216Y-56461544D01*
X88737188Y-56393624D01*
X88886488Y-56363927D01*
X88911258Y-56359000D01*
X89088742Y-56359000D01*
X89113512Y-56363927D01*
G37*
G36*
X89113512Y-53823927D02*
G01*
X89262812Y-53853624D01*
X89426784Y-53921544D01*
X89574354Y-54020147D01*
X89699853Y-54145646D01*
X89798456Y-54293216D01*
X89866376Y-54457188D01*
X89901000Y-54631259D01*
X89901000Y-54808741D01*
X89866376Y-54982812D01*
X89798456Y-55146784D01*
X89699853Y-55294354D01*
X89574354Y-55419853D01*
X89426784Y-55518456D01*
X89262812Y-55586376D01*
X89113512Y-55616073D01*
X89088742Y-55621000D01*
X88911258Y-55621000D01*
X88886488Y-55616073D01*
X88737188Y-55586376D01*
X88573216Y-55518456D01*
X88425646Y-55419853D01*
X88300147Y-55294354D01*
X88201544Y-55146784D01*
X88133624Y-54982812D01*
X88099000Y-54808741D01*
X88099000Y-54631259D01*
X88133624Y-54457188D01*
X88201544Y-54293216D01*
X88300147Y-54145646D01*
X88425646Y-54020147D01*
X88573216Y-53921544D01*
X88737188Y-53853624D01*
X88886488Y-53823927D01*
X88911258Y-53819000D01*
X89088742Y-53819000D01*
X89113512Y-53823927D01*
G37*
G36*
X81463674Y-54053465D02*
G01*
X81501367Y-54064899D01*
X81536103Y-54083466D01*
X81566548Y-54108452D01*
X81591534Y-54138897D01*
X81610101Y-54173633D01*
X81621535Y-54211326D01*
X81626000Y-54256661D01*
X81626000Y-55343339D01*
X81621535Y-55388674D01*
X81610101Y-55426367D01*
X81591534Y-55461103D01*
X81566548Y-55491548D01*
X81536103Y-55516534D01*
X81501367Y-55535101D01*
X81463674Y-55546535D01*
X81418339Y-55551000D01*
X80581661Y-55551000D01*
X80536326Y-55546535D01*
X80498633Y-55535101D01*
X80463897Y-55516534D01*
X80433452Y-55491548D01*
X80408466Y-55461103D01*
X80389899Y-55426367D01*
X80378465Y-55388674D01*
X80374000Y-55343339D01*
X80374000Y-54256661D01*
X80378465Y-54211326D01*
X80389899Y-54173633D01*
X80408466Y-54138897D01*
X80433452Y-54108452D01*
X80463897Y-54083466D01*
X80498633Y-54064899D01*
X80536326Y-54053465D01*
X80581661Y-54049000D01*
X81418339Y-54049000D01*
X81463674Y-54053465D01*
G37*
G36*
X83513674Y-54053465D02*
G01*
X83551367Y-54064899D01*
X83586103Y-54083466D01*
X83616548Y-54108452D01*
X83641534Y-54138897D01*
X83660101Y-54173633D01*
X83671535Y-54211326D01*
X83676000Y-54256661D01*
X83676000Y-55343339D01*
X83671535Y-55388674D01*
X83660101Y-55426367D01*
X83641534Y-55461103D01*
X83616548Y-55491548D01*
X83586103Y-55516534D01*
X83551367Y-55535101D01*
X83513674Y-55546535D01*
X83468339Y-55551000D01*
X82631661Y-55551000D01*
X82586326Y-55546535D01*
X82548633Y-55535101D01*
X82513897Y-55516534D01*
X82483452Y-55491548D01*
X82458466Y-55461103D01*
X82439899Y-55426367D01*
X82428465Y-55388674D01*
X82424000Y-55343339D01*
X82424000Y-54256661D01*
X82428465Y-54211326D01*
X82439899Y-54173633D01*
X82458466Y-54138897D01*
X82483452Y-54108452D01*
X82513897Y-54083466D01*
X82548633Y-54064899D01*
X82586326Y-54053465D01*
X82631661Y-54049000D01*
X83468339Y-54049000D01*
X83513674Y-54053465D01*
G37*
G36*
X81463674Y-51653465D02*
G01*
X81501367Y-51664899D01*
X81536103Y-51683466D01*
X81566548Y-51708452D01*
X81591534Y-51738897D01*
X81610101Y-51773633D01*
X81621535Y-51811326D01*
X81626000Y-51856661D01*
X81626000Y-52943339D01*
X81621535Y-52988674D01*
X81610101Y-53026367D01*
X81591534Y-53061103D01*
X81566548Y-53091548D01*
X81536103Y-53116534D01*
X81501367Y-53135101D01*
X81463674Y-53146535D01*
X81418339Y-53151000D01*
X80581661Y-53151000D01*
X80536326Y-53146535D01*
X80498633Y-53135101D01*
X80463897Y-53116534D01*
X80433452Y-53091548D01*
X80408466Y-53061103D01*
X80389899Y-53026367D01*
X80378465Y-52988674D01*
X80374000Y-52943339D01*
X80374000Y-51856661D01*
X80378465Y-51811326D01*
X80389899Y-51773633D01*
X80408466Y-51738897D01*
X80433452Y-51708452D01*
X80463897Y-51683466D01*
X80498633Y-51664899D01*
X80536326Y-51653465D01*
X80581661Y-51649000D01*
X81418339Y-51649000D01*
X81463674Y-51653465D01*
G37*
G36*
X83513674Y-51653465D02*
G01*
X83551367Y-51664899D01*
X83586103Y-51683466D01*
X83616548Y-51708452D01*
X83641534Y-51738897D01*
X83660101Y-51773633D01*
X83671535Y-51811326D01*
X83676000Y-51856661D01*
X83676000Y-52943339D01*
X83671535Y-52988674D01*
X83660101Y-53026367D01*
X83641534Y-53061103D01*
X83616548Y-53091548D01*
X83586103Y-53116534D01*
X83551367Y-53135101D01*
X83513674Y-53146535D01*
X83468339Y-53151000D01*
X82631661Y-53151000D01*
X82586326Y-53146535D01*
X82548633Y-53135101D01*
X82513897Y-53116534D01*
X82483452Y-53091548D01*
X82458466Y-53061103D01*
X82439899Y-53026367D01*
X82428465Y-52988674D01*
X82424000Y-52943339D01*
X82424000Y-51856661D01*
X82428465Y-51811326D01*
X82439899Y-51773633D01*
X82458466Y-51738897D01*
X82483452Y-51708452D01*
X82513897Y-51683466D01*
X82548633Y-51664899D01*
X82586326Y-51653465D01*
X82631661Y-51649000D01*
X83468339Y-51649000D01*
X83513674Y-51653465D01*
G37*
G36*
X89113512Y-51283927D02*
G01*
X89262812Y-51313624D01*
X89426784Y-51381544D01*
X89574354Y-51480147D01*
X89699853Y-51605646D01*
X89798456Y-51753216D01*
X89866376Y-51917188D01*
X89901000Y-52091259D01*
X89901000Y-52268741D01*
X89866376Y-52442812D01*
X89798456Y-52606784D01*
X89699853Y-52754354D01*
X89574354Y-52879853D01*
X89426784Y-52978456D01*
X89262812Y-53046376D01*
X89113512Y-53076073D01*
X89088742Y-53081000D01*
X88911258Y-53081000D01*
X88886488Y-53076073D01*
X88737188Y-53046376D01*
X88573216Y-52978456D01*
X88425646Y-52879853D01*
X88300147Y-52754354D01*
X88201544Y-52606784D01*
X88133624Y-52442812D01*
X88099000Y-52268741D01*
X88099000Y-52091259D01*
X88133624Y-51917188D01*
X88201544Y-51753216D01*
X88300147Y-51605646D01*
X88425646Y-51480147D01*
X88573216Y-51381544D01*
X88737188Y-51313624D01*
X88886488Y-51283927D01*
X88911258Y-51279000D01*
X89088742Y-51279000D01*
X89113512Y-51283927D01*
G37*
G36*
X89113512Y-48743927D02*
G01*
X89262812Y-48773624D01*
X89426784Y-48841544D01*
X89574354Y-48940147D01*
X89699853Y-49065646D01*
X89798456Y-49213216D01*
X89866376Y-49377188D01*
X89901000Y-49551259D01*
X89901000Y-49728741D01*
X89866376Y-49902812D01*
X89798456Y-50066784D01*
X89699853Y-50214354D01*
X89574354Y-50339853D01*
X89426784Y-50438456D01*
X89262812Y-50506376D01*
X89113512Y-50536073D01*
X89088742Y-50541000D01*
X88911258Y-50541000D01*
X88886488Y-50536073D01*
X88737188Y-50506376D01*
X88573216Y-50438456D01*
X88425646Y-50339853D01*
X88300147Y-50214354D01*
X88201544Y-50066784D01*
X88133624Y-49902812D01*
X88099000Y-49728741D01*
X88099000Y-49551259D01*
X88133624Y-49377188D01*
X88201544Y-49213216D01*
X88300147Y-49065646D01*
X88425646Y-48940147D01*
X88573216Y-48841544D01*
X88737188Y-48773624D01*
X88886488Y-48743927D01*
X88911258Y-48739000D01*
X89088742Y-48739000D01*
X89113512Y-48743927D01*
G37*
M02*
