G04 #@! TF.GenerationSoftware,KiCad,Pcbnew,5.1.5*
G04 #@! TF.CreationDate,2020-02-06T17:38:06+01:00*
G04 #@! TF.ProjectId,lichtenprog,6c696368-7465-46e7-9072-6f672e6b6963,rev?*
G04 #@! TF.SameCoordinates,Original*
G04 #@! TF.FileFunction,Legend,Bot*
G04 #@! TF.FilePolarity,Positive*
%FSLAX46Y46*%
G04 Gerber Fmt 4.6, Leading zero omitted, Abs format (unit mm)*
G04 Created by KiCad (PCBNEW 5.1.5) date 2020-02-06 17:38:06*
%MOMM*%
%LPD*%
G04 APERTURE LIST*
%ADD10C,0.150000*%
%ADD11C,0.120000*%
%ADD12C,0.200000*%
%ADD13C,0.300000*%
G04 APERTURE END LIST*
D10*
X78652380Y-64104761D02*
X79461904Y-64104761D01*
X79557142Y-64152380D01*
X79604761Y-64200000D01*
X79652380Y-64295238D01*
X79652380Y-64485714D01*
X79604761Y-64580952D01*
X79557142Y-64628571D01*
X79461904Y-64676190D01*
X78652380Y-64676190D01*
X79604761Y-65104761D02*
X79652380Y-65247619D01*
X79652380Y-65485714D01*
X79604761Y-65580952D01*
X79557142Y-65628571D01*
X79461904Y-65676190D01*
X79366666Y-65676190D01*
X79271428Y-65628571D01*
X79223809Y-65580952D01*
X79176190Y-65485714D01*
X79128571Y-65295238D01*
X79080952Y-65200000D01*
X79033333Y-65152380D01*
X78938095Y-65104761D01*
X78842857Y-65104761D01*
X78747619Y-65152380D01*
X78700000Y-65200000D01*
X78652380Y-65295238D01*
X78652380Y-65533333D01*
X78700000Y-65676190D01*
X79128571Y-66438095D02*
X79176190Y-66580952D01*
X79223809Y-66628571D01*
X79319047Y-66676190D01*
X79461904Y-66676190D01*
X79557142Y-66628571D01*
X79604761Y-66580952D01*
X79652380Y-66485714D01*
X79652380Y-66104761D01*
X78652380Y-66104761D01*
X78652380Y-66438095D01*
X78700000Y-66533333D01*
X78747619Y-66580952D01*
X78842857Y-66628571D01*
X78938095Y-66628571D01*
X79033333Y-66580952D01*
X79080952Y-66533333D01*
X79128571Y-66438095D01*
X79128571Y-66104761D01*
X79271428Y-67866666D02*
X79271428Y-68628571D01*
X78985714Y-69104761D02*
X79271428Y-69866666D01*
X79557142Y-69104761D01*
X78652380Y-71104761D02*
X79461904Y-71104761D01*
X79557142Y-71152380D01*
X79604761Y-71199999D01*
X79652380Y-71295238D01*
X79652380Y-71485714D01*
X79604761Y-71580952D01*
X79557142Y-71628571D01*
X79461904Y-71676190D01*
X78652380Y-71676190D01*
X79366666Y-72104761D02*
X79366666Y-72580952D01*
X79652380Y-72009523D02*
X78652380Y-72342857D01*
X79652380Y-72676190D01*
X79652380Y-73580952D02*
X79176190Y-73247619D01*
X79652380Y-73009523D02*
X78652380Y-73009523D01*
X78652380Y-73390476D01*
X78700000Y-73485714D01*
X78747619Y-73533333D01*
X78842857Y-73580952D01*
X78985714Y-73580952D01*
X79080952Y-73533333D01*
X79128571Y-73485714D01*
X79176190Y-73390476D01*
X79176190Y-73009523D01*
X78652380Y-73866666D02*
X78652380Y-74438095D01*
X79652380Y-74152380D02*
X78652380Y-74152380D01*
X85760714Y-68885714D02*
X86046428Y-68123809D01*
X86332142Y-68885714D01*
X86046428Y-69361904D02*
X86046428Y-70123809D01*
X86427380Y-71361904D02*
X85427380Y-71361904D01*
X85903571Y-71361904D02*
X85903571Y-71933333D01*
X86427380Y-71933333D02*
X85427380Y-71933333D01*
X86379761Y-72790476D02*
X86427380Y-72695238D01*
X86427380Y-72504761D01*
X86379761Y-72409523D01*
X86284523Y-72361904D01*
X85903571Y-72361904D01*
X85808333Y-72409523D01*
X85760714Y-72504761D01*
X85760714Y-72695238D01*
X85808333Y-72790476D01*
X85903571Y-72838095D01*
X85998809Y-72838095D01*
X86094047Y-72361904D01*
X85427380Y-73314285D02*
X85617857Y-73219047D01*
X86379761Y-73695238D02*
X86427380Y-73790476D01*
X86427380Y-73980952D01*
X86379761Y-74076190D01*
X86284523Y-74123809D01*
X86236904Y-74123809D01*
X86141666Y-74076190D01*
X86094047Y-73980952D01*
X86094047Y-73838095D01*
X86046428Y-73742857D01*
X85951190Y-73695238D01*
X85903571Y-73695238D01*
X85808333Y-73742857D01*
X85760714Y-73838095D01*
X85760714Y-73980952D01*
X85808333Y-74076190D01*
X88077380Y-68980952D02*
X87077380Y-68980952D01*
X88077380Y-69409523D02*
X87553571Y-69409523D01*
X87458333Y-69361904D01*
X87410714Y-69266666D01*
X87410714Y-69123809D01*
X87458333Y-69028571D01*
X87505952Y-68980952D01*
X87410714Y-70314285D02*
X88077380Y-70314285D01*
X87410714Y-69885714D02*
X87934523Y-69885714D01*
X88029761Y-69933333D01*
X88077380Y-70028571D01*
X88077380Y-70171428D01*
X88029761Y-70266666D01*
X87982142Y-70314285D01*
X87410714Y-70790476D02*
X88077380Y-70790476D01*
X87505952Y-70790476D02*
X87458333Y-70838095D01*
X87410714Y-70933333D01*
X87410714Y-71076190D01*
X87458333Y-71171428D01*
X87553571Y-71219047D01*
X88077380Y-71219047D01*
X87410714Y-72123809D02*
X88220238Y-72123809D01*
X88315476Y-72076190D01*
X88363095Y-72028571D01*
X88410714Y-71933333D01*
X88410714Y-71790476D01*
X88363095Y-71695238D01*
X88029761Y-72123809D02*
X88077380Y-72028571D01*
X88077380Y-71838095D01*
X88029761Y-71742857D01*
X87982142Y-71695238D01*
X87886904Y-71647619D01*
X87601190Y-71647619D01*
X87505952Y-71695238D01*
X87458333Y-71742857D01*
X87410714Y-71838095D01*
X87410714Y-72028571D01*
X87458333Y-72123809D01*
X88077380Y-72600000D02*
X87410714Y-72600000D01*
X87601190Y-72600000D02*
X87505952Y-72647619D01*
X87458333Y-72695238D01*
X87410714Y-72790476D01*
X87410714Y-72885714D01*
X87410714Y-73123809D02*
X88077380Y-73361904D01*
X87410714Y-73600000D02*
X88077380Y-73361904D01*
X88315476Y-73266666D01*
X88363095Y-73219047D01*
X88410714Y-73123809D01*
X87982142Y-73980952D02*
X88029761Y-74028571D01*
X88077380Y-73980952D01*
X88029761Y-73933333D01*
X87982142Y-73980952D01*
X88077380Y-73980952D01*
X78254992Y-57341962D02*
X78558037Y-57981725D01*
X77918274Y-57678679D01*
X77783587Y-58688832D02*
X77884602Y-58655160D01*
X78019289Y-58520473D01*
X78052961Y-58419458D01*
X78052961Y-58352114D01*
X78019289Y-58251099D01*
X77817259Y-58049068D01*
X77716244Y-58015397D01*
X77648900Y-58015397D01*
X77547885Y-58049068D01*
X77413198Y-58183755D01*
X77379526Y-58284771D01*
X77177496Y-59294923D02*
X77278511Y-59261251D01*
X77413198Y-59126564D01*
X77446870Y-59025549D01*
X77446870Y-58958206D01*
X77413198Y-58857190D01*
X77211167Y-58655160D01*
X77110152Y-58621488D01*
X77042809Y-58621488D01*
X76941793Y-58655160D01*
X76807106Y-58789847D01*
X76773435Y-58890862D01*
X76840778Y-59564297D02*
X76840778Y-59631641D01*
X76908122Y-59631641D01*
X76908122Y-59564297D01*
X76840778Y-59564297D01*
X76908122Y-59631641D01*
X76268358Y-60204061D02*
X76369374Y-60170389D01*
X76504061Y-60035702D01*
X76537732Y-59934687D01*
X76504061Y-59833671D01*
X76234687Y-59564297D01*
X76133671Y-59530625D01*
X76032656Y-59564297D01*
X75897969Y-59698984D01*
X75864297Y-59800000D01*
X75897969Y-59901015D01*
X75965312Y-59968358D01*
X76369374Y-59698984D01*
X75662267Y-60877496D02*
X75291877Y-60507106D01*
X75258206Y-60406091D01*
X75291877Y-60305076D01*
X75426564Y-60170389D01*
X75527580Y-60136717D01*
X75628595Y-60843824D02*
X75729610Y-60810152D01*
X75897969Y-60641793D01*
X75931641Y-60540778D01*
X75897969Y-60439763D01*
X75830625Y-60372419D01*
X75729610Y-60338748D01*
X75628595Y-60372419D01*
X75460236Y-60540778D01*
X75359221Y-60574450D01*
X75325549Y-61214213D02*
X74854145Y-60742809D01*
X74988832Y-60877496D02*
X74887816Y-60843824D01*
X74820473Y-60843824D01*
X74719458Y-60877496D01*
X74652114Y-60944839D01*
X74517427Y-61079526D02*
X74248053Y-61348900D01*
X74180710Y-60944839D02*
X74786801Y-61550931D01*
X74820473Y-61651946D01*
X74786801Y-61752961D01*
X74719458Y-61820305D01*
X74483755Y-62056007D02*
X73776649Y-61348900D01*
X74180710Y-62359053D02*
X73810320Y-61988663D01*
X73776649Y-61887648D01*
X73810320Y-61786633D01*
X73911336Y-61685618D01*
X74012351Y-61651946D01*
X74079694Y-61651946D01*
X73397377Y-67875042D02*
X73498392Y-67841370D01*
X73633079Y-67706683D01*
X73666751Y-67605668D01*
X73666751Y-67538324D01*
X73633079Y-67437309D01*
X73431049Y-67235278D01*
X73330034Y-67201607D01*
X73262690Y-67201607D01*
X73161675Y-67235278D01*
X73026988Y-67369965D01*
X72993316Y-67470981D01*
X73128003Y-68211759D02*
X72656599Y-67740355D01*
X72791286Y-67875042D02*
X72690270Y-67841370D01*
X72622927Y-67841370D01*
X72521912Y-67875042D01*
X72454568Y-67942385D01*
X72690270Y-68649492D02*
X72218866Y-68178087D01*
X71983164Y-67942385D02*
X72050507Y-67942385D01*
X72050507Y-68009729D01*
X71983164Y-68009729D01*
X71983164Y-67942385D01*
X72050507Y-68009729D01*
X71983164Y-68413790D02*
X71713790Y-68683164D01*
X71646446Y-68279103D02*
X72252538Y-68885194D01*
X72286209Y-68986209D01*
X72252538Y-69087225D01*
X72185194Y-69154568D01*
X71949492Y-69390270D02*
X71242385Y-68683164D01*
X71511759Y-68952538D02*
X71410744Y-68986209D01*
X71276057Y-69120896D01*
X71242385Y-69221912D01*
X71242385Y-69289255D01*
X71276057Y-69390270D01*
X71478087Y-69592301D01*
X71579103Y-69625973D01*
X71646446Y-69625973D01*
X71747461Y-69592301D01*
X71882148Y-69457614D01*
X71915820Y-69356599D01*
X71309729Y-70030034D02*
X70838324Y-69558629D01*
X70602622Y-69322927D02*
X70669965Y-69322927D01*
X70669965Y-69390270D01*
X70602622Y-69390270D01*
X70602622Y-69322927D01*
X70669965Y-69390270D01*
X70602622Y-69794331D02*
X70333248Y-70063705D01*
X70265904Y-69659644D02*
X70871996Y-70265736D01*
X70905668Y-70366751D01*
X70871996Y-70467766D01*
X70804652Y-70535110D01*
D11*
X86871573Y-48810051D02*
X86371573Y-49110050D01*
X85460634Y-48918901D02*
G75*
G02X87071572Y-50910050I810939J-991149D01*
G01*
X87571573Y-50010051D02*
X87071572Y-50310050D01*
X87371573Y-49210050D02*
X86771573Y-49610051D01*
X88171573Y-64210051D02*
X87671573Y-64510050D01*
X88871573Y-65410051D02*
X88371572Y-65710050D01*
X88671573Y-64610050D02*
X88071573Y-65010051D01*
X86760634Y-64318901D02*
G75*
G02X88371572Y-66310050I810939J-991149D01*
G01*
D12*
X85785714Y-78697619D02*
X86309523Y-78697619D01*
X86309523Y-77597619D01*
X85419047Y-78697619D02*
X85419047Y-77964285D01*
X85419047Y-77597619D02*
X85471428Y-77650000D01*
X85419047Y-77702380D01*
X85366666Y-77650000D01*
X85419047Y-77597619D01*
X85419047Y-77702380D01*
X84423809Y-78645238D02*
X84528571Y-78697619D01*
X84738095Y-78697619D01*
X84842857Y-78645238D01*
X84895238Y-78592857D01*
X84947619Y-78488095D01*
X84947619Y-78173809D01*
X84895238Y-78069047D01*
X84842857Y-78016666D01*
X84738095Y-77964285D01*
X84528571Y-77964285D01*
X84423809Y-78016666D01*
X83952380Y-78697619D02*
X83952380Y-77597619D01*
X83480952Y-78697619D02*
X83480952Y-78121428D01*
X83533333Y-78016666D01*
X83638095Y-77964285D01*
X83795238Y-77964285D01*
X83900000Y-78016666D01*
X83952380Y-78069047D01*
X83114285Y-77964285D02*
X82695238Y-77964285D01*
X82957142Y-77597619D02*
X82957142Y-78540476D01*
X82904761Y-78645238D01*
X82800000Y-78697619D01*
X82695238Y-78697619D01*
X81909523Y-78645238D02*
X82014285Y-78697619D01*
X82223809Y-78697619D01*
X82328571Y-78645238D01*
X82380952Y-78540476D01*
X82380952Y-78121428D01*
X82328571Y-78016666D01*
X82223809Y-77964285D01*
X82014285Y-77964285D01*
X81909523Y-78016666D01*
X81857142Y-78121428D01*
X81857142Y-78226190D01*
X82380952Y-78330952D01*
X81385714Y-77964285D02*
X81385714Y-78697619D01*
X81385714Y-78069047D02*
X81333333Y-78016666D01*
X81228571Y-77964285D01*
X81071428Y-77964285D01*
X80966666Y-78016666D01*
X80914285Y-78121428D01*
X80914285Y-78697619D01*
X80390476Y-77964285D02*
X80390476Y-79064285D01*
X80390476Y-78016666D02*
X80285714Y-77964285D01*
X80076190Y-77964285D01*
X79971428Y-78016666D01*
X79919047Y-78069047D01*
X79866666Y-78173809D01*
X79866666Y-78488095D01*
X79919047Y-78592857D01*
X79971428Y-78645238D01*
X80076190Y-78697619D01*
X80285714Y-78697619D01*
X80390476Y-78645238D01*
X79395238Y-78697619D02*
X79395238Y-77964285D01*
X79395238Y-78173809D02*
X79342857Y-78069047D01*
X79290476Y-78016666D01*
X79185714Y-77964285D01*
X79080952Y-77964285D01*
X78557142Y-78697619D02*
X78661904Y-78645238D01*
X78714285Y-78592857D01*
X78766666Y-78488095D01*
X78766666Y-78173809D01*
X78714285Y-78069047D01*
X78661904Y-78016666D01*
X78557142Y-77964285D01*
X78400000Y-77964285D01*
X78295238Y-78016666D01*
X78242857Y-78069047D01*
X78190476Y-78173809D01*
X78190476Y-78488095D01*
X78242857Y-78592857D01*
X78295238Y-78645238D01*
X78400000Y-78697619D01*
X78557142Y-78697619D01*
X77247619Y-77964285D02*
X77247619Y-78854761D01*
X77300000Y-78959523D01*
X77352380Y-79011904D01*
X77457142Y-79064285D01*
X77614285Y-79064285D01*
X77719047Y-79011904D01*
X77247619Y-78645238D02*
X77352380Y-78697619D01*
X77561904Y-78697619D01*
X77666666Y-78645238D01*
X77719047Y-78592857D01*
X77771428Y-78488095D01*
X77771428Y-78173809D01*
X77719047Y-78069047D01*
X77666666Y-78016666D01*
X77561904Y-77964285D01*
X77352380Y-77964285D01*
X77247619Y-78016666D01*
X75885714Y-78697619D02*
X75885714Y-77964285D01*
X75885714Y-78173809D02*
X75833333Y-78069047D01*
X75780952Y-78016666D01*
X75676190Y-77964285D01*
X75571428Y-77964285D01*
X74785714Y-78645238D02*
X74890476Y-78697619D01*
X75100000Y-78697619D01*
X75204761Y-78645238D01*
X75257142Y-78540476D01*
X75257142Y-78121428D01*
X75204761Y-78016666D01*
X75100000Y-77964285D01*
X74890476Y-77964285D01*
X74785714Y-78016666D01*
X74733333Y-78121428D01*
X74733333Y-78226190D01*
X75257142Y-78330952D01*
X74366666Y-77964285D02*
X74104761Y-78697619D01*
X73842857Y-77964285D01*
X72009523Y-78697619D02*
X72638095Y-78697619D01*
X72323809Y-78697619D02*
X72323809Y-77597619D01*
X72428571Y-77754761D01*
X72533333Y-77859523D01*
X72638095Y-77911904D01*
X71538095Y-78592857D02*
X71485714Y-78645238D01*
X71538095Y-78697619D01*
X71590476Y-78645238D01*
X71538095Y-78592857D01*
X71538095Y-78697619D01*
X70804761Y-77597619D02*
X70700000Y-77597619D01*
X70595238Y-77650000D01*
X70542857Y-77702380D01*
X70490476Y-77807142D01*
X70438095Y-78016666D01*
X70438095Y-78278571D01*
X70490476Y-78488095D01*
X70542857Y-78592857D01*
X70595238Y-78645238D01*
X70700000Y-78697619D01*
X70804761Y-78697619D01*
X70909523Y-78645238D01*
X70961904Y-78592857D01*
X71014285Y-78488095D01*
X71066666Y-78278571D01*
X71066666Y-78016666D01*
X71014285Y-77807142D01*
X70961904Y-77702380D01*
X70909523Y-77650000D01*
X70804761Y-77597619D01*
D13*
X81600000Y-64100000D02*
X82500000Y-62600000D01*
X80900000Y-49700000D02*
X81800000Y-51200000D01*
D11*
X85300000Y-56600000D02*
X84900000Y-56400000D01*
X85000000Y-56900000D02*
X85300000Y-56600000D01*
X85400000Y-57100000D02*
X85000000Y-56900000D01*
X85000000Y-57400000D02*
X85400000Y-57100000D01*
X85400000Y-57600000D02*
X85000000Y-57400000D01*
X85000000Y-57900000D02*
X85400000Y-57600000D01*
X85400000Y-58100000D02*
X85000000Y-57900000D01*
X85000000Y-58400000D02*
X85400000Y-58100000D01*
X85600000Y-58300000D02*
X85900000Y-58600000D01*
X85900000Y-58100000D02*
X85600000Y-58300000D01*
X85600000Y-57900000D02*
X85900000Y-58100000D01*
X86000000Y-57600000D02*
X85600000Y-57900000D01*
X85600000Y-57300000D02*
X86000000Y-57600000D01*
X86000000Y-57000000D02*
X85600000Y-57300000D01*
X85600000Y-56800000D02*
X86000000Y-57000000D01*
X86000000Y-56500000D02*
X85600000Y-56800000D01*
M02*
