G04 #@! TF.GenerationSoftware,KiCad,Pcbnew,5.1.5*
G04 #@! TF.CreationDate,2020-02-06T17:38:06+01:00*
G04 #@! TF.ProjectId,lichtenprog,6c696368-7465-46e7-9072-6f672e6b6963,rev?*
G04 #@! TF.SameCoordinates,Original*
G04 #@! TF.FileFunction,Copper,L2,Bot*
G04 #@! TF.FilePolarity,Positive*
%FSLAX46Y46*%
G04 Gerber Fmt 4.6, Leading zero omitted, Abs format (unit mm)*
G04 Created by KiCad (PCBNEW 5.1.5) date 2020-02-06 17:38:06*
%MOMM*%
%LPD*%
G04 APERTURE LIST*
%ADD10O,1.700000X1.700000*%
%ADD11R,1.700000X1.700000*%
%ADD12C,3.000000*%
%ADD13C,0.800000*%
%ADD14C,0.500000*%
%ADD15C,0.250000*%
%ADD16C,0.254000*%
G04 APERTURE END LIST*
D10*
X89000000Y-49640000D03*
X89000000Y-52180000D03*
X89000000Y-54720000D03*
X89000000Y-57260000D03*
X89000000Y-59800000D03*
D11*
X89000000Y-62340000D03*
D12*
X82800000Y-49700000D03*
X89000000Y-78000000D03*
X83500000Y-64000000D03*
D13*
X74420137Y-65541179D03*
X78000000Y-60000000D03*
X83250000Y-74500000D03*
X80750000Y-68500000D03*
X77500000Y-71500000D03*
X75800000Y-73700000D03*
X82300000Y-74500000D03*
X86300000Y-76200000D03*
X85600000Y-56000000D03*
X85550000Y-58950000D03*
X80500000Y-59250000D03*
X79700000Y-55950000D03*
X84500000Y-55949990D03*
X84550000Y-58950000D03*
X73800000Y-68700000D03*
X75234611Y-69636707D03*
X74600000Y-63300000D03*
X78974990Y-58398346D03*
X82250000Y-69750000D03*
X80737347Y-66262653D03*
D14*
X86000000Y-58500000D02*
X85550000Y-58950000D01*
X85600000Y-56000000D02*
X86000000Y-56400000D01*
X86000000Y-56400000D02*
X86000000Y-58500000D01*
D15*
X79700000Y-58450000D02*
X79700000Y-55950000D01*
X80500000Y-59250000D02*
X79700000Y-58450000D01*
X84550000Y-59250000D02*
X84550000Y-58950000D01*
X85100000Y-56549990D02*
X84500000Y-55949990D01*
X84550000Y-58950000D02*
X84550000Y-58850000D01*
X85100000Y-58300000D02*
X85100000Y-56549990D01*
X84550000Y-58850000D02*
X85100000Y-58300000D01*
X74736707Y-69636707D02*
X75234611Y-69636707D01*
X73800000Y-68700000D02*
X74736707Y-69636707D01*
X74600000Y-63300000D02*
X74600000Y-61900000D01*
X78409305Y-58398346D02*
X78974990Y-58398346D01*
X78101654Y-58398346D02*
X78409305Y-58398346D01*
X74600000Y-61900000D02*
X78101654Y-58398346D01*
X82250000Y-69750000D02*
X82250000Y-67775306D01*
X82250000Y-67775306D02*
X80737347Y-66262653D01*
D16*
G36*
X87728359Y-48873080D02*
G01*
X87603175Y-49135901D01*
X87558524Y-49283110D01*
X87679845Y-49513000D01*
X88873000Y-49513000D01*
X88873000Y-49493000D01*
X89127000Y-49493000D01*
X89127000Y-49513000D01*
X89147000Y-49513000D01*
X89147000Y-49767000D01*
X89127000Y-49767000D01*
X89127000Y-49787000D01*
X88873000Y-49787000D01*
X88873000Y-49767000D01*
X87679845Y-49767000D01*
X87558524Y-49996890D01*
X87603175Y-50144099D01*
X87728359Y-50406920D01*
X87902412Y-50640269D01*
X88118645Y-50835178D01*
X88235534Y-50904805D01*
X88053368Y-51026525D01*
X87846525Y-51233368D01*
X87684010Y-51476589D01*
X87572068Y-51746842D01*
X87515000Y-52033740D01*
X87515000Y-52326260D01*
X87572068Y-52613158D01*
X87684010Y-52883411D01*
X87846525Y-53126632D01*
X88053368Y-53333475D01*
X88227760Y-53450000D01*
X88053368Y-53566525D01*
X87846525Y-53773368D01*
X87684010Y-54016589D01*
X87572068Y-54286842D01*
X87515000Y-54573740D01*
X87515000Y-54866260D01*
X87572068Y-55153158D01*
X87684010Y-55423411D01*
X87846525Y-55666632D01*
X88053368Y-55873475D01*
X88227760Y-55990000D01*
X88053368Y-56106525D01*
X87846525Y-56313368D01*
X87684010Y-56556589D01*
X87572068Y-56826842D01*
X87515000Y-57113740D01*
X87515000Y-57406260D01*
X87572068Y-57693158D01*
X87684010Y-57963411D01*
X87846525Y-58206632D01*
X88053368Y-58413475D01*
X88227760Y-58530000D01*
X88053368Y-58646525D01*
X87846525Y-58853368D01*
X87684010Y-59096589D01*
X87572068Y-59366842D01*
X87515000Y-59653740D01*
X87515000Y-59946260D01*
X87572068Y-60233158D01*
X87684010Y-60503411D01*
X87846525Y-60746632D01*
X87978380Y-60878487D01*
X87905820Y-60900498D01*
X87795506Y-60959463D01*
X87698815Y-61038815D01*
X87619463Y-61135506D01*
X87560498Y-61245820D01*
X87524188Y-61365518D01*
X87511928Y-61490000D01*
X87511928Y-63190000D01*
X87524188Y-63314482D01*
X87560498Y-63434180D01*
X87619463Y-63544494D01*
X87698815Y-63641185D01*
X87795506Y-63720537D01*
X87905820Y-63779502D01*
X88025518Y-63815812D01*
X88150000Y-63828072D01*
X89850000Y-63828072D01*
X89974482Y-63815812D01*
X90094180Y-63779502D01*
X90204494Y-63720537D01*
X90301185Y-63641185D01*
X90340000Y-63593888D01*
X90340001Y-79340000D01*
X69660000Y-79340000D01*
X69660000Y-73993137D01*
X71715000Y-73993137D01*
X71715000Y-74206863D01*
X71756696Y-74416483D01*
X71838485Y-74613940D01*
X71957225Y-74791647D01*
X72108353Y-74942775D01*
X72286060Y-75061515D01*
X72483517Y-75143304D01*
X72693137Y-75185000D01*
X72906863Y-75185000D01*
X73116483Y-75143304D01*
X73313940Y-75061515D01*
X73491647Y-74942775D01*
X73642775Y-74791647D01*
X73761515Y-74613940D01*
X73843304Y-74416483D01*
X73885000Y-74206863D01*
X73885000Y-73993137D01*
X76115000Y-73993137D01*
X76115000Y-74206863D01*
X76156696Y-74416483D01*
X76238485Y-74613940D01*
X76357225Y-74791647D01*
X76508353Y-74942775D01*
X76686060Y-75061515D01*
X76883517Y-75143304D01*
X77093137Y-75185000D01*
X77306863Y-75185000D01*
X77516483Y-75143304D01*
X77713940Y-75061515D01*
X77891647Y-74942775D01*
X78042775Y-74791647D01*
X78161515Y-74613940D01*
X78243304Y-74416483D01*
X78285000Y-74206863D01*
X78285000Y-73993137D01*
X78243304Y-73783517D01*
X78161515Y-73586060D01*
X78042775Y-73408353D01*
X77891647Y-73257225D01*
X77713940Y-73138485D01*
X77516483Y-73056696D01*
X77306863Y-73015000D01*
X77093137Y-73015000D01*
X76883517Y-73056696D01*
X76686060Y-73138485D01*
X76508353Y-73257225D01*
X76357225Y-73408353D01*
X76238485Y-73586060D01*
X76156696Y-73783517D01*
X76115000Y-73993137D01*
X73885000Y-73993137D01*
X73843304Y-73783517D01*
X73761515Y-73586060D01*
X73642775Y-73408353D01*
X73491647Y-73257225D01*
X73313940Y-73138485D01*
X73116483Y-73056696D01*
X72906863Y-73015000D01*
X72693137Y-73015000D01*
X72483517Y-73056696D01*
X72286060Y-73138485D01*
X72108353Y-73257225D01*
X71957225Y-73408353D01*
X71838485Y-73586060D01*
X71756696Y-73783517D01*
X71715000Y-73993137D01*
X69660000Y-73993137D01*
X69660000Y-70273380D01*
X71335319Y-68598061D01*
X72765000Y-68598061D01*
X72765000Y-68801939D01*
X72804774Y-69001898D01*
X72882795Y-69190256D01*
X72996063Y-69359774D01*
X73140226Y-69503937D01*
X73309744Y-69617205D01*
X73498102Y-69695226D01*
X73698061Y-69735000D01*
X73760198Y-69735000D01*
X74172908Y-70147710D01*
X74196706Y-70176708D01*
X74312431Y-70271681D01*
X74444460Y-70342253D01*
X74490373Y-70356180D01*
X74574837Y-70440644D01*
X74744355Y-70553912D01*
X74932713Y-70631933D01*
X75132672Y-70671707D01*
X75336550Y-70671707D01*
X75536509Y-70631933D01*
X75724867Y-70553912D01*
X75894385Y-70440644D01*
X76038548Y-70296481D01*
X76151816Y-70126963D01*
X76229837Y-69938605D01*
X76269611Y-69738646D01*
X76269611Y-69534768D01*
X76229837Y-69334809D01*
X76151816Y-69146451D01*
X76038548Y-68976933D01*
X75894385Y-68832770D01*
X75724867Y-68719502D01*
X75536509Y-68641481D01*
X75336550Y-68601707D01*
X75132672Y-68601707D01*
X74932713Y-68641481D01*
X74850384Y-68675583D01*
X74835000Y-68660198D01*
X74835000Y-68598061D01*
X74795226Y-68398102D01*
X74717205Y-68209744D01*
X74603937Y-68040226D01*
X74459774Y-67896063D01*
X74290256Y-67782795D01*
X74101898Y-67704774D01*
X73901939Y-67665000D01*
X73698061Y-67665000D01*
X73498102Y-67704774D01*
X73309744Y-67782795D01*
X73140226Y-67896063D01*
X72996063Y-68040226D01*
X72882795Y-68209744D01*
X72804774Y-68398102D01*
X72765000Y-68598061D01*
X71335319Y-68598061D01*
X73443764Y-66489616D01*
X73468948Y-66468948D01*
X73516179Y-66411397D01*
X73551425Y-66368451D01*
X73572772Y-66328513D01*
X73612710Y-66253793D01*
X73640945Y-66160714D01*
X79702347Y-66160714D01*
X79702347Y-66364592D01*
X79742121Y-66564551D01*
X79820142Y-66752909D01*
X79933410Y-66922427D01*
X80077573Y-67066590D01*
X80247091Y-67179858D01*
X80435449Y-67257879D01*
X80635408Y-67297653D01*
X80697545Y-67297653D01*
X81490001Y-68090110D01*
X81490000Y-69046289D01*
X81446063Y-69090226D01*
X81332795Y-69259744D01*
X81254774Y-69448102D01*
X81215000Y-69648061D01*
X81215000Y-69851939D01*
X81254774Y-70051898D01*
X81332795Y-70240256D01*
X81446063Y-70409774D01*
X81590226Y-70553937D01*
X81759744Y-70667205D01*
X81948102Y-70745226D01*
X82148061Y-70785000D01*
X82351939Y-70785000D01*
X82551898Y-70745226D01*
X82740256Y-70667205D01*
X82909774Y-70553937D01*
X83053937Y-70409774D01*
X83167205Y-70240256D01*
X83245226Y-70051898D01*
X83285000Y-69851939D01*
X83285000Y-69648061D01*
X83245226Y-69448102D01*
X83167205Y-69259744D01*
X83053937Y-69090226D01*
X83010000Y-69046289D01*
X83010000Y-67812628D01*
X83013676Y-67775305D01*
X83010000Y-67737982D01*
X83010000Y-67737973D01*
X82999003Y-67626320D01*
X82955546Y-67483059D01*
X82884974Y-67351030D01*
X82841169Y-67297653D01*
X82813799Y-67264302D01*
X82813795Y-67264298D01*
X82790001Y-67235305D01*
X82761008Y-67211511D01*
X81772347Y-66222851D01*
X81772347Y-66160714D01*
X81732573Y-65960755D01*
X81654552Y-65772397D01*
X81541284Y-65602879D01*
X81397121Y-65458716D01*
X81227603Y-65345448D01*
X81039245Y-65267427D01*
X80839286Y-65227653D01*
X80635408Y-65227653D01*
X80435449Y-65267427D01*
X80247091Y-65345448D01*
X80077573Y-65458716D01*
X79933410Y-65602879D01*
X79820142Y-65772397D01*
X79742121Y-65960755D01*
X79702347Y-66160714D01*
X73640945Y-66160714D01*
X73650450Y-66129383D01*
X73660000Y-66032419D01*
X73660000Y-66032410D01*
X73663192Y-66000001D01*
X73660000Y-65967592D01*
X73660000Y-63735224D01*
X73682795Y-63790256D01*
X73796063Y-63959774D01*
X73940226Y-64103937D01*
X74109744Y-64217205D01*
X74298102Y-64295226D01*
X74498061Y-64335000D01*
X74701939Y-64335000D01*
X74901898Y-64295226D01*
X75090256Y-64217205D01*
X75259774Y-64103937D01*
X75403937Y-63959774D01*
X75517205Y-63790256D01*
X75517426Y-63789721D01*
X81365000Y-63789721D01*
X81365000Y-64210279D01*
X81447047Y-64622756D01*
X81607988Y-65011302D01*
X81841637Y-65360983D01*
X82139017Y-65658363D01*
X82488698Y-65892012D01*
X82877244Y-66052953D01*
X83289721Y-66135000D01*
X83710279Y-66135000D01*
X84122756Y-66052953D01*
X84511302Y-65892012D01*
X84860983Y-65658363D01*
X85158363Y-65360983D01*
X85392012Y-65011302D01*
X85552953Y-64622756D01*
X85635000Y-64210279D01*
X85635000Y-63789721D01*
X85552953Y-63377244D01*
X85392012Y-62988698D01*
X85158363Y-62639017D01*
X84860983Y-62341637D01*
X84511302Y-62107988D01*
X84122756Y-61947047D01*
X83710279Y-61865000D01*
X83289721Y-61865000D01*
X82877244Y-61947047D01*
X82488698Y-62107988D01*
X82139017Y-62341637D01*
X81841637Y-62639017D01*
X81607988Y-62988698D01*
X81447047Y-63377244D01*
X81365000Y-63789721D01*
X75517426Y-63789721D01*
X75595226Y-63601898D01*
X75635000Y-63401939D01*
X75635000Y-63198061D01*
X75595226Y-62998102D01*
X75517205Y-62809744D01*
X75403937Y-62640226D01*
X75360000Y-62596289D01*
X75360000Y-62214801D01*
X78349567Y-59225235D01*
X78484734Y-59315551D01*
X78673092Y-59393572D01*
X78873051Y-59433346D01*
X79076929Y-59433346D01*
X79276888Y-59393572D01*
X79465000Y-59315653D01*
X79465000Y-59351939D01*
X79504774Y-59551898D01*
X79582795Y-59740256D01*
X79696063Y-59909774D01*
X79840226Y-60053937D01*
X80009744Y-60167205D01*
X80198102Y-60245226D01*
X80398061Y-60285000D01*
X80601939Y-60285000D01*
X80801898Y-60245226D01*
X80990256Y-60167205D01*
X81159774Y-60053937D01*
X81303937Y-59909774D01*
X81417205Y-59740256D01*
X81495226Y-59551898D01*
X81535000Y-59351939D01*
X81535000Y-59148061D01*
X81495226Y-58948102D01*
X81417205Y-58759744D01*
X81303937Y-58590226D01*
X81159774Y-58446063D01*
X80990256Y-58332795D01*
X80801898Y-58254774D01*
X80601939Y-58215000D01*
X80539801Y-58215000D01*
X80460000Y-58135199D01*
X80460000Y-56653711D01*
X80503937Y-56609774D01*
X80617205Y-56440256D01*
X80695226Y-56251898D01*
X80735000Y-56051939D01*
X80735000Y-55848061D01*
X80734999Y-55848051D01*
X83465000Y-55848051D01*
X83465000Y-56051929D01*
X83504774Y-56251888D01*
X83582795Y-56440246D01*
X83696063Y-56609764D01*
X83840226Y-56753927D01*
X84009744Y-56867195D01*
X84198102Y-56945216D01*
X84340001Y-56973441D01*
X84340000Y-57936494D01*
X84248102Y-57954774D01*
X84059744Y-58032795D01*
X83890226Y-58146063D01*
X83746063Y-58290226D01*
X83632795Y-58459744D01*
X83554774Y-58648102D01*
X83515000Y-58848061D01*
X83515000Y-59051939D01*
X83554774Y-59251898D01*
X83632795Y-59440256D01*
X83746063Y-59609774D01*
X83890226Y-59753937D01*
X84059744Y-59867205D01*
X84205199Y-59927455D01*
X84257753Y-59955546D01*
X84401014Y-59999003D01*
X84550000Y-60013677D01*
X84698985Y-59999003D01*
X84842246Y-59955546D01*
X84894797Y-59927457D01*
X85040256Y-59867205D01*
X85050000Y-59860694D01*
X85059744Y-59867205D01*
X85248102Y-59945226D01*
X85448061Y-59985000D01*
X85651939Y-59985000D01*
X85851898Y-59945226D01*
X86040256Y-59867205D01*
X86209774Y-59753937D01*
X86353937Y-59609774D01*
X86467205Y-59440256D01*
X86545226Y-59251898D01*
X86556535Y-59195043D01*
X86595044Y-59156534D01*
X86628817Y-59128817D01*
X86739411Y-58994059D01*
X86821589Y-58840313D01*
X86872195Y-58673490D01*
X86885000Y-58543477D01*
X86885000Y-58543467D01*
X86889281Y-58500001D01*
X86885000Y-58456535D01*
X86885000Y-56443465D01*
X86889281Y-56399999D01*
X86885000Y-56356533D01*
X86885000Y-56356523D01*
X86872195Y-56226510D01*
X86821589Y-56059687D01*
X86739411Y-55905941D01*
X86628817Y-55771183D01*
X86606045Y-55752495D01*
X86595226Y-55698102D01*
X86517205Y-55509744D01*
X86403937Y-55340226D01*
X86259774Y-55196063D01*
X86090256Y-55082795D01*
X85901898Y-55004774D01*
X85701939Y-54965000D01*
X85498061Y-54965000D01*
X85298102Y-55004774D01*
X85109744Y-55082795D01*
X85087423Y-55097710D01*
X84990256Y-55032785D01*
X84801898Y-54954764D01*
X84601939Y-54914990D01*
X84398061Y-54914990D01*
X84198102Y-54954764D01*
X84009744Y-55032785D01*
X83840226Y-55146053D01*
X83696063Y-55290216D01*
X83582795Y-55459734D01*
X83504774Y-55648092D01*
X83465000Y-55848051D01*
X80734999Y-55848051D01*
X80695226Y-55648102D01*
X80617205Y-55459744D01*
X80503937Y-55290226D01*
X80359774Y-55146063D01*
X80190256Y-55032795D01*
X80001898Y-54954774D01*
X79801939Y-54915000D01*
X79598061Y-54915000D01*
X79398102Y-54954774D01*
X79209744Y-55032795D01*
X79040226Y-55146063D01*
X78896063Y-55290226D01*
X78782795Y-55459744D01*
X78704774Y-55648102D01*
X78665000Y-55848061D01*
X78665000Y-56051939D01*
X78704774Y-56251898D01*
X78782795Y-56440256D01*
X78896063Y-56609774D01*
X78940001Y-56653712D01*
X78940000Y-57363346D01*
X78873051Y-57363346D01*
X78673092Y-57403120D01*
X78484734Y-57481141D01*
X78315216Y-57594409D01*
X78271279Y-57638346D01*
X78138987Y-57638346D01*
X78101654Y-57634669D01*
X78064321Y-57638346D01*
X77952668Y-57649343D01*
X77809407Y-57692800D01*
X77677378Y-57763372D01*
X77636283Y-57797098D01*
X78443770Y-56989611D01*
X78468948Y-56968948D01*
X78551425Y-56868450D01*
X78612710Y-56753793D01*
X78650450Y-56629383D01*
X78660000Y-56532419D01*
X78660000Y-56532409D01*
X78663192Y-56500000D01*
X78660000Y-56467591D01*
X78660000Y-52273380D01*
X82273380Y-48660000D01*
X87887294Y-48660000D01*
X87728359Y-48873080D01*
G37*
X87728359Y-48873080D02*
X87603175Y-49135901D01*
X87558524Y-49283110D01*
X87679845Y-49513000D01*
X88873000Y-49513000D01*
X88873000Y-49493000D01*
X89127000Y-49493000D01*
X89127000Y-49513000D01*
X89147000Y-49513000D01*
X89147000Y-49767000D01*
X89127000Y-49767000D01*
X89127000Y-49787000D01*
X88873000Y-49787000D01*
X88873000Y-49767000D01*
X87679845Y-49767000D01*
X87558524Y-49996890D01*
X87603175Y-50144099D01*
X87728359Y-50406920D01*
X87902412Y-50640269D01*
X88118645Y-50835178D01*
X88235534Y-50904805D01*
X88053368Y-51026525D01*
X87846525Y-51233368D01*
X87684010Y-51476589D01*
X87572068Y-51746842D01*
X87515000Y-52033740D01*
X87515000Y-52326260D01*
X87572068Y-52613158D01*
X87684010Y-52883411D01*
X87846525Y-53126632D01*
X88053368Y-53333475D01*
X88227760Y-53450000D01*
X88053368Y-53566525D01*
X87846525Y-53773368D01*
X87684010Y-54016589D01*
X87572068Y-54286842D01*
X87515000Y-54573740D01*
X87515000Y-54866260D01*
X87572068Y-55153158D01*
X87684010Y-55423411D01*
X87846525Y-55666632D01*
X88053368Y-55873475D01*
X88227760Y-55990000D01*
X88053368Y-56106525D01*
X87846525Y-56313368D01*
X87684010Y-56556589D01*
X87572068Y-56826842D01*
X87515000Y-57113740D01*
X87515000Y-57406260D01*
X87572068Y-57693158D01*
X87684010Y-57963411D01*
X87846525Y-58206632D01*
X88053368Y-58413475D01*
X88227760Y-58530000D01*
X88053368Y-58646525D01*
X87846525Y-58853368D01*
X87684010Y-59096589D01*
X87572068Y-59366842D01*
X87515000Y-59653740D01*
X87515000Y-59946260D01*
X87572068Y-60233158D01*
X87684010Y-60503411D01*
X87846525Y-60746632D01*
X87978380Y-60878487D01*
X87905820Y-60900498D01*
X87795506Y-60959463D01*
X87698815Y-61038815D01*
X87619463Y-61135506D01*
X87560498Y-61245820D01*
X87524188Y-61365518D01*
X87511928Y-61490000D01*
X87511928Y-63190000D01*
X87524188Y-63314482D01*
X87560498Y-63434180D01*
X87619463Y-63544494D01*
X87698815Y-63641185D01*
X87795506Y-63720537D01*
X87905820Y-63779502D01*
X88025518Y-63815812D01*
X88150000Y-63828072D01*
X89850000Y-63828072D01*
X89974482Y-63815812D01*
X90094180Y-63779502D01*
X90204494Y-63720537D01*
X90301185Y-63641185D01*
X90340000Y-63593888D01*
X90340001Y-79340000D01*
X69660000Y-79340000D01*
X69660000Y-73993137D01*
X71715000Y-73993137D01*
X71715000Y-74206863D01*
X71756696Y-74416483D01*
X71838485Y-74613940D01*
X71957225Y-74791647D01*
X72108353Y-74942775D01*
X72286060Y-75061515D01*
X72483517Y-75143304D01*
X72693137Y-75185000D01*
X72906863Y-75185000D01*
X73116483Y-75143304D01*
X73313940Y-75061515D01*
X73491647Y-74942775D01*
X73642775Y-74791647D01*
X73761515Y-74613940D01*
X73843304Y-74416483D01*
X73885000Y-74206863D01*
X73885000Y-73993137D01*
X76115000Y-73993137D01*
X76115000Y-74206863D01*
X76156696Y-74416483D01*
X76238485Y-74613940D01*
X76357225Y-74791647D01*
X76508353Y-74942775D01*
X76686060Y-75061515D01*
X76883517Y-75143304D01*
X77093137Y-75185000D01*
X77306863Y-75185000D01*
X77516483Y-75143304D01*
X77713940Y-75061515D01*
X77891647Y-74942775D01*
X78042775Y-74791647D01*
X78161515Y-74613940D01*
X78243304Y-74416483D01*
X78285000Y-74206863D01*
X78285000Y-73993137D01*
X78243304Y-73783517D01*
X78161515Y-73586060D01*
X78042775Y-73408353D01*
X77891647Y-73257225D01*
X77713940Y-73138485D01*
X77516483Y-73056696D01*
X77306863Y-73015000D01*
X77093137Y-73015000D01*
X76883517Y-73056696D01*
X76686060Y-73138485D01*
X76508353Y-73257225D01*
X76357225Y-73408353D01*
X76238485Y-73586060D01*
X76156696Y-73783517D01*
X76115000Y-73993137D01*
X73885000Y-73993137D01*
X73843304Y-73783517D01*
X73761515Y-73586060D01*
X73642775Y-73408353D01*
X73491647Y-73257225D01*
X73313940Y-73138485D01*
X73116483Y-73056696D01*
X72906863Y-73015000D01*
X72693137Y-73015000D01*
X72483517Y-73056696D01*
X72286060Y-73138485D01*
X72108353Y-73257225D01*
X71957225Y-73408353D01*
X71838485Y-73586060D01*
X71756696Y-73783517D01*
X71715000Y-73993137D01*
X69660000Y-73993137D01*
X69660000Y-70273380D01*
X71335319Y-68598061D01*
X72765000Y-68598061D01*
X72765000Y-68801939D01*
X72804774Y-69001898D01*
X72882795Y-69190256D01*
X72996063Y-69359774D01*
X73140226Y-69503937D01*
X73309744Y-69617205D01*
X73498102Y-69695226D01*
X73698061Y-69735000D01*
X73760198Y-69735000D01*
X74172908Y-70147710D01*
X74196706Y-70176708D01*
X74312431Y-70271681D01*
X74444460Y-70342253D01*
X74490373Y-70356180D01*
X74574837Y-70440644D01*
X74744355Y-70553912D01*
X74932713Y-70631933D01*
X75132672Y-70671707D01*
X75336550Y-70671707D01*
X75536509Y-70631933D01*
X75724867Y-70553912D01*
X75894385Y-70440644D01*
X76038548Y-70296481D01*
X76151816Y-70126963D01*
X76229837Y-69938605D01*
X76269611Y-69738646D01*
X76269611Y-69534768D01*
X76229837Y-69334809D01*
X76151816Y-69146451D01*
X76038548Y-68976933D01*
X75894385Y-68832770D01*
X75724867Y-68719502D01*
X75536509Y-68641481D01*
X75336550Y-68601707D01*
X75132672Y-68601707D01*
X74932713Y-68641481D01*
X74850384Y-68675583D01*
X74835000Y-68660198D01*
X74835000Y-68598061D01*
X74795226Y-68398102D01*
X74717205Y-68209744D01*
X74603937Y-68040226D01*
X74459774Y-67896063D01*
X74290256Y-67782795D01*
X74101898Y-67704774D01*
X73901939Y-67665000D01*
X73698061Y-67665000D01*
X73498102Y-67704774D01*
X73309744Y-67782795D01*
X73140226Y-67896063D01*
X72996063Y-68040226D01*
X72882795Y-68209744D01*
X72804774Y-68398102D01*
X72765000Y-68598061D01*
X71335319Y-68598061D01*
X73443764Y-66489616D01*
X73468948Y-66468948D01*
X73516179Y-66411397D01*
X73551425Y-66368451D01*
X73572772Y-66328513D01*
X73612710Y-66253793D01*
X73640945Y-66160714D01*
X79702347Y-66160714D01*
X79702347Y-66364592D01*
X79742121Y-66564551D01*
X79820142Y-66752909D01*
X79933410Y-66922427D01*
X80077573Y-67066590D01*
X80247091Y-67179858D01*
X80435449Y-67257879D01*
X80635408Y-67297653D01*
X80697545Y-67297653D01*
X81490001Y-68090110D01*
X81490000Y-69046289D01*
X81446063Y-69090226D01*
X81332795Y-69259744D01*
X81254774Y-69448102D01*
X81215000Y-69648061D01*
X81215000Y-69851939D01*
X81254774Y-70051898D01*
X81332795Y-70240256D01*
X81446063Y-70409774D01*
X81590226Y-70553937D01*
X81759744Y-70667205D01*
X81948102Y-70745226D01*
X82148061Y-70785000D01*
X82351939Y-70785000D01*
X82551898Y-70745226D01*
X82740256Y-70667205D01*
X82909774Y-70553937D01*
X83053937Y-70409774D01*
X83167205Y-70240256D01*
X83245226Y-70051898D01*
X83285000Y-69851939D01*
X83285000Y-69648061D01*
X83245226Y-69448102D01*
X83167205Y-69259744D01*
X83053937Y-69090226D01*
X83010000Y-69046289D01*
X83010000Y-67812628D01*
X83013676Y-67775305D01*
X83010000Y-67737982D01*
X83010000Y-67737973D01*
X82999003Y-67626320D01*
X82955546Y-67483059D01*
X82884974Y-67351030D01*
X82841169Y-67297653D01*
X82813799Y-67264302D01*
X82813795Y-67264298D01*
X82790001Y-67235305D01*
X82761008Y-67211511D01*
X81772347Y-66222851D01*
X81772347Y-66160714D01*
X81732573Y-65960755D01*
X81654552Y-65772397D01*
X81541284Y-65602879D01*
X81397121Y-65458716D01*
X81227603Y-65345448D01*
X81039245Y-65267427D01*
X80839286Y-65227653D01*
X80635408Y-65227653D01*
X80435449Y-65267427D01*
X80247091Y-65345448D01*
X80077573Y-65458716D01*
X79933410Y-65602879D01*
X79820142Y-65772397D01*
X79742121Y-65960755D01*
X79702347Y-66160714D01*
X73640945Y-66160714D01*
X73650450Y-66129383D01*
X73660000Y-66032419D01*
X73660000Y-66032410D01*
X73663192Y-66000001D01*
X73660000Y-65967592D01*
X73660000Y-63735224D01*
X73682795Y-63790256D01*
X73796063Y-63959774D01*
X73940226Y-64103937D01*
X74109744Y-64217205D01*
X74298102Y-64295226D01*
X74498061Y-64335000D01*
X74701939Y-64335000D01*
X74901898Y-64295226D01*
X75090256Y-64217205D01*
X75259774Y-64103937D01*
X75403937Y-63959774D01*
X75517205Y-63790256D01*
X75517426Y-63789721D01*
X81365000Y-63789721D01*
X81365000Y-64210279D01*
X81447047Y-64622756D01*
X81607988Y-65011302D01*
X81841637Y-65360983D01*
X82139017Y-65658363D01*
X82488698Y-65892012D01*
X82877244Y-66052953D01*
X83289721Y-66135000D01*
X83710279Y-66135000D01*
X84122756Y-66052953D01*
X84511302Y-65892012D01*
X84860983Y-65658363D01*
X85158363Y-65360983D01*
X85392012Y-65011302D01*
X85552953Y-64622756D01*
X85635000Y-64210279D01*
X85635000Y-63789721D01*
X85552953Y-63377244D01*
X85392012Y-62988698D01*
X85158363Y-62639017D01*
X84860983Y-62341637D01*
X84511302Y-62107988D01*
X84122756Y-61947047D01*
X83710279Y-61865000D01*
X83289721Y-61865000D01*
X82877244Y-61947047D01*
X82488698Y-62107988D01*
X82139017Y-62341637D01*
X81841637Y-62639017D01*
X81607988Y-62988698D01*
X81447047Y-63377244D01*
X81365000Y-63789721D01*
X75517426Y-63789721D01*
X75595226Y-63601898D01*
X75635000Y-63401939D01*
X75635000Y-63198061D01*
X75595226Y-62998102D01*
X75517205Y-62809744D01*
X75403937Y-62640226D01*
X75360000Y-62596289D01*
X75360000Y-62214801D01*
X78349567Y-59225235D01*
X78484734Y-59315551D01*
X78673092Y-59393572D01*
X78873051Y-59433346D01*
X79076929Y-59433346D01*
X79276888Y-59393572D01*
X79465000Y-59315653D01*
X79465000Y-59351939D01*
X79504774Y-59551898D01*
X79582795Y-59740256D01*
X79696063Y-59909774D01*
X79840226Y-60053937D01*
X80009744Y-60167205D01*
X80198102Y-60245226D01*
X80398061Y-60285000D01*
X80601939Y-60285000D01*
X80801898Y-60245226D01*
X80990256Y-60167205D01*
X81159774Y-60053937D01*
X81303937Y-59909774D01*
X81417205Y-59740256D01*
X81495226Y-59551898D01*
X81535000Y-59351939D01*
X81535000Y-59148061D01*
X81495226Y-58948102D01*
X81417205Y-58759744D01*
X81303937Y-58590226D01*
X81159774Y-58446063D01*
X80990256Y-58332795D01*
X80801898Y-58254774D01*
X80601939Y-58215000D01*
X80539801Y-58215000D01*
X80460000Y-58135199D01*
X80460000Y-56653711D01*
X80503937Y-56609774D01*
X80617205Y-56440256D01*
X80695226Y-56251898D01*
X80735000Y-56051939D01*
X80735000Y-55848061D01*
X80734999Y-55848051D01*
X83465000Y-55848051D01*
X83465000Y-56051929D01*
X83504774Y-56251888D01*
X83582795Y-56440246D01*
X83696063Y-56609764D01*
X83840226Y-56753927D01*
X84009744Y-56867195D01*
X84198102Y-56945216D01*
X84340001Y-56973441D01*
X84340000Y-57936494D01*
X84248102Y-57954774D01*
X84059744Y-58032795D01*
X83890226Y-58146063D01*
X83746063Y-58290226D01*
X83632795Y-58459744D01*
X83554774Y-58648102D01*
X83515000Y-58848061D01*
X83515000Y-59051939D01*
X83554774Y-59251898D01*
X83632795Y-59440256D01*
X83746063Y-59609774D01*
X83890226Y-59753937D01*
X84059744Y-59867205D01*
X84205199Y-59927455D01*
X84257753Y-59955546D01*
X84401014Y-59999003D01*
X84550000Y-60013677D01*
X84698985Y-59999003D01*
X84842246Y-59955546D01*
X84894797Y-59927457D01*
X85040256Y-59867205D01*
X85050000Y-59860694D01*
X85059744Y-59867205D01*
X85248102Y-59945226D01*
X85448061Y-59985000D01*
X85651939Y-59985000D01*
X85851898Y-59945226D01*
X86040256Y-59867205D01*
X86209774Y-59753937D01*
X86353937Y-59609774D01*
X86467205Y-59440256D01*
X86545226Y-59251898D01*
X86556535Y-59195043D01*
X86595044Y-59156534D01*
X86628817Y-59128817D01*
X86739411Y-58994059D01*
X86821589Y-58840313D01*
X86872195Y-58673490D01*
X86885000Y-58543477D01*
X86885000Y-58543467D01*
X86889281Y-58500001D01*
X86885000Y-58456535D01*
X86885000Y-56443465D01*
X86889281Y-56399999D01*
X86885000Y-56356533D01*
X86885000Y-56356523D01*
X86872195Y-56226510D01*
X86821589Y-56059687D01*
X86739411Y-55905941D01*
X86628817Y-55771183D01*
X86606045Y-55752495D01*
X86595226Y-55698102D01*
X86517205Y-55509744D01*
X86403937Y-55340226D01*
X86259774Y-55196063D01*
X86090256Y-55082795D01*
X85901898Y-55004774D01*
X85701939Y-54965000D01*
X85498061Y-54965000D01*
X85298102Y-55004774D01*
X85109744Y-55082795D01*
X85087423Y-55097710D01*
X84990256Y-55032785D01*
X84801898Y-54954764D01*
X84601939Y-54914990D01*
X84398061Y-54914990D01*
X84198102Y-54954764D01*
X84009744Y-55032785D01*
X83840226Y-55146053D01*
X83696063Y-55290216D01*
X83582795Y-55459734D01*
X83504774Y-55648092D01*
X83465000Y-55848051D01*
X80734999Y-55848051D01*
X80695226Y-55648102D01*
X80617205Y-55459744D01*
X80503937Y-55290226D01*
X80359774Y-55146063D01*
X80190256Y-55032795D01*
X80001898Y-54954774D01*
X79801939Y-54915000D01*
X79598061Y-54915000D01*
X79398102Y-54954774D01*
X79209744Y-55032795D01*
X79040226Y-55146063D01*
X78896063Y-55290226D01*
X78782795Y-55459744D01*
X78704774Y-55648102D01*
X78665000Y-55848061D01*
X78665000Y-56051939D01*
X78704774Y-56251898D01*
X78782795Y-56440256D01*
X78896063Y-56609774D01*
X78940001Y-56653712D01*
X78940000Y-57363346D01*
X78873051Y-57363346D01*
X78673092Y-57403120D01*
X78484734Y-57481141D01*
X78315216Y-57594409D01*
X78271279Y-57638346D01*
X78138987Y-57638346D01*
X78101654Y-57634669D01*
X78064321Y-57638346D01*
X77952668Y-57649343D01*
X77809407Y-57692800D01*
X77677378Y-57763372D01*
X77636283Y-57797098D01*
X78443770Y-56989611D01*
X78468948Y-56968948D01*
X78551425Y-56868450D01*
X78612710Y-56753793D01*
X78650450Y-56629383D01*
X78660000Y-56532419D01*
X78660000Y-56532409D01*
X78663192Y-56500000D01*
X78660000Y-56467591D01*
X78660000Y-52273380D01*
X82273380Y-48660000D01*
X87887294Y-48660000D01*
X87728359Y-48873080D01*
M02*
