M48
; DRILL file {KiCad 5.1.5} date czw, 6 lut 2020, 17:37:57
; FORMAT={-:-/ absolute / metric / decimal}
; #@! TF.CreationDate,2020-02-06T17:37:57+01:00
; #@! TF.GenerationSoftware,Kicad,Pcbnew,5.1.5
FMAT,2
METRIC
T1C0.400
T2C1.000
T3C2.200
T4C0.900
%
G90
G05
T1
X73.8Y-68.7
X74.42Y-65.541
X74.6Y-63.3
X75.235Y-69.637
X75.8Y-73.7
X77.5Y-71.5
X78.0Y-60.0
X78.975Y-58.398
X79.7Y-55.95
X80.5Y-59.25
X80.737Y-66.263
X80.75Y-68.5
X82.25Y-69.75
X82.3Y-74.5
X83.25Y-74.5
X84.5Y-55.95
X84.55Y-58.95
X85.55Y-58.95
X85.6Y-56.0
X86.3Y-76.2
T2
X89.0Y-49.64
X89.0Y-52.18
X89.0Y-54.72
X89.0Y-57.26
X89.0Y-59.8
X89.0Y-62.34
T3
X82.8Y-49.7
X83.5Y-64.0
X89.0Y-78.0
T4
X72.8Y-74.1
X77.2Y-74.1
T0
M30
