G04 #@! TF.GenerationSoftware,KiCad,Pcbnew,5.1.5*
G04 #@! TF.CreationDate,2020-02-06T17:38:06+01:00*
G04 #@! TF.ProjectId,lichtenprog,6c696368-7465-46e7-9072-6f672e6b6963,rev?*
G04 #@! TF.SameCoordinates,Original*
G04 #@! TF.FileFunction,Soldermask,Bot*
G04 #@! TF.FilePolarity,Negative*
%FSLAX46Y46*%
G04 Gerber Fmt 4.6, Leading zero omitted, Abs format (unit mm)*
G04 Created by KiCad (PCBNEW 5.1.5) date 2020-02-06 17:38:06*
%MOMM*%
%LPD*%
G04 APERTURE LIST*
%ADD10C,0.100000*%
G04 APERTURE END LIST*
D10*
G36*
X77297740Y-73608627D02*
G01*
X77346136Y-73618253D01*
X77383902Y-73633896D01*
X77437311Y-73656019D01*
X77437312Y-73656020D01*
X77519369Y-73710848D01*
X77589152Y-73780631D01*
X77589153Y-73780633D01*
X77643981Y-73862689D01*
X77681747Y-73953865D01*
X77701000Y-74050655D01*
X77701000Y-74149345D01*
X77681747Y-74246135D01*
X77643981Y-74337311D01*
X77643980Y-74337312D01*
X77589152Y-74419369D01*
X77519369Y-74489152D01*
X77478062Y-74516752D01*
X77437311Y-74543981D01*
X77383902Y-74566104D01*
X77346136Y-74581747D01*
X77297740Y-74591373D01*
X77249345Y-74601000D01*
X77150655Y-74601000D01*
X77102260Y-74591373D01*
X77053864Y-74581747D01*
X77016098Y-74566104D01*
X76962689Y-74543981D01*
X76921938Y-74516752D01*
X76880631Y-74489152D01*
X76810848Y-74419369D01*
X76756020Y-74337312D01*
X76756019Y-74337311D01*
X76718253Y-74246135D01*
X76699000Y-74149345D01*
X76699000Y-74050655D01*
X76718253Y-73953865D01*
X76756019Y-73862689D01*
X76810847Y-73780633D01*
X76810848Y-73780631D01*
X76880631Y-73710848D01*
X76962688Y-73656020D01*
X76962689Y-73656019D01*
X77016098Y-73633896D01*
X77053864Y-73618253D01*
X77102260Y-73608627D01*
X77150655Y-73599000D01*
X77249345Y-73599000D01*
X77297740Y-73608627D01*
G37*
G36*
X72897740Y-73608627D02*
G01*
X72946136Y-73618253D01*
X72983902Y-73633896D01*
X73037311Y-73656019D01*
X73037312Y-73656020D01*
X73119369Y-73710848D01*
X73189152Y-73780631D01*
X73189153Y-73780633D01*
X73243981Y-73862689D01*
X73281747Y-73953865D01*
X73301000Y-74050655D01*
X73301000Y-74149345D01*
X73281747Y-74246135D01*
X73243981Y-74337311D01*
X73243980Y-74337312D01*
X73189152Y-74419369D01*
X73119369Y-74489152D01*
X73078062Y-74516752D01*
X73037311Y-74543981D01*
X72983902Y-74566104D01*
X72946136Y-74581747D01*
X72897740Y-74591373D01*
X72849345Y-74601000D01*
X72750655Y-74601000D01*
X72702260Y-74591373D01*
X72653864Y-74581747D01*
X72616098Y-74566104D01*
X72562689Y-74543981D01*
X72521938Y-74516752D01*
X72480631Y-74489152D01*
X72410848Y-74419369D01*
X72356020Y-74337312D01*
X72356019Y-74337311D01*
X72318253Y-74246135D01*
X72299000Y-74149345D01*
X72299000Y-74050655D01*
X72318253Y-73953865D01*
X72356019Y-73862689D01*
X72410847Y-73780633D01*
X72410848Y-73780631D01*
X72480631Y-73710848D01*
X72562688Y-73656020D01*
X72562689Y-73656019D01*
X72616098Y-73633896D01*
X72653864Y-73618253D01*
X72702260Y-73608627D01*
X72750655Y-73599000D01*
X72849345Y-73599000D01*
X72897740Y-73608627D01*
G37*
G36*
X89901000Y-63241000D02*
G01*
X88099000Y-63241000D01*
X88099000Y-61439000D01*
X89901000Y-61439000D01*
X89901000Y-63241000D01*
G37*
G36*
X89113512Y-58903927D02*
G01*
X89262812Y-58933624D01*
X89426784Y-59001544D01*
X89574354Y-59100147D01*
X89699853Y-59225646D01*
X89798456Y-59373216D01*
X89866376Y-59537188D01*
X89901000Y-59711259D01*
X89901000Y-59888741D01*
X89866376Y-60062812D01*
X89798456Y-60226784D01*
X89699853Y-60374354D01*
X89574354Y-60499853D01*
X89426784Y-60598456D01*
X89262812Y-60666376D01*
X89113512Y-60696073D01*
X89088742Y-60701000D01*
X88911258Y-60701000D01*
X88886488Y-60696073D01*
X88737188Y-60666376D01*
X88573216Y-60598456D01*
X88425646Y-60499853D01*
X88300147Y-60374354D01*
X88201544Y-60226784D01*
X88133624Y-60062812D01*
X88099000Y-59888741D01*
X88099000Y-59711259D01*
X88133624Y-59537188D01*
X88201544Y-59373216D01*
X88300147Y-59225646D01*
X88425646Y-59100147D01*
X88573216Y-59001544D01*
X88737188Y-58933624D01*
X88886488Y-58903927D01*
X88911258Y-58899000D01*
X89088742Y-58899000D01*
X89113512Y-58903927D01*
G37*
G36*
X89113512Y-56363927D02*
G01*
X89262812Y-56393624D01*
X89426784Y-56461544D01*
X89574354Y-56560147D01*
X89699853Y-56685646D01*
X89798456Y-56833216D01*
X89866376Y-56997188D01*
X89901000Y-57171259D01*
X89901000Y-57348741D01*
X89866376Y-57522812D01*
X89798456Y-57686784D01*
X89699853Y-57834354D01*
X89574354Y-57959853D01*
X89426784Y-58058456D01*
X89262812Y-58126376D01*
X89113512Y-58156073D01*
X89088742Y-58161000D01*
X88911258Y-58161000D01*
X88886488Y-58156073D01*
X88737188Y-58126376D01*
X88573216Y-58058456D01*
X88425646Y-57959853D01*
X88300147Y-57834354D01*
X88201544Y-57686784D01*
X88133624Y-57522812D01*
X88099000Y-57348741D01*
X88099000Y-57171259D01*
X88133624Y-56997188D01*
X88201544Y-56833216D01*
X88300147Y-56685646D01*
X88425646Y-56560147D01*
X88573216Y-56461544D01*
X88737188Y-56393624D01*
X88886488Y-56363927D01*
X88911258Y-56359000D01*
X89088742Y-56359000D01*
X89113512Y-56363927D01*
G37*
G36*
X89113512Y-53823927D02*
G01*
X89262812Y-53853624D01*
X89426784Y-53921544D01*
X89574354Y-54020147D01*
X89699853Y-54145646D01*
X89798456Y-54293216D01*
X89866376Y-54457188D01*
X89901000Y-54631259D01*
X89901000Y-54808741D01*
X89866376Y-54982812D01*
X89798456Y-55146784D01*
X89699853Y-55294354D01*
X89574354Y-55419853D01*
X89426784Y-55518456D01*
X89262812Y-55586376D01*
X89113512Y-55616073D01*
X89088742Y-55621000D01*
X88911258Y-55621000D01*
X88886488Y-55616073D01*
X88737188Y-55586376D01*
X88573216Y-55518456D01*
X88425646Y-55419853D01*
X88300147Y-55294354D01*
X88201544Y-55146784D01*
X88133624Y-54982812D01*
X88099000Y-54808741D01*
X88099000Y-54631259D01*
X88133624Y-54457188D01*
X88201544Y-54293216D01*
X88300147Y-54145646D01*
X88425646Y-54020147D01*
X88573216Y-53921544D01*
X88737188Y-53853624D01*
X88886488Y-53823927D01*
X88911258Y-53819000D01*
X89088742Y-53819000D01*
X89113512Y-53823927D01*
G37*
G36*
X89113512Y-51283927D02*
G01*
X89262812Y-51313624D01*
X89426784Y-51381544D01*
X89574354Y-51480147D01*
X89699853Y-51605646D01*
X89798456Y-51753216D01*
X89866376Y-51917188D01*
X89901000Y-52091259D01*
X89901000Y-52268741D01*
X89866376Y-52442812D01*
X89798456Y-52606784D01*
X89699853Y-52754354D01*
X89574354Y-52879853D01*
X89426784Y-52978456D01*
X89262812Y-53046376D01*
X89113512Y-53076073D01*
X89088742Y-53081000D01*
X88911258Y-53081000D01*
X88886488Y-53076073D01*
X88737188Y-53046376D01*
X88573216Y-52978456D01*
X88425646Y-52879853D01*
X88300147Y-52754354D01*
X88201544Y-52606784D01*
X88133624Y-52442812D01*
X88099000Y-52268741D01*
X88099000Y-52091259D01*
X88133624Y-51917188D01*
X88201544Y-51753216D01*
X88300147Y-51605646D01*
X88425646Y-51480147D01*
X88573216Y-51381544D01*
X88737188Y-51313624D01*
X88886488Y-51283927D01*
X88911258Y-51279000D01*
X89088742Y-51279000D01*
X89113512Y-51283927D01*
G37*
G36*
X89113512Y-48743927D02*
G01*
X89262812Y-48773624D01*
X89426784Y-48841544D01*
X89574354Y-48940147D01*
X89699853Y-49065646D01*
X89798456Y-49213216D01*
X89866376Y-49377188D01*
X89901000Y-49551259D01*
X89901000Y-49728741D01*
X89866376Y-49902812D01*
X89798456Y-50066784D01*
X89699853Y-50214354D01*
X89574354Y-50339853D01*
X89426784Y-50438456D01*
X89262812Y-50506376D01*
X89113512Y-50536073D01*
X89088742Y-50541000D01*
X88911258Y-50541000D01*
X88886488Y-50536073D01*
X88737188Y-50506376D01*
X88573216Y-50438456D01*
X88425646Y-50339853D01*
X88300147Y-50214354D01*
X88201544Y-50066784D01*
X88133624Y-49902812D01*
X88099000Y-49728741D01*
X88099000Y-49551259D01*
X88133624Y-49377188D01*
X88201544Y-49213216D01*
X88300147Y-49065646D01*
X88425646Y-48940147D01*
X88573216Y-48841544D01*
X88737188Y-48773624D01*
X88886488Y-48743927D01*
X88911258Y-48739000D01*
X89088742Y-48739000D01*
X89113512Y-48743927D01*
G37*
M02*
