G04 #@! TF.GenerationSoftware,KiCad,Pcbnew,5.1.5*
G04 #@! TF.CreationDate,2020-02-06T17:38:06+01:00*
G04 #@! TF.ProjectId,lichtenprog,6c696368-7465-46e7-9072-6f672e6b6963,rev?*
G04 #@! TF.SameCoordinates,Original*
G04 #@! TF.FileFunction,Paste,Top*
G04 #@! TF.FilePolarity,Positive*
%FSLAX46Y46*%
G04 Gerber Fmt 4.6, Leading zero omitted, Abs format (unit mm)*
G04 Created by KiCad (PCBNEW 5.1.5) date 2020-02-06 17:38:06*
%MOMM*%
%LPD*%
G04 APERTURE LIST*
%ADD10C,0.100000*%
%ADD11R,1.500000X2.000000*%
%ADD12R,3.800000X2.000000*%
%ADD13R,0.500000X2.500000*%
%ADD14R,2.000000X2.500000*%
G04 APERTURE END LIST*
D10*
G36*
X75018600Y-62383207D02*
G01*
X75024667Y-62384107D01*
X75030617Y-62385597D01*
X75036392Y-62387664D01*
X75041936Y-62390286D01*
X75047197Y-62393439D01*
X75052124Y-62397093D01*
X75056668Y-62401212D01*
X75533965Y-62878509D01*
X75538084Y-62883053D01*
X75541738Y-62887980D01*
X75544891Y-62893241D01*
X75547513Y-62898785D01*
X75549580Y-62904560D01*
X75551070Y-62910510D01*
X75551970Y-62916577D01*
X75552271Y-62922703D01*
X75551970Y-62928829D01*
X75551070Y-62934896D01*
X75549580Y-62940846D01*
X75547513Y-62946621D01*
X75544891Y-62952165D01*
X75541738Y-62957426D01*
X75538084Y-62962353D01*
X75533965Y-62966897D01*
X75445576Y-63055286D01*
X75441032Y-63059405D01*
X75436105Y-63063059D01*
X75430844Y-63066212D01*
X75425300Y-63068834D01*
X75419525Y-63070901D01*
X75413575Y-63072391D01*
X75407508Y-63073291D01*
X75401382Y-63073592D01*
X75395256Y-63073291D01*
X75389189Y-63072391D01*
X75383239Y-63070901D01*
X75377464Y-63068834D01*
X75371920Y-63066212D01*
X75366659Y-63063059D01*
X75361732Y-63059405D01*
X75357188Y-63055286D01*
X74879891Y-62577989D01*
X74875772Y-62573445D01*
X74872118Y-62568518D01*
X74868965Y-62563257D01*
X74866343Y-62557713D01*
X74864276Y-62551938D01*
X74862786Y-62545988D01*
X74861886Y-62539921D01*
X74861585Y-62533795D01*
X74861886Y-62527669D01*
X74862786Y-62521602D01*
X74864276Y-62515652D01*
X74866343Y-62509877D01*
X74868965Y-62504333D01*
X74872118Y-62499072D01*
X74875772Y-62494145D01*
X74879891Y-62489601D01*
X74968280Y-62401212D01*
X74972824Y-62397093D01*
X74977751Y-62393439D01*
X74983012Y-62390286D01*
X74988556Y-62387664D01*
X74994331Y-62385597D01*
X75000281Y-62384107D01*
X75006348Y-62383207D01*
X75012474Y-62382906D01*
X75018600Y-62383207D01*
G37*
G36*
X75372154Y-62029653D02*
G01*
X75378221Y-62030553D01*
X75384171Y-62032043D01*
X75389946Y-62034110D01*
X75395490Y-62036732D01*
X75400751Y-62039885D01*
X75405678Y-62043539D01*
X75410222Y-62047658D01*
X75887519Y-62524955D01*
X75891638Y-62529499D01*
X75895292Y-62534426D01*
X75898445Y-62539687D01*
X75901067Y-62545231D01*
X75903134Y-62551006D01*
X75904624Y-62556956D01*
X75905524Y-62563023D01*
X75905825Y-62569149D01*
X75905524Y-62575275D01*
X75904624Y-62581342D01*
X75903134Y-62587292D01*
X75901067Y-62593067D01*
X75898445Y-62598611D01*
X75895292Y-62603872D01*
X75891638Y-62608799D01*
X75887519Y-62613343D01*
X75799130Y-62701732D01*
X75794586Y-62705851D01*
X75789659Y-62709505D01*
X75784398Y-62712658D01*
X75778854Y-62715280D01*
X75773079Y-62717347D01*
X75767129Y-62718837D01*
X75761062Y-62719737D01*
X75754936Y-62720038D01*
X75748810Y-62719737D01*
X75742743Y-62718837D01*
X75736793Y-62717347D01*
X75731018Y-62715280D01*
X75725474Y-62712658D01*
X75720213Y-62709505D01*
X75715286Y-62705851D01*
X75710742Y-62701732D01*
X75233445Y-62224435D01*
X75229326Y-62219891D01*
X75225672Y-62214964D01*
X75222519Y-62209703D01*
X75219897Y-62204159D01*
X75217830Y-62198384D01*
X75216340Y-62192434D01*
X75215440Y-62186367D01*
X75215139Y-62180241D01*
X75215440Y-62174115D01*
X75216340Y-62168048D01*
X75217830Y-62162098D01*
X75219897Y-62156323D01*
X75222519Y-62150779D01*
X75225672Y-62145518D01*
X75229326Y-62140591D01*
X75233445Y-62136047D01*
X75321834Y-62047658D01*
X75326378Y-62043539D01*
X75331305Y-62039885D01*
X75336566Y-62036732D01*
X75342110Y-62034110D01*
X75347885Y-62032043D01*
X75353835Y-62030553D01*
X75359902Y-62029653D01*
X75366028Y-62029352D01*
X75372154Y-62029653D01*
G37*
G36*
X75725707Y-61676100D02*
G01*
X75731774Y-61677000D01*
X75737724Y-61678490D01*
X75743499Y-61680557D01*
X75749043Y-61683179D01*
X75754304Y-61686332D01*
X75759231Y-61689986D01*
X75763775Y-61694105D01*
X76241072Y-62171402D01*
X76245191Y-62175946D01*
X76248845Y-62180873D01*
X76251998Y-62186134D01*
X76254620Y-62191678D01*
X76256687Y-62197453D01*
X76258177Y-62203403D01*
X76259077Y-62209470D01*
X76259378Y-62215596D01*
X76259077Y-62221722D01*
X76258177Y-62227789D01*
X76256687Y-62233739D01*
X76254620Y-62239514D01*
X76251998Y-62245058D01*
X76248845Y-62250319D01*
X76245191Y-62255246D01*
X76241072Y-62259790D01*
X76152683Y-62348179D01*
X76148139Y-62352298D01*
X76143212Y-62355952D01*
X76137951Y-62359105D01*
X76132407Y-62361727D01*
X76126632Y-62363794D01*
X76120682Y-62365284D01*
X76114615Y-62366184D01*
X76108489Y-62366485D01*
X76102363Y-62366184D01*
X76096296Y-62365284D01*
X76090346Y-62363794D01*
X76084571Y-62361727D01*
X76079027Y-62359105D01*
X76073766Y-62355952D01*
X76068839Y-62352298D01*
X76064295Y-62348179D01*
X75586998Y-61870882D01*
X75582879Y-61866338D01*
X75579225Y-61861411D01*
X75576072Y-61856150D01*
X75573450Y-61850606D01*
X75571383Y-61844831D01*
X75569893Y-61838881D01*
X75568993Y-61832814D01*
X75568692Y-61826688D01*
X75568993Y-61820562D01*
X75569893Y-61814495D01*
X75571383Y-61808545D01*
X75573450Y-61802770D01*
X75576072Y-61797226D01*
X75579225Y-61791965D01*
X75582879Y-61787038D01*
X75586998Y-61782494D01*
X75675387Y-61694105D01*
X75679931Y-61689986D01*
X75684858Y-61686332D01*
X75690119Y-61683179D01*
X75695663Y-61680557D01*
X75701438Y-61678490D01*
X75707388Y-61677000D01*
X75713455Y-61676100D01*
X75719581Y-61675799D01*
X75725707Y-61676100D01*
G37*
G36*
X76079260Y-61322546D02*
G01*
X76085327Y-61323446D01*
X76091277Y-61324936D01*
X76097052Y-61327003D01*
X76102596Y-61329625D01*
X76107857Y-61332778D01*
X76112784Y-61336432D01*
X76117328Y-61340551D01*
X76594625Y-61817848D01*
X76598744Y-61822392D01*
X76602398Y-61827319D01*
X76605551Y-61832580D01*
X76608173Y-61838124D01*
X76610240Y-61843899D01*
X76611730Y-61849849D01*
X76612630Y-61855916D01*
X76612931Y-61862042D01*
X76612630Y-61868168D01*
X76611730Y-61874235D01*
X76610240Y-61880185D01*
X76608173Y-61885960D01*
X76605551Y-61891504D01*
X76602398Y-61896765D01*
X76598744Y-61901692D01*
X76594625Y-61906236D01*
X76506236Y-61994625D01*
X76501692Y-61998744D01*
X76496765Y-62002398D01*
X76491504Y-62005551D01*
X76485960Y-62008173D01*
X76480185Y-62010240D01*
X76474235Y-62011730D01*
X76468168Y-62012630D01*
X76462042Y-62012931D01*
X76455916Y-62012630D01*
X76449849Y-62011730D01*
X76443899Y-62010240D01*
X76438124Y-62008173D01*
X76432580Y-62005551D01*
X76427319Y-62002398D01*
X76422392Y-61998744D01*
X76417848Y-61994625D01*
X75940551Y-61517328D01*
X75936432Y-61512784D01*
X75932778Y-61507857D01*
X75929625Y-61502596D01*
X75927003Y-61497052D01*
X75924936Y-61491277D01*
X75923446Y-61485327D01*
X75922546Y-61479260D01*
X75922245Y-61473134D01*
X75922546Y-61467008D01*
X75923446Y-61460941D01*
X75924936Y-61454991D01*
X75927003Y-61449216D01*
X75929625Y-61443672D01*
X75932778Y-61438411D01*
X75936432Y-61433484D01*
X75940551Y-61428940D01*
X76028940Y-61340551D01*
X76033484Y-61336432D01*
X76038411Y-61332778D01*
X76043672Y-61329625D01*
X76049216Y-61327003D01*
X76054991Y-61324936D01*
X76060941Y-61323446D01*
X76067008Y-61322546D01*
X76073134Y-61322245D01*
X76079260Y-61322546D01*
G37*
G36*
X76432814Y-60968993D02*
G01*
X76438881Y-60969893D01*
X76444831Y-60971383D01*
X76450606Y-60973450D01*
X76456150Y-60976072D01*
X76461411Y-60979225D01*
X76466338Y-60982879D01*
X76470882Y-60986998D01*
X76948179Y-61464295D01*
X76952298Y-61468839D01*
X76955952Y-61473766D01*
X76959105Y-61479027D01*
X76961727Y-61484571D01*
X76963794Y-61490346D01*
X76965284Y-61496296D01*
X76966184Y-61502363D01*
X76966485Y-61508489D01*
X76966184Y-61514615D01*
X76965284Y-61520682D01*
X76963794Y-61526632D01*
X76961727Y-61532407D01*
X76959105Y-61537951D01*
X76955952Y-61543212D01*
X76952298Y-61548139D01*
X76948179Y-61552683D01*
X76859790Y-61641072D01*
X76855246Y-61645191D01*
X76850319Y-61648845D01*
X76845058Y-61651998D01*
X76839514Y-61654620D01*
X76833739Y-61656687D01*
X76827789Y-61658177D01*
X76821722Y-61659077D01*
X76815596Y-61659378D01*
X76809470Y-61659077D01*
X76803403Y-61658177D01*
X76797453Y-61656687D01*
X76791678Y-61654620D01*
X76786134Y-61651998D01*
X76780873Y-61648845D01*
X76775946Y-61645191D01*
X76771402Y-61641072D01*
X76294105Y-61163775D01*
X76289986Y-61159231D01*
X76286332Y-61154304D01*
X76283179Y-61149043D01*
X76280557Y-61143499D01*
X76278490Y-61137724D01*
X76277000Y-61131774D01*
X76276100Y-61125707D01*
X76275799Y-61119581D01*
X76276100Y-61113455D01*
X76277000Y-61107388D01*
X76278490Y-61101438D01*
X76280557Y-61095663D01*
X76283179Y-61090119D01*
X76286332Y-61084858D01*
X76289986Y-61079931D01*
X76294105Y-61075387D01*
X76382494Y-60986998D01*
X76387038Y-60982879D01*
X76391965Y-60979225D01*
X76397226Y-60976072D01*
X76402770Y-60973450D01*
X76408545Y-60971383D01*
X76414495Y-60969893D01*
X76420562Y-60968993D01*
X76426688Y-60968692D01*
X76432814Y-60968993D01*
G37*
G36*
X76786367Y-60615440D02*
G01*
X76792434Y-60616340D01*
X76798384Y-60617830D01*
X76804159Y-60619897D01*
X76809703Y-60622519D01*
X76814964Y-60625672D01*
X76819891Y-60629326D01*
X76824435Y-60633445D01*
X77301732Y-61110742D01*
X77305851Y-61115286D01*
X77309505Y-61120213D01*
X77312658Y-61125474D01*
X77315280Y-61131018D01*
X77317347Y-61136793D01*
X77318837Y-61142743D01*
X77319737Y-61148810D01*
X77320038Y-61154936D01*
X77319737Y-61161062D01*
X77318837Y-61167129D01*
X77317347Y-61173079D01*
X77315280Y-61178854D01*
X77312658Y-61184398D01*
X77309505Y-61189659D01*
X77305851Y-61194586D01*
X77301732Y-61199130D01*
X77213343Y-61287519D01*
X77208799Y-61291638D01*
X77203872Y-61295292D01*
X77198611Y-61298445D01*
X77193067Y-61301067D01*
X77187292Y-61303134D01*
X77181342Y-61304624D01*
X77175275Y-61305524D01*
X77169149Y-61305825D01*
X77163023Y-61305524D01*
X77156956Y-61304624D01*
X77151006Y-61303134D01*
X77145231Y-61301067D01*
X77139687Y-61298445D01*
X77134426Y-61295292D01*
X77129499Y-61291638D01*
X77124955Y-61287519D01*
X76647658Y-60810222D01*
X76643539Y-60805678D01*
X76639885Y-60800751D01*
X76636732Y-60795490D01*
X76634110Y-60789946D01*
X76632043Y-60784171D01*
X76630553Y-60778221D01*
X76629653Y-60772154D01*
X76629352Y-60766028D01*
X76629653Y-60759902D01*
X76630553Y-60753835D01*
X76632043Y-60747885D01*
X76634110Y-60742110D01*
X76636732Y-60736566D01*
X76639885Y-60731305D01*
X76643539Y-60726378D01*
X76647658Y-60721834D01*
X76736047Y-60633445D01*
X76740591Y-60629326D01*
X76745518Y-60625672D01*
X76750779Y-60622519D01*
X76756323Y-60619897D01*
X76762098Y-60617830D01*
X76768048Y-60616340D01*
X76774115Y-60615440D01*
X76780241Y-60615139D01*
X76786367Y-60615440D01*
G37*
G36*
X77139921Y-60261886D02*
G01*
X77145988Y-60262786D01*
X77151938Y-60264276D01*
X77157713Y-60266343D01*
X77163257Y-60268965D01*
X77168518Y-60272118D01*
X77173445Y-60275772D01*
X77177989Y-60279891D01*
X77655286Y-60757188D01*
X77659405Y-60761732D01*
X77663059Y-60766659D01*
X77666212Y-60771920D01*
X77668834Y-60777464D01*
X77670901Y-60783239D01*
X77672391Y-60789189D01*
X77673291Y-60795256D01*
X77673592Y-60801382D01*
X77673291Y-60807508D01*
X77672391Y-60813575D01*
X77670901Y-60819525D01*
X77668834Y-60825300D01*
X77666212Y-60830844D01*
X77663059Y-60836105D01*
X77659405Y-60841032D01*
X77655286Y-60845576D01*
X77566897Y-60933965D01*
X77562353Y-60938084D01*
X77557426Y-60941738D01*
X77552165Y-60944891D01*
X77546621Y-60947513D01*
X77540846Y-60949580D01*
X77534896Y-60951070D01*
X77528829Y-60951970D01*
X77522703Y-60952271D01*
X77516577Y-60951970D01*
X77510510Y-60951070D01*
X77504560Y-60949580D01*
X77498785Y-60947513D01*
X77493241Y-60944891D01*
X77487980Y-60941738D01*
X77483053Y-60938084D01*
X77478509Y-60933965D01*
X77001212Y-60456668D01*
X76997093Y-60452124D01*
X76993439Y-60447197D01*
X76990286Y-60441936D01*
X76987664Y-60436392D01*
X76985597Y-60430617D01*
X76984107Y-60424667D01*
X76983207Y-60418600D01*
X76982906Y-60412474D01*
X76983207Y-60406348D01*
X76984107Y-60400281D01*
X76985597Y-60394331D01*
X76987664Y-60388556D01*
X76990286Y-60383012D01*
X76993439Y-60377751D01*
X76997093Y-60372824D01*
X77001212Y-60368280D01*
X77089601Y-60279891D01*
X77094145Y-60275772D01*
X77099072Y-60272118D01*
X77104333Y-60268965D01*
X77109877Y-60266343D01*
X77115652Y-60264276D01*
X77121602Y-60262786D01*
X77127669Y-60261886D01*
X77133795Y-60261585D01*
X77139921Y-60261886D01*
G37*
G36*
X78872331Y-60261886D02*
G01*
X78878398Y-60262786D01*
X78884348Y-60264276D01*
X78890123Y-60266343D01*
X78895667Y-60268965D01*
X78900928Y-60272118D01*
X78905855Y-60275772D01*
X78910399Y-60279891D01*
X78998788Y-60368280D01*
X79002907Y-60372824D01*
X79006561Y-60377751D01*
X79009714Y-60383012D01*
X79012336Y-60388556D01*
X79014403Y-60394331D01*
X79015893Y-60400281D01*
X79016793Y-60406348D01*
X79017094Y-60412474D01*
X79016793Y-60418600D01*
X79015893Y-60424667D01*
X79014403Y-60430617D01*
X79012336Y-60436392D01*
X79009714Y-60441936D01*
X79006561Y-60447197D01*
X79002907Y-60452124D01*
X78998788Y-60456668D01*
X78521491Y-60933965D01*
X78516947Y-60938084D01*
X78512020Y-60941738D01*
X78506759Y-60944891D01*
X78501215Y-60947513D01*
X78495440Y-60949580D01*
X78489490Y-60951070D01*
X78483423Y-60951970D01*
X78477297Y-60952271D01*
X78471171Y-60951970D01*
X78465104Y-60951070D01*
X78459154Y-60949580D01*
X78453379Y-60947513D01*
X78447835Y-60944891D01*
X78442574Y-60941738D01*
X78437647Y-60938084D01*
X78433103Y-60933965D01*
X78344714Y-60845576D01*
X78340595Y-60841032D01*
X78336941Y-60836105D01*
X78333788Y-60830844D01*
X78331166Y-60825300D01*
X78329099Y-60819525D01*
X78327609Y-60813575D01*
X78326709Y-60807508D01*
X78326408Y-60801382D01*
X78326709Y-60795256D01*
X78327609Y-60789189D01*
X78329099Y-60783239D01*
X78331166Y-60777464D01*
X78333788Y-60771920D01*
X78336941Y-60766659D01*
X78340595Y-60761732D01*
X78344714Y-60757188D01*
X78822011Y-60279891D01*
X78826555Y-60275772D01*
X78831482Y-60272118D01*
X78836743Y-60268965D01*
X78842287Y-60266343D01*
X78848062Y-60264276D01*
X78854012Y-60262786D01*
X78860079Y-60261886D01*
X78866205Y-60261585D01*
X78872331Y-60261886D01*
G37*
G36*
X79225885Y-60615440D02*
G01*
X79231952Y-60616340D01*
X79237902Y-60617830D01*
X79243677Y-60619897D01*
X79249221Y-60622519D01*
X79254482Y-60625672D01*
X79259409Y-60629326D01*
X79263953Y-60633445D01*
X79352342Y-60721834D01*
X79356461Y-60726378D01*
X79360115Y-60731305D01*
X79363268Y-60736566D01*
X79365890Y-60742110D01*
X79367957Y-60747885D01*
X79369447Y-60753835D01*
X79370347Y-60759902D01*
X79370648Y-60766028D01*
X79370347Y-60772154D01*
X79369447Y-60778221D01*
X79367957Y-60784171D01*
X79365890Y-60789946D01*
X79363268Y-60795490D01*
X79360115Y-60800751D01*
X79356461Y-60805678D01*
X79352342Y-60810222D01*
X78875045Y-61287519D01*
X78870501Y-61291638D01*
X78865574Y-61295292D01*
X78860313Y-61298445D01*
X78854769Y-61301067D01*
X78848994Y-61303134D01*
X78843044Y-61304624D01*
X78836977Y-61305524D01*
X78830851Y-61305825D01*
X78824725Y-61305524D01*
X78818658Y-61304624D01*
X78812708Y-61303134D01*
X78806933Y-61301067D01*
X78801389Y-61298445D01*
X78796128Y-61295292D01*
X78791201Y-61291638D01*
X78786657Y-61287519D01*
X78698268Y-61199130D01*
X78694149Y-61194586D01*
X78690495Y-61189659D01*
X78687342Y-61184398D01*
X78684720Y-61178854D01*
X78682653Y-61173079D01*
X78681163Y-61167129D01*
X78680263Y-61161062D01*
X78679962Y-61154936D01*
X78680263Y-61148810D01*
X78681163Y-61142743D01*
X78682653Y-61136793D01*
X78684720Y-61131018D01*
X78687342Y-61125474D01*
X78690495Y-61120213D01*
X78694149Y-61115286D01*
X78698268Y-61110742D01*
X79175565Y-60633445D01*
X79180109Y-60629326D01*
X79185036Y-60625672D01*
X79190297Y-60622519D01*
X79195841Y-60619897D01*
X79201616Y-60617830D01*
X79207566Y-60616340D01*
X79213633Y-60615440D01*
X79219759Y-60615139D01*
X79225885Y-60615440D01*
G37*
G36*
X79579438Y-60968993D02*
G01*
X79585505Y-60969893D01*
X79591455Y-60971383D01*
X79597230Y-60973450D01*
X79602774Y-60976072D01*
X79608035Y-60979225D01*
X79612962Y-60982879D01*
X79617506Y-60986998D01*
X79705895Y-61075387D01*
X79710014Y-61079931D01*
X79713668Y-61084858D01*
X79716821Y-61090119D01*
X79719443Y-61095663D01*
X79721510Y-61101438D01*
X79723000Y-61107388D01*
X79723900Y-61113455D01*
X79724201Y-61119581D01*
X79723900Y-61125707D01*
X79723000Y-61131774D01*
X79721510Y-61137724D01*
X79719443Y-61143499D01*
X79716821Y-61149043D01*
X79713668Y-61154304D01*
X79710014Y-61159231D01*
X79705895Y-61163775D01*
X79228598Y-61641072D01*
X79224054Y-61645191D01*
X79219127Y-61648845D01*
X79213866Y-61651998D01*
X79208322Y-61654620D01*
X79202547Y-61656687D01*
X79196597Y-61658177D01*
X79190530Y-61659077D01*
X79184404Y-61659378D01*
X79178278Y-61659077D01*
X79172211Y-61658177D01*
X79166261Y-61656687D01*
X79160486Y-61654620D01*
X79154942Y-61651998D01*
X79149681Y-61648845D01*
X79144754Y-61645191D01*
X79140210Y-61641072D01*
X79051821Y-61552683D01*
X79047702Y-61548139D01*
X79044048Y-61543212D01*
X79040895Y-61537951D01*
X79038273Y-61532407D01*
X79036206Y-61526632D01*
X79034716Y-61520682D01*
X79033816Y-61514615D01*
X79033515Y-61508489D01*
X79033816Y-61502363D01*
X79034716Y-61496296D01*
X79036206Y-61490346D01*
X79038273Y-61484571D01*
X79040895Y-61479027D01*
X79044048Y-61473766D01*
X79047702Y-61468839D01*
X79051821Y-61464295D01*
X79529118Y-60986998D01*
X79533662Y-60982879D01*
X79538589Y-60979225D01*
X79543850Y-60976072D01*
X79549394Y-60973450D01*
X79555169Y-60971383D01*
X79561119Y-60969893D01*
X79567186Y-60968993D01*
X79573312Y-60968692D01*
X79579438Y-60968993D01*
G37*
G36*
X79932992Y-61322546D02*
G01*
X79939059Y-61323446D01*
X79945009Y-61324936D01*
X79950784Y-61327003D01*
X79956328Y-61329625D01*
X79961589Y-61332778D01*
X79966516Y-61336432D01*
X79971060Y-61340551D01*
X80059449Y-61428940D01*
X80063568Y-61433484D01*
X80067222Y-61438411D01*
X80070375Y-61443672D01*
X80072997Y-61449216D01*
X80075064Y-61454991D01*
X80076554Y-61460941D01*
X80077454Y-61467008D01*
X80077755Y-61473134D01*
X80077454Y-61479260D01*
X80076554Y-61485327D01*
X80075064Y-61491277D01*
X80072997Y-61497052D01*
X80070375Y-61502596D01*
X80067222Y-61507857D01*
X80063568Y-61512784D01*
X80059449Y-61517328D01*
X79582152Y-61994625D01*
X79577608Y-61998744D01*
X79572681Y-62002398D01*
X79567420Y-62005551D01*
X79561876Y-62008173D01*
X79556101Y-62010240D01*
X79550151Y-62011730D01*
X79544084Y-62012630D01*
X79537958Y-62012931D01*
X79531832Y-62012630D01*
X79525765Y-62011730D01*
X79519815Y-62010240D01*
X79514040Y-62008173D01*
X79508496Y-62005551D01*
X79503235Y-62002398D01*
X79498308Y-61998744D01*
X79493764Y-61994625D01*
X79405375Y-61906236D01*
X79401256Y-61901692D01*
X79397602Y-61896765D01*
X79394449Y-61891504D01*
X79391827Y-61885960D01*
X79389760Y-61880185D01*
X79388270Y-61874235D01*
X79387370Y-61868168D01*
X79387069Y-61862042D01*
X79387370Y-61855916D01*
X79388270Y-61849849D01*
X79389760Y-61843899D01*
X79391827Y-61838124D01*
X79394449Y-61832580D01*
X79397602Y-61827319D01*
X79401256Y-61822392D01*
X79405375Y-61817848D01*
X79882672Y-61340551D01*
X79887216Y-61336432D01*
X79892143Y-61332778D01*
X79897404Y-61329625D01*
X79902948Y-61327003D01*
X79908723Y-61324936D01*
X79914673Y-61323446D01*
X79920740Y-61322546D01*
X79926866Y-61322245D01*
X79932992Y-61322546D01*
G37*
G36*
X80286545Y-61676100D02*
G01*
X80292612Y-61677000D01*
X80298562Y-61678490D01*
X80304337Y-61680557D01*
X80309881Y-61683179D01*
X80315142Y-61686332D01*
X80320069Y-61689986D01*
X80324613Y-61694105D01*
X80413002Y-61782494D01*
X80417121Y-61787038D01*
X80420775Y-61791965D01*
X80423928Y-61797226D01*
X80426550Y-61802770D01*
X80428617Y-61808545D01*
X80430107Y-61814495D01*
X80431007Y-61820562D01*
X80431308Y-61826688D01*
X80431007Y-61832814D01*
X80430107Y-61838881D01*
X80428617Y-61844831D01*
X80426550Y-61850606D01*
X80423928Y-61856150D01*
X80420775Y-61861411D01*
X80417121Y-61866338D01*
X80413002Y-61870882D01*
X79935705Y-62348179D01*
X79931161Y-62352298D01*
X79926234Y-62355952D01*
X79920973Y-62359105D01*
X79915429Y-62361727D01*
X79909654Y-62363794D01*
X79903704Y-62365284D01*
X79897637Y-62366184D01*
X79891511Y-62366485D01*
X79885385Y-62366184D01*
X79879318Y-62365284D01*
X79873368Y-62363794D01*
X79867593Y-62361727D01*
X79862049Y-62359105D01*
X79856788Y-62355952D01*
X79851861Y-62352298D01*
X79847317Y-62348179D01*
X79758928Y-62259790D01*
X79754809Y-62255246D01*
X79751155Y-62250319D01*
X79748002Y-62245058D01*
X79745380Y-62239514D01*
X79743313Y-62233739D01*
X79741823Y-62227789D01*
X79740923Y-62221722D01*
X79740622Y-62215596D01*
X79740923Y-62209470D01*
X79741823Y-62203403D01*
X79743313Y-62197453D01*
X79745380Y-62191678D01*
X79748002Y-62186134D01*
X79751155Y-62180873D01*
X79754809Y-62175946D01*
X79758928Y-62171402D01*
X80236225Y-61694105D01*
X80240769Y-61689986D01*
X80245696Y-61686332D01*
X80250957Y-61683179D01*
X80256501Y-61680557D01*
X80262276Y-61678490D01*
X80268226Y-61677000D01*
X80274293Y-61676100D01*
X80280419Y-61675799D01*
X80286545Y-61676100D01*
G37*
G36*
X80640098Y-62029653D02*
G01*
X80646165Y-62030553D01*
X80652115Y-62032043D01*
X80657890Y-62034110D01*
X80663434Y-62036732D01*
X80668695Y-62039885D01*
X80673622Y-62043539D01*
X80678166Y-62047658D01*
X80766555Y-62136047D01*
X80770674Y-62140591D01*
X80774328Y-62145518D01*
X80777481Y-62150779D01*
X80780103Y-62156323D01*
X80782170Y-62162098D01*
X80783660Y-62168048D01*
X80784560Y-62174115D01*
X80784861Y-62180241D01*
X80784560Y-62186367D01*
X80783660Y-62192434D01*
X80782170Y-62198384D01*
X80780103Y-62204159D01*
X80777481Y-62209703D01*
X80774328Y-62214964D01*
X80770674Y-62219891D01*
X80766555Y-62224435D01*
X80289258Y-62701732D01*
X80284714Y-62705851D01*
X80279787Y-62709505D01*
X80274526Y-62712658D01*
X80268982Y-62715280D01*
X80263207Y-62717347D01*
X80257257Y-62718837D01*
X80251190Y-62719737D01*
X80245064Y-62720038D01*
X80238938Y-62719737D01*
X80232871Y-62718837D01*
X80226921Y-62717347D01*
X80221146Y-62715280D01*
X80215602Y-62712658D01*
X80210341Y-62709505D01*
X80205414Y-62705851D01*
X80200870Y-62701732D01*
X80112481Y-62613343D01*
X80108362Y-62608799D01*
X80104708Y-62603872D01*
X80101555Y-62598611D01*
X80098933Y-62593067D01*
X80096866Y-62587292D01*
X80095376Y-62581342D01*
X80094476Y-62575275D01*
X80094175Y-62569149D01*
X80094476Y-62563023D01*
X80095376Y-62556956D01*
X80096866Y-62551006D01*
X80098933Y-62545231D01*
X80101555Y-62539687D01*
X80104708Y-62534426D01*
X80108362Y-62529499D01*
X80112481Y-62524955D01*
X80589778Y-62047658D01*
X80594322Y-62043539D01*
X80599249Y-62039885D01*
X80604510Y-62036732D01*
X80610054Y-62034110D01*
X80615829Y-62032043D01*
X80621779Y-62030553D01*
X80627846Y-62029653D01*
X80633972Y-62029352D01*
X80640098Y-62029653D01*
G37*
G36*
X80993652Y-62383207D02*
G01*
X80999719Y-62384107D01*
X81005669Y-62385597D01*
X81011444Y-62387664D01*
X81016988Y-62390286D01*
X81022249Y-62393439D01*
X81027176Y-62397093D01*
X81031720Y-62401212D01*
X81120109Y-62489601D01*
X81124228Y-62494145D01*
X81127882Y-62499072D01*
X81131035Y-62504333D01*
X81133657Y-62509877D01*
X81135724Y-62515652D01*
X81137214Y-62521602D01*
X81138114Y-62527669D01*
X81138415Y-62533795D01*
X81138114Y-62539921D01*
X81137214Y-62545988D01*
X81135724Y-62551938D01*
X81133657Y-62557713D01*
X81131035Y-62563257D01*
X81127882Y-62568518D01*
X81124228Y-62573445D01*
X81120109Y-62577989D01*
X80642812Y-63055286D01*
X80638268Y-63059405D01*
X80633341Y-63063059D01*
X80628080Y-63066212D01*
X80622536Y-63068834D01*
X80616761Y-63070901D01*
X80610811Y-63072391D01*
X80604744Y-63073291D01*
X80598618Y-63073592D01*
X80592492Y-63073291D01*
X80586425Y-63072391D01*
X80580475Y-63070901D01*
X80574700Y-63068834D01*
X80569156Y-63066212D01*
X80563895Y-63063059D01*
X80558968Y-63059405D01*
X80554424Y-63055286D01*
X80466035Y-62966897D01*
X80461916Y-62962353D01*
X80458262Y-62957426D01*
X80455109Y-62952165D01*
X80452487Y-62946621D01*
X80450420Y-62940846D01*
X80448930Y-62934896D01*
X80448030Y-62928829D01*
X80447729Y-62922703D01*
X80448030Y-62916577D01*
X80448930Y-62910510D01*
X80450420Y-62904560D01*
X80452487Y-62898785D01*
X80455109Y-62893241D01*
X80458262Y-62887980D01*
X80461916Y-62883053D01*
X80466035Y-62878509D01*
X80943332Y-62401212D01*
X80947876Y-62397093D01*
X80952803Y-62393439D01*
X80958064Y-62390286D01*
X80963608Y-62387664D01*
X80969383Y-62385597D01*
X80975333Y-62384107D01*
X80981400Y-62383207D01*
X80987526Y-62382906D01*
X80993652Y-62383207D01*
G37*
G36*
X80604744Y-63726709D02*
G01*
X80610811Y-63727609D01*
X80616761Y-63729099D01*
X80622536Y-63731166D01*
X80628080Y-63733788D01*
X80633341Y-63736941D01*
X80638268Y-63740595D01*
X80642812Y-63744714D01*
X81120109Y-64222011D01*
X81124228Y-64226555D01*
X81127882Y-64231482D01*
X81131035Y-64236743D01*
X81133657Y-64242287D01*
X81135724Y-64248062D01*
X81137214Y-64254012D01*
X81138114Y-64260079D01*
X81138415Y-64266205D01*
X81138114Y-64272331D01*
X81137214Y-64278398D01*
X81135724Y-64284348D01*
X81133657Y-64290123D01*
X81131035Y-64295667D01*
X81127882Y-64300928D01*
X81124228Y-64305855D01*
X81120109Y-64310399D01*
X81031720Y-64398788D01*
X81027176Y-64402907D01*
X81022249Y-64406561D01*
X81016988Y-64409714D01*
X81011444Y-64412336D01*
X81005669Y-64414403D01*
X80999719Y-64415893D01*
X80993652Y-64416793D01*
X80987526Y-64417094D01*
X80981400Y-64416793D01*
X80975333Y-64415893D01*
X80969383Y-64414403D01*
X80963608Y-64412336D01*
X80958064Y-64409714D01*
X80952803Y-64406561D01*
X80947876Y-64402907D01*
X80943332Y-64398788D01*
X80466035Y-63921491D01*
X80461916Y-63916947D01*
X80458262Y-63912020D01*
X80455109Y-63906759D01*
X80452487Y-63901215D01*
X80450420Y-63895440D01*
X80448930Y-63889490D01*
X80448030Y-63883423D01*
X80447729Y-63877297D01*
X80448030Y-63871171D01*
X80448930Y-63865104D01*
X80450420Y-63859154D01*
X80452487Y-63853379D01*
X80455109Y-63847835D01*
X80458262Y-63842574D01*
X80461916Y-63837647D01*
X80466035Y-63833103D01*
X80554424Y-63744714D01*
X80558968Y-63740595D01*
X80563895Y-63736941D01*
X80569156Y-63733788D01*
X80574700Y-63731166D01*
X80580475Y-63729099D01*
X80586425Y-63727609D01*
X80592492Y-63726709D01*
X80598618Y-63726408D01*
X80604744Y-63726709D01*
G37*
G36*
X80251190Y-64080263D02*
G01*
X80257257Y-64081163D01*
X80263207Y-64082653D01*
X80268982Y-64084720D01*
X80274526Y-64087342D01*
X80279787Y-64090495D01*
X80284714Y-64094149D01*
X80289258Y-64098268D01*
X80766555Y-64575565D01*
X80770674Y-64580109D01*
X80774328Y-64585036D01*
X80777481Y-64590297D01*
X80780103Y-64595841D01*
X80782170Y-64601616D01*
X80783660Y-64607566D01*
X80784560Y-64613633D01*
X80784861Y-64619759D01*
X80784560Y-64625885D01*
X80783660Y-64631952D01*
X80782170Y-64637902D01*
X80780103Y-64643677D01*
X80777481Y-64649221D01*
X80774328Y-64654482D01*
X80770674Y-64659409D01*
X80766555Y-64663953D01*
X80678166Y-64752342D01*
X80673622Y-64756461D01*
X80668695Y-64760115D01*
X80663434Y-64763268D01*
X80657890Y-64765890D01*
X80652115Y-64767957D01*
X80646165Y-64769447D01*
X80640098Y-64770347D01*
X80633972Y-64770648D01*
X80627846Y-64770347D01*
X80621779Y-64769447D01*
X80615829Y-64767957D01*
X80610054Y-64765890D01*
X80604510Y-64763268D01*
X80599249Y-64760115D01*
X80594322Y-64756461D01*
X80589778Y-64752342D01*
X80112481Y-64275045D01*
X80108362Y-64270501D01*
X80104708Y-64265574D01*
X80101555Y-64260313D01*
X80098933Y-64254769D01*
X80096866Y-64248994D01*
X80095376Y-64243044D01*
X80094476Y-64236977D01*
X80094175Y-64230851D01*
X80094476Y-64224725D01*
X80095376Y-64218658D01*
X80096866Y-64212708D01*
X80098933Y-64206933D01*
X80101555Y-64201389D01*
X80104708Y-64196128D01*
X80108362Y-64191201D01*
X80112481Y-64186657D01*
X80200870Y-64098268D01*
X80205414Y-64094149D01*
X80210341Y-64090495D01*
X80215602Y-64087342D01*
X80221146Y-64084720D01*
X80226921Y-64082653D01*
X80232871Y-64081163D01*
X80238938Y-64080263D01*
X80245064Y-64079962D01*
X80251190Y-64080263D01*
G37*
G36*
X79897637Y-64433816D02*
G01*
X79903704Y-64434716D01*
X79909654Y-64436206D01*
X79915429Y-64438273D01*
X79920973Y-64440895D01*
X79926234Y-64444048D01*
X79931161Y-64447702D01*
X79935705Y-64451821D01*
X80413002Y-64929118D01*
X80417121Y-64933662D01*
X80420775Y-64938589D01*
X80423928Y-64943850D01*
X80426550Y-64949394D01*
X80428617Y-64955169D01*
X80430107Y-64961119D01*
X80431007Y-64967186D01*
X80431308Y-64973312D01*
X80431007Y-64979438D01*
X80430107Y-64985505D01*
X80428617Y-64991455D01*
X80426550Y-64997230D01*
X80423928Y-65002774D01*
X80420775Y-65008035D01*
X80417121Y-65012962D01*
X80413002Y-65017506D01*
X80324613Y-65105895D01*
X80320069Y-65110014D01*
X80315142Y-65113668D01*
X80309881Y-65116821D01*
X80304337Y-65119443D01*
X80298562Y-65121510D01*
X80292612Y-65123000D01*
X80286545Y-65123900D01*
X80280419Y-65124201D01*
X80274293Y-65123900D01*
X80268226Y-65123000D01*
X80262276Y-65121510D01*
X80256501Y-65119443D01*
X80250957Y-65116821D01*
X80245696Y-65113668D01*
X80240769Y-65110014D01*
X80236225Y-65105895D01*
X79758928Y-64628598D01*
X79754809Y-64624054D01*
X79751155Y-64619127D01*
X79748002Y-64613866D01*
X79745380Y-64608322D01*
X79743313Y-64602547D01*
X79741823Y-64596597D01*
X79740923Y-64590530D01*
X79740622Y-64584404D01*
X79740923Y-64578278D01*
X79741823Y-64572211D01*
X79743313Y-64566261D01*
X79745380Y-64560486D01*
X79748002Y-64554942D01*
X79751155Y-64549681D01*
X79754809Y-64544754D01*
X79758928Y-64540210D01*
X79847317Y-64451821D01*
X79851861Y-64447702D01*
X79856788Y-64444048D01*
X79862049Y-64440895D01*
X79867593Y-64438273D01*
X79873368Y-64436206D01*
X79879318Y-64434716D01*
X79885385Y-64433816D01*
X79891511Y-64433515D01*
X79897637Y-64433816D01*
G37*
G36*
X79544084Y-64787370D02*
G01*
X79550151Y-64788270D01*
X79556101Y-64789760D01*
X79561876Y-64791827D01*
X79567420Y-64794449D01*
X79572681Y-64797602D01*
X79577608Y-64801256D01*
X79582152Y-64805375D01*
X80059449Y-65282672D01*
X80063568Y-65287216D01*
X80067222Y-65292143D01*
X80070375Y-65297404D01*
X80072997Y-65302948D01*
X80075064Y-65308723D01*
X80076554Y-65314673D01*
X80077454Y-65320740D01*
X80077755Y-65326866D01*
X80077454Y-65332992D01*
X80076554Y-65339059D01*
X80075064Y-65345009D01*
X80072997Y-65350784D01*
X80070375Y-65356328D01*
X80067222Y-65361589D01*
X80063568Y-65366516D01*
X80059449Y-65371060D01*
X79971060Y-65459449D01*
X79966516Y-65463568D01*
X79961589Y-65467222D01*
X79956328Y-65470375D01*
X79950784Y-65472997D01*
X79945009Y-65475064D01*
X79939059Y-65476554D01*
X79932992Y-65477454D01*
X79926866Y-65477755D01*
X79920740Y-65477454D01*
X79914673Y-65476554D01*
X79908723Y-65475064D01*
X79902948Y-65472997D01*
X79897404Y-65470375D01*
X79892143Y-65467222D01*
X79887216Y-65463568D01*
X79882672Y-65459449D01*
X79405375Y-64982152D01*
X79401256Y-64977608D01*
X79397602Y-64972681D01*
X79394449Y-64967420D01*
X79391827Y-64961876D01*
X79389760Y-64956101D01*
X79388270Y-64950151D01*
X79387370Y-64944084D01*
X79387069Y-64937958D01*
X79387370Y-64931832D01*
X79388270Y-64925765D01*
X79389760Y-64919815D01*
X79391827Y-64914040D01*
X79394449Y-64908496D01*
X79397602Y-64903235D01*
X79401256Y-64898308D01*
X79405375Y-64893764D01*
X79493764Y-64805375D01*
X79498308Y-64801256D01*
X79503235Y-64797602D01*
X79508496Y-64794449D01*
X79514040Y-64791827D01*
X79519815Y-64789760D01*
X79525765Y-64788270D01*
X79531832Y-64787370D01*
X79537958Y-64787069D01*
X79544084Y-64787370D01*
G37*
G36*
X79190530Y-65140923D02*
G01*
X79196597Y-65141823D01*
X79202547Y-65143313D01*
X79208322Y-65145380D01*
X79213866Y-65148002D01*
X79219127Y-65151155D01*
X79224054Y-65154809D01*
X79228598Y-65158928D01*
X79705895Y-65636225D01*
X79710014Y-65640769D01*
X79713668Y-65645696D01*
X79716821Y-65650957D01*
X79719443Y-65656501D01*
X79721510Y-65662276D01*
X79723000Y-65668226D01*
X79723900Y-65674293D01*
X79724201Y-65680419D01*
X79723900Y-65686545D01*
X79723000Y-65692612D01*
X79721510Y-65698562D01*
X79719443Y-65704337D01*
X79716821Y-65709881D01*
X79713668Y-65715142D01*
X79710014Y-65720069D01*
X79705895Y-65724613D01*
X79617506Y-65813002D01*
X79612962Y-65817121D01*
X79608035Y-65820775D01*
X79602774Y-65823928D01*
X79597230Y-65826550D01*
X79591455Y-65828617D01*
X79585505Y-65830107D01*
X79579438Y-65831007D01*
X79573312Y-65831308D01*
X79567186Y-65831007D01*
X79561119Y-65830107D01*
X79555169Y-65828617D01*
X79549394Y-65826550D01*
X79543850Y-65823928D01*
X79538589Y-65820775D01*
X79533662Y-65817121D01*
X79529118Y-65813002D01*
X79051821Y-65335705D01*
X79047702Y-65331161D01*
X79044048Y-65326234D01*
X79040895Y-65320973D01*
X79038273Y-65315429D01*
X79036206Y-65309654D01*
X79034716Y-65303704D01*
X79033816Y-65297637D01*
X79033515Y-65291511D01*
X79033816Y-65285385D01*
X79034716Y-65279318D01*
X79036206Y-65273368D01*
X79038273Y-65267593D01*
X79040895Y-65262049D01*
X79044048Y-65256788D01*
X79047702Y-65251861D01*
X79051821Y-65247317D01*
X79140210Y-65158928D01*
X79144754Y-65154809D01*
X79149681Y-65151155D01*
X79154942Y-65148002D01*
X79160486Y-65145380D01*
X79166261Y-65143313D01*
X79172211Y-65141823D01*
X79178278Y-65140923D01*
X79184404Y-65140622D01*
X79190530Y-65140923D01*
G37*
G36*
X78836977Y-65494476D02*
G01*
X78843044Y-65495376D01*
X78848994Y-65496866D01*
X78854769Y-65498933D01*
X78860313Y-65501555D01*
X78865574Y-65504708D01*
X78870501Y-65508362D01*
X78875045Y-65512481D01*
X79352342Y-65989778D01*
X79356461Y-65994322D01*
X79360115Y-65999249D01*
X79363268Y-66004510D01*
X79365890Y-66010054D01*
X79367957Y-66015829D01*
X79369447Y-66021779D01*
X79370347Y-66027846D01*
X79370648Y-66033972D01*
X79370347Y-66040098D01*
X79369447Y-66046165D01*
X79367957Y-66052115D01*
X79365890Y-66057890D01*
X79363268Y-66063434D01*
X79360115Y-66068695D01*
X79356461Y-66073622D01*
X79352342Y-66078166D01*
X79263953Y-66166555D01*
X79259409Y-66170674D01*
X79254482Y-66174328D01*
X79249221Y-66177481D01*
X79243677Y-66180103D01*
X79237902Y-66182170D01*
X79231952Y-66183660D01*
X79225885Y-66184560D01*
X79219759Y-66184861D01*
X79213633Y-66184560D01*
X79207566Y-66183660D01*
X79201616Y-66182170D01*
X79195841Y-66180103D01*
X79190297Y-66177481D01*
X79185036Y-66174328D01*
X79180109Y-66170674D01*
X79175565Y-66166555D01*
X78698268Y-65689258D01*
X78694149Y-65684714D01*
X78690495Y-65679787D01*
X78687342Y-65674526D01*
X78684720Y-65668982D01*
X78682653Y-65663207D01*
X78681163Y-65657257D01*
X78680263Y-65651190D01*
X78679962Y-65645064D01*
X78680263Y-65638938D01*
X78681163Y-65632871D01*
X78682653Y-65626921D01*
X78684720Y-65621146D01*
X78687342Y-65615602D01*
X78690495Y-65610341D01*
X78694149Y-65605414D01*
X78698268Y-65600870D01*
X78786657Y-65512481D01*
X78791201Y-65508362D01*
X78796128Y-65504708D01*
X78801389Y-65501555D01*
X78806933Y-65498933D01*
X78812708Y-65496866D01*
X78818658Y-65495376D01*
X78824725Y-65494476D01*
X78830851Y-65494175D01*
X78836977Y-65494476D01*
G37*
G36*
X78483423Y-65848030D02*
G01*
X78489490Y-65848930D01*
X78495440Y-65850420D01*
X78501215Y-65852487D01*
X78506759Y-65855109D01*
X78512020Y-65858262D01*
X78516947Y-65861916D01*
X78521491Y-65866035D01*
X78998788Y-66343332D01*
X79002907Y-66347876D01*
X79006561Y-66352803D01*
X79009714Y-66358064D01*
X79012336Y-66363608D01*
X79014403Y-66369383D01*
X79015893Y-66375333D01*
X79016793Y-66381400D01*
X79017094Y-66387526D01*
X79016793Y-66393652D01*
X79015893Y-66399719D01*
X79014403Y-66405669D01*
X79012336Y-66411444D01*
X79009714Y-66416988D01*
X79006561Y-66422249D01*
X79002907Y-66427176D01*
X78998788Y-66431720D01*
X78910399Y-66520109D01*
X78905855Y-66524228D01*
X78900928Y-66527882D01*
X78895667Y-66531035D01*
X78890123Y-66533657D01*
X78884348Y-66535724D01*
X78878398Y-66537214D01*
X78872331Y-66538114D01*
X78866205Y-66538415D01*
X78860079Y-66538114D01*
X78854012Y-66537214D01*
X78848062Y-66535724D01*
X78842287Y-66533657D01*
X78836743Y-66531035D01*
X78831482Y-66527882D01*
X78826555Y-66524228D01*
X78822011Y-66520109D01*
X78344714Y-66042812D01*
X78340595Y-66038268D01*
X78336941Y-66033341D01*
X78333788Y-66028080D01*
X78331166Y-66022536D01*
X78329099Y-66016761D01*
X78327609Y-66010811D01*
X78326709Y-66004744D01*
X78326408Y-65998618D01*
X78326709Y-65992492D01*
X78327609Y-65986425D01*
X78329099Y-65980475D01*
X78331166Y-65974700D01*
X78333788Y-65969156D01*
X78336941Y-65963895D01*
X78340595Y-65958968D01*
X78344714Y-65954424D01*
X78433103Y-65866035D01*
X78437647Y-65861916D01*
X78442574Y-65858262D01*
X78447835Y-65855109D01*
X78453379Y-65852487D01*
X78459154Y-65850420D01*
X78465104Y-65848930D01*
X78471171Y-65848030D01*
X78477297Y-65847729D01*
X78483423Y-65848030D01*
G37*
G36*
X77528829Y-65848030D02*
G01*
X77534896Y-65848930D01*
X77540846Y-65850420D01*
X77546621Y-65852487D01*
X77552165Y-65855109D01*
X77557426Y-65858262D01*
X77562353Y-65861916D01*
X77566897Y-65866035D01*
X77655286Y-65954424D01*
X77659405Y-65958968D01*
X77663059Y-65963895D01*
X77666212Y-65969156D01*
X77668834Y-65974700D01*
X77670901Y-65980475D01*
X77672391Y-65986425D01*
X77673291Y-65992492D01*
X77673592Y-65998618D01*
X77673291Y-66004744D01*
X77672391Y-66010811D01*
X77670901Y-66016761D01*
X77668834Y-66022536D01*
X77666212Y-66028080D01*
X77663059Y-66033341D01*
X77659405Y-66038268D01*
X77655286Y-66042812D01*
X77177989Y-66520109D01*
X77173445Y-66524228D01*
X77168518Y-66527882D01*
X77163257Y-66531035D01*
X77157713Y-66533657D01*
X77151938Y-66535724D01*
X77145988Y-66537214D01*
X77139921Y-66538114D01*
X77133795Y-66538415D01*
X77127669Y-66538114D01*
X77121602Y-66537214D01*
X77115652Y-66535724D01*
X77109877Y-66533657D01*
X77104333Y-66531035D01*
X77099072Y-66527882D01*
X77094145Y-66524228D01*
X77089601Y-66520109D01*
X77001212Y-66431720D01*
X76997093Y-66427176D01*
X76993439Y-66422249D01*
X76990286Y-66416988D01*
X76987664Y-66411444D01*
X76985597Y-66405669D01*
X76984107Y-66399719D01*
X76983207Y-66393652D01*
X76982906Y-66387526D01*
X76983207Y-66381400D01*
X76984107Y-66375333D01*
X76985597Y-66369383D01*
X76987664Y-66363608D01*
X76990286Y-66358064D01*
X76993439Y-66352803D01*
X76997093Y-66347876D01*
X77001212Y-66343332D01*
X77478509Y-65866035D01*
X77483053Y-65861916D01*
X77487980Y-65858262D01*
X77493241Y-65855109D01*
X77498785Y-65852487D01*
X77504560Y-65850420D01*
X77510510Y-65848930D01*
X77516577Y-65848030D01*
X77522703Y-65847729D01*
X77528829Y-65848030D01*
G37*
G36*
X77175275Y-65494476D02*
G01*
X77181342Y-65495376D01*
X77187292Y-65496866D01*
X77193067Y-65498933D01*
X77198611Y-65501555D01*
X77203872Y-65504708D01*
X77208799Y-65508362D01*
X77213343Y-65512481D01*
X77301732Y-65600870D01*
X77305851Y-65605414D01*
X77309505Y-65610341D01*
X77312658Y-65615602D01*
X77315280Y-65621146D01*
X77317347Y-65626921D01*
X77318837Y-65632871D01*
X77319737Y-65638938D01*
X77320038Y-65645064D01*
X77319737Y-65651190D01*
X77318837Y-65657257D01*
X77317347Y-65663207D01*
X77315280Y-65668982D01*
X77312658Y-65674526D01*
X77309505Y-65679787D01*
X77305851Y-65684714D01*
X77301732Y-65689258D01*
X76824435Y-66166555D01*
X76819891Y-66170674D01*
X76814964Y-66174328D01*
X76809703Y-66177481D01*
X76804159Y-66180103D01*
X76798384Y-66182170D01*
X76792434Y-66183660D01*
X76786367Y-66184560D01*
X76780241Y-66184861D01*
X76774115Y-66184560D01*
X76768048Y-66183660D01*
X76762098Y-66182170D01*
X76756323Y-66180103D01*
X76750779Y-66177481D01*
X76745518Y-66174328D01*
X76740591Y-66170674D01*
X76736047Y-66166555D01*
X76647658Y-66078166D01*
X76643539Y-66073622D01*
X76639885Y-66068695D01*
X76636732Y-66063434D01*
X76634110Y-66057890D01*
X76632043Y-66052115D01*
X76630553Y-66046165D01*
X76629653Y-66040098D01*
X76629352Y-66033972D01*
X76629653Y-66027846D01*
X76630553Y-66021779D01*
X76632043Y-66015829D01*
X76634110Y-66010054D01*
X76636732Y-66004510D01*
X76639885Y-65999249D01*
X76643539Y-65994322D01*
X76647658Y-65989778D01*
X77124955Y-65512481D01*
X77129499Y-65508362D01*
X77134426Y-65504708D01*
X77139687Y-65501555D01*
X77145231Y-65498933D01*
X77151006Y-65496866D01*
X77156956Y-65495376D01*
X77163023Y-65494476D01*
X77169149Y-65494175D01*
X77175275Y-65494476D01*
G37*
G36*
X76821722Y-65140923D02*
G01*
X76827789Y-65141823D01*
X76833739Y-65143313D01*
X76839514Y-65145380D01*
X76845058Y-65148002D01*
X76850319Y-65151155D01*
X76855246Y-65154809D01*
X76859790Y-65158928D01*
X76948179Y-65247317D01*
X76952298Y-65251861D01*
X76955952Y-65256788D01*
X76959105Y-65262049D01*
X76961727Y-65267593D01*
X76963794Y-65273368D01*
X76965284Y-65279318D01*
X76966184Y-65285385D01*
X76966485Y-65291511D01*
X76966184Y-65297637D01*
X76965284Y-65303704D01*
X76963794Y-65309654D01*
X76961727Y-65315429D01*
X76959105Y-65320973D01*
X76955952Y-65326234D01*
X76952298Y-65331161D01*
X76948179Y-65335705D01*
X76470882Y-65813002D01*
X76466338Y-65817121D01*
X76461411Y-65820775D01*
X76456150Y-65823928D01*
X76450606Y-65826550D01*
X76444831Y-65828617D01*
X76438881Y-65830107D01*
X76432814Y-65831007D01*
X76426688Y-65831308D01*
X76420562Y-65831007D01*
X76414495Y-65830107D01*
X76408545Y-65828617D01*
X76402770Y-65826550D01*
X76397226Y-65823928D01*
X76391965Y-65820775D01*
X76387038Y-65817121D01*
X76382494Y-65813002D01*
X76294105Y-65724613D01*
X76289986Y-65720069D01*
X76286332Y-65715142D01*
X76283179Y-65709881D01*
X76280557Y-65704337D01*
X76278490Y-65698562D01*
X76277000Y-65692612D01*
X76276100Y-65686545D01*
X76275799Y-65680419D01*
X76276100Y-65674293D01*
X76277000Y-65668226D01*
X76278490Y-65662276D01*
X76280557Y-65656501D01*
X76283179Y-65650957D01*
X76286332Y-65645696D01*
X76289986Y-65640769D01*
X76294105Y-65636225D01*
X76771402Y-65158928D01*
X76775946Y-65154809D01*
X76780873Y-65151155D01*
X76786134Y-65148002D01*
X76791678Y-65145380D01*
X76797453Y-65143313D01*
X76803403Y-65141823D01*
X76809470Y-65140923D01*
X76815596Y-65140622D01*
X76821722Y-65140923D01*
G37*
G36*
X76468168Y-64787370D02*
G01*
X76474235Y-64788270D01*
X76480185Y-64789760D01*
X76485960Y-64791827D01*
X76491504Y-64794449D01*
X76496765Y-64797602D01*
X76501692Y-64801256D01*
X76506236Y-64805375D01*
X76594625Y-64893764D01*
X76598744Y-64898308D01*
X76602398Y-64903235D01*
X76605551Y-64908496D01*
X76608173Y-64914040D01*
X76610240Y-64919815D01*
X76611730Y-64925765D01*
X76612630Y-64931832D01*
X76612931Y-64937958D01*
X76612630Y-64944084D01*
X76611730Y-64950151D01*
X76610240Y-64956101D01*
X76608173Y-64961876D01*
X76605551Y-64967420D01*
X76602398Y-64972681D01*
X76598744Y-64977608D01*
X76594625Y-64982152D01*
X76117328Y-65459449D01*
X76112784Y-65463568D01*
X76107857Y-65467222D01*
X76102596Y-65470375D01*
X76097052Y-65472997D01*
X76091277Y-65475064D01*
X76085327Y-65476554D01*
X76079260Y-65477454D01*
X76073134Y-65477755D01*
X76067008Y-65477454D01*
X76060941Y-65476554D01*
X76054991Y-65475064D01*
X76049216Y-65472997D01*
X76043672Y-65470375D01*
X76038411Y-65467222D01*
X76033484Y-65463568D01*
X76028940Y-65459449D01*
X75940551Y-65371060D01*
X75936432Y-65366516D01*
X75932778Y-65361589D01*
X75929625Y-65356328D01*
X75927003Y-65350784D01*
X75924936Y-65345009D01*
X75923446Y-65339059D01*
X75922546Y-65332992D01*
X75922245Y-65326866D01*
X75922546Y-65320740D01*
X75923446Y-65314673D01*
X75924936Y-65308723D01*
X75927003Y-65302948D01*
X75929625Y-65297404D01*
X75932778Y-65292143D01*
X75936432Y-65287216D01*
X75940551Y-65282672D01*
X76417848Y-64805375D01*
X76422392Y-64801256D01*
X76427319Y-64797602D01*
X76432580Y-64794449D01*
X76438124Y-64791827D01*
X76443899Y-64789760D01*
X76449849Y-64788270D01*
X76455916Y-64787370D01*
X76462042Y-64787069D01*
X76468168Y-64787370D01*
G37*
G36*
X76114615Y-64433816D02*
G01*
X76120682Y-64434716D01*
X76126632Y-64436206D01*
X76132407Y-64438273D01*
X76137951Y-64440895D01*
X76143212Y-64444048D01*
X76148139Y-64447702D01*
X76152683Y-64451821D01*
X76241072Y-64540210D01*
X76245191Y-64544754D01*
X76248845Y-64549681D01*
X76251998Y-64554942D01*
X76254620Y-64560486D01*
X76256687Y-64566261D01*
X76258177Y-64572211D01*
X76259077Y-64578278D01*
X76259378Y-64584404D01*
X76259077Y-64590530D01*
X76258177Y-64596597D01*
X76256687Y-64602547D01*
X76254620Y-64608322D01*
X76251998Y-64613866D01*
X76248845Y-64619127D01*
X76245191Y-64624054D01*
X76241072Y-64628598D01*
X75763775Y-65105895D01*
X75759231Y-65110014D01*
X75754304Y-65113668D01*
X75749043Y-65116821D01*
X75743499Y-65119443D01*
X75737724Y-65121510D01*
X75731774Y-65123000D01*
X75725707Y-65123900D01*
X75719581Y-65124201D01*
X75713455Y-65123900D01*
X75707388Y-65123000D01*
X75701438Y-65121510D01*
X75695663Y-65119443D01*
X75690119Y-65116821D01*
X75684858Y-65113668D01*
X75679931Y-65110014D01*
X75675387Y-65105895D01*
X75586998Y-65017506D01*
X75582879Y-65012962D01*
X75579225Y-65008035D01*
X75576072Y-65002774D01*
X75573450Y-64997230D01*
X75571383Y-64991455D01*
X75569893Y-64985505D01*
X75568993Y-64979438D01*
X75568692Y-64973312D01*
X75568993Y-64967186D01*
X75569893Y-64961119D01*
X75571383Y-64955169D01*
X75573450Y-64949394D01*
X75576072Y-64943850D01*
X75579225Y-64938589D01*
X75582879Y-64933662D01*
X75586998Y-64929118D01*
X76064295Y-64451821D01*
X76068839Y-64447702D01*
X76073766Y-64444048D01*
X76079027Y-64440895D01*
X76084571Y-64438273D01*
X76090346Y-64436206D01*
X76096296Y-64434716D01*
X76102363Y-64433816D01*
X76108489Y-64433515D01*
X76114615Y-64433816D01*
G37*
G36*
X75761062Y-64080263D02*
G01*
X75767129Y-64081163D01*
X75773079Y-64082653D01*
X75778854Y-64084720D01*
X75784398Y-64087342D01*
X75789659Y-64090495D01*
X75794586Y-64094149D01*
X75799130Y-64098268D01*
X75887519Y-64186657D01*
X75891638Y-64191201D01*
X75895292Y-64196128D01*
X75898445Y-64201389D01*
X75901067Y-64206933D01*
X75903134Y-64212708D01*
X75904624Y-64218658D01*
X75905524Y-64224725D01*
X75905825Y-64230851D01*
X75905524Y-64236977D01*
X75904624Y-64243044D01*
X75903134Y-64248994D01*
X75901067Y-64254769D01*
X75898445Y-64260313D01*
X75895292Y-64265574D01*
X75891638Y-64270501D01*
X75887519Y-64275045D01*
X75410222Y-64752342D01*
X75405678Y-64756461D01*
X75400751Y-64760115D01*
X75395490Y-64763268D01*
X75389946Y-64765890D01*
X75384171Y-64767957D01*
X75378221Y-64769447D01*
X75372154Y-64770347D01*
X75366028Y-64770648D01*
X75359902Y-64770347D01*
X75353835Y-64769447D01*
X75347885Y-64767957D01*
X75342110Y-64765890D01*
X75336566Y-64763268D01*
X75331305Y-64760115D01*
X75326378Y-64756461D01*
X75321834Y-64752342D01*
X75233445Y-64663953D01*
X75229326Y-64659409D01*
X75225672Y-64654482D01*
X75222519Y-64649221D01*
X75219897Y-64643677D01*
X75217830Y-64637902D01*
X75216340Y-64631952D01*
X75215440Y-64625885D01*
X75215139Y-64619759D01*
X75215440Y-64613633D01*
X75216340Y-64607566D01*
X75217830Y-64601616D01*
X75219897Y-64595841D01*
X75222519Y-64590297D01*
X75225672Y-64585036D01*
X75229326Y-64580109D01*
X75233445Y-64575565D01*
X75710742Y-64098268D01*
X75715286Y-64094149D01*
X75720213Y-64090495D01*
X75725474Y-64087342D01*
X75731018Y-64084720D01*
X75736793Y-64082653D01*
X75742743Y-64081163D01*
X75748810Y-64080263D01*
X75754936Y-64079962D01*
X75761062Y-64080263D01*
G37*
G36*
X75407508Y-63726709D02*
G01*
X75413575Y-63727609D01*
X75419525Y-63729099D01*
X75425300Y-63731166D01*
X75430844Y-63733788D01*
X75436105Y-63736941D01*
X75441032Y-63740595D01*
X75445576Y-63744714D01*
X75533965Y-63833103D01*
X75538084Y-63837647D01*
X75541738Y-63842574D01*
X75544891Y-63847835D01*
X75547513Y-63853379D01*
X75549580Y-63859154D01*
X75551070Y-63865104D01*
X75551970Y-63871171D01*
X75552271Y-63877297D01*
X75551970Y-63883423D01*
X75551070Y-63889490D01*
X75549580Y-63895440D01*
X75547513Y-63901215D01*
X75544891Y-63906759D01*
X75541738Y-63912020D01*
X75538084Y-63916947D01*
X75533965Y-63921491D01*
X75056668Y-64398788D01*
X75052124Y-64402907D01*
X75047197Y-64406561D01*
X75041936Y-64409714D01*
X75036392Y-64412336D01*
X75030617Y-64414403D01*
X75024667Y-64415893D01*
X75018600Y-64416793D01*
X75012474Y-64417094D01*
X75006348Y-64416793D01*
X75000281Y-64415893D01*
X74994331Y-64414403D01*
X74988556Y-64412336D01*
X74983012Y-64409714D01*
X74977751Y-64406561D01*
X74972824Y-64402907D01*
X74968280Y-64398788D01*
X74879891Y-64310399D01*
X74875772Y-64305855D01*
X74872118Y-64300928D01*
X74868965Y-64295667D01*
X74866343Y-64290123D01*
X74864276Y-64284348D01*
X74862786Y-64278398D01*
X74861886Y-64272331D01*
X74861585Y-64266205D01*
X74861886Y-64260079D01*
X74862786Y-64254012D01*
X74864276Y-64248062D01*
X74866343Y-64242287D01*
X74868965Y-64236743D01*
X74872118Y-64231482D01*
X74875772Y-64226555D01*
X74879891Y-64222011D01*
X75357188Y-63744714D01*
X75361732Y-63740595D01*
X75366659Y-63736941D01*
X75371920Y-63733788D01*
X75377464Y-63731166D01*
X75383239Y-63729099D01*
X75389189Y-63727609D01*
X75395256Y-63726709D01*
X75401382Y-63726408D01*
X75407508Y-63726709D01*
G37*
G36*
X79605973Y-62857885D02*
G01*
X79627814Y-62861125D01*
X79649233Y-62866490D01*
X79670023Y-62873929D01*
X79689983Y-62883370D01*
X79708922Y-62894721D01*
X79726657Y-62907875D01*
X79743018Y-62922703D01*
X80061216Y-63240901D01*
X80076044Y-63257262D01*
X80089198Y-63274997D01*
X80100549Y-63293936D01*
X80109990Y-63313896D01*
X80117429Y-63334686D01*
X80122794Y-63356105D01*
X80126034Y-63377946D01*
X80127117Y-63400000D01*
X80126034Y-63422054D01*
X80122794Y-63443895D01*
X80117429Y-63465314D01*
X80109990Y-63486104D01*
X80100549Y-63506064D01*
X80089198Y-63525003D01*
X80076044Y-63542738D01*
X80061216Y-63559099D01*
X79743018Y-63877297D01*
X79726657Y-63892125D01*
X79708922Y-63905279D01*
X79689983Y-63916630D01*
X79670023Y-63926071D01*
X79649233Y-63933510D01*
X79627814Y-63938875D01*
X79605973Y-63942115D01*
X79583919Y-63943198D01*
X79561865Y-63942115D01*
X79540024Y-63938875D01*
X79518605Y-63933510D01*
X79497815Y-63926071D01*
X79477855Y-63916630D01*
X79458916Y-63905279D01*
X79441181Y-63892125D01*
X79424820Y-63877297D01*
X79106622Y-63559099D01*
X79091794Y-63542738D01*
X79078640Y-63525003D01*
X79067289Y-63506064D01*
X79057848Y-63486104D01*
X79050409Y-63465314D01*
X79045044Y-63443895D01*
X79041804Y-63422054D01*
X79040721Y-63400000D01*
X79041804Y-63377946D01*
X79045044Y-63356105D01*
X79050409Y-63334686D01*
X79057848Y-63313896D01*
X79067289Y-63293936D01*
X79078640Y-63274997D01*
X79091794Y-63257262D01*
X79106622Y-63240901D01*
X79424820Y-62922703D01*
X79441181Y-62907875D01*
X79458916Y-62894721D01*
X79477855Y-62883370D01*
X79497815Y-62873929D01*
X79518605Y-62866490D01*
X79540024Y-62861125D01*
X79561865Y-62857885D01*
X79583919Y-62856802D01*
X79605973Y-62857885D01*
G37*
G36*
X78814014Y-62065925D02*
G01*
X78835855Y-62069165D01*
X78857274Y-62074530D01*
X78878064Y-62081969D01*
X78898024Y-62091410D01*
X78916963Y-62102761D01*
X78934698Y-62115915D01*
X78951059Y-62130743D01*
X79269257Y-62448941D01*
X79284085Y-62465302D01*
X79297239Y-62483037D01*
X79308590Y-62501976D01*
X79318031Y-62521936D01*
X79325470Y-62542726D01*
X79330835Y-62564145D01*
X79334075Y-62585986D01*
X79335158Y-62608040D01*
X79334075Y-62630094D01*
X79330835Y-62651935D01*
X79325470Y-62673354D01*
X79318031Y-62694144D01*
X79308590Y-62714104D01*
X79297239Y-62733043D01*
X79284085Y-62750778D01*
X79269257Y-62767139D01*
X78951059Y-63085337D01*
X78934698Y-63100165D01*
X78916963Y-63113319D01*
X78898024Y-63124670D01*
X78878064Y-63134111D01*
X78857274Y-63141550D01*
X78835855Y-63146915D01*
X78814014Y-63150155D01*
X78791960Y-63151238D01*
X78769906Y-63150155D01*
X78748065Y-63146915D01*
X78726646Y-63141550D01*
X78705856Y-63134111D01*
X78685896Y-63124670D01*
X78666957Y-63113319D01*
X78649222Y-63100165D01*
X78632861Y-63085337D01*
X78314663Y-62767139D01*
X78299835Y-62750778D01*
X78286681Y-62733043D01*
X78275330Y-62714104D01*
X78265889Y-62694144D01*
X78258450Y-62673354D01*
X78253085Y-62651935D01*
X78249845Y-62630094D01*
X78248762Y-62608040D01*
X78249845Y-62585986D01*
X78253085Y-62564145D01*
X78258450Y-62542726D01*
X78265889Y-62521936D01*
X78275330Y-62501976D01*
X78286681Y-62483037D01*
X78299835Y-62465302D01*
X78314663Y-62448941D01*
X78632861Y-62130743D01*
X78649222Y-62115915D01*
X78666957Y-62102761D01*
X78685896Y-62091410D01*
X78705856Y-62081969D01*
X78726646Y-62074530D01*
X78748065Y-62069165D01*
X78769906Y-62065925D01*
X78791960Y-62064842D01*
X78814014Y-62065925D01*
G37*
G36*
X78022054Y-61273966D02*
G01*
X78043895Y-61277206D01*
X78065314Y-61282571D01*
X78086104Y-61290010D01*
X78106064Y-61299451D01*
X78125003Y-61310802D01*
X78142738Y-61323956D01*
X78159099Y-61338784D01*
X78477297Y-61656982D01*
X78492125Y-61673343D01*
X78505279Y-61691078D01*
X78516630Y-61710017D01*
X78526071Y-61729977D01*
X78533510Y-61750767D01*
X78538875Y-61772186D01*
X78542115Y-61794027D01*
X78543198Y-61816081D01*
X78542115Y-61838135D01*
X78538875Y-61859976D01*
X78533510Y-61881395D01*
X78526071Y-61902185D01*
X78516630Y-61922145D01*
X78505279Y-61941084D01*
X78492125Y-61958819D01*
X78477297Y-61975180D01*
X78159099Y-62293378D01*
X78142738Y-62308206D01*
X78125003Y-62321360D01*
X78106064Y-62332711D01*
X78086104Y-62342152D01*
X78065314Y-62349591D01*
X78043895Y-62354956D01*
X78022054Y-62358196D01*
X78000000Y-62359279D01*
X77977946Y-62358196D01*
X77956105Y-62354956D01*
X77934686Y-62349591D01*
X77913896Y-62342152D01*
X77893936Y-62332711D01*
X77874997Y-62321360D01*
X77857262Y-62308206D01*
X77840901Y-62293378D01*
X77522703Y-61975180D01*
X77507875Y-61958819D01*
X77494721Y-61941084D01*
X77483370Y-61922145D01*
X77473929Y-61902185D01*
X77466490Y-61881395D01*
X77461125Y-61859976D01*
X77457885Y-61838135D01*
X77456802Y-61816081D01*
X77457885Y-61794027D01*
X77461125Y-61772186D01*
X77466490Y-61750767D01*
X77473929Y-61729977D01*
X77483370Y-61710017D01*
X77494721Y-61691078D01*
X77507875Y-61673343D01*
X77522703Y-61656982D01*
X77840901Y-61338784D01*
X77857262Y-61323956D01*
X77874997Y-61310802D01*
X77893936Y-61299451D01*
X77913896Y-61290010D01*
X77934686Y-61282571D01*
X77956105Y-61277206D01*
X77977946Y-61273966D01*
X78000000Y-61272883D01*
X78022054Y-61273966D01*
G37*
G36*
X78814014Y-63649845D02*
G01*
X78835855Y-63653085D01*
X78857274Y-63658450D01*
X78878064Y-63665889D01*
X78898024Y-63675330D01*
X78916963Y-63686681D01*
X78934698Y-63699835D01*
X78951059Y-63714663D01*
X79269257Y-64032861D01*
X79284085Y-64049222D01*
X79297239Y-64066957D01*
X79308590Y-64085896D01*
X79318031Y-64105856D01*
X79325470Y-64126646D01*
X79330835Y-64148065D01*
X79334075Y-64169906D01*
X79335158Y-64191960D01*
X79334075Y-64214014D01*
X79330835Y-64235855D01*
X79325470Y-64257274D01*
X79318031Y-64278064D01*
X79308590Y-64298024D01*
X79297239Y-64316963D01*
X79284085Y-64334698D01*
X79269257Y-64351059D01*
X78951059Y-64669257D01*
X78934698Y-64684085D01*
X78916963Y-64697239D01*
X78898024Y-64708590D01*
X78878064Y-64718031D01*
X78857274Y-64725470D01*
X78835855Y-64730835D01*
X78814014Y-64734075D01*
X78791960Y-64735158D01*
X78769906Y-64734075D01*
X78748065Y-64730835D01*
X78726646Y-64725470D01*
X78705856Y-64718031D01*
X78685896Y-64708590D01*
X78666957Y-64697239D01*
X78649222Y-64684085D01*
X78632861Y-64669257D01*
X78314663Y-64351059D01*
X78299835Y-64334698D01*
X78286681Y-64316963D01*
X78275330Y-64298024D01*
X78265889Y-64278064D01*
X78258450Y-64257274D01*
X78253085Y-64235855D01*
X78249845Y-64214014D01*
X78248762Y-64191960D01*
X78249845Y-64169906D01*
X78253085Y-64148065D01*
X78258450Y-64126646D01*
X78265889Y-64105856D01*
X78275330Y-64085896D01*
X78286681Y-64066957D01*
X78299835Y-64049222D01*
X78314663Y-64032861D01*
X78632861Y-63714663D01*
X78649222Y-63699835D01*
X78666957Y-63686681D01*
X78685896Y-63675330D01*
X78705856Y-63665889D01*
X78726646Y-63658450D01*
X78748065Y-63653085D01*
X78769906Y-63649845D01*
X78791960Y-63648762D01*
X78814014Y-63649845D01*
G37*
G36*
X78022054Y-62857885D02*
G01*
X78043895Y-62861125D01*
X78065314Y-62866490D01*
X78086104Y-62873929D01*
X78106064Y-62883370D01*
X78125003Y-62894721D01*
X78142738Y-62907875D01*
X78159099Y-62922703D01*
X78477297Y-63240901D01*
X78492125Y-63257262D01*
X78505279Y-63274997D01*
X78516630Y-63293936D01*
X78526071Y-63313896D01*
X78533510Y-63334686D01*
X78538875Y-63356105D01*
X78542115Y-63377946D01*
X78543198Y-63400000D01*
X78542115Y-63422054D01*
X78538875Y-63443895D01*
X78533510Y-63465314D01*
X78526071Y-63486104D01*
X78516630Y-63506064D01*
X78505279Y-63525003D01*
X78492125Y-63542738D01*
X78477297Y-63559099D01*
X78159099Y-63877297D01*
X78142738Y-63892125D01*
X78125003Y-63905279D01*
X78106064Y-63916630D01*
X78086104Y-63926071D01*
X78065314Y-63933510D01*
X78043895Y-63938875D01*
X78022054Y-63942115D01*
X78000000Y-63943198D01*
X77977946Y-63942115D01*
X77956105Y-63938875D01*
X77934686Y-63933510D01*
X77913896Y-63926071D01*
X77893936Y-63916630D01*
X77874997Y-63905279D01*
X77857262Y-63892125D01*
X77840901Y-63877297D01*
X77522703Y-63559099D01*
X77507875Y-63542738D01*
X77494721Y-63525003D01*
X77483370Y-63506064D01*
X77473929Y-63486104D01*
X77466490Y-63465314D01*
X77461125Y-63443895D01*
X77457885Y-63422054D01*
X77456802Y-63400000D01*
X77457885Y-63377946D01*
X77461125Y-63356105D01*
X77466490Y-63334686D01*
X77473929Y-63313896D01*
X77483370Y-63293936D01*
X77494721Y-63274997D01*
X77507875Y-63257262D01*
X77522703Y-63240901D01*
X77840901Y-62922703D01*
X77857262Y-62907875D01*
X77874997Y-62894721D01*
X77893936Y-62883370D01*
X77913896Y-62873929D01*
X77934686Y-62866490D01*
X77956105Y-62861125D01*
X77977946Y-62857885D01*
X78000000Y-62856802D01*
X78022054Y-62857885D01*
G37*
G36*
X77230094Y-62065925D02*
G01*
X77251935Y-62069165D01*
X77273354Y-62074530D01*
X77294144Y-62081969D01*
X77314104Y-62091410D01*
X77333043Y-62102761D01*
X77350778Y-62115915D01*
X77367139Y-62130743D01*
X77685337Y-62448941D01*
X77700165Y-62465302D01*
X77713319Y-62483037D01*
X77724670Y-62501976D01*
X77734111Y-62521936D01*
X77741550Y-62542726D01*
X77746915Y-62564145D01*
X77750155Y-62585986D01*
X77751238Y-62608040D01*
X77750155Y-62630094D01*
X77746915Y-62651935D01*
X77741550Y-62673354D01*
X77734111Y-62694144D01*
X77724670Y-62714104D01*
X77713319Y-62733043D01*
X77700165Y-62750778D01*
X77685337Y-62767139D01*
X77367139Y-63085337D01*
X77350778Y-63100165D01*
X77333043Y-63113319D01*
X77314104Y-63124670D01*
X77294144Y-63134111D01*
X77273354Y-63141550D01*
X77251935Y-63146915D01*
X77230094Y-63150155D01*
X77208040Y-63151238D01*
X77185986Y-63150155D01*
X77164145Y-63146915D01*
X77142726Y-63141550D01*
X77121936Y-63134111D01*
X77101976Y-63124670D01*
X77083037Y-63113319D01*
X77065302Y-63100165D01*
X77048941Y-63085337D01*
X76730743Y-62767139D01*
X76715915Y-62750778D01*
X76702761Y-62733043D01*
X76691410Y-62714104D01*
X76681969Y-62694144D01*
X76674530Y-62673354D01*
X76669165Y-62651935D01*
X76665925Y-62630094D01*
X76664842Y-62608040D01*
X76665925Y-62585986D01*
X76669165Y-62564145D01*
X76674530Y-62542726D01*
X76681969Y-62521936D01*
X76691410Y-62501976D01*
X76702761Y-62483037D01*
X76715915Y-62465302D01*
X76730743Y-62448941D01*
X77048941Y-62130743D01*
X77065302Y-62115915D01*
X77083037Y-62102761D01*
X77101976Y-62091410D01*
X77121936Y-62081969D01*
X77142726Y-62074530D01*
X77164145Y-62069165D01*
X77185986Y-62065925D01*
X77208040Y-62064842D01*
X77230094Y-62065925D01*
G37*
G36*
X78022054Y-64441804D02*
G01*
X78043895Y-64445044D01*
X78065314Y-64450409D01*
X78086104Y-64457848D01*
X78106064Y-64467289D01*
X78125003Y-64478640D01*
X78142738Y-64491794D01*
X78159099Y-64506622D01*
X78477297Y-64824820D01*
X78492125Y-64841181D01*
X78505279Y-64858916D01*
X78516630Y-64877855D01*
X78526071Y-64897815D01*
X78533510Y-64918605D01*
X78538875Y-64940024D01*
X78542115Y-64961865D01*
X78543198Y-64983919D01*
X78542115Y-65005973D01*
X78538875Y-65027814D01*
X78533510Y-65049233D01*
X78526071Y-65070023D01*
X78516630Y-65089983D01*
X78505279Y-65108922D01*
X78492125Y-65126657D01*
X78477297Y-65143018D01*
X78159099Y-65461216D01*
X78142738Y-65476044D01*
X78125003Y-65489198D01*
X78106064Y-65500549D01*
X78086104Y-65509990D01*
X78065314Y-65517429D01*
X78043895Y-65522794D01*
X78022054Y-65526034D01*
X78000000Y-65527117D01*
X77977946Y-65526034D01*
X77956105Y-65522794D01*
X77934686Y-65517429D01*
X77913896Y-65509990D01*
X77893936Y-65500549D01*
X77874997Y-65489198D01*
X77857262Y-65476044D01*
X77840901Y-65461216D01*
X77522703Y-65143018D01*
X77507875Y-65126657D01*
X77494721Y-65108922D01*
X77483370Y-65089983D01*
X77473929Y-65070023D01*
X77466490Y-65049233D01*
X77461125Y-65027814D01*
X77457885Y-65005973D01*
X77456802Y-64983919D01*
X77457885Y-64961865D01*
X77461125Y-64940024D01*
X77466490Y-64918605D01*
X77473929Y-64897815D01*
X77483370Y-64877855D01*
X77494721Y-64858916D01*
X77507875Y-64841181D01*
X77522703Y-64824820D01*
X77840901Y-64506622D01*
X77857262Y-64491794D01*
X77874997Y-64478640D01*
X77893936Y-64467289D01*
X77913896Y-64457848D01*
X77934686Y-64450409D01*
X77956105Y-64445044D01*
X77977946Y-64441804D01*
X78000000Y-64440721D01*
X78022054Y-64441804D01*
G37*
G36*
X77230094Y-63649845D02*
G01*
X77251935Y-63653085D01*
X77273354Y-63658450D01*
X77294144Y-63665889D01*
X77314104Y-63675330D01*
X77333043Y-63686681D01*
X77350778Y-63699835D01*
X77367139Y-63714663D01*
X77685337Y-64032861D01*
X77700165Y-64049222D01*
X77713319Y-64066957D01*
X77724670Y-64085896D01*
X77734111Y-64105856D01*
X77741550Y-64126646D01*
X77746915Y-64148065D01*
X77750155Y-64169906D01*
X77751238Y-64191960D01*
X77750155Y-64214014D01*
X77746915Y-64235855D01*
X77741550Y-64257274D01*
X77734111Y-64278064D01*
X77724670Y-64298024D01*
X77713319Y-64316963D01*
X77700165Y-64334698D01*
X77685337Y-64351059D01*
X77367139Y-64669257D01*
X77350778Y-64684085D01*
X77333043Y-64697239D01*
X77314104Y-64708590D01*
X77294144Y-64718031D01*
X77273354Y-64725470D01*
X77251935Y-64730835D01*
X77230094Y-64734075D01*
X77208040Y-64735158D01*
X77185986Y-64734075D01*
X77164145Y-64730835D01*
X77142726Y-64725470D01*
X77121936Y-64718031D01*
X77101976Y-64708590D01*
X77083037Y-64697239D01*
X77065302Y-64684085D01*
X77048941Y-64669257D01*
X76730743Y-64351059D01*
X76715915Y-64334698D01*
X76702761Y-64316963D01*
X76691410Y-64298024D01*
X76681969Y-64278064D01*
X76674530Y-64257274D01*
X76669165Y-64235855D01*
X76665925Y-64214014D01*
X76664842Y-64191960D01*
X76665925Y-64169906D01*
X76669165Y-64148065D01*
X76674530Y-64126646D01*
X76681969Y-64105856D01*
X76691410Y-64085896D01*
X76702761Y-64066957D01*
X76715915Y-64049222D01*
X76730743Y-64032861D01*
X77048941Y-63714663D01*
X77065302Y-63699835D01*
X77083037Y-63686681D01*
X77101976Y-63675330D01*
X77121936Y-63665889D01*
X77142726Y-63658450D01*
X77164145Y-63653085D01*
X77185986Y-63649845D01*
X77208040Y-63648762D01*
X77230094Y-63649845D01*
G37*
G36*
X76438135Y-62857885D02*
G01*
X76459976Y-62861125D01*
X76481395Y-62866490D01*
X76502185Y-62873929D01*
X76522145Y-62883370D01*
X76541084Y-62894721D01*
X76558819Y-62907875D01*
X76575180Y-62922703D01*
X76893378Y-63240901D01*
X76908206Y-63257262D01*
X76921360Y-63274997D01*
X76932711Y-63293936D01*
X76942152Y-63313896D01*
X76949591Y-63334686D01*
X76954956Y-63356105D01*
X76958196Y-63377946D01*
X76959279Y-63400000D01*
X76958196Y-63422054D01*
X76954956Y-63443895D01*
X76949591Y-63465314D01*
X76942152Y-63486104D01*
X76932711Y-63506064D01*
X76921360Y-63525003D01*
X76908206Y-63542738D01*
X76893378Y-63559099D01*
X76575180Y-63877297D01*
X76558819Y-63892125D01*
X76541084Y-63905279D01*
X76522145Y-63916630D01*
X76502185Y-63926071D01*
X76481395Y-63933510D01*
X76459976Y-63938875D01*
X76438135Y-63942115D01*
X76416081Y-63943198D01*
X76394027Y-63942115D01*
X76372186Y-63938875D01*
X76350767Y-63933510D01*
X76329977Y-63926071D01*
X76310017Y-63916630D01*
X76291078Y-63905279D01*
X76273343Y-63892125D01*
X76256982Y-63877297D01*
X75938784Y-63559099D01*
X75923956Y-63542738D01*
X75910802Y-63525003D01*
X75899451Y-63506064D01*
X75890010Y-63486104D01*
X75882571Y-63465314D01*
X75877206Y-63443895D01*
X75873966Y-63422054D01*
X75872883Y-63400000D01*
X75873966Y-63377946D01*
X75877206Y-63356105D01*
X75882571Y-63334686D01*
X75890010Y-63313896D01*
X75899451Y-63293936D01*
X75910802Y-63274997D01*
X75923956Y-63257262D01*
X75938784Y-63240901D01*
X76256982Y-62922703D01*
X76273343Y-62907875D01*
X76291078Y-62894721D01*
X76310017Y-62883370D01*
X76329977Y-62873929D01*
X76350767Y-62866490D01*
X76372186Y-62861125D01*
X76394027Y-62857885D01*
X76416081Y-62856802D01*
X76438135Y-62857885D01*
G37*
D11*
X84700000Y-72500000D03*
X89300000Y-72500000D03*
X87000000Y-72500000D03*
D12*
X87000000Y-66200000D03*
D10*
G36*
X83760779Y-60351144D02*
G01*
X83783834Y-60354563D01*
X83806443Y-60360227D01*
X83828387Y-60368079D01*
X83849457Y-60378044D01*
X83869448Y-60390026D01*
X83888168Y-60403910D01*
X83905438Y-60419562D01*
X83921090Y-60436832D01*
X83934974Y-60455552D01*
X83946956Y-60475543D01*
X83956921Y-60496613D01*
X83964773Y-60518557D01*
X83970437Y-60541166D01*
X83973856Y-60564221D01*
X83975000Y-60587500D01*
X83975000Y-61162500D01*
X83973856Y-61185779D01*
X83970437Y-61208834D01*
X83964773Y-61231443D01*
X83956921Y-61253387D01*
X83946956Y-61274457D01*
X83934974Y-61294448D01*
X83921090Y-61313168D01*
X83905438Y-61330438D01*
X83888168Y-61346090D01*
X83869448Y-61359974D01*
X83849457Y-61371956D01*
X83828387Y-61381921D01*
X83806443Y-61389773D01*
X83783834Y-61395437D01*
X83760779Y-61398856D01*
X83737500Y-61400000D01*
X83262500Y-61400000D01*
X83239221Y-61398856D01*
X83216166Y-61395437D01*
X83193557Y-61389773D01*
X83171613Y-61381921D01*
X83150543Y-61371956D01*
X83130552Y-61359974D01*
X83111832Y-61346090D01*
X83094562Y-61330438D01*
X83078910Y-61313168D01*
X83065026Y-61294448D01*
X83053044Y-61274457D01*
X83043079Y-61253387D01*
X83035227Y-61231443D01*
X83029563Y-61208834D01*
X83026144Y-61185779D01*
X83025000Y-61162500D01*
X83025000Y-60587500D01*
X83026144Y-60564221D01*
X83029563Y-60541166D01*
X83035227Y-60518557D01*
X83043079Y-60496613D01*
X83053044Y-60475543D01*
X83065026Y-60455552D01*
X83078910Y-60436832D01*
X83094562Y-60419562D01*
X83111832Y-60403910D01*
X83130552Y-60390026D01*
X83150543Y-60378044D01*
X83171613Y-60368079D01*
X83193557Y-60360227D01*
X83216166Y-60354563D01*
X83239221Y-60351144D01*
X83262500Y-60350000D01*
X83737500Y-60350000D01*
X83760779Y-60351144D01*
G37*
G36*
X83760779Y-58601144D02*
G01*
X83783834Y-58604563D01*
X83806443Y-58610227D01*
X83828387Y-58618079D01*
X83849457Y-58628044D01*
X83869448Y-58640026D01*
X83888168Y-58653910D01*
X83905438Y-58669562D01*
X83921090Y-58686832D01*
X83934974Y-58705552D01*
X83946956Y-58725543D01*
X83956921Y-58746613D01*
X83964773Y-58768557D01*
X83970437Y-58791166D01*
X83973856Y-58814221D01*
X83975000Y-58837500D01*
X83975000Y-59412500D01*
X83973856Y-59435779D01*
X83970437Y-59458834D01*
X83964773Y-59481443D01*
X83956921Y-59503387D01*
X83946956Y-59524457D01*
X83934974Y-59544448D01*
X83921090Y-59563168D01*
X83905438Y-59580438D01*
X83888168Y-59596090D01*
X83869448Y-59609974D01*
X83849457Y-59621956D01*
X83828387Y-59631921D01*
X83806443Y-59639773D01*
X83783834Y-59645437D01*
X83760779Y-59648856D01*
X83737500Y-59650000D01*
X83262500Y-59650000D01*
X83239221Y-59648856D01*
X83216166Y-59645437D01*
X83193557Y-59639773D01*
X83171613Y-59631921D01*
X83150543Y-59621956D01*
X83130552Y-59609974D01*
X83111832Y-59596090D01*
X83094562Y-59580438D01*
X83078910Y-59563168D01*
X83065026Y-59544448D01*
X83053044Y-59524457D01*
X83043079Y-59503387D01*
X83035227Y-59481443D01*
X83029563Y-59458834D01*
X83026144Y-59435779D01*
X83025000Y-59412500D01*
X83025000Y-58837500D01*
X83026144Y-58814221D01*
X83029563Y-58791166D01*
X83035227Y-58768557D01*
X83043079Y-58746613D01*
X83053044Y-58725543D01*
X83065026Y-58705552D01*
X83078910Y-58686832D01*
X83094562Y-58669562D01*
X83111832Y-58653910D01*
X83130552Y-58640026D01*
X83150543Y-58628044D01*
X83171613Y-58618079D01*
X83193557Y-58610227D01*
X83216166Y-58604563D01*
X83239221Y-58601144D01*
X83262500Y-58600000D01*
X83737500Y-58600000D01*
X83760779Y-58601144D01*
G37*
G36*
X82010779Y-60376144D02*
G01*
X82033834Y-60379563D01*
X82056443Y-60385227D01*
X82078387Y-60393079D01*
X82099457Y-60403044D01*
X82119448Y-60415026D01*
X82138168Y-60428910D01*
X82155438Y-60444562D01*
X82171090Y-60461832D01*
X82184974Y-60480552D01*
X82196956Y-60500543D01*
X82206921Y-60521613D01*
X82214773Y-60543557D01*
X82220437Y-60566166D01*
X82223856Y-60589221D01*
X82225000Y-60612500D01*
X82225000Y-61187500D01*
X82223856Y-61210779D01*
X82220437Y-61233834D01*
X82214773Y-61256443D01*
X82206921Y-61278387D01*
X82196956Y-61299457D01*
X82184974Y-61319448D01*
X82171090Y-61338168D01*
X82155438Y-61355438D01*
X82138168Y-61371090D01*
X82119448Y-61384974D01*
X82099457Y-61396956D01*
X82078387Y-61406921D01*
X82056443Y-61414773D01*
X82033834Y-61420437D01*
X82010779Y-61423856D01*
X81987500Y-61425000D01*
X81512500Y-61425000D01*
X81489221Y-61423856D01*
X81466166Y-61420437D01*
X81443557Y-61414773D01*
X81421613Y-61406921D01*
X81400543Y-61396956D01*
X81380552Y-61384974D01*
X81361832Y-61371090D01*
X81344562Y-61355438D01*
X81328910Y-61338168D01*
X81315026Y-61319448D01*
X81303044Y-61299457D01*
X81293079Y-61278387D01*
X81285227Y-61256443D01*
X81279563Y-61233834D01*
X81276144Y-61210779D01*
X81275000Y-61187500D01*
X81275000Y-60612500D01*
X81276144Y-60589221D01*
X81279563Y-60566166D01*
X81285227Y-60543557D01*
X81293079Y-60521613D01*
X81303044Y-60500543D01*
X81315026Y-60480552D01*
X81328910Y-60461832D01*
X81344562Y-60444562D01*
X81361832Y-60428910D01*
X81380552Y-60415026D01*
X81400543Y-60403044D01*
X81421613Y-60393079D01*
X81443557Y-60385227D01*
X81466166Y-60379563D01*
X81489221Y-60376144D01*
X81512500Y-60375000D01*
X81987500Y-60375000D01*
X82010779Y-60376144D01*
G37*
G36*
X82010779Y-58626144D02*
G01*
X82033834Y-58629563D01*
X82056443Y-58635227D01*
X82078387Y-58643079D01*
X82099457Y-58653044D01*
X82119448Y-58665026D01*
X82138168Y-58678910D01*
X82155438Y-58694562D01*
X82171090Y-58711832D01*
X82184974Y-58730552D01*
X82196956Y-58750543D01*
X82206921Y-58771613D01*
X82214773Y-58793557D01*
X82220437Y-58816166D01*
X82223856Y-58839221D01*
X82225000Y-58862500D01*
X82225000Y-59437500D01*
X82223856Y-59460779D01*
X82220437Y-59483834D01*
X82214773Y-59506443D01*
X82206921Y-59528387D01*
X82196956Y-59549457D01*
X82184974Y-59569448D01*
X82171090Y-59588168D01*
X82155438Y-59605438D01*
X82138168Y-59621090D01*
X82119448Y-59634974D01*
X82099457Y-59646956D01*
X82078387Y-59656921D01*
X82056443Y-59664773D01*
X82033834Y-59670437D01*
X82010779Y-59673856D01*
X81987500Y-59675000D01*
X81512500Y-59675000D01*
X81489221Y-59673856D01*
X81466166Y-59670437D01*
X81443557Y-59664773D01*
X81421613Y-59656921D01*
X81400543Y-59646956D01*
X81380552Y-59634974D01*
X81361832Y-59621090D01*
X81344562Y-59605438D01*
X81328910Y-59588168D01*
X81315026Y-59569448D01*
X81303044Y-59549457D01*
X81293079Y-59528387D01*
X81285227Y-59506443D01*
X81279563Y-59483834D01*
X81276144Y-59460779D01*
X81275000Y-59437500D01*
X81275000Y-58862500D01*
X81276144Y-58839221D01*
X81279563Y-58816166D01*
X81285227Y-58793557D01*
X81293079Y-58771613D01*
X81303044Y-58750543D01*
X81315026Y-58730552D01*
X81328910Y-58711832D01*
X81344562Y-58694562D01*
X81361832Y-58678910D01*
X81380552Y-58665026D01*
X81400543Y-58653044D01*
X81421613Y-58643079D01*
X81443557Y-58635227D01*
X81466166Y-58629563D01*
X81489221Y-58626144D01*
X81512500Y-58625000D01*
X81987500Y-58625000D01*
X82010779Y-58626144D01*
G37*
G36*
X82560779Y-66176143D02*
G01*
X82583834Y-66179562D01*
X82606443Y-66185226D01*
X82628387Y-66193078D01*
X82649457Y-66203043D01*
X82669448Y-66215025D01*
X82688168Y-66228909D01*
X82705438Y-66244561D01*
X82721090Y-66261831D01*
X82734974Y-66280551D01*
X82746956Y-66300542D01*
X82756921Y-66321612D01*
X82764773Y-66343556D01*
X82770437Y-66366165D01*
X82773856Y-66389220D01*
X82775000Y-66412499D01*
X82775000Y-66987499D01*
X82773856Y-67010778D01*
X82770437Y-67033833D01*
X82764773Y-67056442D01*
X82756921Y-67078386D01*
X82746956Y-67099456D01*
X82734974Y-67119447D01*
X82721090Y-67138167D01*
X82705438Y-67155437D01*
X82688168Y-67171089D01*
X82669448Y-67184973D01*
X82649457Y-67196955D01*
X82628387Y-67206920D01*
X82606443Y-67214772D01*
X82583834Y-67220436D01*
X82560779Y-67223855D01*
X82537500Y-67224999D01*
X82062500Y-67224999D01*
X82039221Y-67223855D01*
X82016166Y-67220436D01*
X81993557Y-67214772D01*
X81971613Y-67206920D01*
X81950543Y-67196955D01*
X81930552Y-67184973D01*
X81911832Y-67171089D01*
X81894562Y-67155437D01*
X81878910Y-67138167D01*
X81865026Y-67119447D01*
X81853044Y-67099456D01*
X81843079Y-67078386D01*
X81835227Y-67056442D01*
X81829563Y-67033833D01*
X81826144Y-67010778D01*
X81825000Y-66987499D01*
X81825000Y-66412499D01*
X81826144Y-66389220D01*
X81829563Y-66366165D01*
X81835227Y-66343556D01*
X81843079Y-66321612D01*
X81853044Y-66300542D01*
X81865026Y-66280551D01*
X81878910Y-66261831D01*
X81894562Y-66244561D01*
X81911832Y-66228909D01*
X81930552Y-66215025D01*
X81950543Y-66203043D01*
X81971613Y-66193078D01*
X81993557Y-66185226D01*
X82016166Y-66179562D01*
X82039221Y-66176143D01*
X82062500Y-66174999D01*
X82537500Y-66174999D01*
X82560779Y-66176143D01*
G37*
G36*
X82560779Y-67926143D02*
G01*
X82583834Y-67929562D01*
X82606443Y-67935226D01*
X82628387Y-67943078D01*
X82649457Y-67953043D01*
X82669448Y-67965025D01*
X82688168Y-67978909D01*
X82705438Y-67994561D01*
X82721090Y-68011831D01*
X82734974Y-68030551D01*
X82746956Y-68050542D01*
X82756921Y-68071612D01*
X82764773Y-68093556D01*
X82770437Y-68116165D01*
X82773856Y-68139220D01*
X82775000Y-68162499D01*
X82775000Y-68737499D01*
X82773856Y-68760778D01*
X82770437Y-68783833D01*
X82764773Y-68806442D01*
X82756921Y-68828386D01*
X82746956Y-68849456D01*
X82734974Y-68869447D01*
X82721090Y-68888167D01*
X82705438Y-68905437D01*
X82688168Y-68921089D01*
X82669448Y-68934973D01*
X82649457Y-68946955D01*
X82628387Y-68956920D01*
X82606443Y-68964772D01*
X82583834Y-68970436D01*
X82560779Y-68973855D01*
X82537500Y-68974999D01*
X82062500Y-68974999D01*
X82039221Y-68973855D01*
X82016166Y-68970436D01*
X81993557Y-68964772D01*
X81971613Y-68956920D01*
X81950543Y-68946955D01*
X81930552Y-68934973D01*
X81911832Y-68921089D01*
X81894562Y-68905437D01*
X81878910Y-68888167D01*
X81865026Y-68869447D01*
X81853044Y-68849456D01*
X81843079Y-68828386D01*
X81835227Y-68806442D01*
X81829563Y-68783833D01*
X81826144Y-68760778D01*
X81825000Y-68737499D01*
X81825000Y-68162499D01*
X81826144Y-68139220D01*
X81829563Y-68116165D01*
X81835227Y-68093556D01*
X81843079Y-68071612D01*
X81853044Y-68050542D01*
X81865026Y-68030551D01*
X81878910Y-68011831D01*
X81894562Y-67994561D01*
X81911832Y-67978909D01*
X81930552Y-67965025D01*
X81950543Y-67953043D01*
X81971613Y-67943078D01*
X81993557Y-67935226D01*
X82016166Y-67929562D01*
X82039221Y-67926143D01*
X82062500Y-67924999D01*
X82537500Y-67924999D01*
X82560779Y-67926143D01*
G37*
G36*
X82560779Y-70726144D02*
G01*
X82583834Y-70729563D01*
X82606443Y-70735227D01*
X82628387Y-70743079D01*
X82649457Y-70753044D01*
X82669448Y-70765026D01*
X82688168Y-70778910D01*
X82705438Y-70794562D01*
X82721090Y-70811832D01*
X82734974Y-70830552D01*
X82746956Y-70850543D01*
X82756921Y-70871613D01*
X82764773Y-70893557D01*
X82770437Y-70916166D01*
X82773856Y-70939221D01*
X82775000Y-70962500D01*
X82775000Y-71537500D01*
X82773856Y-71560779D01*
X82770437Y-71583834D01*
X82764773Y-71606443D01*
X82756921Y-71628387D01*
X82746956Y-71649457D01*
X82734974Y-71669448D01*
X82721090Y-71688168D01*
X82705438Y-71705438D01*
X82688168Y-71721090D01*
X82669448Y-71734974D01*
X82649457Y-71746956D01*
X82628387Y-71756921D01*
X82606443Y-71764773D01*
X82583834Y-71770437D01*
X82560779Y-71773856D01*
X82537500Y-71775000D01*
X82062500Y-71775000D01*
X82039221Y-71773856D01*
X82016166Y-71770437D01*
X81993557Y-71764773D01*
X81971613Y-71756921D01*
X81950543Y-71746956D01*
X81930552Y-71734974D01*
X81911832Y-71721090D01*
X81894562Y-71705438D01*
X81878910Y-71688168D01*
X81865026Y-71669448D01*
X81853044Y-71649457D01*
X81843079Y-71628387D01*
X81835227Y-71606443D01*
X81829563Y-71583834D01*
X81826144Y-71560779D01*
X81825000Y-71537500D01*
X81825000Y-70962500D01*
X81826144Y-70939221D01*
X81829563Y-70916166D01*
X81835227Y-70893557D01*
X81843079Y-70871613D01*
X81853044Y-70850543D01*
X81865026Y-70830552D01*
X81878910Y-70811832D01*
X81894562Y-70794562D01*
X81911832Y-70778910D01*
X81930552Y-70765026D01*
X81950543Y-70753044D01*
X81971613Y-70743079D01*
X81993557Y-70735227D01*
X82016166Y-70729563D01*
X82039221Y-70726144D01*
X82062500Y-70725000D01*
X82537500Y-70725000D01*
X82560779Y-70726144D01*
G37*
G36*
X82560779Y-72476144D02*
G01*
X82583834Y-72479563D01*
X82606443Y-72485227D01*
X82628387Y-72493079D01*
X82649457Y-72503044D01*
X82669448Y-72515026D01*
X82688168Y-72528910D01*
X82705438Y-72544562D01*
X82721090Y-72561832D01*
X82734974Y-72580552D01*
X82746956Y-72600543D01*
X82756921Y-72621613D01*
X82764773Y-72643557D01*
X82770437Y-72666166D01*
X82773856Y-72689221D01*
X82775000Y-72712500D01*
X82775000Y-73287500D01*
X82773856Y-73310779D01*
X82770437Y-73333834D01*
X82764773Y-73356443D01*
X82756921Y-73378387D01*
X82746956Y-73399457D01*
X82734974Y-73419448D01*
X82721090Y-73438168D01*
X82705438Y-73455438D01*
X82688168Y-73471090D01*
X82669448Y-73484974D01*
X82649457Y-73496956D01*
X82628387Y-73506921D01*
X82606443Y-73514773D01*
X82583834Y-73520437D01*
X82560779Y-73523856D01*
X82537500Y-73525000D01*
X82062500Y-73525000D01*
X82039221Y-73523856D01*
X82016166Y-73520437D01*
X81993557Y-73514773D01*
X81971613Y-73506921D01*
X81950543Y-73496956D01*
X81930552Y-73484974D01*
X81911832Y-73471090D01*
X81894562Y-73455438D01*
X81878910Y-73438168D01*
X81865026Y-73419448D01*
X81853044Y-73399457D01*
X81843079Y-73378387D01*
X81835227Y-73356443D01*
X81829563Y-73333834D01*
X81826144Y-73310779D01*
X81825000Y-73287500D01*
X81825000Y-72712500D01*
X81826144Y-72689221D01*
X81829563Y-72666166D01*
X81835227Y-72643557D01*
X81843079Y-72621613D01*
X81853044Y-72600543D01*
X81865026Y-72580552D01*
X81878910Y-72561832D01*
X81894562Y-72544562D01*
X81911832Y-72528910D01*
X81930552Y-72515026D01*
X81950543Y-72503044D01*
X81971613Y-72493079D01*
X81993557Y-72485227D01*
X82016166Y-72479563D01*
X82039221Y-72476144D01*
X82062500Y-72475000D01*
X82537500Y-72475000D01*
X82560779Y-72476144D01*
G37*
G36*
X82560779Y-75626144D02*
G01*
X82583834Y-75629563D01*
X82606443Y-75635227D01*
X82628387Y-75643079D01*
X82649457Y-75653044D01*
X82669448Y-75665026D01*
X82688168Y-75678910D01*
X82705438Y-75694562D01*
X82721090Y-75711832D01*
X82734974Y-75730552D01*
X82746956Y-75750543D01*
X82756921Y-75771613D01*
X82764773Y-75793557D01*
X82770437Y-75816166D01*
X82773856Y-75839221D01*
X82775000Y-75862500D01*
X82775000Y-76437500D01*
X82773856Y-76460779D01*
X82770437Y-76483834D01*
X82764773Y-76506443D01*
X82756921Y-76528387D01*
X82746956Y-76549457D01*
X82734974Y-76569448D01*
X82721090Y-76588168D01*
X82705438Y-76605438D01*
X82688168Y-76621090D01*
X82669448Y-76634974D01*
X82649457Y-76646956D01*
X82628387Y-76656921D01*
X82606443Y-76664773D01*
X82583834Y-76670437D01*
X82560779Y-76673856D01*
X82537500Y-76675000D01*
X82062500Y-76675000D01*
X82039221Y-76673856D01*
X82016166Y-76670437D01*
X81993557Y-76664773D01*
X81971613Y-76656921D01*
X81950543Y-76646956D01*
X81930552Y-76634974D01*
X81911832Y-76621090D01*
X81894562Y-76605438D01*
X81878910Y-76588168D01*
X81865026Y-76569448D01*
X81853044Y-76549457D01*
X81843079Y-76528387D01*
X81835227Y-76506443D01*
X81829563Y-76483834D01*
X81826144Y-76460779D01*
X81825000Y-76437500D01*
X81825000Y-75862500D01*
X81826144Y-75839221D01*
X81829563Y-75816166D01*
X81835227Y-75793557D01*
X81843079Y-75771613D01*
X81853044Y-75750543D01*
X81865026Y-75730552D01*
X81878910Y-75711832D01*
X81894562Y-75694562D01*
X81911832Y-75678910D01*
X81930552Y-75665026D01*
X81950543Y-75653044D01*
X81971613Y-75643079D01*
X81993557Y-75635227D01*
X82016166Y-75629563D01*
X82039221Y-75626144D01*
X82062500Y-75625000D01*
X82537500Y-75625000D01*
X82560779Y-75626144D01*
G37*
G36*
X82560779Y-77376144D02*
G01*
X82583834Y-77379563D01*
X82606443Y-77385227D01*
X82628387Y-77393079D01*
X82649457Y-77403044D01*
X82669448Y-77415026D01*
X82688168Y-77428910D01*
X82705438Y-77444562D01*
X82721090Y-77461832D01*
X82734974Y-77480552D01*
X82746956Y-77500543D01*
X82756921Y-77521613D01*
X82764773Y-77543557D01*
X82770437Y-77566166D01*
X82773856Y-77589221D01*
X82775000Y-77612500D01*
X82775000Y-78187500D01*
X82773856Y-78210779D01*
X82770437Y-78233834D01*
X82764773Y-78256443D01*
X82756921Y-78278387D01*
X82746956Y-78299457D01*
X82734974Y-78319448D01*
X82721090Y-78338168D01*
X82705438Y-78355438D01*
X82688168Y-78371090D01*
X82669448Y-78384974D01*
X82649457Y-78396956D01*
X82628387Y-78406921D01*
X82606443Y-78414773D01*
X82583834Y-78420437D01*
X82560779Y-78423856D01*
X82537500Y-78425000D01*
X82062500Y-78425000D01*
X82039221Y-78423856D01*
X82016166Y-78420437D01*
X81993557Y-78414773D01*
X81971613Y-78406921D01*
X81950543Y-78396956D01*
X81930552Y-78384974D01*
X81911832Y-78371090D01*
X81894562Y-78355438D01*
X81878910Y-78338168D01*
X81865026Y-78319448D01*
X81853044Y-78299457D01*
X81843079Y-78278387D01*
X81835227Y-78256443D01*
X81829563Y-78233834D01*
X81826144Y-78210779D01*
X81825000Y-78187500D01*
X81825000Y-77612500D01*
X81826144Y-77589221D01*
X81829563Y-77566166D01*
X81835227Y-77543557D01*
X81843079Y-77521613D01*
X81853044Y-77500543D01*
X81865026Y-77480552D01*
X81878910Y-77461832D01*
X81894562Y-77444562D01*
X81911832Y-77428910D01*
X81930552Y-77415026D01*
X81950543Y-77403044D01*
X81971613Y-77393079D01*
X81993557Y-77385227D01*
X82016166Y-77379563D01*
X82039221Y-77376144D01*
X82062500Y-77375000D01*
X82537500Y-77375000D01*
X82560779Y-77376144D01*
G37*
G36*
X86599505Y-77051204D02*
G01*
X86623773Y-77054804D01*
X86647572Y-77060765D01*
X86670671Y-77069030D01*
X86692850Y-77079520D01*
X86713893Y-77092132D01*
X86733599Y-77106747D01*
X86751777Y-77123223D01*
X86768253Y-77141401D01*
X86782868Y-77161107D01*
X86795480Y-77182150D01*
X86805970Y-77204329D01*
X86814235Y-77227428D01*
X86820196Y-77251227D01*
X86823796Y-77275495D01*
X86825000Y-77299999D01*
X86825000Y-78200001D01*
X86823796Y-78224505D01*
X86820196Y-78248773D01*
X86814235Y-78272572D01*
X86805970Y-78295671D01*
X86795480Y-78317850D01*
X86782868Y-78338893D01*
X86768253Y-78358599D01*
X86751777Y-78376777D01*
X86733599Y-78393253D01*
X86713893Y-78407868D01*
X86692850Y-78420480D01*
X86670671Y-78430970D01*
X86647572Y-78439235D01*
X86623773Y-78445196D01*
X86599505Y-78448796D01*
X86575001Y-78450000D01*
X85924999Y-78450000D01*
X85900495Y-78448796D01*
X85876227Y-78445196D01*
X85852428Y-78439235D01*
X85829329Y-78430970D01*
X85807150Y-78420480D01*
X85786107Y-78407868D01*
X85766401Y-78393253D01*
X85748223Y-78376777D01*
X85731747Y-78358599D01*
X85717132Y-78338893D01*
X85704520Y-78317850D01*
X85694030Y-78295671D01*
X85685765Y-78272572D01*
X85679804Y-78248773D01*
X85676204Y-78224505D01*
X85675000Y-78200001D01*
X85675000Y-77299999D01*
X85676204Y-77275495D01*
X85679804Y-77251227D01*
X85685765Y-77227428D01*
X85694030Y-77204329D01*
X85704520Y-77182150D01*
X85717132Y-77161107D01*
X85731747Y-77141401D01*
X85748223Y-77123223D01*
X85766401Y-77106747D01*
X85786107Y-77092132D01*
X85807150Y-77079520D01*
X85829329Y-77069030D01*
X85852428Y-77060765D01*
X85876227Y-77054804D01*
X85900495Y-77051204D01*
X85924999Y-77050000D01*
X86575001Y-77050000D01*
X86599505Y-77051204D01*
G37*
G36*
X84549505Y-77051204D02*
G01*
X84573773Y-77054804D01*
X84597572Y-77060765D01*
X84620671Y-77069030D01*
X84642850Y-77079520D01*
X84663893Y-77092132D01*
X84683599Y-77106747D01*
X84701777Y-77123223D01*
X84718253Y-77141401D01*
X84732868Y-77161107D01*
X84745480Y-77182150D01*
X84755970Y-77204329D01*
X84764235Y-77227428D01*
X84770196Y-77251227D01*
X84773796Y-77275495D01*
X84775000Y-77299999D01*
X84775000Y-78200001D01*
X84773796Y-78224505D01*
X84770196Y-78248773D01*
X84764235Y-78272572D01*
X84755970Y-78295671D01*
X84745480Y-78317850D01*
X84732868Y-78338893D01*
X84718253Y-78358599D01*
X84701777Y-78376777D01*
X84683599Y-78393253D01*
X84663893Y-78407868D01*
X84642850Y-78420480D01*
X84620671Y-78430970D01*
X84597572Y-78439235D01*
X84573773Y-78445196D01*
X84549505Y-78448796D01*
X84525001Y-78450000D01*
X83874999Y-78450000D01*
X83850495Y-78448796D01*
X83826227Y-78445196D01*
X83802428Y-78439235D01*
X83779329Y-78430970D01*
X83757150Y-78420480D01*
X83736107Y-78407868D01*
X83716401Y-78393253D01*
X83698223Y-78376777D01*
X83681747Y-78358599D01*
X83667132Y-78338893D01*
X83654520Y-78317850D01*
X83644030Y-78295671D01*
X83635765Y-78272572D01*
X83629804Y-78248773D01*
X83626204Y-78224505D01*
X83625000Y-78200001D01*
X83625000Y-77299999D01*
X83626204Y-77275495D01*
X83629804Y-77251227D01*
X83635765Y-77227428D01*
X83644030Y-77204329D01*
X83654520Y-77182150D01*
X83667132Y-77161107D01*
X83681747Y-77141401D01*
X83698223Y-77123223D01*
X83716401Y-77106747D01*
X83736107Y-77092132D01*
X83757150Y-77079520D01*
X83779329Y-77069030D01*
X83802428Y-77060765D01*
X83826227Y-77054804D01*
X83850495Y-77051204D01*
X83874999Y-77050000D01*
X84525001Y-77050000D01*
X84549505Y-77051204D01*
G37*
D13*
X76600000Y-71500000D03*
X75800000Y-71500000D03*
X75000000Y-71500000D03*
X74200000Y-71500000D03*
X73400000Y-71500000D03*
D14*
X79400000Y-71500000D03*
X70600000Y-71500000D03*
X79400000Y-77000000D03*
X70600000Y-77000000D03*
D10*
G36*
X83399505Y-51701204D02*
G01*
X83423773Y-51704804D01*
X83447572Y-51710765D01*
X83470671Y-51719030D01*
X83492850Y-51729520D01*
X83513893Y-51742132D01*
X83533599Y-51756747D01*
X83551777Y-51773223D01*
X83568253Y-51791401D01*
X83582868Y-51811107D01*
X83595480Y-51832150D01*
X83605970Y-51854329D01*
X83614235Y-51877428D01*
X83620196Y-51901227D01*
X83623796Y-51925495D01*
X83625000Y-51949999D01*
X83625000Y-52850001D01*
X83623796Y-52874505D01*
X83620196Y-52898773D01*
X83614235Y-52922572D01*
X83605970Y-52945671D01*
X83595480Y-52967850D01*
X83582868Y-52988893D01*
X83568253Y-53008599D01*
X83551777Y-53026777D01*
X83533599Y-53043253D01*
X83513893Y-53057868D01*
X83492850Y-53070480D01*
X83470671Y-53080970D01*
X83447572Y-53089235D01*
X83423773Y-53095196D01*
X83399505Y-53098796D01*
X83375001Y-53100000D01*
X82724999Y-53100000D01*
X82700495Y-53098796D01*
X82676227Y-53095196D01*
X82652428Y-53089235D01*
X82629329Y-53080970D01*
X82607150Y-53070480D01*
X82586107Y-53057868D01*
X82566401Y-53043253D01*
X82548223Y-53026777D01*
X82531747Y-53008599D01*
X82517132Y-52988893D01*
X82504520Y-52967850D01*
X82494030Y-52945671D01*
X82485765Y-52922572D01*
X82479804Y-52898773D01*
X82476204Y-52874505D01*
X82475000Y-52850001D01*
X82475000Y-51949999D01*
X82476204Y-51925495D01*
X82479804Y-51901227D01*
X82485765Y-51877428D01*
X82494030Y-51854329D01*
X82504520Y-51832150D01*
X82517132Y-51811107D01*
X82531747Y-51791401D01*
X82548223Y-51773223D01*
X82566401Y-51756747D01*
X82586107Y-51742132D01*
X82607150Y-51729520D01*
X82629329Y-51719030D01*
X82652428Y-51710765D01*
X82676227Y-51704804D01*
X82700495Y-51701204D01*
X82724999Y-51700000D01*
X83375001Y-51700000D01*
X83399505Y-51701204D01*
G37*
G36*
X81349505Y-51701204D02*
G01*
X81373773Y-51704804D01*
X81397572Y-51710765D01*
X81420671Y-51719030D01*
X81442850Y-51729520D01*
X81463893Y-51742132D01*
X81483599Y-51756747D01*
X81501777Y-51773223D01*
X81518253Y-51791401D01*
X81532868Y-51811107D01*
X81545480Y-51832150D01*
X81555970Y-51854329D01*
X81564235Y-51877428D01*
X81570196Y-51901227D01*
X81573796Y-51925495D01*
X81575000Y-51949999D01*
X81575000Y-52850001D01*
X81573796Y-52874505D01*
X81570196Y-52898773D01*
X81564235Y-52922572D01*
X81555970Y-52945671D01*
X81545480Y-52967850D01*
X81532868Y-52988893D01*
X81518253Y-53008599D01*
X81501777Y-53026777D01*
X81483599Y-53043253D01*
X81463893Y-53057868D01*
X81442850Y-53070480D01*
X81420671Y-53080970D01*
X81397572Y-53089235D01*
X81373773Y-53095196D01*
X81349505Y-53098796D01*
X81325001Y-53100000D01*
X80674999Y-53100000D01*
X80650495Y-53098796D01*
X80626227Y-53095196D01*
X80602428Y-53089235D01*
X80579329Y-53080970D01*
X80557150Y-53070480D01*
X80536107Y-53057868D01*
X80516401Y-53043253D01*
X80498223Y-53026777D01*
X80481747Y-53008599D01*
X80467132Y-52988893D01*
X80454520Y-52967850D01*
X80444030Y-52945671D01*
X80435765Y-52922572D01*
X80429804Y-52898773D01*
X80426204Y-52874505D01*
X80425000Y-52850001D01*
X80425000Y-51949999D01*
X80426204Y-51925495D01*
X80429804Y-51901227D01*
X80435765Y-51877428D01*
X80444030Y-51854329D01*
X80454520Y-51832150D01*
X80467132Y-51811107D01*
X80481747Y-51791401D01*
X80498223Y-51773223D01*
X80516401Y-51756747D01*
X80536107Y-51742132D01*
X80557150Y-51729520D01*
X80579329Y-51719030D01*
X80602428Y-51710765D01*
X80626227Y-51704804D01*
X80650495Y-51701204D01*
X80674999Y-51700000D01*
X81325001Y-51700000D01*
X81349505Y-51701204D01*
G37*
G36*
X83399505Y-54101204D02*
G01*
X83423773Y-54104804D01*
X83447572Y-54110765D01*
X83470671Y-54119030D01*
X83492850Y-54129520D01*
X83513893Y-54142132D01*
X83533599Y-54156747D01*
X83551777Y-54173223D01*
X83568253Y-54191401D01*
X83582868Y-54211107D01*
X83595480Y-54232150D01*
X83605970Y-54254329D01*
X83614235Y-54277428D01*
X83620196Y-54301227D01*
X83623796Y-54325495D01*
X83625000Y-54349999D01*
X83625000Y-55250001D01*
X83623796Y-55274505D01*
X83620196Y-55298773D01*
X83614235Y-55322572D01*
X83605970Y-55345671D01*
X83595480Y-55367850D01*
X83582868Y-55388893D01*
X83568253Y-55408599D01*
X83551777Y-55426777D01*
X83533599Y-55443253D01*
X83513893Y-55457868D01*
X83492850Y-55470480D01*
X83470671Y-55480970D01*
X83447572Y-55489235D01*
X83423773Y-55495196D01*
X83399505Y-55498796D01*
X83375001Y-55500000D01*
X82724999Y-55500000D01*
X82700495Y-55498796D01*
X82676227Y-55495196D01*
X82652428Y-55489235D01*
X82629329Y-55480970D01*
X82607150Y-55470480D01*
X82586107Y-55457868D01*
X82566401Y-55443253D01*
X82548223Y-55426777D01*
X82531747Y-55408599D01*
X82517132Y-55388893D01*
X82504520Y-55367850D01*
X82494030Y-55345671D01*
X82485765Y-55322572D01*
X82479804Y-55298773D01*
X82476204Y-55274505D01*
X82475000Y-55250001D01*
X82475000Y-54349999D01*
X82476204Y-54325495D01*
X82479804Y-54301227D01*
X82485765Y-54277428D01*
X82494030Y-54254329D01*
X82504520Y-54232150D01*
X82517132Y-54211107D01*
X82531747Y-54191401D01*
X82548223Y-54173223D01*
X82566401Y-54156747D01*
X82586107Y-54142132D01*
X82607150Y-54129520D01*
X82629329Y-54119030D01*
X82652428Y-54110765D01*
X82676227Y-54104804D01*
X82700495Y-54101204D01*
X82724999Y-54100000D01*
X83375001Y-54100000D01*
X83399505Y-54101204D01*
G37*
G36*
X81349505Y-54101204D02*
G01*
X81373773Y-54104804D01*
X81397572Y-54110765D01*
X81420671Y-54119030D01*
X81442850Y-54129520D01*
X81463893Y-54142132D01*
X81483599Y-54156747D01*
X81501777Y-54173223D01*
X81518253Y-54191401D01*
X81532868Y-54211107D01*
X81545480Y-54232150D01*
X81555970Y-54254329D01*
X81564235Y-54277428D01*
X81570196Y-54301227D01*
X81573796Y-54325495D01*
X81575000Y-54349999D01*
X81575000Y-55250001D01*
X81573796Y-55274505D01*
X81570196Y-55298773D01*
X81564235Y-55322572D01*
X81555970Y-55345671D01*
X81545480Y-55367850D01*
X81532868Y-55388893D01*
X81518253Y-55408599D01*
X81501777Y-55426777D01*
X81483599Y-55443253D01*
X81463893Y-55457868D01*
X81442850Y-55470480D01*
X81420671Y-55480970D01*
X81397572Y-55489235D01*
X81373773Y-55495196D01*
X81349505Y-55498796D01*
X81325001Y-55500000D01*
X80674999Y-55500000D01*
X80650495Y-55498796D01*
X80626227Y-55495196D01*
X80602428Y-55489235D01*
X80579329Y-55480970D01*
X80557150Y-55470480D01*
X80536107Y-55457868D01*
X80516401Y-55443253D01*
X80498223Y-55426777D01*
X80481747Y-55408599D01*
X80467132Y-55388893D01*
X80454520Y-55367850D01*
X80444030Y-55345671D01*
X80435765Y-55322572D01*
X80429804Y-55298773D01*
X80426204Y-55274505D01*
X80425000Y-55250001D01*
X80425000Y-54349999D01*
X80426204Y-54325495D01*
X80429804Y-54301227D01*
X80435765Y-54277428D01*
X80444030Y-54254329D01*
X80454520Y-54232150D01*
X80467132Y-54211107D01*
X80481747Y-54191401D01*
X80498223Y-54173223D01*
X80516401Y-54156747D01*
X80536107Y-54142132D01*
X80557150Y-54129520D01*
X80579329Y-54119030D01*
X80602428Y-54110765D01*
X80626227Y-54104804D01*
X80650495Y-54101204D01*
X80674999Y-54100000D01*
X81325001Y-54100000D01*
X81349505Y-54101204D01*
G37*
G36*
X76887924Y-67992413D02*
G01*
X76910979Y-67995832D01*
X76933588Y-68001496D01*
X76955532Y-68009348D01*
X76976602Y-68019313D01*
X76996593Y-68031295D01*
X77015313Y-68045179D01*
X77032583Y-68060831D01*
X77439169Y-68467417D01*
X77454821Y-68484687D01*
X77468705Y-68503407D01*
X77480687Y-68523398D01*
X77490652Y-68544468D01*
X77498504Y-68566412D01*
X77504168Y-68589021D01*
X77507587Y-68612076D01*
X77508731Y-68635355D01*
X77507587Y-68658634D01*
X77504168Y-68681689D01*
X77498504Y-68704298D01*
X77490652Y-68726242D01*
X77480687Y-68747312D01*
X77468705Y-68767303D01*
X77454821Y-68786023D01*
X77439169Y-68803293D01*
X77103293Y-69139169D01*
X77086023Y-69154821D01*
X77067303Y-69168705D01*
X77047312Y-69180687D01*
X77026242Y-69190652D01*
X77004298Y-69198504D01*
X76981689Y-69204168D01*
X76958634Y-69207587D01*
X76935355Y-69208731D01*
X76912076Y-69207587D01*
X76889021Y-69204168D01*
X76866412Y-69198504D01*
X76844468Y-69190652D01*
X76823398Y-69180687D01*
X76803407Y-69168705D01*
X76784687Y-69154821D01*
X76767417Y-69139169D01*
X76360831Y-68732583D01*
X76345179Y-68715313D01*
X76331295Y-68696593D01*
X76319313Y-68676602D01*
X76309348Y-68655532D01*
X76301496Y-68633588D01*
X76295832Y-68610979D01*
X76292413Y-68587924D01*
X76291269Y-68564645D01*
X76292413Y-68541366D01*
X76295832Y-68518311D01*
X76301496Y-68495702D01*
X76309348Y-68473758D01*
X76319313Y-68452688D01*
X76331295Y-68432697D01*
X76345179Y-68413977D01*
X76360831Y-68396707D01*
X76696707Y-68060831D01*
X76713977Y-68045179D01*
X76732697Y-68031295D01*
X76752688Y-68019313D01*
X76773758Y-68009348D01*
X76795702Y-68001496D01*
X76818311Y-67995832D01*
X76841366Y-67992413D01*
X76864645Y-67991269D01*
X76887924Y-67992413D01*
G37*
G36*
X75650488Y-66754977D02*
G01*
X75673543Y-66758396D01*
X75696152Y-66764060D01*
X75718096Y-66771912D01*
X75739166Y-66781877D01*
X75759157Y-66793859D01*
X75777877Y-66807743D01*
X75795147Y-66823395D01*
X76201733Y-67229981D01*
X76217385Y-67247251D01*
X76231269Y-67265971D01*
X76243251Y-67285962D01*
X76253216Y-67307032D01*
X76261068Y-67328976D01*
X76266732Y-67351585D01*
X76270151Y-67374640D01*
X76271295Y-67397919D01*
X76270151Y-67421198D01*
X76266732Y-67444253D01*
X76261068Y-67466862D01*
X76253216Y-67488806D01*
X76243251Y-67509876D01*
X76231269Y-67529867D01*
X76217385Y-67548587D01*
X76201733Y-67565857D01*
X75865857Y-67901733D01*
X75848587Y-67917385D01*
X75829867Y-67931269D01*
X75809876Y-67943251D01*
X75788806Y-67953216D01*
X75766862Y-67961068D01*
X75744253Y-67966732D01*
X75721198Y-67970151D01*
X75697919Y-67971295D01*
X75674640Y-67970151D01*
X75651585Y-67966732D01*
X75628976Y-67961068D01*
X75607032Y-67953216D01*
X75585962Y-67943251D01*
X75565971Y-67931269D01*
X75547251Y-67917385D01*
X75529981Y-67901733D01*
X75123395Y-67495147D01*
X75107743Y-67477877D01*
X75093859Y-67459157D01*
X75081877Y-67439166D01*
X75071912Y-67418096D01*
X75064060Y-67396152D01*
X75058396Y-67373543D01*
X75054977Y-67350488D01*
X75053833Y-67327209D01*
X75054977Y-67303930D01*
X75058396Y-67280875D01*
X75064060Y-67258266D01*
X75071912Y-67236322D01*
X75081877Y-67215252D01*
X75093859Y-67195261D01*
X75107743Y-67176541D01*
X75123395Y-67159271D01*
X75459271Y-66823395D01*
X75476541Y-66807743D01*
X75495261Y-66793859D01*
X75515252Y-66781877D01*
X75536322Y-66771912D01*
X75558266Y-66764060D01*
X75580875Y-66758396D01*
X75603930Y-66754977D01*
X75627209Y-66753833D01*
X75650488Y-66754977D01*
G37*
G36*
X80396070Y-66792413D02*
G01*
X80419125Y-66795832D01*
X80441734Y-66801496D01*
X80463678Y-66809348D01*
X80484748Y-66819313D01*
X80504739Y-66831295D01*
X80523459Y-66845179D01*
X80540729Y-66860831D01*
X80876605Y-67196707D01*
X80892257Y-67213977D01*
X80906141Y-67232697D01*
X80918123Y-67252688D01*
X80928088Y-67273758D01*
X80935940Y-67295702D01*
X80941604Y-67318311D01*
X80945023Y-67341366D01*
X80946167Y-67364645D01*
X80945023Y-67387924D01*
X80941604Y-67410979D01*
X80935940Y-67433588D01*
X80928088Y-67455532D01*
X80918123Y-67476602D01*
X80906141Y-67496593D01*
X80892257Y-67515313D01*
X80876605Y-67532583D01*
X80470019Y-67939169D01*
X80452749Y-67954821D01*
X80434029Y-67968705D01*
X80414038Y-67980687D01*
X80392968Y-67990652D01*
X80371024Y-67998504D01*
X80348415Y-68004168D01*
X80325360Y-68007587D01*
X80302081Y-68008731D01*
X80278802Y-68007587D01*
X80255747Y-68004168D01*
X80233138Y-67998504D01*
X80211194Y-67990652D01*
X80190124Y-67980687D01*
X80170133Y-67968705D01*
X80151413Y-67954821D01*
X80134143Y-67939169D01*
X79798267Y-67603293D01*
X79782615Y-67586023D01*
X79768731Y-67567303D01*
X79756749Y-67547312D01*
X79746784Y-67526242D01*
X79738932Y-67504298D01*
X79733268Y-67481689D01*
X79729849Y-67458634D01*
X79728705Y-67435355D01*
X79729849Y-67412076D01*
X79733268Y-67389021D01*
X79738932Y-67366412D01*
X79746784Y-67344468D01*
X79756749Y-67323398D01*
X79768731Y-67303407D01*
X79782615Y-67284687D01*
X79798267Y-67267417D01*
X80204853Y-66860831D01*
X80222123Y-66845179D01*
X80240843Y-66831295D01*
X80260834Y-66819313D01*
X80281904Y-66809348D01*
X80303848Y-66801496D01*
X80326457Y-66795832D01*
X80349512Y-66792413D01*
X80372791Y-66791269D01*
X80396070Y-66792413D01*
G37*
G36*
X79158634Y-68029849D02*
G01*
X79181689Y-68033268D01*
X79204298Y-68038932D01*
X79226242Y-68046784D01*
X79247312Y-68056749D01*
X79267303Y-68068731D01*
X79286023Y-68082615D01*
X79303293Y-68098267D01*
X79639169Y-68434143D01*
X79654821Y-68451413D01*
X79668705Y-68470133D01*
X79680687Y-68490124D01*
X79690652Y-68511194D01*
X79698504Y-68533138D01*
X79704168Y-68555747D01*
X79707587Y-68578802D01*
X79708731Y-68602081D01*
X79707587Y-68625360D01*
X79704168Y-68648415D01*
X79698504Y-68671024D01*
X79690652Y-68692968D01*
X79680687Y-68714038D01*
X79668705Y-68734029D01*
X79654821Y-68752749D01*
X79639169Y-68770019D01*
X79232583Y-69176605D01*
X79215313Y-69192257D01*
X79196593Y-69206141D01*
X79176602Y-69218123D01*
X79155532Y-69228088D01*
X79133588Y-69235940D01*
X79110979Y-69241604D01*
X79087924Y-69245023D01*
X79064645Y-69246167D01*
X79041366Y-69245023D01*
X79018311Y-69241604D01*
X78995702Y-69235940D01*
X78973758Y-69228088D01*
X78952688Y-69218123D01*
X78932697Y-69206141D01*
X78913977Y-69192257D01*
X78896707Y-69176605D01*
X78560831Y-68840729D01*
X78545179Y-68823459D01*
X78531295Y-68804739D01*
X78519313Y-68784748D01*
X78509348Y-68763678D01*
X78501496Y-68741734D01*
X78495832Y-68719125D01*
X78492413Y-68696070D01*
X78491269Y-68672791D01*
X78492413Y-68649512D01*
X78495832Y-68626457D01*
X78501496Y-68603848D01*
X78509348Y-68581904D01*
X78519313Y-68560834D01*
X78531295Y-68540843D01*
X78545179Y-68522123D01*
X78560831Y-68504853D01*
X78967417Y-68098267D01*
X78984687Y-68082615D01*
X79003407Y-68068731D01*
X79023398Y-68056749D01*
X79044468Y-68046784D01*
X79066412Y-68038932D01*
X79089021Y-68033268D01*
X79112076Y-68029849D01*
X79135355Y-68028705D01*
X79158634Y-68029849D01*
G37*
G36*
X84560779Y-74526144D02*
G01*
X84583834Y-74529563D01*
X84606443Y-74535227D01*
X84628387Y-74543079D01*
X84649457Y-74553044D01*
X84669448Y-74565026D01*
X84688168Y-74578910D01*
X84705438Y-74594562D01*
X84721090Y-74611832D01*
X84734974Y-74630552D01*
X84746956Y-74650543D01*
X84756921Y-74671613D01*
X84764773Y-74693557D01*
X84770437Y-74716166D01*
X84773856Y-74739221D01*
X84775000Y-74762500D01*
X84775000Y-75237500D01*
X84773856Y-75260779D01*
X84770437Y-75283834D01*
X84764773Y-75306443D01*
X84756921Y-75328387D01*
X84746956Y-75349457D01*
X84734974Y-75369448D01*
X84721090Y-75388168D01*
X84705438Y-75405438D01*
X84688168Y-75421090D01*
X84669448Y-75434974D01*
X84649457Y-75446956D01*
X84628387Y-75456921D01*
X84606443Y-75464773D01*
X84583834Y-75470437D01*
X84560779Y-75473856D01*
X84537500Y-75475000D01*
X83962500Y-75475000D01*
X83939221Y-75473856D01*
X83916166Y-75470437D01*
X83893557Y-75464773D01*
X83871613Y-75456921D01*
X83850543Y-75446956D01*
X83830552Y-75434974D01*
X83811832Y-75421090D01*
X83794562Y-75405438D01*
X83778910Y-75388168D01*
X83765026Y-75369448D01*
X83753044Y-75349457D01*
X83743079Y-75328387D01*
X83735227Y-75306443D01*
X83729563Y-75283834D01*
X83726144Y-75260779D01*
X83725000Y-75237500D01*
X83725000Y-74762500D01*
X83726144Y-74739221D01*
X83729563Y-74716166D01*
X83735227Y-74693557D01*
X83743079Y-74671613D01*
X83753044Y-74650543D01*
X83765026Y-74630552D01*
X83778910Y-74611832D01*
X83794562Y-74594562D01*
X83811832Y-74578910D01*
X83830552Y-74565026D01*
X83850543Y-74553044D01*
X83871613Y-74543079D01*
X83893557Y-74535227D01*
X83916166Y-74529563D01*
X83939221Y-74526144D01*
X83962500Y-74525000D01*
X84537500Y-74525000D01*
X84560779Y-74526144D01*
G37*
G36*
X86310779Y-74526144D02*
G01*
X86333834Y-74529563D01*
X86356443Y-74535227D01*
X86378387Y-74543079D01*
X86399457Y-74553044D01*
X86419448Y-74565026D01*
X86438168Y-74578910D01*
X86455438Y-74594562D01*
X86471090Y-74611832D01*
X86484974Y-74630552D01*
X86496956Y-74650543D01*
X86506921Y-74671613D01*
X86514773Y-74693557D01*
X86520437Y-74716166D01*
X86523856Y-74739221D01*
X86525000Y-74762500D01*
X86525000Y-75237500D01*
X86523856Y-75260779D01*
X86520437Y-75283834D01*
X86514773Y-75306443D01*
X86506921Y-75328387D01*
X86496956Y-75349457D01*
X86484974Y-75369448D01*
X86471090Y-75388168D01*
X86455438Y-75405438D01*
X86438168Y-75421090D01*
X86419448Y-75434974D01*
X86399457Y-75446956D01*
X86378387Y-75456921D01*
X86356443Y-75464773D01*
X86333834Y-75470437D01*
X86310779Y-75473856D01*
X86287500Y-75475000D01*
X85712500Y-75475000D01*
X85689221Y-75473856D01*
X85666166Y-75470437D01*
X85643557Y-75464773D01*
X85621613Y-75456921D01*
X85600543Y-75446956D01*
X85580552Y-75434974D01*
X85561832Y-75421090D01*
X85544562Y-75405438D01*
X85528910Y-75388168D01*
X85515026Y-75369448D01*
X85503044Y-75349457D01*
X85493079Y-75328387D01*
X85485227Y-75306443D01*
X85479563Y-75283834D01*
X85476144Y-75260779D01*
X85475000Y-75237500D01*
X85475000Y-74762500D01*
X85476144Y-74739221D01*
X85479563Y-74716166D01*
X85485227Y-74693557D01*
X85493079Y-74671613D01*
X85503044Y-74650543D01*
X85515026Y-74630552D01*
X85528910Y-74611832D01*
X85544562Y-74594562D01*
X85561832Y-74578910D01*
X85580552Y-74565026D01*
X85600543Y-74553044D01*
X85621613Y-74543079D01*
X85643557Y-74535227D01*
X85666166Y-74529563D01*
X85689221Y-74526144D01*
X85712500Y-74525000D01*
X86287500Y-74525000D01*
X86310779Y-74526144D01*
G37*
G36*
X88360779Y-74526144D02*
G01*
X88383834Y-74529563D01*
X88406443Y-74535227D01*
X88428387Y-74543079D01*
X88449457Y-74553044D01*
X88469448Y-74565026D01*
X88488168Y-74578910D01*
X88505438Y-74594562D01*
X88521090Y-74611832D01*
X88534974Y-74630552D01*
X88546956Y-74650543D01*
X88556921Y-74671613D01*
X88564773Y-74693557D01*
X88570437Y-74716166D01*
X88573856Y-74739221D01*
X88575000Y-74762500D01*
X88575000Y-75237500D01*
X88573856Y-75260779D01*
X88570437Y-75283834D01*
X88564773Y-75306443D01*
X88556921Y-75328387D01*
X88546956Y-75349457D01*
X88534974Y-75369448D01*
X88521090Y-75388168D01*
X88505438Y-75405438D01*
X88488168Y-75421090D01*
X88469448Y-75434974D01*
X88449457Y-75446956D01*
X88428387Y-75456921D01*
X88406443Y-75464773D01*
X88383834Y-75470437D01*
X88360779Y-75473856D01*
X88337500Y-75475000D01*
X87762500Y-75475000D01*
X87739221Y-75473856D01*
X87716166Y-75470437D01*
X87693557Y-75464773D01*
X87671613Y-75456921D01*
X87650543Y-75446956D01*
X87630552Y-75434974D01*
X87611832Y-75421090D01*
X87594562Y-75405438D01*
X87578910Y-75388168D01*
X87565026Y-75369448D01*
X87553044Y-75349457D01*
X87543079Y-75328387D01*
X87535227Y-75306443D01*
X87529563Y-75283834D01*
X87526144Y-75260779D01*
X87525000Y-75237500D01*
X87525000Y-74762500D01*
X87526144Y-74739221D01*
X87529563Y-74716166D01*
X87535227Y-74693557D01*
X87543079Y-74671613D01*
X87553044Y-74650543D01*
X87565026Y-74630552D01*
X87578910Y-74611832D01*
X87594562Y-74594562D01*
X87611832Y-74578910D01*
X87630552Y-74565026D01*
X87650543Y-74553044D01*
X87671613Y-74543079D01*
X87693557Y-74535227D01*
X87716166Y-74529563D01*
X87739221Y-74526144D01*
X87762500Y-74525000D01*
X88337500Y-74525000D01*
X88360779Y-74526144D01*
G37*
G36*
X90110779Y-74526144D02*
G01*
X90133834Y-74529563D01*
X90156443Y-74535227D01*
X90178387Y-74543079D01*
X90199457Y-74553044D01*
X90219448Y-74565026D01*
X90238168Y-74578910D01*
X90255438Y-74594562D01*
X90271090Y-74611832D01*
X90284974Y-74630552D01*
X90296956Y-74650543D01*
X90306921Y-74671613D01*
X90314773Y-74693557D01*
X90320437Y-74716166D01*
X90323856Y-74739221D01*
X90325000Y-74762500D01*
X90325000Y-75237500D01*
X90323856Y-75260779D01*
X90320437Y-75283834D01*
X90314773Y-75306443D01*
X90306921Y-75328387D01*
X90296956Y-75349457D01*
X90284974Y-75369448D01*
X90271090Y-75388168D01*
X90255438Y-75405438D01*
X90238168Y-75421090D01*
X90219448Y-75434974D01*
X90199457Y-75446956D01*
X90178387Y-75456921D01*
X90156443Y-75464773D01*
X90133834Y-75470437D01*
X90110779Y-75473856D01*
X90087500Y-75475000D01*
X89512500Y-75475000D01*
X89489221Y-75473856D01*
X89466166Y-75470437D01*
X89443557Y-75464773D01*
X89421613Y-75456921D01*
X89400543Y-75446956D01*
X89380552Y-75434974D01*
X89361832Y-75421090D01*
X89344562Y-75405438D01*
X89328910Y-75388168D01*
X89315026Y-75369448D01*
X89303044Y-75349457D01*
X89293079Y-75328387D01*
X89285227Y-75306443D01*
X89279563Y-75283834D01*
X89276144Y-75260779D01*
X89275000Y-75237500D01*
X89275000Y-74762500D01*
X89276144Y-74739221D01*
X89279563Y-74716166D01*
X89285227Y-74693557D01*
X89293079Y-74671613D01*
X89303044Y-74650543D01*
X89315026Y-74630552D01*
X89328910Y-74611832D01*
X89344562Y-74594562D01*
X89361832Y-74578910D01*
X89380552Y-74565026D01*
X89400543Y-74553044D01*
X89421613Y-74543079D01*
X89443557Y-74535227D01*
X89466166Y-74529563D01*
X89489221Y-74526144D01*
X89512500Y-74525000D01*
X90087500Y-74525000D01*
X90110779Y-74526144D01*
G37*
M02*
