G04 #@! TF.GenerationSoftware,KiCad,Pcbnew,5.1.5*
G04 #@! TF.CreationDate,2020-05-30T17:31:02+02:00*
G04 #@! TF.ProjectId,lichtenprog,6c696368-7465-46e7-9072-6f672e6b6963,rev?*
G04 #@! TF.SameCoordinates,Original*
G04 #@! TF.FileFunction,Soldermask,Top*
G04 #@! TF.FilePolarity,Negative*
%FSLAX46Y46*%
G04 Gerber Fmt 4.6, Leading zero omitted, Abs format (unit mm)*
G04 Created by KiCad (PCBNEW 5.1.5) date 2020-05-30 17:31:02*
%MOMM*%
%LPD*%
G04 APERTURE LIST*
%ADD10C,0.100000*%
G04 APERTURE END LIST*
D10*
G36*
X90289499Y-77478445D02*
G01*
X90326995Y-77489820D01*
X90361554Y-77508292D01*
X90391847Y-77533153D01*
X90416708Y-77563446D01*
X90435180Y-77598005D01*
X90446555Y-77635501D01*
X90451000Y-77680638D01*
X90451000Y-78319362D01*
X90446555Y-78364499D01*
X90435180Y-78401995D01*
X90416708Y-78436554D01*
X90391847Y-78466847D01*
X90361554Y-78491708D01*
X90326995Y-78510180D01*
X90289499Y-78521555D01*
X90244362Y-78526000D01*
X89505638Y-78526000D01*
X89460501Y-78521555D01*
X89423005Y-78510180D01*
X89388446Y-78491708D01*
X89358153Y-78466847D01*
X89333292Y-78436554D01*
X89314820Y-78401995D01*
X89303445Y-78364499D01*
X89299000Y-78319362D01*
X89299000Y-77680638D01*
X89303445Y-77635501D01*
X89314820Y-77598005D01*
X89333292Y-77563446D01*
X89358153Y-77533153D01*
X89388446Y-77508292D01*
X89423005Y-77489820D01*
X89460501Y-77478445D01*
X89505638Y-77474000D01*
X90244362Y-77474000D01*
X90289499Y-77478445D01*
G37*
G36*
X88539499Y-77478445D02*
G01*
X88576995Y-77489820D01*
X88611554Y-77508292D01*
X88641847Y-77533153D01*
X88666708Y-77563446D01*
X88685180Y-77598005D01*
X88696555Y-77635501D01*
X88701000Y-77680638D01*
X88701000Y-78319362D01*
X88696555Y-78364499D01*
X88685180Y-78401995D01*
X88666708Y-78436554D01*
X88641847Y-78466847D01*
X88611554Y-78491708D01*
X88576995Y-78510180D01*
X88539499Y-78521555D01*
X88494362Y-78526000D01*
X87755638Y-78526000D01*
X87710501Y-78521555D01*
X87673005Y-78510180D01*
X87638446Y-78491708D01*
X87608153Y-78466847D01*
X87583292Y-78436554D01*
X87564820Y-78401995D01*
X87553445Y-78364499D01*
X87549000Y-78319362D01*
X87549000Y-77680638D01*
X87553445Y-77635501D01*
X87564820Y-77598005D01*
X87583292Y-77563446D01*
X87608153Y-77533153D01*
X87638446Y-77508292D01*
X87673005Y-77489820D01*
X87710501Y-77478445D01*
X87755638Y-77474000D01*
X88494362Y-77474000D01*
X88539499Y-77478445D01*
G37*
G36*
X78688674Y-77003465D02*
G01*
X78726367Y-77014899D01*
X78761103Y-77033466D01*
X78791548Y-77058452D01*
X78816534Y-77088897D01*
X78835101Y-77123633D01*
X78846535Y-77161326D01*
X78851000Y-77206661D01*
X78851000Y-78293339D01*
X78846535Y-78338674D01*
X78835101Y-78376367D01*
X78816534Y-78411103D01*
X78791548Y-78441548D01*
X78761103Y-78466534D01*
X78726367Y-78485101D01*
X78688674Y-78496535D01*
X78643339Y-78501000D01*
X77806661Y-78501000D01*
X77761326Y-78496535D01*
X77723633Y-78485101D01*
X77688897Y-78466534D01*
X77658452Y-78441548D01*
X77633466Y-78411103D01*
X77614899Y-78376367D01*
X77603465Y-78338674D01*
X77599000Y-78293339D01*
X77599000Y-77206661D01*
X77603465Y-77161326D01*
X77614899Y-77123633D01*
X77633466Y-77088897D01*
X77658452Y-77058452D01*
X77688897Y-77033466D01*
X77723633Y-77014899D01*
X77761326Y-77003465D01*
X77806661Y-76999000D01*
X78643339Y-76999000D01*
X78688674Y-77003465D01*
G37*
G36*
X80738674Y-77003465D02*
G01*
X80776367Y-77014899D01*
X80811103Y-77033466D01*
X80841548Y-77058452D01*
X80866534Y-77088897D01*
X80885101Y-77123633D01*
X80896535Y-77161326D01*
X80901000Y-77206661D01*
X80901000Y-78293339D01*
X80896535Y-78338674D01*
X80885101Y-78376367D01*
X80866534Y-78411103D01*
X80841548Y-78441548D01*
X80811103Y-78466534D01*
X80776367Y-78485101D01*
X80738674Y-78496535D01*
X80693339Y-78501000D01*
X79856661Y-78501000D01*
X79811326Y-78496535D01*
X79773633Y-78485101D01*
X79738897Y-78466534D01*
X79708452Y-78441548D01*
X79683466Y-78411103D01*
X79664899Y-78376367D01*
X79653465Y-78338674D01*
X79649000Y-78293339D01*
X79649000Y-77206661D01*
X79653465Y-77161326D01*
X79664899Y-77123633D01*
X79683466Y-77088897D01*
X79708452Y-77058452D01*
X79738897Y-77033466D01*
X79773633Y-77014899D01*
X79811326Y-77003465D01*
X79856661Y-76999000D01*
X80693339Y-76999000D01*
X80738674Y-77003465D01*
G37*
G36*
X92114499Y-77303445D02*
G01*
X92151995Y-77314820D01*
X92186554Y-77333292D01*
X92216847Y-77358153D01*
X92241708Y-77388446D01*
X92260180Y-77423005D01*
X92271555Y-77460501D01*
X92276000Y-77505638D01*
X92276000Y-78244362D01*
X92271555Y-78289499D01*
X92260180Y-78326995D01*
X92241708Y-78361554D01*
X92216847Y-78391847D01*
X92186554Y-78416708D01*
X92151995Y-78435180D01*
X92114499Y-78446555D01*
X92069362Y-78451000D01*
X91430638Y-78451000D01*
X91385501Y-78446555D01*
X91348005Y-78435180D01*
X91313446Y-78416708D01*
X91283153Y-78391847D01*
X91258292Y-78361554D01*
X91239820Y-78326995D01*
X91228445Y-78289499D01*
X91224000Y-78244362D01*
X91224000Y-77505638D01*
X91228445Y-77460501D01*
X91239820Y-77423005D01*
X91258292Y-77388446D01*
X91283153Y-77358153D01*
X91313446Y-77333292D01*
X91348005Y-77314820D01*
X91385501Y-77303445D01*
X91430638Y-77299000D01*
X92069362Y-77299000D01*
X92114499Y-77303445D01*
G37*
G36*
X86614499Y-77303445D02*
G01*
X86651995Y-77314820D01*
X86686554Y-77333292D01*
X86716847Y-77358153D01*
X86741708Y-77388446D01*
X86760180Y-77423005D01*
X86771555Y-77460501D01*
X86776000Y-77505638D01*
X86776000Y-78244362D01*
X86771555Y-78289499D01*
X86760180Y-78326995D01*
X86741708Y-78361554D01*
X86716847Y-78391847D01*
X86686554Y-78416708D01*
X86651995Y-78435180D01*
X86614499Y-78446555D01*
X86569362Y-78451000D01*
X85930638Y-78451000D01*
X85885501Y-78446555D01*
X85848005Y-78435180D01*
X85813446Y-78416708D01*
X85783153Y-78391847D01*
X85758292Y-78361554D01*
X85739820Y-78326995D01*
X85728445Y-78289499D01*
X85724000Y-78244362D01*
X85724000Y-77505638D01*
X85728445Y-77460501D01*
X85739820Y-77423005D01*
X85758292Y-77388446D01*
X85783153Y-77358153D01*
X85813446Y-77333292D01*
X85848005Y-77314820D01*
X85885501Y-77303445D01*
X85930638Y-77299000D01*
X86569362Y-77299000D01*
X86614499Y-77303445D01*
G37*
G36*
X84614499Y-77303445D02*
G01*
X84651995Y-77314820D01*
X84686554Y-77333292D01*
X84716847Y-77358153D01*
X84741708Y-77388446D01*
X84760180Y-77423005D01*
X84771555Y-77460501D01*
X84776000Y-77505638D01*
X84776000Y-78244362D01*
X84771555Y-78289499D01*
X84760180Y-78326995D01*
X84741708Y-78361554D01*
X84716847Y-78391847D01*
X84686554Y-78416708D01*
X84651995Y-78435180D01*
X84614499Y-78446555D01*
X84569362Y-78451000D01*
X83930638Y-78451000D01*
X83885501Y-78446555D01*
X83848005Y-78435180D01*
X83813446Y-78416708D01*
X83783153Y-78391847D01*
X83758292Y-78361554D01*
X83739820Y-78326995D01*
X83728445Y-78289499D01*
X83724000Y-78244362D01*
X83724000Y-77505638D01*
X83728445Y-77460501D01*
X83739820Y-77423005D01*
X83758292Y-77388446D01*
X83783153Y-77358153D01*
X83813446Y-77333292D01*
X83848005Y-77314820D01*
X83885501Y-77303445D01*
X83930638Y-77299000D01*
X84569362Y-77299000D01*
X84614499Y-77303445D01*
G37*
G36*
X82614499Y-77303445D02*
G01*
X82651995Y-77314820D01*
X82686554Y-77333292D01*
X82716847Y-77358153D01*
X82741708Y-77388446D01*
X82760180Y-77423005D01*
X82771555Y-77460501D01*
X82776000Y-77505638D01*
X82776000Y-78244362D01*
X82771555Y-78289499D01*
X82760180Y-78326995D01*
X82741708Y-78361554D01*
X82716847Y-78391847D01*
X82686554Y-78416708D01*
X82651995Y-78435180D01*
X82614499Y-78446555D01*
X82569362Y-78451000D01*
X81930638Y-78451000D01*
X81885501Y-78446555D01*
X81848005Y-78435180D01*
X81813446Y-78416708D01*
X81783153Y-78391847D01*
X81758292Y-78361554D01*
X81739820Y-78326995D01*
X81728445Y-78289499D01*
X81724000Y-78244362D01*
X81724000Y-77505638D01*
X81728445Y-77460501D01*
X81739820Y-77423005D01*
X81758292Y-77388446D01*
X81783153Y-77358153D01*
X81813446Y-77333292D01*
X81848005Y-77314820D01*
X81885501Y-77303445D01*
X81930638Y-77299000D01*
X82569362Y-77299000D01*
X82614499Y-77303445D01*
G37*
G36*
X75951000Y-78451000D02*
G01*
X73849000Y-78451000D01*
X73849000Y-75849000D01*
X75951000Y-75849000D01*
X75951000Y-78451000D01*
G37*
G36*
X67151000Y-78451000D02*
G01*
X65049000Y-78451000D01*
X65049000Y-75849000D01*
X67151000Y-75849000D01*
X67151000Y-78451000D01*
G37*
G36*
X84614499Y-75553445D02*
G01*
X84651995Y-75564820D01*
X84686554Y-75583292D01*
X84716847Y-75608153D01*
X84741708Y-75638446D01*
X84760180Y-75673005D01*
X84771555Y-75710501D01*
X84776000Y-75755638D01*
X84776000Y-76494362D01*
X84771555Y-76539499D01*
X84760180Y-76576995D01*
X84741708Y-76611554D01*
X84716847Y-76641847D01*
X84686554Y-76666708D01*
X84651995Y-76685180D01*
X84614499Y-76696555D01*
X84569362Y-76701000D01*
X83930638Y-76701000D01*
X83885501Y-76696555D01*
X83848005Y-76685180D01*
X83813446Y-76666708D01*
X83783153Y-76641847D01*
X83758292Y-76611554D01*
X83739820Y-76576995D01*
X83728445Y-76539499D01*
X83724000Y-76494362D01*
X83724000Y-75755638D01*
X83728445Y-75710501D01*
X83739820Y-75673005D01*
X83758292Y-75638446D01*
X83783153Y-75608153D01*
X83813446Y-75583292D01*
X83848005Y-75564820D01*
X83885501Y-75553445D01*
X83930638Y-75549000D01*
X84569362Y-75549000D01*
X84614499Y-75553445D01*
G37*
G36*
X82614499Y-75553445D02*
G01*
X82651995Y-75564820D01*
X82686554Y-75583292D01*
X82716847Y-75608153D01*
X82741708Y-75638446D01*
X82760180Y-75673005D01*
X82771555Y-75710501D01*
X82776000Y-75755638D01*
X82776000Y-76494362D01*
X82771555Y-76539499D01*
X82760180Y-76576995D01*
X82741708Y-76611554D01*
X82716847Y-76641847D01*
X82686554Y-76666708D01*
X82651995Y-76685180D01*
X82614499Y-76696555D01*
X82569362Y-76701000D01*
X81930638Y-76701000D01*
X81885501Y-76696555D01*
X81848005Y-76685180D01*
X81813446Y-76666708D01*
X81783153Y-76641847D01*
X81758292Y-76611554D01*
X81739820Y-76576995D01*
X81728445Y-76539499D01*
X81724000Y-76494362D01*
X81724000Y-75755638D01*
X81728445Y-75710501D01*
X81739820Y-75673005D01*
X81758292Y-75638446D01*
X81783153Y-75608153D01*
X81813446Y-75583292D01*
X81848005Y-75564820D01*
X81885501Y-75553445D01*
X81930638Y-75549000D01*
X82569362Y-75549000D01*
X82614499Y-75553445D01*
G37*
G36*
X86614499Y-75553445D02*
G01*
X86651995Y-75564820D01*
X86686554Y-75583292D01*
X86716847Y-75608153D01*
X86741708Y-75638446D01*
X86760180Y-75673005D01*
X86771555Y-75710501D01*
X86776000Y-75755638D01*
X86776000Y-76494362D01*
X86771555Y-76539499D01*
X86760180Y-76576995D01*
X86741708Y-76611554D01*
X86716847Y-76641847D01*
X86686554Y-76666708D01*
X86651995Y-76685180D01*
X86614499Y-76696555D01*
X86569362Y-76701000D01*
X85930638Y-76701000D01*
X85885501Y-76696555D01*
X85848005Y-76685180D01*
X85813446Y-76666708D01*
X85783153Y-76641847D01*
X85758292Y-76611554D01*
X85739820Y-76576995D01*
X85728445Y-76539499D01*
X85724000Y-76494362D01*
X85724000Y-75755638D01*
X85728445Y-75710501D01*
X85739820Y-75673005D01*
X85758292Y-75638446D01*
X85783153Y-75608153D01*
X85813446Y-75583292D01*
X85848005Y-75564820D01*
X85885501Y-75553445D01*
X85930638Y-75549000D01*
X86569362Y-75549000D01*
X86614499Y-75553445D01*
G37*
G36*
X92114499Y-75553445D02*
G01*
X92151995Y-75564820D01*
X92186554Y-75583292D01*
X92216847Y-75608153D01*
X92241708Y-75638446D01*
X92260180Y-75673005D01*
X92271555Y-75710501D01*
X92276000Y-75755638D01*
X92276000Y-76494362D01*
X92271555Y-76539499D01*
X92260180Y-76576995D01*
X92241708Y-76611554D01*
X92216847Y-76641847D01*
X92186554Y-76666708D01*
X92151995Y-76685180D01*
X92114499Y-76696555D01*
X92069362Y-76701000D01*
X91430638Y-76701000D01*
X91385501Y-76696555D01*
X91348005Y-76685180D01*
X91313446Y-76666708D01*
X91283153Y-76641847D01*
X91258292Y-76611554D01*
X91239820Y-76576995D01*
X91228445Y-76539499D01*
X91224000Y-76494362D01*
X91224000Y-75755638D01*
X91228445Y-75710501D01*
X91239820Y-75673005D01*
X91258292Y-75638446D01*
X91283153Y-75608153D01*
X91313446Y-75583292D01*
X91348005Y-75564820D01*
X91385501Y-75553445D01*
X91430638Y-75549000D01*
X92069362Y-75549000D01*
X92114499Y-75553445D01*
G37*
G36*
X90289499Y-75478445D02*
G01*
X90326995Y-75489820D01*
X90361554Y-75508292D01*
X90391847Y-75533153D01*
X90416708Y-75563446D01*
X90435180Y-75598005D01*
X90446555Y-75635501D01*
X90451000Y-75680638D01*
X90451000Y-76319362D01*
X90446555Y-76364499D01*
X90435180Y-76401995D01*
X90416708Y-76436554D01*
X90391847Y-76466847D01*
X90361554Y-76491708D01*
X90326995Y-76510180D01*
X90289499Y-76521555D01*
X90244362Y-76526000D01*
X89505638Y-76526000D01*
X89460501Y-76521555D01*
X89423005Y-76510180D01*
X89388446Y-76491708D01*
X89358153Y-76466847D01*
X89333292Y-76436554D01*
X89314820Y-76401995D01*
X89303445Y-76364499D01*
X89299000Y-76319362D01*
X89299000Y-75680638D01*
X89303445Y-75635501D01*
X89314820Y-75598005D01*
X89333292Y-75563446D01*
X89358153Y-75533153D01*
X89388446Y-75508292D01*
X89423005Y-75489820D01*
X89460501Y-75478445D01*
X89505638Y-75474000D01*
X90244362Y-75474000D01*
X90289499Y-75478445D01*
G37*
G36*
X88539499Y-75478445D02*
G01*
X88576995Y-75489820D01*
X88611554Y-75508292D01*
X88641847Y-75533153D01*
X88666708Y-75563446D01*
X88685180Y-75598005D01*
X88696555Y-75635501D01*
X88701000Y-75680638D01*
X88701000Y-76319362D01*
X88696555Y-76364499D01*
X88685180Y-76401995D01*
X88666708Y-76436554D01*
X88641847Y-76466847D01*
X88611554Y-76491708D01*
X88576995Y-76510180D01*
X88539499Y-76521555D01*
X88494362Y-76526000D01*
X87755638Y-76526000D01*
X87710501Y-76521555D01*
X87673005Y-76510180D01*
X87638446Y-76491708D01*
X87608153Y-76466847D01*
X87583292Y-76436554D01*
X87564820Y-76401995D01*
X87553445Y-76364499D01*
X87549000Y-76319362D01*
X87549000Y-75680638D01*
X87553445Y-75635501D01*
X87564820Y-75598005D01*
X87583292Y-75563446D01*
X87608153Y-75533153D01*
X87638446Y-75508292D01*
X87673005Y-75489820D01*
X87710501Y-75478445D01*
X87755638Y-75474000D01*
X88494362Y-75474000D01*
X88539499Y-75478445D01*
G37*
G36*
X80775562Y-73978181D02*
G01*
X80810481Y-73988774D01*
X80842663Y-74005976D01*
X80870873Y-74029127D01*
X80894024Y-74057337D01*
X80911226Y-74089519D01*
X80921819Y-74124438D01*
X80926000Y-74166895D01*
X80926000Y-75308105D01*
X80921819Y-75350562D01*
X80911226Y-75385481D01*
X80894024Y-75417663D01*
X80870873Y-75445873D01*
X80842663Y-75469024D01*
X80810481Y-75486226D01*
X80775562Y-75496819D01*
X80733105Y-75501000D01*
X79266895Y-75501000D01*
X79224438Y-75496819D01*
X79189519Y-75486226D01*
X79157337Y-75469024D01*
X79129127Y-75445873D01*
X79105976Y-75417663D01*
X79088774Y-75385481D01*
X79078181Y-75350562D01*
X79074000Y-75308105D01*
X79074000Y-74166895D01*
X79078181Y-74124438D01*
X79088774Y-74089519D01*
X79105976Y-74057337D01*
X79129127Y-74029127D01*
X79157337Y-74005976D01*
X79189519Y-73988774D01*
X79224438Y-73978181D01*
X79266895Y-73974000D01*
X80733105Y-73974000D01*
X80775562Y-73978181D01*
G37*
G36*
X68397740Y-73758627D02*
G01*
X68446136Y-73768253D01*
X68483902Y-73783896D01*
X68537311Y-73806019D01*
X68537312Y-73806020D01*
X68619369Y-73860848D01*
X68689152Y-73930631D01*
X68689153Y-73930633D01*
X68743981Y-74012689D01*
X68781747Y-74103865D01*
X68801000Y-74200655D01*
X68801000Y-74299345D01*
X68781747Y-74396135D01*
X68743981Y-74487311D01*
X68743980Y-74487312D01*
X68689152Y-74569369D01*
X68619369Y-74639152D01*
X68578062Y-74666752D01*
X68537311Y-74693981D01*
X68483902Y-74716104D01*
X68446136Y-74731747D01*
X68397740Y-74741374D01*
X68349345Y-74751000D01*
X68250655Y-74751000D01*
X68202260Y-74741374D01*
X68153864Y-74731747D01*
X68116098Y-74716104D01*
X68062689Y-74693981D01*
X68021938Y-74666752D01*
X67980631Y-74639152D01*
X67910848Y-74569369D01*
X67856020Y-74487312D01*
X67856019Y-74487311D01*
X67818253Y-74396135D01*
X67799000Y-74299345D01*
X67799000Y-74200655D01*
X67818253Y-74103865D01*
X67856019Y-74012689D01*
X67910847Y-73930633D01*
X67910848Y-73930631D01*
X67980631Y-73860848D01*
X68062688Y-73806020D01*
X68062689Y-73806019D01*
X68116098Y-73783896D01*
X68153864Y-73768253D01*
X68202260Y-73758627D01*
X68250655Y-73749000D01*
X68349345Y-73749000D01*
X68397740Y-73758627D01*
G37*
G36*
X72797740Y-73758627D02*
G01*
X72846136Y-73768253D01*
X72883902Y-73783896D01*
X72937311Y-73806019D01*
X72937312Y-73806020D01*
X73019369Y-73860848D01*
X73089152Y-73930631D01*
X73089153Y-73930633D01*
X73143981Y-74012689D01*
X73181747Y-74103865D01*
X73201000Y-74200655D01*
X73201000Y-74299345D01*
X73181747Y-74396135D01*
X73143981Y-74487311D01*
X73143980Y-74487312D01*
X73089152Y-74569369D01*
X73019369Y-74639152D01*
X72978062Y-74666752D01*
X72937311Y-74693981D01*
X72883902Y-74716104D01*
X72846136Y-74731747D01*
X72797740Y-74741374D01*
X72749345Y-74751000D01*
X72650655Y-74751000D01*
X72602260Y-74741374D01*
X72553864Y-74731747D01*
X72516098Y-74716104D01*
X72462689Y-74693981D01*
X72421938Y-74666752D01*
X72380631Y-74639152D01*
X72310848Y-74569369D01*
X72256020Y-74487312D01*
X72256019Y-74487311D01*
X72218253Y-74396135D01*
X72199000Y-74299345D01*
X72199000Y-74200655D01*
X72218253Y-74103865D01*
X72256019Y-74012689D01*
X72310847Y-73930633D01*
X72310848Y-73930631D01*
X72380631Y-73860848D01*
X72462688Y-73806020D01*
X72462689Y-73806019D01*
X72516098Y-73783896D01*
X72553864Y-73768253D01*
X72602260Y-73758627D01*
X72650655Y-73749000D01*
X72749345Y-73749000D01*
X72797740Y-73758627D01*
G37*
G36*
X86739928Y-71701764D02*
G01*
X86761009Y-71708160D01*
X86780445Y-71718548D01*
X86797476Y-71732524D01*
X86811452Y-71749555D01*
X86821840Y-71768991D01*
X86828236Y-71790072D01*
X86831000Y-71818140D01*
X86831000Y-73631860D01*
X86828236Y-73659928D01*
X86821840Y-73681009D01*
X86811452Y-73700445D01*
X86797476Y-73717476D01*
X86780445Y-73731452D01*
X86761009Y-73741840D01*
X86739928Y-73748236D01*
X86711860Y-73751000D01*
X86248140Y-73751000D01*
X86220072Y-73748236D01*
X86198991Y-73741840D01*
X86179555Y-73731452D01*
X86162524Y-73717476D01*
X86148548Y-73700445D01*
X86138160Y-73681009D01*
X86131764Y-73659928D01*
X86129000Y-73631860D01*
X86129000Y-71818140D01*
X86131764Y-71790072D01*
X86138160Y-71768991D01*
X86148548Y-71749555D01*
X86162524Y-71732524D01*
X86179555Y-71718548D01*
X86198991Y-71708160D01*
X86220072Y-71701764D01*
X86248140Y-71699000D01*
X86711860Y-71699000D01*
X86739928Y-71701764D01*
G37*
G36*
X84199928Y-71701764D02*
G01*
X84221009Y-71708160D01*
X84240445Y-71718548D01*
X84257476Y-71732524D01*
X84271452Y-71749555D01*
X84281840Y-71768991D01*
X84288236Y-71790072D01*
X84291000Y-71818140D01*
X84291000Y-73631860D01*
X84288236Y-73659928D01*
X84281840Y-73681009D01*
X84271452Y-73700445D01*
X84257476Y-73717476D01*
X84240445Y-73731452D01*
X84221009Y-73741840D01*
X84199928Y-73748236D01*
X84171860Y-73751000D01*
X83708140Y-73751000D01*
X83680072Y-73748236D01*
X83658991Y-73741840D01*
X83639555Y-73731452D01*
X83622524Y-73717476D01*
X83608548Y-73700445D01*
X83598160Y-73681009D01*
X83591764Y-73659928D01*
X83589000Y-73631860D01*
X83589000Y-71818140D01*
X83591764Y-71790072D01*
X83598160Y-71768991D01*
X83608548Y-71749555D01*
X83622524Y-71732524D01*
X83639555Y-71718548D01*
X83658991Y-71708160D01*
X83680072Y-71701764D01*
X83708140Y-71699000D01*
X84171860Y-71699000D01*
X84199928Y-71701764D01*
G37*
G36*
X85469928Y-71701764D02*
G01*
X85491009Y-71708160D01*
X85510445Y-71718548D01*
X85527476Y-71732524D01*
X85541452Y-71749555D01*
X85551840Y-71768991D01*
X85558236Y-71790072D01*
X85561000Y-71818140D01*
X85561000Y-73631860D01*
X85558236Y-73659928D01*
X85551840Y-73681009D01*
X85541452Y-73700445D01*
X85527476Y-73717476D01*
X85510445Y-73731452D01*
X85491009Y-73741840D01*
X85469928Y-73748236D01*
X85441860Y-73751000D01*
X84978140Y-73751000D01*
X84950072Y-73748236D01*
X84928991Y-73741840D01*
X84909555Y-73731452D01*
X84892524Y-73717476D01*
X84878548Y-73700445D01*
X84868160Y-73681009D01*
X84861764Y-73659928D01*
X84859000Y-73631860D01*
X84859000Y-71818140D01*
X84861764Y-71790072D01*
X84868160Y-71768991D01*
X84878548Y-71749555D01*
X84892524Y-71732524D01*
X84909555Y-71718548D01*
X84928991Y-71708160D01*
X84950072Y-71701764D01*
X84978140Y-71699000D01*
X85441860Y-71699000D01*
X85469928Y-71701764D01*
G37*
G36*
X88009928Y-71701764D02*
G01*
X88031009Y-71708160D01*
X88050445Y-71718548D01*
X88067476Y-71732524D01*
X88081452Y-71749555D01*
X88091840Y-71768991D01*
X88098236Y-71790072D01*
X88101000Y-71818140D01*
X88101000Y-73631860D01*
X88098236Y-73659928D01*
X88091840Y-73681009D01*
X88081452Y-73700445D01*
X88067476Y-73717476D01*
X88050445Y-73731452D01*
X88031009Y-73741840D01*
X88009928Y-73748236D01*
X87981860Y-73751000D01*
X87518140Y-73751000D01*
X87490072Y-73748236D01*
X87468991Y-73741840D01*
X87449555Y-73731452D01*
X87432524Y-73717476D01*
X87418548Y-73700445D01*
X87408160Y-73681009D01*
X87401764Y-73659928D01*
X87399000Y-73631860D01*
X87399000Y-71818140D01*
X87401764Y-71790072D01*
X87408160Y-71768991D01*
X87418548Y-71749555D01*
X87432524Y-71732524D01*
X87449555Y-71718548D01*
X87468991Y-71708160D01*
X87490072Y-71701764D01*
X87518140Y-71699000D01*
X87981860Y-71699000D01*
X88009928Y-71701764D01*
G37*
G36*
X89279928Y-71701764D02*
G01*
X89301009Y-71708160D01*
X89320445Y-71718548D01*
X89337476Y-71732524D01*
X89351452Y-71749555D01*
X89361840Y-71768991D01*
X89368236Y-71790072D01*
X89371000Y-71818140D01*
X89371000Y-73631860D01*
X89368236Y-73659928D01*
X89361840Y-73681009D01*
X89351452Y-73700445D01*
X89337476Y-73717476D01*
X89320445Y-73731452D01*
X89301009Y-73741840D01*
X89279928Y-73748236D01*
X89251860Y-73751000D01*
X88788140Y-73751000D01*
X88760072Y-73748236D01*
X88738991Y-73741840D01*
X88719555Y-73731452D01*
X88702524Y-73717476D01*
X88688548Y-73700445D01*
X88678160Y-73681009D01*
X88671764Y-73659928D01*
X88669000Y-73631860D01*
X88669000Y-71818140D01*
X88671764Y-71790072D01*
X88678160Y-71768991D01*
X88688548Y-71749555D01*
X88702524Y-71732524D01*
X88719555Y-71718548D01*
X88738991Y-71708160D01*
X88760072Y-71701764D01*
X88788140Y-71699000D01*
X89251860Y-71699000D01*
X89279928Y-71701764D01*
G37*
G36*
X90549928Y-71701764D02*
G01*
X90571009Y-71708160D01*
X90590445Y-71718548D01*
X90607476Y-71732524D01*
X90621452Y-71749555D01*
X90631840Y-71768991D01*
X90638236Y-71790072D01*
X90641000Y-71818140D01*
X90641000Y-73631860D01*
X90638236Y-73659928D01*
X90631840Y-73681009D01*
X90621452Y-73700445D01*
X90607476Y-73717476D01*
X90590445Y-73731452D01*
X90571009Y-73741840D01*
X90549928Y-73748236D01*
X90521860Y-73751000D01*
X90058140Y-73751000D01*
X90030072Y-73748236D01*
X90008991Y-73741840D01*
X89989555Y-73731452D01*
X89972524Y-73717476D01*
X89958548Y-73700445D01*
X89948160Y-73681009D01*
X89941764Y-73659928D01*
X89939000Y-73631860D01*
X89939000Y-71818140D01*
X89941764Y-71790072D01*
X89948160Y-71768991D01*
X89958548Y-71749555D01*
X89972524Y-71732524D01*
X89989555Y-71718548D01*
X90008991Y-71708160D01*
X90030072Y-71701764D01*
X90058140Y-71699000D01*
X90521860Y-71699000D01*
X90549928Y-71701764D01*
G37*
G36*
X91819928Y-71701764D02*
G01*
X91841009Y-71708160D01*
X91860445Y-71718548D01*
X91877476Y-71732524D01*
X91891452Y-71749555D01*
X91901840Y-71768991D01*
X91908236Y-71790072D01*
X91911000Y-71818140D01*
X91911000Y-73631860D01*
X91908236Y-73659928D01*
X91901840Y-73681009D01*
X91891452Y-73700445D01*
X91877476Y-73717476D01*
X91860445Y-73731452D01*
X91841009Y-73741840D01*
X91819928Y-73748236D01*
X91791860Y-73751000D01*
X91328140Y-73751000D01*
X91300072Y-73748236D01*
X91278991Y-73741840D01*
X91259555Y-73731452D01*
X91242524Y-73717476D01*
X91228548Y-73700445D01*
X91218160Y-73681009D01*
X91211764Y-73659928D01*
X91209000Y-73631860D01*
X91209000Y-71818140D01*
X91211764Y-71790072D01*
X91218160Y-71768991D01*
X91228548Y-71749555D01*
X91242524Y-71732524D01*
X91259555Y-71718548D01*
X91278991Y-71708160D01*
X91300072Y-71701764D01*
X91328140Y-71699000D01*
X91791860Y-71699000D01*
X91819928Y-71701764D01*
G37*
G36*
X72401000Y-72951000D02*
G01*
X68599000Y-72951000D01*
X68599000Y-70349000D01*
X72401000Y-70349000D01*
X72401000Y-72951000D01*
G37*
G36*
X67151000Y-72951000D02*
G01*
X65049000Y-72951000D01*
X65049000Y-70349000D01*
X67151000Y-70349000D01*
X67151000Y-72951000D01*
G37*
G36*
X75951000Y-72951000D02*
G01*
X73849000Y-72951000D01*
X73849000Y-70349000D01*
X75951000Y-70349000D01*
X75951000Y-72951000D01*
G37*
G36*
X80775562Y-71003181D02*
G01*
X80810481Y-71013774D01*
X80842663Y-71030976D01*
X80870873Y-71054127D01*
X80894024Y-71082337D01*
X80911226Y-71114519D01*
X80921819Y-71149438D01*
X80926000Y-71191895D01*
X80926000Y-72333105D01*
X80921819Y-72375562D01*
X80911226Y-72410481D01*
X80894024Y-72442663D01*
X80870873Y-72470873D01*
X80842663Y-72494024D01*
X80810481Y-72511226D01*
X80775562Y-72521819D01*
X80733105Y-72526000D01*
X79266895Y-72526000D01*
X79224438Y-72521819D01*
X79189519Y-72511226D01*
X79157337Y-72494024D01*
X79129127Y-72470873D01*
X79105976Y-72442663D01*
X79088774Y-72410481D01*
X79078181Y-72375562D01*
X79074000Y-72333105D01*
X79074000Y-71191895D01*
X79078181Y-71149438D01*
X79088774Y-71114519D01*
X79105976Y-71082337D01*
X79129127Y-71054127D01*
X79157337Y-71030976D01*
X79189519Y-71013774D01*
X79224438Y-71003181D01*
X79266895Y-70999000D01*
X80733105Y-70999000D01*
X80775562Y-71003181D01*
G37*
G36*
X76064499Y-67803445D02*
G01*
X76101995Y-67814820D01*
X76136554Y-67833292D01*
X76166847Y-67858153D01*
X76191708Y-67888446D01*
X76210180Y-67923005D01*
X76221555Y-67960501D01*
X76226000Y-68005638D01*
X76226000Y-68744362D01*
X76221555Y-68789499D01*
X76210180Y-68826995D01*
X76191708Y-68861554D01*
X76166847Y-68891847D01*
X76136554Y-68916708D01*
X76101995Y-68935180D01*
X76064499Y-68946555D01*
X76019362Y-68951000D01*
X75380638Y-68951000D01*
X75335501Y-68946555D01*
X75298005Y-68935180D01*
X75263446Y-68916708D01*
X75233153Y-68891847D01*
X75208292Y-68861554D01*
X75189820Y-68826995D01*
X75178445Y-68789499D01*
X75174000Y-68744362D01*
X75174000Y-68005638D01*
X75178445Y-67960501D01*
X75189820Y-67923005D01*
X75208292Y-67888446D01*
X75233153Y-67858153D01*
X75263446Y-67833292D01*
X75298005Y-67814820D01*
X75335501Y-67803445D01*
X75380638Y-67799000D01*
X76019362Y-67799000D01*
X76064499Y-67803445D01*
G37*
G36*
X81864499Y-67803445D02*
G01*
X81901995Y-67814820D01*
X81936554Y-67833292D01*
X81966847Y-67858153D01*
X81991708Y-67888446D01*
X82010180Y-67923005D01*
X82021555Y-67960501D01*
X82026000Y-68005638D01*
X82026000Y-68744362D01*
X82021555Y-68789499D01*
X82010180Y-68826995D01*
X81991708Y-68861554D01*
X81966847Y-68891847D01*
X81936554Y-68916708D01*
X81901995Y-68935180D01*
X81864499Y-68946555D01*
X81819362Y-68951000D01*
X81180638Y-68951000D01*
X81135501Y-68946555D01*
X81098005Y-68935180D01*
X81063446Y-68916708D01*
X81033153Y-68891847D01*
X81008292Y-68861554D01*
X80989820Y-68826995D01*
X80978445Y-68789499D01*
X80974000Y-68744362D01*
X80974000Y-68005638D01*
X80978445Y-67960501D01*
X80989820Y-67923005D01*
X81008292Y-67888446D01*
X81033153Y-67858153D01*
X81063446Y-67833292D01*
X81098005Y-67814820D01*
X81135501Y-67803445D01*
X81180638Y-67799000D01*
X81819362Y-67799000D01*
X81864499Y-67803445D01*
G37*
G36*
X79864499Y-67803445D02*
G01*
X79901995Y-67814820D01*
X79936554Y-67833292D01*
X79966847Y-67858153D01*
X79991708Y-67888446D01*
X80010180Y-67923005D01*
X80021555Y-67960501D01*
X80026000Y-68005638D01*
X80026000Y-68744362D01*
X80021555Y-68789499D01*
X80010180Y-68826995D01*
X79991708Y-68861554D01*
X79966847Y-68891847D01*
X79936554Y-68916708D01*
X79901995Y-68935180D01*
X79864499Y-68946555D01*
X79819362Y-68951000D01*
X79180638Y-68951000D01*
X79135501Y-68946555D01*
X79098005Y-68935180D01*
X79063446Y-68916708D01*
X79033153Y-68891847D01*
X79008292Y-68861554D01*
X78989820Y-68826995D01*
X78978445Y-68789499D01*
X78974000Y-68744362D01*
X78974000Y-68005638D01*
X78978445Y-67960501D01*
X78989820Y-67923005D01*
X79008292Y-67888446D01*
X79033153Y-67858153D01*
X79063446Y-67833292D01*
X79098005Y-67814820D01*
X79135501Y-67803445D01*
X79180638Y-67799000D01*
X79819362Y-67799000D01*
X79864499Y-67803445D01*
G37*
G36*
X77864499Y-67803445D02*
G01*
X77901995Y-67814820D01*
X77936554Y-67833292D01*
X77966847Y-67858153D01*
X77991708Y-67888446D01*
X78010180Y-67923005D01*
X78021555Y-67960501D01*
X78026000Y-68005638D01*
X78026000Y-68744362D01*
X78021555Y-68789499D01*
X78010180Y-68826995D01*
X77991708Y-68861554D01*
X77966847Y-68891847D01*
X77936554Y-68916708D01*
X77901995Y-68935180D01*
X77864499Y-68946555D01*
X77819362Y-68951000D01*
X77180638Y-68951000D01*
X77135501Y-68946555D01*
X77098005Y-68935180D01*
X77063446Y-68916708D01*
X77033153Y-68891847D01*
X77008292Y-68861554D01*
X76989820Y-68826995D01*
X76978445Y-68789499D01*
X76974000Y-68744362D01*
X76974000Y-68005638D01*
X76978445Y-67960501D01*
X76989820Y-67923005D01*
X77008292Y-67888446D01*
X77033153Y-67858153D01*
X77063446Y-67833292D01*
X77098005Y-67814820D01*
X77135501Y-67803445D01*
X77180638Y-67799000D01*
X77819362Y-67799000D01*
X77864499Y-67803445D01*
G37*
G36*
X84199928Y-66751764D02*
G01*
X84221009Y-66758160D01*
X84240445Y-66768548D01*
X84257476Y-66782524D01*
X84271452Y-66799555D01*
X84281840Y-66818991D01*
X84288236Y-66840072D01*
X84291000Y-66868140D01*
X84291000Y-68681860D01*
X84288236Y-68709928D01*
X84281840Y-68731009D01*
X84271452Y-68750445D01*
X84257476Y-68767476D01*
X84240445Y-68781452D01*
X84221009Y-68791840D01*
X84199928Y-68798236D01*
X84171860Y-68801000D01*
X83708140Y-68801000D01*
X83680072Y-68798236D01*
X83658991Y-68791840D01*
X83639555Y-68781452D01*
X83622524Y-68767476D01*
X83608548Y-68750445D01*
X83598160Y-68731009D01*
X83591764Y-68709928D01*
X83589000Y-68681860D01*
X83589000Y-66868140D01*
X83591764Y-66840072D01*
X83598160Y-66818991D01*
X83608548Y-66799555D01*
X83622524Y-66782524D01*
X83639555Y-66768548D01*
X83658991Y-66758160D01*
X83680072Y-66751764D01*
X83708140Y-66749000D01*
X84171860Y-66749000D01*
X84199928Y-66751764D01*
G37*
G36*
X85469928Y-66751764D02*
G01*
X85491009Y-66758160D01*
X85510445Y-66768548D01*
X85527476Y-66782524D01*
X85541452Y-66799555D01*
X85551840Y-66818991D01*
X85558236Y-66840072D01*
X85561000Y-66868140D01*
X85561000Y-68681860D01*
X85558236Y-68709928D01*
X85551840Y-68731009D01*
X85541452Y-68750445D01*
X85527476Y-68767476D01*
X85510445Y-68781452D01*
X85491009Y-68791840D01*
X85469928Y-68798236D01*
X85441860Y-68801000D01*
X84978140Y-68801000D01*
X84950072Y-68798236D01*
X84928991Y-68791840D01*
X84909555Y-68781452D01*
X84892524Y-68767476D01*
X84878548Y-68750445D01*
X84868160Y-68731009D01*
X84861764Y-68709928D01*
X84859000Y-68681860D01*
X84859000Y-66868140D01*
X84861764Y-66840072D01*
X84868160Y-66818991D01*
X84878548Y-66799555D01*
X84892524Y-66782524D01*
X84909555Y-66768548D01*
X84928991Y-66758160D01*
X84950072Y-66751764D01*
X84978140Y-66749000D01*
X85441860Y-66749000D01*
X85469928Y-66751764D01*
G37*
G36*
X86739928Y-66751764D02*
G01*
X86761009Y-66758160D01*
X86780445Y-66768548D01*
X86797476Y-66782524D01*
X86811452Y-66799555D01*
X86821840Y-66818991D01*
X86828236Y-66840072D01*
X86831000Y-66868140D01*
X86831000Y-68681860D01*
X86828236Y-68709928D01*
X86821840Y-68731009D01*
X86811452Y-68750445D01*
X86797476Y-68767476D01*
X86780445Y-68781452D01*
X86761009Y-68791840D01*
X86739928Y-68798236D01*
X86711860Y-68801000D01*
X86248140Y-68801000D01*
X86220072Y-68798236D01*
X86198991Y-68791840D01*
X86179555Y-68781452D01*
X86162524Y-68767476D01*
X86148548Y-68750445D01*
X86138160Y-68731009D01*
X86131764Y-68709928D01*
X86129000Y-68681860D01*
X86129000Y-66868140D01*
X86131764Y-66840072D01*
X86138160Y-66818991D01*
X86148548Y-66799555D01*
X86162524Y-66782524D01*
X86179555Y-66768548D01*
X86198991Y-66758160D01*
X86220072Y-66751764D01*
X86248140Y-66749000D01*
X86711860Y-66749000D01*
X86739928Y-66751764D01*
G37*
G36*
X88009928Y-66751764D02*
G01*
X88031009Y-66758160D01*
X88050445Y-66768548D01*
X88067476Y-66782524D01*
X88081452Y-66799555D01*
X88091840Y-66818991D01*
X88098236Y-66840072D01*
X88101000Y-66868140D01*
X88101000Y-68681860D01*
X88098236Y-68709928D01*
X88091840Y-68731009D01*
X88081452Y-68750445D01*
X88067476Y-68767476D01*
X88050445Y-68781452D01*
X88031009Y-68791840D01*
X88009928Y-68798236D01*
X87981860Y-68801000D01*
X87518140Y-68801000D01*
X87490072Y-68798236D01*
X87468991Y-68791840D01*
X87449555Y-68781452D01*
X87432524Y-68767476D01*
X87418548Y-68750445D01*
X87408160Y-68731009D01*
X87401764Y-68709928D01*
X87399000Y-68681860D01*
X87399000Y-66868140D01*
X87401764Y-66840072D01*
X87408160Y-66818991D01*
X87418548Y-66799555D01*
X87432524Y-66782524D01*
X87449555Y-66768548D01*
X87468991Y-66758160D01*
X87490072Y-66751764D01*
X87518140Y-66749000D01*
X87981860Y-66749000D01*
X88009928Y-66751764D01*
G37*
G36*
X89279928Y-66751764D02*
G01*
X89301009Y-66758160D01*
X89320445Y-66768548D01*
X89337476Y-66782524D01*
X89351452Y-66799555D01*
X89361840Y-66818991D01*
X89368236Y-66840072D01*
X89371000Y-66868140D01*
X89371000Y-68681860D01*
X89368236Y-68709928D01*
X89361840Y-68731009D01*
X89351452Y-68750445D01*
X89337476Y-68767476D01*
X89320445Y-68781452D01*
X89301009Y-68791840D01*
X89279928Y-68798236D01*
X89251860Y-68801000D01*
X88788140Y-68801000D01*
X88760072Y-68798236D01*
X88738991Y-68791840D01*
X88719555Y-68781452D01*
X88702524Y-68767476D01*
X88688548Y-68750445D01*
X88678160Y-68731009D01*
X88671764Y-68709928D01*
X88669000Y-68681860D01*
X88669000Y-66868140D01*
X88671764Y-66840072D01*
X88678160Y-66818991D01*
X88688548Y-66799555D01*
X88702524Y-66782524D01*
X88719555Y-66768548D01*
X88738991Y-66758160D01*
X88760072Y-66751764D01*
X88788140Y-66749000D01*
X89251860Y-66749000D01*
X89279928Y-66751764D01*
G37*
G36*
X90549928Y-66751764D02*
G01*
X90571009Y-66758160D01*
X90590445Y-66768548D01*
X90607476Y-66782524D01*
X90621452Y-66799555D01*
X90631840Y-66818991D01*
X90638236Y-66840072D01*
X90641000Y-66868140D01*
X90641000Y-68681860D01*
X90638236Y-68709928D01*
X90631840Y-68731009D01*
X90621452Y-68750445D01*
X90607476Y-68767476D01*
X90590445Y-68781452D01*
X90571009Y-68791840D01*
X90549928Y-68798236D01*
X90521860Y-68801000D01*
X90058140Y-68801000D01*
X90030072Y-68798236D01*
X90008991Y-68791840D01*
X89989555Y-68781452D01*
X89972524Y-68767476D01*
X89958548Y-68750445D01*
X89948160Y-68731009D01*
X89941764Y-68709928D01*
X89939000Y-68681860D01*
X89939000Y-66868140D01*
X89941764Y-66840072D01*
X89948160Y-66818991D01*
X89958548Y-66799555D01*
X89972524Y-66782524D01*
X89989555Y-66768548D01*
X90008991Y-66758160D01*
X90030072Y-66751764D01*
X90058140Y-66749000D01*
X90521860Y-66749000D01*
X90549928Y-66751764D01*
G37*
G36*
X91819928Y-66751764D02*
G01*
X91841009Y-66758160D01*
X91860445Y-66768548D01*
X91877476Y-66782524D01*
X91891452Y-66799555D01*
X91901840Y-66818991D01*
X91908236Y-66840072D01*
X91911000Y-66868140D01*
X91911000Y-68681860D01*
X91908236Y-68709928D01*
X91901840Y-68731009D01*
X91891452Y-68750445D01*
X91877476Y-68767476D01*
X91860445Y-68781452D01*
X91841009Y-68791840D01*
X91819928Y-68798236D01*
X91791860Y-68801000D01*
X91328140Y-68801000D01*
X91300072Y-68798236D01*
X91278991Y-68791840D01*
X91259555Y-68781452D01*
X91242524Y-68767476D01*
X91228548Y-68750445D01*
X91218160Y-68731009D01*
X91211764Y-68709928D01*
X91209000Y-68681860D01*
X91209000Y-66868140D01*
X91211764Y-66840072D01*
X91218160Y-66818991D01*
X91228548Y-66799555D01*
X91242524Y-66782524D01*
X91259555Y-66768548D01*
X91278991Y-66758160D01*
X91300072Y-66751764D01*
X91328140Y-66749000D01*
X91791860Y-66749000D01*
X91819928Y-66751764D01*
G37*
G36*
X77864499Y-66053445D02*
G01*
X77901995Y-66064820D01*
X77936554Y-66083292D01*
X77966847Y-66108153D01*
X77991708Y-66138446D01*
X78010180Y-66173005D01*
X78021555Y-66210501D01*
X78026000Y-66255638D01*
X78026000Y-66994362D01*
X78021555Y-67039499D01*
X78010180Y-67076995D01*
X77991708Y-67111554D01*
X77966847Y-67141847D01*
X77936554Y-67166708D01*
X77901995Y-67185180D01*
X77864499Y-67196555D01*
X77819362Y-67201000D01*
X77180638Y-67201000D01*
X77135501Y-67196555D01*
X77098005Y-67185180D01*
X77063446Y-67166708D01*
X77033153Y-67141847D01*
X77008292Y-67111554D01*
X76989820Y-67076995D01*
X76978445Y-67039499D01*
X76974000Y-66994362D01*
X76974000Y-66255638D01*
X76978445Y-66210501D01*
X76989820Y-66173005D01*
X77008292Y-66138446D01*
X77033153Y-66108153D01*
X77063446Y-66083292D01*
X77098005Y-66064820D01*
X77135501Y-66053445D01*
X77180638Y-66049000D01*
X77819362Y-66049000D01*
X77864499Y-66053445D01*
G37*
G36*
X81864499Y-66053445D02*
G01*
X81901995Y-66064820D01*
X81936554Y-66083292D01*
X81966847Y-66108153D01*
X81991708Y-66138446D01*
X82010180Y-66173005D01*
X82021555Y-66210501D01*
X82026000Y-66255638D01*
X82026000Y-66994362D01*
X82021555Y-67039499D01*
X82010180Y-67076995D01*
X81991708Y-67111554D01*
X81966847Y-67141847D01*
X81936554Y-67166708D01*
X81901995Y-67185180D01*
X81864499Y-67196555D01*
X81819362Y-67201000D01*
X81180638Y-67201000D01*
X81135501Y-67196555D01*
X81098005Y-67185180D01*
X81063446Y-67166708D01*
X81033153Y-67141847D01*
X81008292Y-67111554D01*
X80989820Y-67076995D01*
X80978445Y-67039499D01*
X80974000Y-66994362D01*
X80974000Y-66255638D01*
X80978445Y-66210501D01*
X80989820Y-66173005D01*
X81008292Y-66138446D01*
X81033153Y-66108153D01*
X81063446Y-66083292D01*
X81098005Y-66064820D01*
X81135501Y-66053445D01*
X81180638Y-66049000D01*
X81819362Y-66049000D01*
X81864499Y-66053445D01*
G37*
G36*
X79864499Y-66053445D02*
G01*
X79901995Y-66064820D01*
X79936554Y-66083292D01*
X79966847Y-66108153D01*
X79991708Y-66138446D01*
X80010180Y-66173005D01*
X80021555Y-66210501D01*
X80026000Y-66255638D01*
X80026000Y-66994362D01*
X80021555Y-67039499D01*
X80010180Y-67076995D01*
X79991708Y-67111554D01*
X79966847Y-67141847D01*
X79936554Y-67166708D01*
X79901995Y-67185180D01*
X79864499Y-67196555D01*
X79819362Y-67201000D01*
X79180638Y-67201000D01*
X79135501Y-67196555D01*
X79098005Y-67185180D01*
X79063446Y-67166708D01*
X79033153Y-67141847D01*
X79008292Y-67111554D01*
X78989820Y-67076995D01*
X78978445Y-67039499D01*
X78974000Y-66994362D01*
X78974000Y-66255638D01*
X78978445Y-66210501D01*
X78989820Y-66173005D01*
X79008292Y-66138446D01*
X79033153Y-66108153D01*
X79063446Y-66083292D01*
X79098005Y-66064820D01*
X79135501Y-66053445D01*
X79180638Y-66049000D01*
X79819362Y-66049000D01*
X79864499Y-66053445D01*
G37*
G36*
X76064499Y-66053445D02*
G01*
X76101995Y-66064820D01*
X76136554Y-66083292D01*
X76166847Y-66108153D01*
X76191708Y-66138446D01*
X76210180Y-66173005D01*
X76221555Y-66210501D01*
X76226000Y-66255638D01*
X76226000Y-66994362D01*
X76221555Y-67039499D01*
X76210180Y-67076995D01*
X76191708Y-67111554D01*
X76166847Y-67141847D01*
X76136554Y-67166708D01*
X76101995Y-67185180D01*
X76064499Y-67196555D01*
X76019362Y-67201000D01*
X75380638Y-67201000D01*
X75335501Y-67196555D01*
X75298005Y-67185180D01*
X75263446Y-67166708D01*
X75233153Y-67141847D01*
X75208292Y-67111554D01*
X75189820Y-67076995D01*
X75178445Y-67039499D01*
X75174000Y-66994362D01*
X75174000Y-66255638D01*
X75178445Y-66210501D01*
X75189820Y-66173005D01*
X75208292Y-66138446D01*
X75233153Y-66108153D01*
X75263446Y-66083292D01*
X75298005Y-66064820D01*
X75335501Y-66053445D01*
X75380638Y-66049000D01*
X76019362Y-66049000D01*
X76064499Y-66053445D01*
G37*
G36*
X66113512Y-64883927D02*
G01*
X66262812Y-64913624D01*
X66426784Y-64981544D01*
X66574354Y-65080147D01*
X66699853Y-65205646D01*
X66798456Y-65353216D01*
X66866376Y-65517188D01*
X66901000Y-65691259D01*
X66901000Y-65868741D01*
X66866376Y-66042812D01*
X66798456Y-66206784D01*
X66699853Y-66354354D01*
X66574354Y-66479853D01*
X66426784Y-66578456D01*
X66262812Y-66646376D01*
X66113512Y-66676073D01*
X66088742Y-66681000D01*
X65911258Y-66681000D01*
X65886488Y-66676073D01*
X65737188Y-66646376D01*
X65573216Y-66578456D01*
X65425646Y-66479853D01*
X65300147Y-66354354D01*
X65201544Y-66206784D01*
X65133624Y-66042812D01*
X65099000Y-65868741D01*
X65099000Y-65691259D01*
X65133624Y-65517188D01*
X65201544Y-65353216D01*
X65300147Y-65205646D01*
X65425646Y-65080147D01*
X65573216Y-64981544D01*
X65737188Y-64913624D01*
X65886488Y-64883927D01*
X65911258Y-64879000D01*
X66088742Y-64879000D01*
X66113512Y-64883927D01*
G37*
G36*
X73035355Y-64500083D02*
G01*
X73040029Y-64501501D01*
X73044330Y-64503800D01*
X73050702Y-64509029D01*
X73071076Y-64522643D01*
X73093715Y-64532020D01*
X73117749Y-64536800D01*
X73142253Y-64536800D01*
X73166286Y-64532019D01*
X73188925Y-64522642D01*
X73209298Y-64509029D01*
X73215670Y-64503800D01*
X73219971Y-64501501D01*
X73224645Y-64500083D01*
X73235641Y-64499000D01*
X73524359Y-64499000D01*
X73535355Y-64500083D01*
X73540029Y-64501501D01*
X73544330Y-64503800D01*
X73550702Y-64509029D01*
X73571076Y-64522643D01*
X73593715Y-64532020D01*
X73617749Y-64536800D01*
X73642253Y-64536800D01*
X73666286Y-64532019D01*
X73688925Y-64522642D01*
X73709298Y-64509029D01*
X73715670Y-64503800D01*
X73719971Y-64501501D01*
X73724645Y-64500083D01*
X73735641Y-64499000D01*
X74024359Y-64499000D01*
X74035355Y-64500083D01*
X74040029Y-64501501D01*
X74044330Y-64503800D01*
X74050702Y-64509029D01*
X74071076Y-64522643D01*
X74093715Y-64532020D01*
X74117749Y-64536800D01*
X74142253Y-64536800D01*
X74166286Y-64532019D01*
X74188925Y-64522642D01*
X74209298Y-64509029D01*
X74215670Y-64503800D01*
X74219971Y-64501501D01*
X74224645Y-64500083D01*
X74235641Y-64499000D01*
X74524359Y-64499000D01*
X74535355Y-64500083D01*
X74540029Y-64501501D01*
X74544330Y-64503800D01*
X74550702Y-64509029D01*
X74571076Y-64522643D01*
X74593715Y-64532020D01*
X74617749Y-64536800D01*
X74642253Y-64536800D01*
X74666286Y-64532019D01*
X74688925Y-64522642D01*
X74709298Y-64509029D01*
X74715670Y-64503800D01*
X74719971Y-64501501D01*
X74724645Y-64500083D01*
X74735641Y-64499000D01*
X75024359Y-64499000D01*
X75035355Y-64500083D01*
X75040029Y-64501501D01*
X75044330Y-64503800D01*
X75050702Y-64509029D01*
X75071076Y-64522643D01*
X75093715Y-64532020D01*
X75117749Y-64536800D01*
X75142253Y-64536800D01*
X75166286Y-64532019D01*
X75188925Y-64522642D01*
X75209298Y-64509029D01*
X75215670Y-64503800D01*
X75219971Y-64501501D01*
X75224645Y-64500083D01*
X75235641Y-64499000D01*
X75524359Y-64499000D01*
X75535355Y-64500083D01*
X75540029Y-64501501D01*
X75544330Y-64503800D01*
X75550702Y-64509029D01*
X75571076Y-64522643D01*
X75593715Y-64532020D01*
X75617749Y-64536800D01*
X75642253Y-64536800D01*
X75666286Y-64532019D01*
X75688925Y-64522642D01*
X75709298Y-64509029D01*
X75715670Y-64503800D01*
X75719971Y-64501501D01*
X75724645Y-64500083D01*
X75735641Y-64499000D01*
X76024359Y-64499000D01*
X76035355Y-64500083D01*
X76040029Y-64501501D01*
X76044331Y-64503800D01*
X76048104Y-64506896D01*
X76051200Y-64510669D01*
X76053499Y-64514971D01*
X76054917Y-64519645D01*
X76056000Y-64530641D01*
X76056000Y-65369359D01*
X76054917Y-65380355D01*
X76053499Y-65385029D01*
X76051200Y-65389331D01*
X76048104Y-65393104D01*
X76044331Y-65396200D01*
X76040029Y-65398499D01*
X76035355Y-65399917D01*
X76024359Y-65401000D01*
X75735641Y-65401000D01*
X75724645Y-65399917D01*
X75719971Y-65398499D01*
X75715670Y-65396200D01*
X75709298Y-65390971D01*
X75688924Y-65377357D01*
X75666285Y-65367980D01*
X75642251Y-65363200D01*
X75617747Y-65363200D01*
X75593714Y-65367981D01*
X75571075Y-65377358D01*
X75550702Y-65390971D01*
X75544330Y-65396200D01*
X75540029Y-65398499D01*
X75535355Y-65399917D01*
X75524359Y-65401000D01*
X75235641Y-65401000D01*
X75224645Y-65399917D01*
X75219971Y-65398499D01*
X75215670Y-65396200D01*
X75209298Y-65390971D01*
X75188924Y-65377357D01*
X75166285Y-65367980D01*
X75142251Y-65363200D01*
X75117747Y-65363200D01*
X75093714Y-65367981D01*
X75071075Y-65377358D01*
X75050702Y-65390971D01*
X75044330Y-65396200D01*
X75040029Y-65398499D01*
X75035355Y-65399917D01*
X75024359Y-65401000D01*
X74735641Y-65401000D01*
X74724645Y-65399917D01*
X74719971Y-65398499D01*
X74715670Y-65396200D01*
X74709298Y-65390971D01*
X74688924Y-65377357D01*
X74666285Y-65367980D01*
X74642251Y-65363200D01*
X74617747Y-65363200D01*
X74593714Y-65367981D01*
X74571075Y-65377358D01*
X74550702Y-65390971D01*
X74544330Y-65396200D01*
X74540029Y-65398499D01*
X74535355Y-65399917D01*
X74524359Y-65401000D01*
X74235641Y-65401000D01*
X74224645Y-65399917D01*
X74219971Y-65398499D01*
X74215670Y-65396200D01*
X74209298Y-65390971D01*
X74188924Y-65377357D01*
X74166285Y-65367980D01*
X74142251Y-65363200D01*
X74117747Y-65363200D01*
X74093714Y-65367981D01*
X74071075Y-65377358D01*
X74050702Y-65390971D01*
X74044330Y-65396200D01*
X74040029Y-65398499D01*
X74035355Y-65399917D01*
X74024359Y-65401000D01*
X73735641Y-65401000D01*
X73724645Y-65399917D01*
X73719971Y-65398499D01*
X73715670Y-65396200D01*
X73709298Y-65390971D01*
X73688924Y-65377357D01*
X73666285Y-65367980D01*
X73642251Y-65363200D01*
X73617747Y-65363200D01*
X73593714Y-65367981D01*
X73571075Y-65377358D01*
X73550702Y-65390971D01*
X73544330Y-65396200D01*
X73540029Y-65398499D01*
X73535355Y-65399917D01*
X73524359Y-65401000D01*
X73235641Y-65401000D01*
X73224645Y-65399917D01*
X73219971Y-65398499D01*
X73215670Y-65396200D01*
X73209298Y-65390971D01*
X73188924Y-65377357D01*
X73166285Y-65367980D01*
X73142251Y-65363200D01*
X73117747Y-65363200D01*
X73093714Y-65367981D01*
X73071075Y-65377358D01*
X73050702Y-65390971D01*
X73044330Y-65396200D01*
X73040029Y-65398499D01*
X73035355Y-65399917D01*
X73024359Y-65401000D01*
X72735641Y-65401000D01*
X72724645Y-65399917D01*
X72719971Y-65398499D01*
X72715669Y-65396200D01*
X72711896Y-65393104D01*
X72708800Y-65389331D01*
X72706501Y-65385029D01*
X72705083Y-65380355D01*
X72704000Y-65369359D01*
X72704000Y-64530641D01*
X72705083Y-64519645D01*
X72706501Y-64514971D01*
X72708800Y-64510669D01*
X72711896Y-64506896D01*
X72715669Y-64503800D01*
X72719971Y-64501501D01*
X72724645Y-64500083D01*
X72735641Y-64499000D01*
X73024359Y-64499000D01*
X73035355Y-64500083D01*
G37*
G36*
X78864499Y-63553445D02*
G01*
X78901995Y-63564820D01*
X78936554Y-63583292D01*
X78966847Y-63608153D01*
X78991708Y-63638446D01*
X79010180Y-63673005D01*
X79021555Y-63710501D01*
X79026000Y-63755638D01*
X79026000Y-64494362D01*
X79021555Y-64539499D01*
X79010180Y-64576995D01*
X78991708Y-64611554D01*
X78966847Y-64641847D01*
X78936554Y-64666708D01*
X78901995Y-64685180D01*
X78864499Y-64696555D01*
X78819362Y-64701000D01*
X78180638Y-64701000D01*
X78135501Y-64696555D01*
X78098005Y-64685180D01*
X78063446Y-64666708D01*
X78033153Y-64641847D01*
X78008292Y-64611554D01*
X77989820Y-64576995D01*
X77978445Y-64539499D01*
X77974000Y-64494362D01*
X77974000Y-63755638D01*
X77978445Y-63710501D01*
X77989820Y-63673005D01*
X78008292Y-63638446D01*
X78033153Y-63608153D01*
X78063446Y-63583292D01*
X78098005Y-63564820D01*
X78135501Y-63553445D01*
X78180638Y-63549000D01*
X78819362Y-63549000D01*
X78864499Y-63553445D01*
G37*
G36*
X90188674Y-62753465D02*
G01*
X90226367Y-62764899D01*
X90261103Y-62783466D01*
X90291548Y-62808452D01*
X90316534Y-62838897D01*
X90335101Y-62873633D01*
X90346535Y-62911326D01*
X90351000Y-62956661D01*
X90351000Y-64043339D01*
X90346535Y-64088674D01*
X90335101Y-64126367D01*
X90316534Y-64161103D01*
X90291548Y-64191548D01*
X90261103Y-64216534D01*
X90226367Y-64235101D01*
X90188674Y-64246535D01*
X90143339Y-64251000D01*
X89306661Y-64251000D01*
X89261326Y-64246535D01*
X89223633Y-64235101D01*
X89188897Y-64216534D01*
X89158452Y-64191548D01*
X89133466Y-64161103D01*
X89114899Y-64126367D01*
X89103465Y-64088674D01*
X89099000Y-64043339D01*
X89099000Y-62956661D01*
X89103465Y-62911326D01*
X89114899Y-62873633D01*
X89133466Y-62838897D01*
X89158452Y-62808452D01*
X89188897Y-62783466D01*
X89223633Y-62764899D01*
X89261326Y-62753465D01*
X89306661Y-62749000D01*
X90143339Y-62749000D01*
X90188674Y-62753465D01*
G37*
G36*
X92238674Y-62753465D02*
G01*
X92276367Y-62764899D01*
X92311103Y-62783466D01*
X92341548Y-62808452D01*
X92366534Y-62838897D01*
X92385101Y-62873633D01*
X92396535Y-62911326D01*
X92401000Y-62956661D01*
X92401000Y-64043339D01*
X92396535Y-64088674D01*
X92385101Y-64126367D01*
X92366534Y-64161103D01*
X92341548Y-64191548D01*
X92311103Y-64216534D01*
X92276367Y-64235101D01*
X92238674Y-64246535D01*
X92193339Y-64251000D01*
X91356661Y-64251000D01*
X91311326Y-64246535D01*
X91273633Y-64235101D01*
X91238897Y-64216534D01*
X91208452Y-64191548D01*
X91183466Y-64161103D01*
X91164899Y-64126367D01*
X91153465Y-64088674D01*
X91149000Y-64043339D01*
X91149000Y-62956661D01*
X91153465Y-62911326D01*
X91164899Y-62873633D01*
X91183466Y-62838897D01*
X91208452Y-62808452D01*
X91238897Y-62783466D01*
X91273633Y-62764899D01*
X91311326Y-62753465D01*
X91356661Y-62749000D01*
X92193339Y-62749000D01*
X92238674Y-62753465D01*
G37*
G36*
X75984124Y-60777499D02*
G01*
X76012387Y-60786073D01*
X76038434Y-60799996D01*
X76061267Y-60818733D01*
X76080004Y-60841566D01*
X76093927Y-60867613D01*
X76102501Y-60895876D01*
X76106000Y-60931408D01*
X76106000Y-64068592D01*
X76102501Y-64104124D01*
X76093927Y-64132387D01*
X76080004Y-64158434D01*
X76061267Y-64181267D01*
X76038434Y-64200004D01*
X76012387Y-64213927D01*
X75984124Y-64222501D01*
X75948592Y-64226000D01*
X72811408Y-64226000D01*
X72775876Y-64222501D01*
X72747613Y-64213927D01*
X72721566Y-64200004D01*
X72698733Y-64181267D01*
X72679996Y-64158434D01*
X72666073Y-64132387D01*
X72657499Y-64104124D01*
X72654000Y-64068592D01*
X72654000Y-60931408D01*
X72657499Y-60895876D01*
X72666073Y-60867613D01*
X72679996Y-60841566D01*
X72698733Y-60818733D01*
X72721566Y-60799996D01*
X72747613Y-60786073D01*
X72775876Y-60777499D01*
X72811408Y-60774000D01*
X75948592Y-60774000D01*
X75984124Y-60777499D01*
G37*
G36*
X72360355Y-60825083D02*
G01*
X72365029Y-60826501D01*
X72369331Y-60828800D01*
X72373104Y-60831896D01*
X72376200Y-60835669D01*
X72378499Y-60839971D01*
X72379917Y-60844645D01*
X72381000Y-60855641D01*
X72381000Y-61144359D01*
X72379917Y-61155355D01*
X72378499Y-61160029D01*
X72376200Y-61164330D01*
X72370971Y-61170702D01*
X72357357Y-61191076D01*
X72347980Y-61213715D01*
X72343200Y-61237749D01*
X72343200Y-61262253D01*
X72347981Y-61286286D01*
X72357358Y-61308925D01*
X72370971Y-61329298D01*
X72376200Y-61335670D01*
X72378499Y-61339971D01*
X72379917Y-61344645D01*
X72381000Y-61355641D01*
X72381000Y-61644359D01*
X72379917Y-61655355D01*
X72378499Y-61660029D01*
X72376200Y-61664330D01*
X72370971Y-61670702D01*
X72357357Y-61691076D01*
X72347980Y-61713715D01*
X72343200Y-61737749D01*
X72343200Y-61762253D01*
X72347981Y-61786286D01*
X72357358Y-61808925D01*
X72370971Y-61829298D01*
X72376200Y-61835670D01*
X72378499Y-61839971D01*
X72379917Y-61844645D01*
X72381000Y-61855641D01*
X72381000Y-62144359D01*
X72379917Y-62155355D01*
X72378499Y-62160029D01*
X72376200Y-62164330D01*
X72370971Y-62170702D01*
X72357357Y-62191076D01*
X72347980Y-62213715D01*
X72343200Y-62237749D01*
X72343200Y-62262253D01*
X72347981Y-62286286D01*
X72357358Y-62308925D01*
X72370971Y-62329298D01*
X72376200Y-62335670D01*
X72378499Y-62339971D01*
X72379917Y-62344645D01*
X72381000Y-62355641D01*
X72381000Y-62644359D01*
X72379917Y-62655355D01*
X72378499Y-62660029D01*
X72376200Y-62664330D01*
X72370971Y-62670702D01*
X72357357Y-62691076D01*
X72347980Y-62713715D01*
X72343200Y-62737749D01*
X72343200Y-62762253D01*
X72347981Y-62786286D01*
X72357358Y-62808925D01*
X72370971Y-62829298D01*
X72376200Y-62835670D01*
X72378499Y-62839971D01*
X72379917Y-62844645D01*
X72381000Y-62855641D01*
X72381000Y-63144359D01*
X72379917Y-63155355D01*
X72378499Y-63160029D01*
X72376200Y-63164330D01*
X72370971Y-63170702D01*
X72357357Y-63191076D01*
X72347980Y-63213715D01*
X72343200Y-63237749D01*
X72343200Y-63262253D01*
X72347981Y-63286286D01*
X72357358Y-63308925D01*
X72370971Y-63329298D01*
X72376200Y-63335670D01*
X72378499Y-63339971D01*
X72379917Y-63344645D01*
X72381000Y-63355641D01*
X72381000Y-63644359D01*
X72379917Y-63655355D01*
X72378499Y-63660029D01*
X72376200Y-63664330D01*
X72370971Y-63670702D01*
X72357357Y-63691076D01*
X72347980Y-63713715D01*
X72343200Y-63737749D01*
X72343200Y-63762253D01*
X72347981Y-63786286D01*
X72357358Y-63808925D01*
X72370971Y-63829298D01*
X72376200Y-63835670D01*
X72378499Y-63839971D01*
X72379917Y-63844645D01*
X72381000Y-63855641D01*
X72381000Y-64144359D01*
X72379917Y-64155355D01*
X72378499Y-64160029D01*
X72376200Y-64164331D01*
X72373104Y-64168104D01*
X72369331Y-64171200D01*
X72365029Y-64173499D01*
X72360355Y-64174917D01*
X72349359Y-64176000D01*
X71510641Y-64176000D01*
X71499645Y-64174917D01*
X71494971Y-64173499D01*
X71490669Y-64171200D01*
X71486896Y-64168104D01*
X71483800Y-64164331D01*
X71481501Y-64160029D01*
X71480083Y-64155355D01*
X71479000Y-64144359D01*
X71479000Y-63855641D01*
X71480083Y-63844645D01*
X71481501Y-63839971D01*
X71483800Y-63835670D01*
X71489029Y-63829298D01*
X71502643Y-63808924D01*
X71512020Y-63786285D01*
X71516800Y-63762251D01*
X71516800Y-63737747D01*
X71512019Y-63713714D01*
X71502642Y-63691075D01*
X71489029Y-63670702D01*
X71483800Y-63664330D01*
X71481501Y-63660029D01*
X71480083Y-63655355D01*
X71479000Y-63644359D01*
X71479000Y-63355641D01*
X71480083Y-63344645D01*
X71481501Y-63339971D01*
X71483800Y-63335670D01*
X71489029Y-63329298D01*
X71502643Y-63308924D01*
X71512020Y-63286285D01*
X71516800Y-63262251D01*
X71516800Y-63237747D01*
X71512019Y-63213714D01*
X71502642Y-63191075D01*
X71489029Y-63170702D01*
X71483800Y-63164330D01*
X71481501Y-63160029D01*
X71480083Y-63155355D01*
X71479000Y-63144359D01*
X71479000Y-62855641D01*
X71480083Y-62844645D01*
X71481501Y-62839971D01*
X71483800Y-62835670D01*
X71489029Y-62829298D01*
X71502643Y-62808924D01*
X71512020Y-62786285D01*
X71516800Y-62762251D01*
X71516800Y-62737747D01*
X71512019Y-62713714D01*
X71502642Y-62691075D01*
X71489029Y-62670702D01*
X71483800Y-62664330D01*
X71481501Y-62660029D01*
X71480083Y-62655355D01*
X71479000Y-62644359D01*
X71479000Y-62355641D01*
X71480083Y-62344645D01*
X71481501Y-62339971D01*
X71483800Y-62335670D01*
X71489029Y-62329298D01*
X71502643Y-62308924D01*
X71512020Y-62286285D01*
X71516800Y-62262251D01*
X71516800Y-62237747D01*
X71512019Y-62213714D01*
X71502642Y-62191075D01*
X71489029Y-62170702D01*
X71483800Y-62164330D01*
X71481501Y-62160029D01*
X71480083Y-62155355D01*
X71479000Y-62144359D01*
X71479000Y-61855641D01*
X71480083Y-61844645D01*
X71481501Y-61839971D01*
X71483800Y-61835670D01*
X71489029Y-61829298D01*
X71502643Y-61808924D01*
X71512020Y-61786285D01*
X71516800Y-61762251D01*
X71516800Y-61737747D01*
X71512019Y-61713714D01*
X71502642Y-61691075D01*
X71489029Y-61670702D01*
X71483800Y-61664330D01*
X71481501Y-61660029D01*
X71480083Y-61655355D01*
X71479000Y-61644359D01*
X71479000Y-61355641D01*
X71480083Y-61344645D01*
X71481501Y-61339971D01*
X71483800Y-61335670D01*
X71489029Y-61329298D01*
X71502643Y-61308924D01*
X71512020Y-61286285D01*
X71516800Y-61262251D01*
X71516800Y-61237747D01*
X71512019Y-61213714D01*
X71502642Y-61191075D01*
X71489029Y-61170702D01*
X71483800Y-61164330D01*
X71481501Y-61160029D01*
X71480083Y-61155355D01*
X71479000Y-61144359D01*
X71479000Y-60855641D01*
X71480083Y-60844645D01*
X71481501Y-60839971D01*
X71483800Y-60835669D01*
X71486896Y-60831896D01*
X71490669Y-60828800D01*
X71494971Y-60826501D01*
X71499645Y-60825083D01*
X71510641Y-60824000D01*
X72349359Y-60824000D01*
X72360355Y-60825083D01*
G37*
G36*
X77260355Y-60825083D02*
G01*
X77265029Y-60826501D01*
X77269331Y-60828800D01*
X77273104Y-60831896D01*
X77276200Y-60835669D01*
X77278499Y-60839971D01*
X77279917Y-60844645D01*
X77281000Y-60855641D01*
X77281000Y-61144359D01*
X77279917Y-61155355D01*
X77278499Y-61160029D01*
X77276200Y-61164330D01*
X77270971Y-61170702D01*
X77257357Y-61191076D01*
X77247980Y-61213715D01*
X77243200Y-61237749D01*
X77243200Y-61262253D01*
X77247981Y-61286286D01*
X77257358Y-61308925D01*
X77270971Y-61329298D01*
X77276200Y-61335670D01*
X77278499Y-61339971D01*
X77279917Y-61344645D01*
X77281000Y-61355641D01*
X77281000Y-61644359D01*
X77279917Y-61655355D01*
X77278499Y-61660029D01*
X77276200Y-61664330D01*
X77270971Y-61670702D01*
X77257357Y-61691076D01*
X77247980Y-61713715D01*
X77243200Y-61737749D01*
X77243200Y-61762253D01*
X77247981Y-61786286D01*
X77257358Y-61808925D01*
X77270971Y-61829298D01*
X77276200Y-61835670D01*
X77278499Y-61839971D01*
X77279917Y-61844645D01*
X77281000Y-61855641D01*
X77281000Y-62144359D01*
X77279917Y-62155355D01*
X77278499Y-62160029D01*
X77276200Y-62164330D01*
X77270971Y-62170702D01*
X77257357Y-62191076D01*
X77247980Y-62213715D01*
X77243200Y-62237749D01*
X77243200Y-62262253D01*
X77247981Y-62286286D01*
X77257358Y-62308925D01*
X77270971Y-62329298D01*
X77276200Y-62335670D01*
X77278499Y-62339971D01*
X77279917Y-62344645D01*
X77281000Y-62355641D01*
X77281000Y-62644359D01*
X77279917Y-62655355D01*
X77278499Y-62660029D01*
X77276200Y-62664330D01*
X77270971Y-62670702D01*
X77257357Y-62691076D01*
X77247980Y-62713715D01*
X77243200Y-62737749D01*
X77243200Y-62762253D01*
X77247981Y-62786286D01*
X77257358Y-62808925D01*
X77270971Y-62829298D01*
X77276200Y-62835670D01*
X77278499Y-62839971D01*
X77279917Y-62844645D01*
X77281000Y-62855641D01*
X77281000Y-63144359D01*
X77279917Y-63155355D01*
X77278499Y-63160029D01*
X77276200Y-63164330D01*
X77270971Y-63170702D01*
X77257357Y-63191076D01*
X77247980Y-63213715D01*
X77243200Y-63237749D01*
X77243200Y-63262253D01*
X77247981Y-63286286D01*
X77257358Y-63308925D01*
X77270971Y-63329298D01*
X77276200Y-63335670D01*
X77278499Y-63339971D01*
X77279917Y-63344645D01*
X77281000Y-63355641D01*
X77281000Y-63644359D01*
X77279917Y-63655355D01*
X77278499Y-63660029D01*
X77276200Y-63664330D01*
X77270971Y-63670702D01*
X77257357Y-63691076D01*
X77247980Y-63713715D01*
X77243200Y-63737749D01*
X77243200Y-63762253D01*
X77247981Y-63786286D01*
X77257358Y-63808925D01*
X77270971Y-63829298D01*
X77276200Y-63835670D01*
X77278499Y-63839971D01*
X77279917Y-63844645D01*
X77281000Y-63855641D01*
X77281000Y-64144359D01*
X77279917Y-64155355D01*
X77278499Y-64160029D01*
X77276200Y-64164331D01*
X77273104Y-64168104D01*
X77269331Y-64171200D01*
X77265029Y-64173499D01*
X77260355Y-64174917D01*
X77249359Y-64176000D01*
X76410641Y-64176000D01*
X76399645Y-64174917D01*
X76394971Y-64173499D01*
X76390669Y-64171200D01*
X76386896Y-64168104D01*
X76383800Y-64164331D01*
X76381501Y-64160029D01*
X76380083Y-64155355D01*
X76379000Y-64144359D01*
X76379000Y-63855641D01*
X76380083Y-63844645D01*
X76381501Y-63839971D01*
X76383800Y-63835670D01*
X76389029Y-63829298D01*
X76402643Y-63808924D01*
X76412020Y-63786285D01*
X76416800Y-63762251D01*
X76416800Y-63737747D01*
X76412019Y-63713714D01*
X76402642Y-63691075D01*
X76389029Y-63670702D01*
X76383800Y-63664330D01*
X76381501Y-63660029D01*
X76380083Y-63655355D01*
X76379000Y-63644359D01*
X76379000Y-63355641D01*
X76380083Y-63344645D01*
X76381501Y-63339971D01*
X76383800Y-63335670D01*
X76389029Y-63329298D01*
X76402643Y-63308924D01*
X76412020Y-63286285D01*
X76416800Y-63262251D01*
X76416800Y-63237747D01*
X76412019Y-63213714D01*
X76402642Y-63191075D01*
X76389029Y-63170702D01*
X76383800Y-63164330D01*
X76381501Y-63160029D01*
X76380083Y-63155355D01*
X76379000Y-63144359D01*
X76379000Y-62855641D01*
X76380083Y-62844645D01*
X76381501Y-62839971D01*
X76383800Y-62835670D01*
X76389029Y-62829298D01*
X76402643Y-62808924D01*
X76412020Y-62786285D01*
X76416800Y-62762251D01*
X76416800Y-62737747D01*
X76412019Y-62713714D01*
X76402642Y-62691075D01*
X76389029Y-62670702D01*
X76383800Y-62664330D01*
X76381501Y-62660029D01*
X76380083Y-62655355D01*
X76379000Y-62644359D01*
X76379000Y-62355641D01*
X76380083Y-62344645D01*
X76381501Y-62339971D01*
X76383800Y-62335670D01*
X76389029Y-62329298D01*
X76402643Y-62308924D01*
X76412020Y-62286285D01*
X76416800Y-62262251D01*
X76416800Y-62237747D01*
X76412019Y-62213714D01*
X76402642Y-62191075D01*
X76389029Y-62170702D01*
X76383800Y-62164330D01*
X76381501Y-62160029D01*
X76380083Y-62155355D01*
X76379000Y-62144359D01*
X76379000Y-61855641D01*
X76380083Y-61844645D01*
X76381501Y-61839971D01*
X76383800Y-61835670D01*
X76389029Y-61829298D01*
X76402643Y-61808924D01*
X76412020Y-61786285D01*
X76416800Y-61762251D01*
X76416800Y-61737747D01*
X76412019Y-61713714D01*
X76402642Y-61691075D01*
X76389029Y-61670702D01*
X76383800Y-61664330D01*
X76381501Y-61660029D01*
X76380083Y-61655355D01*
X76379000Y-61644359D01*
X76379000Y-61355641D01*
X76380083Y-61344645D01*
X76381501Y-61339971D01*
X76383800Y-61335670D01*
X76389029Y-61329298D01*
X76402643Y-61308924D01*
X76412020Y-61286285D01*
X76416800Y-61262251D01*
X76416800Y-61237747D01*
X76412019Y-61213714D01*
X76402642Y-61191075D01*
X76389029Y-61170702D01*
X76383800Y-61164330D01*
X76381501Y-61160029D01*
X76380083Y-61155355D01*
X76379000Y-61144359D01*
X76379000Y-60855641D01*
X76380083Y-60844645D01*
X76381501Y-60839971D01*
X76383800Y-60835669D01*
X76386896Y-60831896D01*
X76390669Y-60828800D01*
X76394971Y-60826501D01*
X76399645Y-60825083D01*
X76410641Y-60824000D01*
X77249359Y-60824000D01*
X77260355Y-60825083D01*
G37*
G36*
X66093623Y-62339971D02*
G01*
X66262812Y-62373624D01*
X66426784Y-62441544D01*
X66574354Y-62540147D01*
X66699853Y-62665646D01*
X66798456Y-62813216D01*
X66866376Y-62977188D01*
X66883533Y-63063446D01*
X66900795Y-63150225D01*
X66901000Y-63151259D01*
X66901000Y-63328741D01*
X66866376Y-63502812D01*
X66798456Y-63666784D01*
X66699853Y-63814354D01*
X66574354Y-63939853D01*
X66426784Y-64038456D01*
X66262812Y-64106376D01*
X66113512Y-64136073D01*
X66088742Y-64141000D01*
X65911258Y-64141000D01*
X65886488Y-64136073D01*
X65737188Y-64106376D01*
X65573216Y-64038456D01*
X65425646Y-63939853D01*
X65300147Y-63814354D01*
X65201544Y-63666784D01*
X65133624Y-63502812D01*
X65099000Y-63328741D01*
X65099000Y-63151259D01*
X65099206Y-63150225D01*
X65116467Y-63063446D01*
X65133624Y-62977188D01*
X65201544Y-62813216D01*
X65300147Y-62665646D01*
X65425646Y-62540147D01*
X65573216Y-62441544D01*
X65737188Y-62373624D01*
X65906377Y-62339971D01*
X65911258Y-62339000D01*
X66088742Y-62339000D01*
X66093623Y-62339971D01*
G37*
G36*
X82789499Y-62978445D02*
G01*
X82826995Y-62989820D01*
X82861554Y-63008292D01*
X82891847Y-63033153D01*
X82916708Y-63063446D01*
X82935180Y-63098005D01*
X82946555Y-63135501D01*
X82951000Y-63180638D01*
X82951000Y-63819362D01*
X82946555Y-63864499D01*
X82935180Y-63901995D01*
X82916708Y-63936554D01*
X82891847Y-63966847D01*
X82861554Y-63991708D01*
X82826995Y-64010180D01*
X82789499Y-64021555D01*
X82744362Y-64026000D01*
X82005638Y-64026000D01*
X81960501Y-64021555D01*
X81923005Y-64010180D01*
X81888446Y-63991708D01*
X81858153Y-63966847D01*
X81833292Y-63936554D01*
X81814820Y-63901995D01*
X81803445Y-63864499D01*
X81799000Y-63819362D01*
X81799000Y-63180638D01*
X81803445Y-63135501D01*
X81814820Y-63098005D01*
X81833292Y-63063446D01*
X81858153Y-63033153D01*
X81888446Y-63008292D01*
X81923005Y-62989820D01*
X81960501Y-62978445D01*
X82005638Y-62974000D01*
X82744362Y-62974000D01*
X82789499Y-62978445D01*
G37*
G36*
X81039499Y-62978445D02*
G01*
X81076995Y-62989820D01*
X81111554Y-63008292D01*
X81141847Y-63033153D01*
X81166708Y-63063446D01*
X81185180Y-63098005D01*
X81196555Y-63135501D01*
X81201000Y-63180638D01*
X81201000Y-63819362D01*
X81196555Y-63864499D01*
X81185180Y-63901995D01*
X81166708Y-63936554D01*
X81141847Y-63966847D01*
X81111554Y-63991708D01*
X81076995Y-64010180D01*
X81039499Y-64021555D01*
X80994362Y-64026000D01*
X80255638Y-64026000D01*
X80210501Y-64021555D01*
X80173005Y-64010180D01*
X80138446Y-63991708D01*
X80108153Y-63966847D01*
X80083292Y-63936554D01*
X80064820Y-63901995D01*
X80053445Y-63864499D01*
X80049000Y-63819362D01*
X80049000Y-63180638D01*
X80053445Y-63135501D01*
X80064820Y-63098005D01*
X80083292Y-63063446D01*
X80108153Y-63033153D01*
X80138446Y-63008292D01*
X80173005Y-62989820D01*
X80210501Y-62978445D01*
X80255638Y-62974000D01*
X80994362Y-62974000D01*
X81039499Y-62978445D01*
G37*
G36*
X78864499Y-61803445D02*
G01*
X78901995Y-61814820D01*
X78936554Y-61833292D01*
X78966847Y-61858153D01*
X78991708Y-61888446D01*
X79010180Y-61923005D01*
X79021555Y-61960501D01*
X79026000Y-62005638D01*
X79026000Y-62744362D01*
X79021555Y-62789499D01*
X79010180Y-62826995D01*
X78991708Y-62861554D01*
X78966847Y-62891847D01*
X78936554Y-62916708D01*
X78901995Y-62935180D01*
X78864499Y-62946555D01*
X78819362Y-62951000D01*
X78180638Y-62951000D01*
X78135501Y-62946555D01*
X78098005Y-62935180D01*
X78063446Y-62916708D01*
X78033153Y-62891847D01*
X78008292Y-62861554D01*
X77989820Y-62826995D01*
X77978445Y-62789499D01*
X77974000Y-62744362D01*
X77974000Y-62005638D01*
X77978445Y-61960501D01*
X77989820Y-61923005D01*
X78008292Y-61888446D01*
X78033153Y-61858153D01*
X78063446Y-61833292D01*
X78098005Y-61814820D01*
X78135501Y-61803445D01*
X78180638Y-61799000D01*
X78819362Y-61799000D01*
X78864499Y-61803445D01*
G37*
G36*
X66113512Y-59803927D02*
G01*
X66262812Y-59833624D01*
X66426784Y-59901544D01*
X66574354Y-60000147D01*
X66699853Y-60125646D01*
X66798456Y-60273216D01*
X66866376Y-60437188D01*
X66901000Y-60611259D01*
X66901000Y-60788741D01*
X66866376Y-60962812D01*
X66798456Y-61126784D01*
X66699853Y-61274354D01*
X66574354Y-61399853D01*
X66426784Y-61498456D01*
X66262812Y-61566376D01*
X66113512Y-61596073D01*
X66088742Y-61601000D01*
X65911258Y-61601000D01*
X65886488Y-61596073D01*
X65737188Y-61566376D01*
X65573216Y-61498456D01*
X65425646Y-61399853D01*
X65300147Y-61274354D01*
X65201544Y-61126784D01*
X65133624Y-60962812D01*
X65099000Y-60788741D01*
X65099000Y-60611259D01*
X65133624Y-60437188D01*
X65201544Y-60273216D01*
X65300147Y-60125646D01*
X65425646Y-60000147D01*
X65573216Y-59901544D01*
X65737188Y-59833624D01*
X65886488Y-59803927D01*
X65911258Y-59799000D01*
X66088742Y-59799000D01*
X66113512Y-59803927D01*
G37*
G36*
X92238674Y-60003465D02*
G01*
X92276367Y-60014899D01*
X92311103Y-60033466D01*
X92341548Y-60058452D01*
X92366534Y-60088897D01*
X92385101Y-60123633D01*
X92396535Y-60161326D01*
X92401000Y-60206661D01*
X92401000Y-61293339D01*
X92396535Y-61338674D01*
X92385101Y-61376367D01*
X92366534Y-61411103D01*
X92341548Y-61441548D01*
X92311103Y-61466534D01*
X92276367Y-61485101D01*
X92238674Y-61496535D01*
X92193339Y-61501000D01*
X91356661Y-61501000D01*
X91311326Y-61496535D01*
X91273633Y-61485101D01*
X91238897Y-61466534D01*
X91208452Y-61441548D01*
X91183466Y-61411103D01*
X91164899Y-61376367D01*
X91153465Y-61338674D01*
X91149000Y-61293339D01*
X91149000Y-60206661D01*
X91153465Y-60161326D01*
X91164899Y-60123633D01*
X91183466Y-60088897D01*
X91208452Y-60058452D01*
X91238897Y-60033466D01*
X91273633Y-60014899D01*
X91311326Y-60003465D01*
X91356661Y-59999000D01*
X92193339Y-59999000D01*
X92238674Y-60003465D01*
G37*
G36*
X90188674Y-60003465D02*
G01*
X90226367Y-60014899D01*
X90261103Y-60033466D01*
X90291548Y-60058452D01*
X90316534Y-60088897D01*
X90335101Y-60123633D01*
X90346535Y-60161326D01*
X90351000Y-60206661D01*
X90351000Y-61293339D01*
X90346535Y-61338674D01*
X90335101Y-61376367D01*
X90316534Y-61411103D01*
X90291548Y-61441548D01*
X90261103Y-61466534D01*
X90226367Y-61485101D01*
X90188674Y-61496535D01*
X90143339Y-61501000D01*
X89306661Y-61501000D01*
X89261326Y-61496535D01*
X89223633Y-61485101D01*
X89188897Y-61466534D01*
X89158452Y-61441548D01*
X89133466Y-61411103D01*
X89114899Y-61376367D01*
X89103465Y-61338674D01*
X89099000Y-61293339D01*
X89099000Y-60206661D01*
X89103465Y-60161326D01*
X89114899Y-60123633D01*
X89133466Y-60088897D01*
X89158452Y-60058452D01*
X89188897Y-60033466D01*
X89223633Y-60014899D01*
X89261326Y-60003465D01*
X89306661Y-59999000D01*
X90143339Y-59999000D01*
X90188674Y-60003465D01*
G37*
G36*
X82789499Y-60228445D02*
G01*
X82826995Y-60239820D01*
X82861554Y-60258292D01*
X82891847Y-60283153D01*
X82916708Y-60313446D01*
X82935180Y-60348005D01*
X82946555Y-60385501D01*
X82951000Y-60430638D01*
X82951000Y-61069362D01*
X82946555Y-61114499D01*
X82935180Y-61151995D01*
X82916708Y-61186554D01*
X82891847Y-61216847D01*
X82861554Y-61241708D01*
X82826995Y-61260180D01*
X82789499Y-61271555D01*
X82744362Y-61276000D01*
X82005638Y-61276000D01*
X81960501Y-61271555D01*
X81923005Y-61260180D01*
X81888446Y-61241708D01*
X81858153Y-61216847D01*
X81833292Y-61186554D01*
X81814820Y-61151995D01*
X81803445Y-61114499D01*
X81799000Y-61069362D01*
X81799000Y-60430638D01*
X81803445Y-60385501D01*
X81814820Y-60348005D01*
X81833292Y-60313446D01*
X81858153Y-60283153D01*
X81888446Y-60258292D01*
X81923005Y-60239820D01*
X81960501Y-60228445D01*
X82005638Y-60224000D01*
X82744362Y-60224000D01*
X82789499Y-60228445D01*
G37*
G36*
X81039499Y-60228445D02*
G01*
X81076995Y-60239820D01*
X81111554Y-60258292D01*
X81141847Y-60283153D01*
X81166708Y-60313446D01*
X81185180Y-60348005D01*
X81196555Y-60385501D01*
X81201000Y-60430638D01*
X81201000Y-61069362D01*
X81196555Y-61114499D01*
X81185180Y-61151995D01*
X81166708Y-61186554D01*
X81141847Y-61216847D01*
X81111554Y-61241708D01*
X81076995Y-61260180D01*
X81039499Y-61271555D01*
X80994362Y-61276000D01*
X80255638Y-61276000D01*
X80210501Y-61271555D01*
X80173005Y-61260180D01*
X80138446Y-61241708D01*
X80108153Y-61216847D01*
X80083292Y-61186554D01*
X80064820Y-61151995D01*
X80053445Y-61114499D01*
X80049000Y-61069362D01*
X80049000Y-60430638D01*
X80053445Y-60385501D01*
X80064820Y-60348005D01*
X80083292Y-60313446D01*
X80108153Y-60283153D01*
X80138446Y-60258292D01*
X80173005Y-60239820D01*
X80210501Y-60228445D01*
X80255638Y-60224000D01*
X80994362Y-60224000D01*
X81039499Y-60228445D01*
G37*
G36*
X73035355Y-59600083D02*
G01*
X73040029Y-59601501D01*
X73044330Y-59603800D01*
X73050702Y-59609029D01*
X73071076Y-59622643D01*
X73093715Y-59632020D01*
X73117749Y-59636800D01*
X73142253Y-59636800D01*
X73166286Y-59632019D01*
X73188925Y-59622642D01*
X73209298Y-59609029D01*
X73215670Y-59603800D01*
X73219971Y-59601501D01*
X73224645Y-59600083D01*
X73235641Y-59599000D01*
X73524359Y-59599000D01*
X73535355Y-59600083D01*
X73540029Y-59601501D01*
X73544330Y-59603800D01*
X73550702Y-59609029D01*
X73571076Y-59622643D01*
X73593715Y-59632020D01*
X73617749Y-59636800D01*
X73642253Y-59636800D01*
X73666286Y-59632019D01*
X73688925Y-59622642D01*
X73709298Y-59609029D01*
X73715670Y-59603800D01*
X73719971Y-59601501D01*
X73724645Y-59600083D01*
X73735641Y-59599000D01*
X74024359Y-59599000D01*
X74035355Y-59600083D01*
X74040029Y-59601501D01*
X74044330Y-59603800D01*
X74050702Y-59609029D01*
X74071076Y-59622643D01*
X74093715Y-59632020D01*
X74117749Y-59636800D01*
X74142253Y-59636800D01*
X74166286Y-59632019D01*
X74188925Y-59622642D01*
X74209298Y-59609029D01*
X74215670Y-59603800D01*
X74219971Y-59601501D01*
X74224645Y-59600083D01*
X74235641Y-59599000D01*
X74524359Y-59599000D01*
X74535355Y-59600083D01*
X74540029Y-59601501D01*
X74544330Y-59603800D01*
X74550702Y-59609029D01*
X74571076Y-59622643D01*
X74593715Y-59632020D01*
X74617749Y-59636800D01*
X74642253Y-59636800D01*
X74666286Y-59632019D01*
X74688925Y-59622642D01*
X74709298Y-59609029D01*
X74715670Y-59603800D01*
X74719971Y-59601501D01*
X74724645Y-59600083D01*
X74735641Y-59599000D01*
X75024359Y-59599000D01*
X75035355Y-59600083D01*
X75040029Y-59601501D01*
X75044330Y-59603800D01*
X75050702Y-59609029D01*
X75071076Y-59622643D01*
X75093715Y-59632020D01*
X75117749Y-59636800D01*
X75142253Y-59636800D01*
X75166286Y-59632019D01*
X75188925Y-59622642D01*
X75209298Y-59609029D01*
X75215670Y-59603800D01*
X75219971Y-59601501D01*
X75224645Y-59600083D01*
X75235641Y-59599000D01*
X75524359Y-59599000D01*
X75535355Y-59600083D01*
X75540029Y-59601501D01*
X75544330Y-59603800D01*
X75550702Y-59609029D01*
X75571076Y-59622643D01*
X75593715Y-59632020D01*
X75617749Y-59636800D01*
X75642253Y-59636800D01*
X75666286Y-59632019D01*
X75688925Y-59622642D01*
X75709298Y-59609029D01*
X75715670Y-59603800D01*
X75719971Y-59601501D01*
X75724645Y-59600083D01*
X75735641Y-59599000D01*
X76024359Y-59599000D01*
X76035355Y-59600083D01*
X76040029Y-59601501D01*
X76044331Y-59603800D01*
X76048104Y-59606896D01*
X76051200Y-59610669D01*
X76053499Y-59614971D01*
X76054917Y-59619645D01*
X76056000Y-59630641D01*
X76056000Y-60469359D01*
X76054917Y-60480355D01*
X76053499Y-60485029D01*
X76051200Y-60489331D01*
X76048104Y-60493104D01*
X76044331Y-60496200D01*
X76040029Y-60498499D01*
X76035355Y-60499917D01*
X76024359Y-60501000D01*
X75735641Y-60501000D01*
X75724645Y-60499917D01*
X75719971Y-60498499D01*
X75715670Y-60496200D01*
X75709298Y-60490971D01*
X75688924Y-60477357D01*
X75666285Y-60467980D01*
X75642251Y-60463200D01*
X75617747Y-60463200D01*
X75593714Y-60467981D01*
X75571075Y-60477358D01*
X75550702Y-60490971D01*
X75544330Y-60496200D01*
X75540029Y-60498499D01*
X75535355Y-60499917D01*
X75524359Y-60501000D01*
X75235641Y-60501000D01*
X75224645Y-60499917D01*
X75219971Y-60498499D01*
X75215670Y-60496200D01*
X75209298Y-60490971D01*
X75188924Y-60477357D01*
X75166285Y-60467980D01*
X75142251Y-60463200D01*
X75117747Y-60463200D01*
X75093714Y-60467981D01*
X75071075Y-60477358D01*
X75050702Y-60490971D01*
X75044330Y-60496200D01*
X75040029Y-60498499D01*
X75035355Y-60499917D01*
X75024359Y-60501000D01*
X74735641Y-60501000D01*
X74724645Y-60499917D01*
X74719971Y-60498499D01*
X74715670Y-60496200D01*
X74709298Y-60490971D01*
X74688924Y-60477357D01*
X74666285Y-60467980D01*
X74642251Y-60463200D01*
X74617747Y-60463200D01*
X74593714Y-60467981D01*
X74571075Y-60477358D01*
X74550702Y-60490971D01*
X74544330Y-60496200D01*
X74540029Y-60498499D01*
X74535355Y-60499917D01*
X74524359Y-60501000D01*
X74235641Y-60501000D01*
X74224645Y-60499917D01*
X74219971Y-60498499D01*
X74215670Y-60496200D01*
X74209298Y-60490971D01*
X74188924Y-60477357D01*
X74166285Y-60467980D01*
X74142251Y-60463200D01*
X74117747Y-60463200D01*
X74093714Y-60467981D01*
X74071075Y-60477358D01*
X74050702Y-60490971D01*
X74044330Y-60496200D01*
X74040029Y-60498499D01*
X74035355Y-60499917D01*
X74024359Y-60501000D01*
X73735641Y-60501000D01*
X73724645Y-60499917D01*
X73719971Y-60498499D01*
X73715670Y-60496200D01*
X73709298Y-60490971D01*
X73688924Y-60477357D01*
X73666285Y-60467980D01*
X73642251Y-60463200D01*
X73617747Y-60463200D01*
X73593714Y-60467981D01*
X73571075Y-60477358D01*
X73550702Y-60490971D01*
X73544330Y-60496200D01*
X73540029Y-60498499D01*
X73535355Y-60499917D01*
X73524359Y-60501000D01*
X73235641Y-60501000D01*
X73224645Y-60499917D01*
X73219971Y-60498499D01*
X73215670Y-60496200D01*
X73209298Y-60490971D01*
X73188924Y-60477357D01*
X73166285Y-60467980D01*
X73142251Y-60463200D01*
X73117747Y-60463200D01*
X73093714Y-60467981D01*
X73071075Y-60477358D01*
X73050702Y-60490971D01*
X73044330Y-60496200D01*
X73040029Y-60498499D01*
X73035355Y-60499917D01*
X73024359Y-60501000D01*
X72735641Y-60501000D01*
X72724645Y-60499917D01*
X72719971Y-60498499D01*
X72715669Y-60496200D01*
X72711896Y-60493104D01*
X72708800Y-60489331D01*
X72706501Y-60485029D01*
X72705083Y-60480355D01*
X72704000Y-60469359D01*
X72704000Y-59630641D01*
X72705083Y-59619645D01*
X72706501Y-59614971D01*
X72708800Y-59610669D01*
X72711896Y-59606896D01*
X72715669Y-59603800D01*
X72719971Y-59601501D01*
X72724645Y-59600083D01*
X72735641Y-59599000D01*
X73024359Y-59599000D01*
X73035355Y-59600083D01*
G37*
G36*
X66113512Y-57263927D02*
G01*
X66262812Y-57293624D01*
X66426784Y-57361544D01*
X66574354Y-57460147D01*
X66699853Y-57585646D01*
X66798456Y-57733216D01*
X66866376Y-57897188D01*
X66901000Y-58071259D01*
X66901000Y-58248741D01*
X66866376Y-58422812D01*
X66798456Y-58586784D01*
X66699853Y-58734354D01*
X66574354Y-58859853D01*
X66426784Y-58958456D01*
X66262812Y-59026376D01*
X66113512Y-59056073D01*
X66088742Y-59061000D01*
X65911258Y-59061000D01*
X65886488Y-59056073D01*
X65737188Y-59026376D01*
X65573216Y-58958456D01*
X65425646Y-58859853D01*
X65300147Y-58734354D01*
X65201544Y-58586784D01*
X65133624Y-58422812D01*
X65099000Y-58248741D01*
X65099000Y-58071259D01*
X65133624Y-57897188D01*
X65201544Y-57733216D01*
X65300147Y-57585646D01*
X65425646Y-57460147D01*
X65573216Y-57361544D01*
X65737188Y-57293624D01*
X65886488Y-57263927D01*
X65911258Y-57259000D01*
X66088742Y-57259000D01*
X66113512Y-57263927D01*
G37*
G36*
X92238674Y-57253465D02*
G01*
X92276367Y-57264899D01*
X92311103Y-57283466D01*
X92341548Y-57308452D01*
X92366534Y-57338897D01*
X92385101Y-57373633D01*
X92396535Y-57411326D01*
X92401000Y-57456661D01*
X92401000Y-58543339D01*
X92396535Y-58588674D01*
X92385101Y-58626367D01*
X92366534Y-58661103D01*
X92341548Y-58691548D01*
X92311103Y-58716534D01*
X92276367Y-58735101D01*
X92238674Y-58746535D01*
X92193339Y-58751000D01*
X91356661Y-58751000D01*
X91311326Y-58746535D01*
X91273633Y-58735101D01*
X91238897Y-58716534D01*
X91208452Y-58691548D01*
X91183466Y-58661103D01*
X91164899Y-58626367D01*
X91153465Y-58588674D01*
X91149000Y-58543339D01*
X91149000Y-57456661D01*
X91153465Y-57411326D01*
X91164899Y-57373633D01*
X91183466Y-57338897D01*
X91208452Y-57308452D01*
X91238897Y-57283466D01*
X91273633Y-57264899D01*
X91311326Y-57253465D01*
X91356661Y-57249000D01*
X92193339Y-57249000D01*
X92238674Y-57253465D01*
G37*
G36*
X90188674Y-57253465D02*
G01*
X90226367Y-57264899D01*
X90261103Y-57283466D01*
X90291548Y-57308452D01*
X90316534Y-57338897D01*
X90335101Y-57373633D01*
X90346535Y-57411326D01*
X90351000Y-57456661D01*
X90351000Y-58543339D01*
X90346535Y-58588674D01*
X90335101Y-58626367D01*
X90316534Y-58661103D01*
X90291548Y-58691548D01*
X90261103Y-58716534D01*
X90226367Y-58735101D01*
X90188674Y-58746535D01*
X90143339Y-58751000D01*
X89306661Y-58751000D01*
X89261326Y-58746535D01*
X89223633Y-58735101D01*
X89188897Y-58716534D01*
X89158452Y-58691548D01*
X89133466Y-58661103D01*
X89114899Y-58626367D01*
X89103465Y-58588674D01*
X89099000Y-58543339D01*
X89099000Y-57456661D01*
X89103465Y-57411326D01*
X89114899Y-57373633D01*
X89133466Y-57338897D01*
X89158452Y-57308452D01*
X89188897Y-57283466D01*
X89223633Y-57264899D01*
X89261326Y-57253465D01*
X89306661Y-57249000D01*
X90143339Y-57249000D01*
X90188674Y-57253465D01*
G37*
G36*
X82789499Y-57478445D02*
G01*
X82826995Y-57489820D01*
X82861554Y-57508292D01*
X82891847Y-57533153D01*
X82916708Y-57563446D01*
X82935180Y-57598005D01*
X82946555Y-57635501D01*
X82951000Y-57680638D01*
X82951000Y-58319362D01*
X82946555Y-58364499D01*
X82935180Y-58401995D01*
X82916708Y-58436554D01*
X82891847Y-58466847D01*
X82861554Y-58491708D01*
X82826995Y-58510180D01*
X82789499Y-58521555D01*
X82744362Y-58526000D01*
X82005638Y-58526000D01*
X81960501Y-58521555D01*
X81923005Y-58510180D01*
X81888446Y-58491708D01*
X81858153Y-58466847D01*
X81833292Y-58436554D01*
X81814820Y-58401995D01*
X81803445Y-58364499D01*
X81799000Y-58319362D01*
X81799000Y-57680638D01*
X81803445Y-57635501D01*
X81814820Y-57598005D01*
X81833292Y-57563446D01*
X81858153Y-57533153D01*
X81888446Y-57508292D01*
X81923005Y-57489820D01*
X81960501Y-57478445D01*
X82005638Y-57474000D01*
X82744362Y-57474000D01*
X82789499Y-57478445D01*
G37*
G36*
X81039499Y-57478445D02*
G01*
X81076995Y-57489820D01*
X81111554Y-57508292D01*
X81141847Y-57533153D01*
X81166708Y-57563446D01*
X81185180Y-57598005D01*
X81196555Y-57635501D01*
X81201000Y-57680638D01*
X81201000Y-58319362D01*
X81196555Y-58364499D01*
X81185180Y-58401995D01*
X81166708Y-58436554D01*
X81141847Y-58466847D01*
X81111554Y-58491708D01*
X81076995Y-58510180D01*
X81039499Y-58521555D01*
X80994362Y-58526000D01*
X80255638Y-58526000D01*
X80210501Y-58521555D01*
X80173005Y-58510180D01*
X80138446Y-58491708D01*
X80108153Y-58466847D01*
X80083292Y-58436554D01*
X80064820Y-58401995D01*
X80053445Y-58364499D01*
X80049000Y-58319362D01*
X80049000Y-57680638D01*
X80053445Y-57635501D01*
X80064820Y-57598005D01*
X80083292Y-57563446D01*
X80108153Y-57533153D01*
X80138446Y-57508292D01*
X80173005Y-57489820D01*
X80210501Y-57478445D01*
X80255638Y-57474000D01*
X80994362Y-57474000D01*
X81039499Y-57478445D01*
G37*
G36*
X72139499Y-55678445D02*
G01*
X72176995Y-55689820D01*
X72211554Y-55708292D01*
X72241847Y-55733153D01*
X72266708Y-55763446D01*
X72285180Y-55798005D01*
X72296555Y-55835501D01*
X72301000Y-55880638D01*
X72301000Y-56519362D01*
X72296555Y-56564499D01*
X72285180Y-56601995D01*
X72266708Y-56636554D01*
X72241847Y-56666847D01*
X72211554Y-56691708D01*
X72176995Y-56710180D01*
X72139499Y-56721555D01*
X72094362Y-56726000D01*
X71355638Y-56726000D01*
X71310501Y-56721555D01*
X71273005Y-56710180D01*
X71238446Y-56691708D01*
X71208153Y-56666847D01*
X71183292Y-56636554D01*
X71164820Y-56601995D01*
X71153445Y-56564499D01*
X71149000Y-56519362D01*
X71149000Y-55880638D01*
X71153445Y-55835501D01*
X71164820Y-55798005D01*
X71183292Y-55763446D01*
X71208153Y-55733153D01*
X71238446Y-55708292D01*
X71273005Y-55689820D01*
X71310501Y-55678445D01*
X71355638Y-55674000D01*
X72094362Y-55674000D01*
X72139499Y-55678445D01*
G37*
G36*
X73889499Y-55678445D02*
G01*
X73926995Y-55689820D01*
X73961554Y-55708292D01*
X73991847Y-55733153D01*
X74016708Y-55763446D01*
X74035180Y-55798005D01*
X74046555Y-55835501D01*
X74051000Y-55880638D01*
X74051000Y-56519362D01*
X74046555Y-56564499D01*
X74035180Y-56601995D01*
X74016708Y-56636554D01*
X73991847Y-56666847D01*
X73961554Y-56691708D01*
X73926995Y-56710180D01*
X73889499Y-56721555D01*
X73844362Y-56726000D01*
X73105638Y-56726000D01*
X73060501Y-56721555D01*
X73023005Y-56710180D01*
X72988446Y-56691708D01*
X72958153Y-56666847D01*
X72933292Y-56636554D01*
X72914820Y-56601995D01*
X72903445Y-56564499D01*
X72899000Y-56519362D01*
X72899000Y-55880638D01*
X72903445Y-55835501D01*
X72914820Y-55798005D01*
X72933292Y-55763446D01*
X72958153Y-55733153D01*
X72988446Y-55708292D01*
X73023005Y-55689820D01*
X73060501Y-55678445D01*
X73105638Y-55674000D01*
X73844362Y-55674000D01*
X73889499Y-55678445D01*
G37*
G36*
X77789499Y-55678445D02*
G01*
X77826995Y-55689820D01*
X77861554Y-55708292D01*
X77891847Y-55733153D01*
X77916708Y-55763446D01*
X77935180Y-55798005D01*
X77946555Y-55835501D01*
X77951000Y-55880638D01*
X77951000Y-56519362D01*
X77946555Y-56564499D01*
X77935180Y-56601995D01*
X77916708Y-56636554D01*
X77891847Y-56666847D01*
X77861554Y-56691708D01*
X77826995Y-56710180D01*
X77789499Y-56721555D01*
X77744362Y-56726000D01*
X77005638Y-56726000D01*
X76960501Y-56721555D01*
X76923005Y-56710180D01*
X76888446Y-56691708D01*
X76858153Y-56666847D01*
X76833292Y-56636554D01*
X76814820Y-56601995D01*
X76803445Y-56564499D01*
X76799000Y-56519362D01*
X76799000Y-55880638D01*
X76803445Y-55835501D01*
X76814820Y-55798005D01*
X76833292Y-55763446D01*
X76858153Y-55733153D01*
X76888446Y-55708292D01*
X76923005Y-55689820D01*
X76960501Y-55678445D01*
X77005638Y-55674000D01*
X77744362Y-55674000D01*
X77789499Y-55678445D01*
G37*
G36*
X76039499Y-55678445D02*
G01*
X76076995Y-55689820D01*
X76111554Y-55708292D01*
X76141847Y-55733153D01*
X76166708Y-55763446D01*
X76185180Y-55798005D01*
X76196555Y-55835501D01*
X76201000Y-55880638D01*
X76201000Y-56519362D01*
X76196555Y-56564499D01*
X76185180Y-56601995D01*
X76166708Y-56636554D01*
X76141847Y-56666847D01*
X76111554Y-56691708D01*
X76076995Y-56710180D01*
X76039499Y-56721555D01*
X75994362Y-56726000D01*
X75255638Y-56726000D01*
X75210501Y-56721555D01*
X75173005Y-56710180D01*
X75138446Y-56691708D01*
X75108153Y-56666847D01*
X75083292Y-56636554D01*
X75064820Y-56601995D01*
X75053445Y-56564499D01*
X75049000Y-56519362D01*
X75049000Y-55880638D01*
X75053445Y-55835501D01*
X75064820Y-55798005D01*
X75083292Y-55763446D01*
X75108153Y-55733153D01*
X75138446Y-55708292D01*
X75173005Y-55689820D01*
X75210501Y-55678445D01*
X75255638Y-55674000D01*
X75994362Y-55674000D01*
X76039499Y-55678445D01*
G37*
G36*
X66113512Y-54723927D02*
G01*
X66262812Y-54753624D01*
X66426784Y-54821544D01*
X66574354Y-54920147D01*
X66699853Y-55045646D01*
X66798456Y-55193216D01*
X66866376Y-55357188D01*
X66901000Y-55531259D01*
X66901000Y-55708741D01*
X66866376Y-55882812D01*
X66798456Y-56046784D01*
X66699853Y-56194354D01*
X66574354Y-56319853D01*
X66426784Y-56418456D01*
X66262812Y-56486376D01*
X66113512Y-56516073D01*
X66088742Y-56521000D01*
X65911258Y-56521000D01*
X65886488Y-56516073D01*
X65737188Y-56486376D01*
X65573216Y-56418456D01*
X65425646Y-56319853D01*
X65300147Y-56194354D01*
X65201544Y-56046784D01*
X65133624Y-55882812D01*
X65099000Y-55708741D01*
X65099000Y-55531259D01*
X65133624Y-55357188D01*
X65201544Y-55193216D01*
X65300147Y-55045646D01*
X65425646Y-54920147D01*
X65573216Y-54821544D01*
X65737188Y-54753624D01*
X65886488Y-54723927D01*
X65911258Y-54719000D01*
X66088742Y-54719000D01*
X66113512Y-54723927D01*
G37*
G36*
X92238674Y-54503465D02*
G01*
X92276367Y-54514899D01*
X92311103Y-54533466D01*
X92341548Y-54558452D01*
X92366534Y-54588897D01*
X92385101Y-54623633D01*
X92396535Y-54661326D01*
X92401000Y-54706661D01*
X92401000Y-55793339D01*
X92396535Y-55838674D01*
X92385101Y-55876367D01*
X92366534Y-55911103D01*
X92341548Y-55941548D01*
X92311103Y-55966534D01*
X92276367Y-55985101D01*
X92238674Y-55996535D01*
X92193339Y-56001000D01*
X91356661Y-56001000D01*
X91311326Y-55996535D01*
X91273633Y-55985101D01*
X91238897Y-55966534D01*
X91208452Y-55941548D01*
X91183466Y-55911103D01*
X91164899Y-55876367D01*
X91153465Y-55838674D01*
X91149000Y-55793339D01*
X91149000Y-54706661D01*
X91153465Y-54661326D01*
X91164899Y-54623633D01*
X91183466Y-54588897D01*
X91208452Y-54558452D01*
X91238897Y-54533466D01*
X91273633Y-54514899D01*
X91311326Y-54503465D01*
X91356661Y-54499000D01*
X92193339Y-54499000D01*
X92238674Y-54503465D01*
G37*
G36*
X90188674Y-54503465D02*
G01*
X90226367Y-54514899D01*
X90261103Y-54533466D01*
X90291548Y-54558452D01*
X90316534Y-54588897D01*
X90335101Y-54623633D01*
X90346535Y-54661326D01*
X90351000Y-54706661D01*
X90351000Y-55793339D01*
X90346535Y-55838674D01*
X90335101Y-55876367D01*
X90316534Y-55911103D01*
X90291548Y-55941548D01*
X90261103Y-55966534D01*
X90226367Y-55985101D01*
X90188674Y-55996535D01*
X90143339Y-56001000D01*
X89306661Y-56001000D01*
X89261326Y-55996535D01*
X89223633Y-55985101D01*
X89188897Y-55966534D01*
X89158452Y-55941548D01*
X89133466Y-55911103D01*
X89114899Y-55876367D01*
X89103465Y-55838674D01*
X89099000Y-55793339D01*
X89099000Y-54706661D01*
X89103465Y-54661326D01*
X89114899Y-54623633D01*
X89133466Y-54588897D01*
X89158452Y-54558452D01*
X89188897Y-54533466D01*
X89223633Y-54514899D01*
X89261326Y-54503465D01*
X89306661Y-54499000D01*
X90143339Y-54499000D01*
X90188674Y-54503465D01*
G37*
G36*
X81039499Y-54728445D02*
G01*
X81076995Y-54739820D01*
X81111554Y-54758292D01*
X81141847Y-54783153D01*
X81166708Y-54813446D01*
X81185180Y-54848005D01*
X81196555Y-54885501D01*
X81201000Y-54930638D01*
X81201000Y-55569362D01*
X81196555Y-55614499D01*
X81185180Y-55651995D01*
X81166708Y-55686554D01*
X81141847Y-55716847D01*
X81111554Y-55741708D01*
X81076995Y-55760180D01*
X81039499Y-55771555D01*
X80994362Y-55776000D01*
X80255638Y-55776000D01*
X80210501Y-55771555D01*
X80173005Y-55760180D01*
X80138446Y-55741708D01*
X80108153Y-55716847D01*
X80083292Y-55686554D01*
X80064820Y-55651995D01*
X80053445Y-55614499D01*
X80049000Y-55569362D01*
X80049000Y-54930638D01*
X80053445Y-54885501D01*
X80064820Y-54848005D01*
X80083292Y-54813446D01*
X80108153Y-54783153D01*
X80138446Y-54758292D01*
X80173005Y-54739820D01*
X80210501Y-54728445D01*
X80255638Y-54724000D01*
X80994362Y-54724000D01*
X81039499Y-54728445D01*
G37*
G36*
X82789499Y-54728445D02*
G01*
X82826995Y-54739820D01*
X82861554Y-54758292D01*
X82891847Y-54783153D01*
X82916708Y-54813446D01*
X82935180Y-54848005D01*
X82946555Y-54885501D01*
X82951000Y-54930638D01*
X82951000Y-55569362D01*
X82946555Y-55614499D01*
X82935180Y-55651995D01*
X82916708Y-55686554D01*
X82891847Y-55716847D01*
X82861554Y-55741708D01*
X82826995Y-55760180D01*
X82789499Y-55771555D01*
X82744362Y-55776000D01*
X82005638Y-55776000D01*
X81960501Y-55771555D01*
X81923005Y-55760180D01*
X81888446Y-55741708D01*
X81858153Y-55716847D01*
X81833292Y-55686554D01*
X81814820Y-55651995D01*
X81803445Y-55614499D01*
X81799000Y-55569362D01*
X81799000Y-54930638D01*
X81803445Y-54885501D01*
X81814820Y-54848005D01*
X81833292Y-54813446D01*
X81858153Y-54783153D01*
X81888446Y-54758292D01*
X81923005Y-54739820D01*
X81960501Y-54728445D01*
X82005638Y-54724000D01*
X82744362Y-54724000D01*
X82789499Y-54728445D01*
G37*
G36*
X77601000Y-54901000D02*
G01*
X75999000Y-54901000D01*
X75999000Y-52799000D01*
X77601000Y-52799000D01*
X77601000Y-54901000D01*
G37*
G36*
X73001000Y-54901000D02*
G01*
X71399000Y-54901000D01*
X71399000Y-52799000D01*
X73001000Y-52799000D01*
X73001000Y-54901000D01*
G37*
G36*
X75301000Y-54901000D02*
G01*
X73699000Y-54901000D01*
X73699000Y-52799000D01*
X75301000Y-52799000D01*
X75301000Y-54901000D01*
G37*
G36*
X66113512Y-52183927D02*
G01*
X66262812Y-52213624D01*
X66426784Y-52281544D01*
X66574354Y-52380147D01*
X66699853Y-52505646D01*
X66798456Y-52653216D01*
X66866376Y-52817188D01*
X66901000Y-52991259D01*
X66901000Y-53168741D01*
X66866376Y-53342812D01*
X66798456Y-53506784D01*
X66699853Y-53654354D01*
X66574354Y-53779853D01*
X66426784Y-53878456D01*
X66262812Y-53946376D01*
X66113512Y-53976073D01*
X66088742Y-53981000D01*
X65911258Y-53981000D01*
X65886488Y-53976073D01*
X65737188Y-53946376D01*
X65573216Y-53878456D01*
X65425646Y-53779853D01*
X65300147Y-53654354D01*
X65201544Y-53506784D01*
X65133624Y-53342812D01*
X65099000Y-53168741D01*
X65099000Y-52991259D01*
X65133624Y-52817188D01*
X65201544Y-52653216D01*
X65300147Y-52505646D01*
X65425646Y-52380147D01*
X65573216Y-52281544D01*
X65737188Y-52213624D01*
X65886488Y-52183927D01*
X65911258Y-52179000D01*
X66088742Y-52179000D01*
X66113512Y-52183927D01*
G37*
G36*
X90188674Y-51753465D02*
G01*
X90226367Y-51764899D01*
X90261103Y-51783466D01*
X90291548Y-51808452D01*
X90316534Y-51838897D01*
X90335101Y-51873633D01*
X90346535Y-51911326D01*
X90351000Y-51956661D01*
X90351000Y-53043339D01*
X90346535Y-53088674D01*
X90335101Y-53126367D01*
X90316534Y-53161103D01*
X90291548Y-53191548D01*
X90261103Y-53216534D01*
X90226367Y-53235101D01*
X90188674Y-53246535D01*
X90143339Y-53251000D01*
X89306661Y-53251000D01*
X89261326Y-53246535D01*
X89223633Y-53235101D01*
X89188897Y-53216534D01*
X89158452Y-53191548D01*
X89133466Y-53161103D01*
X89114899Y-53126367D01*
X89103465Y-53088674D01*
X89099000Y-53043339D01*
X89099000Y-51956661D01*
X89103465Y-51911326D01*
X89114899Y-51873633D01*
X89133466Y-51838897D01*
X89158452Y-51808452D01*
X89188897Y-51783466D01*
X89223633Y-51764899D01*
X89261326Y-51753465D01*
X89306661Y-51749000D01*
X90143339Y-51749000D01*
X90188674Y-51753465D01*
G37*
G36*
X92238674Y-51753465D02*
G01*
X92276367Y-51764899D01*
X92311103Y-51783466D01*
X92341548Y-51808452D01*
X92366534Y-51838897D01*
X92385101Y-51873633D01*
X92396535Y-51911326D01*
X92401000Y-51956661D01*
X92401000Y-53043339D01*
X92396535Y-53088674D01*
X92385101Y-53126367D01*
X92366534Y-53161103D01*
X92341548Y-53191548D01*
X92311103Y-53216534D01*
X92276367Y-53235101D01*
X92238674Y-53246535D01*
X92193339Y-53251000D01*
X91356661Y-53251000D01*
X91311326Y-53246535D01*
X91273633Y-53235101D01*
X91238897Y-53216534D01*
X91208452Y-53191548D01*
X91183466Y-53161103D01*
X91164899Y-53126367D01*
X91153465Y-53088674D01*
X91149000Y-53043339D01*
X91149000Y-51956661D01*
X91153465Y-51911326D01*
X91164899Y-51873633D01*
X91183466Y-51838897D01*
X91208452Y-51808452D01*
X91238897Y-51783466D01*
X91273633Y-51764899D01*
X91311326Y-51753465D01*
X91356661Y-51749000D01*
X92193339Y-51749000D01*
X92238674Y-51753465D01*
G37*
G36*
X82789499Y-51978445D02*
G01*
X82826995Y-51989820D01*
X82861554Y-52008292D01*
X82891847Y-52033153D01*
X82916708Y-52063446D01*
X82935180Y-52098005D01*
X82946555Y-52135501D01*
X82951000Y-52180638D01*
X82951000Y-52819362D01*
X82946555Y-52864499D01*
X82935180Y-52901995D01*
X82916708Y-52936554D01*
X82891847Y-52966847D01*
X82861554Y-52991708D01*
X82826995Y-53010180D01*
X82789499Y-53021555D01*
X82744362Y-53026000D01*
X82005638Y-53026000D01*
X81960501Y-53021555D01*
X81923005Y-53010180D01*
X81888446Y-52991708D01*
X81858153Y-52966847D01*
X81833292Y-52936554D01*
X81814820Y-52901995D01*
X81803445Y-52864499D01*
X81799000Y-52819362D01*
X81799000Y-52180638D01*
X81803445Y-52135501D01*
X81814820Y-52098005D01*
X81833292Y-52063446D01*
X81858153Y-52033153D01*
X81888446Y-52008292D01*
X81923005Y-51989820D01*
X81960501Y-51978445D01*
X82005638Y-51974000D01*
X82744362Y-51974000D01*
X82789499Y-51978445D01*
G37*
G36*
X81039499Y-51978445D02*
G01*
X81076995Y-51989820D01*
X81111554Y-52008292D01*
X81141847Y-52033153D01*
X81166708Y-52063446D01*
X81185180Y-52098005D01*
X81196555Y-52135501D01*
X81201000Y-52180638D01*
X81201000Y-52819362D01*
X81196555Y-52864499D01*
X81185180Y-52901995D01*
X81166708Y-52936554D01*
X81141847Y-52966847D01*
X81111554Y-52991708D01*
X81076995Y-53010180D01*
X81039499Y-53021555D01*
X80994362Y-53026000D01*
X80255638Y-53026000D01*
X80210501Y-53021555D01*
X80173005Y-53010180D01*
X80138446Y-52991708D01*
X80108153Y-52966847D01*
X80083292Y-52936554D01*
X80064820Y-52901995D01*
X80053445Y-52864499D01*
X80049000Y-52819362D01*
X80049000Y-52180638D01*
X80053445Y-52135501D01*
X80064820Y-52098005D01*
X80083292Y-52063446D01*
X80108153Y-52033153D01*
X80138446Y-52008292D01*
X80173005Y-51989820D01*
X80210501Y-51978445D01*
X80255638Y-51974000D01*
X80994362Y-51974000D01*
X81039499Y-51978445D01*
G37*
G36*
X66113512Y-49643927D02*
G01*
X66262812Y-49673624D01*
X66426784Y-49741544D01*
X66574354Y-49840147D01*
X66699853Y-49965646D01*
X66798456Y-50113216D01*
X66866376Y-50277188D01*
X66901000Y-50451259D01*
X66901000Y-50628741D01*
X66866376Y-50802812D01*
X66798456Y-50966784D01*
X66699853Y-51114354D01*
X66574354Y-51239853D01*
X66426784Y-51338456D01*
X66262812Y-51406376D01*
X66113512Y-51436073D01*
X66088742Y-51441000D01*
X65911258Y-51441000D01*
X65886488Y-51436073D01*
X65737188Y-51406376D01*
X65573216Y-51338456D01*
X65425646Y-51239853D01*
X65300147Y-51114354D01*
X65201544Y-50966784D01*
X65133624Y-50802812D01*
X65099000Y-50628741D01*
X65099000Y-50451259D01*
X65133624Y-50277188D01*
X65201544Y-50113216D01*
X65300147Y-49965646D01*
X65425646Y-49840147D01*
X65573216Y-49741544D01*
X65737188Y-49673624D01*
X65886488Y-49643927D01*
X65911258Y-49639000D01*
X66088742Y-49639000D01*
X66113512Y-49643927D01*
G37*
G36*
X90188674Y-49253465D02*
G01*
X90226367Y-49264899D01*
X90261103Y-49283466D01*
X90291548Y-49308452D01*
X90316534Y-49338897D01*
X90335101Y-49373633D01*
X90346535Y-49411326D01*
X90351000Y-49456661D01*
X90351000Y-50543339D01*
X90346535Y-50588674D01*
X90335101Y-50626367D01*
X90316534Y-50661103D01*
X90291548Y-50691548D01*
X90261103Y-50716534D01*
X90226367Y-50735101D01*
X90188674Y-50746535D01*
X90143339Y-50751000D01*
X89306661Y-50751000D01*
X89261326Y-50746535D01*
X89223633Y-50735101D01*
X89188897Y-50716534D01*
X89158452Y-50691548D01*
X89133466Y-50661103D01*
X89114899Y-50626367D01*
X89103465Y-50588674D01*
X89099000Y-50543339D01*
X89099000Y-49456661D01*
X89103465Y-49411326D01*
X89114899Y-49373633D01*
X89133466Y-49338897D01*
X89158452Y-49308452D01*
X89188897Y-49283466D01*
X89223633Y-49264899D01*
X89261326Y-49253465D01*
X89306661Y-49249000D01*
X90143339Y-49249000D01*
X90188674Y-49253465D01*
G37*
G36*
X92238674Y-49253465D02*
G01*
X92276367Y-49264899D01*
X92311103Y-49283466D01*
X92341548Y-49308452D01*
X92366534Y-49338897D01*
X92385101Y-49373633D01*
X92396535Y-49411326D01*
X92401000Y-49456661D01*
X92401000Y-50543339D01*
X92396535Y-50588674D01*
X92385101Y-50626367D01*
X92366534Y-50661103D01*
X92341548Y-50691548D01*
X92311103Y-50716534D01*
X92276367Y-50735101D01*
X92238674Y-50746535D01*
X92193339Y-50751000D01*
X91356661Y-50751000D01*
X91311326Y-50746535D01*
X91273633Y-50735101D01*
X91238897Y-50716534D01*
X91208452Y-50691548D01*
X91183466Y-50661103D01*
X91164899Y-50626367D01*
X91153465Y-50588674D01*
X91149000Y-50543339D01*
X91149000Y-49456661D01*
X91153465Y-49411326D01*
X91164899Y-49373633D01*
X91183466Y-49338897D01*
X91208452Y-49308452D01*
X91238897Y-49283466D01*
X91273633Y-49264899D01*
X91311326Y-49253465D01*
X91356661Y-49249000D01*
X92193339Y-49249000D01*
X92238674Y-49253465D01*
G37*
G36*
X82789499Y-49478445D02*
G01*
X82826995Y-49489820D01*
X82861554Y-49508292D01*
X82891847Y-49533153D01*
X82916708Y-49563446D01*
X82935180Y-49598005D01*
X82946555Y-49635501D01*
X82951000Y-49680638D01*
X82951000Y-50319362D01*
X82946555Y-50364499D01*
X82935180Y-50401995D01*
X82916708Y-50436554D01*
X82891847Y-50466847D01*
X82861554Y-50491708D01*
X82826995Y-50510180D01*
X82789499Y-50521555D01*
X82744362Y-50526000D01*
X82005638Y-50526000D01*
X81960501Y-50521555D01*
X81923005Y-50510180D01*
X81888446Y-50491708D01*
X81858153Y-50466847D01*
X81833292Y-50436554D01*
X81814820Y-50401995D01*
X81803445Y-50364499D01*
X81799000Y-50319362D01*
X81799000Y-49680638D01*
X81803445Y-49635501D01*
X81814820Y-49598005D01*
X81833292Y-49563446D01*
X81858153Y-49533153D01*
X81888446Y-49508292D01*
X81923005Y-49489820D01*
X81960501Y-49478445D01*
X82005638Y-49474000D01*
X82744362Y-49474000D01*
X82789499Y-49478445D01*
G37*
G36*
X81039499Y-49478445D02*
G01*
X81076995Y-49489820D01*
X81111554Y-49508292D01*
X81141847Y-49533153D01*
X81166708Y-49563446D01*
X81185180Y-49598005D01*
X81196555Y-49635501D01*
X81201000Y-49680638D01*
X81201000Y-50319362D01*
X81196555Y-50364499D01*
X81185180Y-50401995D01*
X81166708Y-50436554D01*
X81141847Y-50466847D01*
X81111554Y-50491708D01*
X81076995Y-50510180D01*
X81039499Y-50521555D01*
X80994362Y-50526000D01*
X80255638Y-50526000D01*
X80210501Y-50521555D01*
X80173005Y-50510180D01*
X80138446Y-50491708D01*
X80108153Y-50466847D01*
X80083292Y-50436554D01*
X80064820Y-50401995D01*
X80053445Y-50364499D01*
X80049000Y-50319362D01*
X80049000Y-49680638D01*
X80053445Y-49635501D01*
X80064820Y-49598005D01*
X80083292Y-49563446D01*
X80108153Y-49533153D01*
X80138446Y-49508292D01*
X80173005Y-49489820D01*
X80210501Y-49478445D01*
X80255638Y-49474000D01*
X80994362Y-49474000D01*
X81039499Y-49478445D01*
G37*
G36*
X66901000Y-48901000D02*
G01*
X65099000Y-48901000D01*
X65099000Y-47099000D01*
X66901000Y-47099000D01*
X66901000Y-48901000D01*
G37*
G36*
X76451000Y-48601000D02*
G01*
X72549000Y-48601000D01*
X72549000Y-46499000D01*
X76451000Y-46499000D01*
X76451000Y-48601000D01*
G37*
G36*
X92238674Y-46753465D02*
G01*
X92276367Y-46764899D01*
X92311103Y-46783466D01*
X92341548Y-46808452D01*
X92366534Y-46838897D01*
X92385101Y-46873633D01*
X92396535Y-46911326D01*
X92401000Y-46956661D01*
X92401000Y-48043339D01*
X92396535Y-48088674D01*
X92385101Y-48126367D01*
X92366534Y-48161103D01*
X92341548Y-48191548D01*
X92311103Y-48216534D01*
X92276367Y-48235101D01*
X92238674Y-48246535D01*
X92193339Y-48251000D01*
X91356661Y-48251000D01*
X91311326Y-48246535D01*
X91273633Y-48235101D01*
X91238897Y-48216534D01*
X91208452Y-48191548D01*
X91183466Y-48161103D01*
X91164899Y-48126367D01*
X91153465Y-48088674D01*
X91149000Y-48043339D01*
X91149000Y-46956661D01*
X91153465Y-46911326D01*
X91164899Y-46873633D01*
X91183466Y-46838897D01*
X91208452Y-46808452D01*
X91238897Y-46783466D01*
X91273633Y-46764899D01*
X91311326Y-46753465D01*
X91356661Y-46749000D01*
X92193339Y-46749000D01*
X92238674Y-46753465D01*
G37*
G36*
X90188674Y-46753465D02*
G01*
X90226367Y-46764899D01*
X90261103Y-46783466D01*
X90291548Y-46808452D01*
X90316534Y-46838897D01*
X90335101Y-46873633D01*
X90346535Y-46911326D01*
X90351000Y-46956661D01*
X90351000Y-48043339D01*
X90346535Y-48088674D01*
X90335101Y-48126367D01*
X90316534Y-48161103D01*
X90291548Y-48191548D01*
X90261103Y-48216534D01*
X90226367Y-48235101D01*
X90188674Y-48246535D01*
X90143339Y-48251000D01*
X89306661Y-48251000D01*
X89261326Y-48246535D01*
X89223633Y-48235101D01*
X89188897Y-48216534D01*
X89158452Y-48191548D01*
X89133466Y-48161103D01*
X89114899Y-48126367D01*
X89103465Y-48088674D01*
X89099000Y-48043339D01*
X89099000Y-46956661D01*
X89103465Y-46911326D01*
X89114899Y-46873633D01*
X89133466Y-46838897D01*
X89158452Y-46808452D01*
X89188897Y-46783466D01*
X89223633Y-46764899D01*
X89261326Y-46753465D01*
X89306661Y-46749000D01*
X90143339Y-46749000D01*
X90188674Y-46753465D01*
G37*
G36*
X82789499Y-46978445D02*
G01*
X82826995Y-46989820D01*
X82861554Y-47008292D01*
X82891847Y-47033153D01*
X82916708Y-47063446D01*
X82935180Y-47098005D01*
X82946555Y-47135501D01*
X82951000Y-47180638D01*
X82951000Y-47819362D01*
X82946555Y-47864499D01*
X82935180Y-47901995D01*
X82916708Y-47936554D01*
X82891847Y-47966847D01*
X82861554Y-47991708D01*
X82826995Y-48010180D01*
X82789499Y-48021555D01*
X82744362Y-48026000D01*
X82005638Y-48026000D01*
X81960501Y-48021555D01*
X81923005Y-48010180D01*
X81888446Y-47991708D01*
X81858153Y-47966847D01*
X81833292Y-47936554D01*
X81814820Y-47901995D01*
X81803445Y-47864499D01*
X81799000Y-47819362D01*
X81799000Y-47180638D01*
X81803445Y-47135501D01*
X81814820Y-47098005D01*
X81833292Y-47063446D01*
X81858153Y-47033153D01*
X81888446Y-47008292D01*
X81923005Y-46989820D01*
X81960501Y-46978445D01*
X82005638Y-46974000D01*
X82744362Y-46974000D01*
X82789499Y-46978445D01*
G37*
G36*
X81039499Y-46978445D02*
G01*
X81076995Y-46989820D01*
X81111554Y-47008292D01*
X81141847Y-47033153D01*
X81166708Y-47063446D01*
X81185180Y-47098005D01*
X81196555Y-47135501D01*
X81201000Y-47180638D01*
X81201000Y-47819362D01*
X81196555Y-47864499D01*
X81185180Y-47901995D01*
X81166708Y-47936554D01*
X81141847Y-47966847D01*
X81111554Y-47991708D01*
X81076995Y-48010180D01*
X81039499Y-48021555D01*
X80994362Y-48026000D01*
X80255638Y-48026000D01*
X80210501Y-48021555D01*
X80173005Y-48010180D01*
X80138446Y-47991708D01*
X80108153Y-47966847D01*
X80083292Y-47936554D01*
X80064820Y-47901995D01*
X80053445Y-47864499D01*
X80049000Y-47819362D01*
X80049000Y-47180638D01*
X80053445Y-47135501D01*
X80064820Y-47098005D01*
X80083292Y-47063446D01*
X80108153Y-47033153D01*
X80138446Y-47008292D01*
X80173005Y-46989820D01*
X80210501Y-46978445D01*
X80255638Y-46974000D01*
X80994362Y-46974000D01*
X81039499Y-46978445D01*
G37*
M02*
