G04 #@! TF.GenerationSoftware,KiCad,Pcbnew,5.1.5*
G04 #@! TF.CreationDate,2020-05-30T17:31:02+02:00*
G04 #@! TF.ProjectId,lichtenprog,6c696368-7465-46e7-9072-6f672e6b6963,rev?*
G04 #@! TF.SameCoordinates,Original*
G04 #@! TF.FileFunction,Soldermask,Bot*
G04 #@! TF.FilePolarity,Negative*
%FSLAX46Y46*%
G04 Gerber Fmt 4.6, Leading zero omitted, Abs format (unit mm)*
G04 Created by KiCad (PCBNEW 5.1.5) date 2020-05-30 17:31:02*
%MOMM*%
%LPD*%
G04 APERTURE LIST*
%ADD10C,0.100000*%
G04 APERTURE END LIST*
D10*
G36*
X68397740Y-73758627D02*
G01*
X68446136Y-73768253D01*
X68483902Y-73783896D01*
X68537311Y-73806019D01*
X68537312Y-73806020D01*
X68619369Y-73860848D01*
X68689152Y-73930631D01*
X68689153Y-73930633D01*
X68743981Y-74012689D01*
X68781747Y-74103865D01*
X68801000Y-74200655D01*
X68801000Y-74299345D01*
X68781747Y-74396135D01*
X68743981Y-74487311D01*
X68743980Y-74487312D01*
X68689152Y-74569369D01*
X68619369Y-74639152D01*
X68578062Y-74666752D01*
X68537311Y-74693981D01*
X68483902Y-74716104D01*
X68446136Y-74731747D01*
X68397740Y-74741374D01*
X68349345Y-74751000D01*
X68250655Y-74751000D01*
X68202260Y-74741374D01*
X68153864Y-74731747D01*
X68116098Y-74716104D01*
X68062689Y-74693981D01*
X68021938Y-74666752D01*
X67980631Y-74639152D01*
X67910848Y-74569369D01*
X67856020Y-74487312D01*
X67856019Y-74487311D01*
X67818253Y-74396135D01*
X67799000Y-74299345D01*
X67799000Y-74200655D01*
X67818253Y-74103865D01*
X67856019Y-74012689D01*
X67910847Y-73930633D01*
X67910848Y-73930631D01*
X67980631Y-73860848D01*
X68062688Y-73806020D01*
X68062689Y-73806019D01*
X68116098Y-73783896D01*
X68153864Y-73768253D01*
X68202260Y-73758627D01*
X68250655Y-73749000D01*
X68349345Y-73749000D01*
X68397740Y-73758627D01*
G37*
G36*
X72797740Y-73758627D02*
G01*
X72846136Y-73768253D01*
X72883902Y-73783896D01*
X72937311Y-73806019D01*
X72937312Y-73806020D01*
X73019369Y-73860848D01*
X73089152Y-73930631D01*
X73089153Y-73930633D01*
X73143981Y-74012689D01*
X73181747Y-74103865D01*
X73201000Y-74200655D01*
X73201000Y-74299345D01*
X73181747Y-74396135D01*
X73143981Y-74487311D01*
X73143980Y-74487312D01*
X73089152Y-74569369D01*
X73019369Y-74639152D01*
X72978062Y-74666752D01*
X72937311Y-74693981D01*
X72883902Y-74716104D01*
X72846136Y-74731747D01*
X72797740Y-74741374D01*
X72749345Y-74751000D01*
X72650655Y-74751000D01*
X72602260Y-74741374D01*
X72553864Y-74731747D01*
X72516098Y-74716104D01*
X72462689Y-74693981D01*
X72421938Y-74666752D01*
X72380631Y-74639152D01*
X72310848Y-74569369D01*
X72256020Y-74487312D01*
X72256019Y-74487311D01*
X72218253Y-74396135D01*
X72199000Y-74299345D01*
X72199000Y-74200655D01*
X72218253Y-74103865D01*
X72256019Y-74012689D01*
X72310847Y-73930633D01*
X72310848Y-73930631D01*
X72380631Y-73860848D01*
X72462688Y-73806020D01*
X72462689Y-73806019D01*
X72516098Y-73783896D01*
X72553864Y-73768253D01*
X72602260Y-73758627D01*
X72650655Y-73749000D01*
X72749345Y-73749000D01*
X72797740Y-73758627D01*
G37*
G36*
X66113512Y-64883927D02*
G01*
X66262812Y-64913624D01*
X66426784Y-64981544D01*
X66574354Y-65080147D01*
X66699853Y-65205646D01*
X66798456Y-65353216D01*
X66866376Y-65517188D01*
X66901000Y-65691259D01*
X66901000Y-65868741D01*
X66866376Y-66042812D01*
X66798456Y-66206784D01*
X66699853Y-66354354D01*
X66574354Y-66479853D01*
X66426784Y-66578456D01*
X66262812Y-66646376D01*
X66113512Y-66676073D01*
X66088742Y-66681000D01*
X65911258Y-66681000D01*
X65886488Y-66676073D01*
X65737188Y-66646376D01*
X65573216Y-66578456D01*
X65425646Y-66479853D01*
X65300147Y-66354354D01*
X65201544Y-66206784D01*
X65133624Y-66042812D01*
X65099000Y-65868741D01*
X65099000Y-65691259D01*
X65133624Y-65517188D01*
X65201544Y-65353216D01*
X65300147Y-65205646D01*
X65425646Y-65080147D01*
X65573216Y-64981544D01*
X65737188Y-64913624D01*
X65886488Y-64883927D01*
X65911258Y-64879000D01*
X66088742Y-64879000D01*
X66113512Y-64883927D01*
G37*
G36*
X66113512Y-62343927D02*
G01*
X66262812Y-62373624D01*
X66426784Y-62441544D01*
X66574354Y-62540147D01*
X66699853Y-62665646D01*
X66798456Y-62813216D01*
X66866376Y-62977188D01*
X66901000Y-63151259D01*
X66901000Y-63328741D01*
X66866376Y-63502812D01*
X66798456Y-63666784D01*
X66699853Y-63814354D01*
X66574354Y-63939853D01*
X66426784Y-64038456D01*
X66262812Y-64106376D01*
X66113512Y-64136073D01*
X66088742Y-64141000D01*
X65911258Y-64141000D01*
X65886488Y-64136073D01*
X65737188Y-64106376D01*
X65573216Y-64038456D01*
X65425646Y-63939853D01*
X65300147Y-63814354D01*
X65201544Y-63666784D01*
X65133624Y-63502812D01*
X65099000Y-63328741D01*
X65099000Y-63151259D01*
X65133624Y-62977188D01*
X65201544Y-62813216D01*
X65300147Y-62665646D01*
X65425646Y-62540147D01*
X65573216Y-62441544D01*
X65737188Y-62373624D01*
X65886488Y-62343927D01*
X65911258Y-62339000D01*
X66088742Y-62339000D01*
X66113512Y-62343927D01*
G37*
G36*
X66113512Y-59803927D02*
G01*
X66262812Y-59833624D01*
X66426784Y-59901544D01*
X66574354Y-60000147D01*
X66699853Y-60125646D01*
X66798456Y-60273216D01*
X66866376Y-60437188D01*
X66901000Y-60611259D01*
X66901000Y-60788741D01*
X66866376Y-60962812D01*
X66798456Y-61126784D01*
X66699853Y-61274354D01*
X66574354Y-61399853D01*
X66426784Y-61498456D01*
X66262812Y-61566376D01*
X66113512Y-61596073D01*
X66088742Y-61601000D01*
X65911258Y-61601000D01*
X65886488Y-61596073D01*
X65737188Y-61566376D01*
X65573216Y-61498456D01*
X65425646Y-61399853D01*
X65300147Y-61274354D01*
X65201544Y-61126784D01*
X65133624Y-60962812D01*
X65099000Y-60788741D01*
X65099000Y-60611259D01*
X65133624Y-60437188D01*
X65201544Y-60273216D01*
X65300147Y-60125646D01*
X65425646Y-60000147D01*
X65573216Y-59901544D01*
X65737188Y-59833624D01*
X65886488Y-59803927D01*
X65911258Y-59799000D01*
X66088742Y-59799000D01*
X66113512Y-59803927D01*
G37*
G36*
X66113512Y-57263927D02*
G01*
X66262812Y-57293624D01*
X66426784Y-57361544D01*
X66574354Y-57460147D01*
X66699853Y-57585646D01*
X66798456Y-57733216D01*
X66866376Y-57897188D01*
X66901000Y-58071259D01*
X66901000Y-58248741D01*
X66866376Y-58422812D01*
X66798456Y-58586784D01*
X66699853Y-58734354D01*
X66574354Y-58859853D01*
X66426784Y-58958456D01*
X66262812Y-59026376D01*
X66113512Y-59056073D01*
X66088742Y-59061000D01*
X65911258Y-59061000D01*
X65886488Y-59056073D01*
X65737188Y-59026376D01*
X65573216Y-58958456D01*
X65425646Y-58859853D01*
X65300147Y-58734354D01*
X65201544Y-58586784D01*
X65133624Y-58422812D01*
X65099000Y-58248741D01*
X65099000Y-58071259D01*
X65133624Y-57897188D01*
X65201544Y-57733216D01*
X65300147Y-57585646D01*
X65425646Y-57460147D01*
X65573216Y-57361544D01*
X65737188Y-57293624D01*
X65886488Y-57263927D01*
X65911258Y-57259000D01*
X66088742Y-57259000D01*
X66113512Y-57263927D01*
G37*
G36*
X66113512Y-54723927D02*
G01*
X66262812Y-54753624D01*
X66426784Y-54821544D01*
X66574354Y-54920147D01*
X66699853Y-55045646D01*
X66798456Y-55193216D01*
X66866376Y-55357188D01*
X66901000Y-55531259D01*
X66901000Y-55708741D01*
X66866376Y-55882812D01*
X66798456Y-56046784D01*
X66699853Y-56194354D01*
X66574354Y-56319853D01*
X66426784Y-56418456D01*
X66262812Y-56486376D01*
X66113512Y-56516073D01*
X66088742Y-56521000D01*
X65911258Y-56521000D01*
X65886488Y-56516073D01*
X65737188Y-56486376D01*
X65573216Y-56418456D01*
X65425646Y-56319853D01*
X65300147Y-56194354D01*
X65201544Y-56046784D01*
X65133624Y-55882812D01*
X65099000Y-55708741D01*
X65099000Y-55531259D01*
X65133624Y-55357188D01*
X65201544Y-55193216D01*
X65300147Y-55045646D01*
X65425646Y-54920147D01*
X65573216Y-54821544D01*
X65737188Y-54753624D01*
X65886488Y-54723927D01*
X65911258Y-54719000D01*
X66088742Y-54719000D01*
X66113512Y-54723927D01*
G37*
G36*
X66113512Y-52183927D02*
G01*
X66262812Y-52213624D01*
X66426784Y-52281544D01*
X66574354Y-52380147D01*
X66699853Y-52505646D01*
X66798456Y-52653216D01*
X66866376Y-52817188D01*
X66901000Y-52991259D01*
X66901000Y-53168741D01*
X66866376Y-53342812D01*
X66798456Y-53506784D01*
X66699853Y-53654354D01*
X66574354Y-53779853D01*
X66426784Y-53878456D01*
X66262812Y-53946376D01*
X66113512Y-53976073D01*
X66088742Y-53981000D01*
X65911258Y-53981000D01*
X65886488Y-53976073D01*
X65737188Y-53946376D01*
X65573216Y-53878456D01*
X65425646Y-53779853D01*
X65300147Y-53654354D01*
X65201544Y-53506784D01*
X65133624Y-53342812D01*
X65099000Y-53168741D01*
X65099000Y-52991259D01*
X65133624Y-52817188D01*
X65201544Y-52653216D01*
X65300147Y-52505646D01*
X65425646Y-52380147D01*
X65573216Y-52281544D01*
X65737188Y-52213624D01*
X65886488Y-52183927D01*
X65911258Y-52179000D01*
X66088742Y-52179000D01*
X66113512Y-52183927D01*
G37*
G36*
X66113512Y-49643927D02*
G01*
X66262812Y-49673624D01*
X66426784Y-49741544D01*
X66574354Y-49840147D01*
X66699853Y-49965646D01*
X66798456Y-50113216D01*
X66866376Y-50277188D01*
X66901000Y-50451259D01*
X66901000Y-50628741D01*
X66866376Y-50802812D01*
X66798456Y-50966784D01*
X66699853Y-51114354D01*
X66574354Y-51239853D01*
X66426784Y-51338456D01*
X66262812Y-51406376D01*
X66113512Y-51436073D01*
X66088742Y-51441000D01*
X65911258Y-51441000D01*
X65886488Y-51436073D01*
X65737188Y-51406376D01*
X65573216Y-51338456D01*
X65425646Y-51239853D01*
X65300147Y-51114354D01*
X65201544Y-50966784D01*
X65133624Y-50802812D01*
X65099000Y-50628741D01*
X65099000Y-50451259D01*
X65133624Y-50277188D01*
X65201544Y-50113216D01*
X65300147Y-49965646D01*
X65425646Y-49840147D01*
X65573216Y-49741544D01*
X65737188Y-49673624D01*
X65886488Y-49643927D01*
X65911258Y-49639000D01*
X66088742Y-49639000D01*
X66113512Y-49643927D01*
G37*
G36*
X66901000Y-48901000D02*
G01*
X65099000Y-48901000D01*
X65099000Y-47099000D01*
X66901000Y-47099000D01*
X66901000Y-48901000D01*
G37*
M02*
