G04 #@! TF.GenerationSoftware,KiCad,Pcbnew,5.1.5*
G04 #@! TF.CreationDate,2020-05-30T17:31:02+02:00*
G04 #@! TF.ProjectId,lichtenprog,6c696368-7465-46e7-9072-6f672e6b6963,rev?*
G04 #@! TF.SameCoordinates,Original*
G04 #@! TF.FileFunction,Copper,L2,Bot*
G04 #@! TF.FilePolarity,Positive*
%FSLAX46Y46*%
G04 Gerber Fmt 4.6, Leading zero omitted, Abs format (unit mm)*
G04 Created by KiCad (PCBNEW 5.1.5) date 2020-05-30 17:31:02*
%MOMM*%
%LPD*%
G04 APERTURE LIST*
%ADD10O,1.700000X1.700000*%
%ADD11R,1.700000X1.700000*%
%ADD12C,0.800000*%
%ADD13C,0.500000*%
%ADD14C,0.250000*%
%ADD15C,0.254000*%
G04 APERTURE END LIST*
D10*
X66000000Y-65780000D03*
X66000000Y-63240000D03*
X66000000Y-60700000D03*
X66000000Y-58160000D03*
X66000000Y-55620000D03*
X66000000Y-53080000D03*
X66000000Y-50540000D03*
D11*
X66000000Y-48000000D03*
D12*
X89000000Y-74500000D03*
X87700000Y-69700000D03*
X73300000Y-66200000D03*
X72300000Y-69700000D03*
X71300000Y-74100000D03*
X78200000Y-57400000D03*
X71100000Y-57400000D03*
X90750000Y-53750000D03*
X74900000Y-74300000D03*
X82400000Y-67500000D03*
X78500000Y-67500000D03*
X77500000Y-69800000D03*
X83600000Y-65300000D03*
X68500000Y-69000000D03*
X74380000Y-62500000D03*
X74250000Y-68500000D03*
X75750000Y-69750000D03*
X87750000Y-74500000D03*
X80300000Y-76200000D03*
X83741957Y-74726514D03*
X78250000Y-75000000D03*
X78300000Y-61100000D03*
X76900000Y-65200000D03*
X74200000Y-57600000D03*
X72250000Y-68500000D03*
X72250000Y-67000000D03*
X69984677Y-63877238D03*
X69944128Y-61749564D03*
X80000000Y-70000000D03*
X78500000Y-71750000D03*
X81500000Y-71750000D03*
X76800000Y-57500000D03*
X75600000Y-57500000D03*
X83900000Y-71100000D03*
X83500000Y-56700000D03*
X91100000Y-65600000D03*
X88400000Y-59300000D03*
X85200000Y-79000000D03*
X90300000Y-70100000D03*
X86200000Y-74800000D03*
X85500000Y-69700000D03*
X90800000Y-78900000D03*
X90900000Y-74500000D03*
D13*
X89000000Y-71000000D02*
X89000000Y-74500000D01*
X87700000Y-69700000D02*
X89000000Y-71000000D01*
X76200000Y-77700000D02*
X77800000Y-76100000D01*
X68500000Y-77700000D02*
X76200000Y-77700000D01*
X66000000Y-65780000D02*
X66000000Y-75200000D01*
X66000000Y-75200000D02*
X68500000Y-77700000D01*
X80200000Y-76100000D02*
X80300000Y-76200000D01*
X77800000Y-76100000D02*
X80200000Y-76100000D01*
X83741957Y-74726514D02*
X83741957Y-75141957D01*
X84600000Y-76000000D02*
X86800000Y-76000000D01*
X83741957Y-75141957D02*
X84600000Y-76000000D01*
X87750000Y-75050000D02*
X87750000Y-74500000D01*
X86800000Y-76000000D02*
X87750000Y-75050000D01*
X77800000Y-75450000D02*
X78250000Y-75000000D01*
X77800000Y-76100000D02*
X77800000Y-75450000D01*
X77600000Y-61800000D02*
X78300000Y-61100000D01*
X76900000Y-61800000D02*
X77600000Y-61800000D01*
X76900000Y-65200000D02*
X76900000Y-62900000D01*
X76900000Y-62900000D02*
X76900000Y-61800000D01*
X76900000Y-60717456D02*
X76900000Y-61800000D01*
X74200000Y-57600000D02*
X74200000Y-58017456D01*
X74200000Y-58017456D02*
X76900000Y-60717456D01*
D14*
X72250000Y-68500000D02*
X72250000Y-67000000D01*
X69944128Y-61749564D02*
X69984677Y-61790113D01*
X69984677Y-61790113D02*
X69984677Y-63877238D01*
D13*
X80000000Y-61000000D02*
X80000000Y-70000000D01*
X76800000Y-57800000D02*
X80000000Y-61000000D01*
X76800000Y-57500000D02*
X76800000Y-57800000D01*
X75600000Y-57500000D02*
X76800000Y-57500000D01*
D14*
X81500000Y-58700000D02*
X83500000Y-56700000D01*
X83900000Y-71100000D02*
X81500000Y-68700000D01*
X81500000Y-68700000D02*
X81500000Y-58700000D01*
X91100000Y-65600000D02*
X91000000Y-65500000D01*
X91000000Y-65500000D02*
X91000000Y-59900000D01*
X91000000Y-59900000D02*
X90400000Y-59300000D01*
X90400000Y-59300000D02*
X88400000Y-59300000D01*
X90300000Y-70100000D02*
X89800000Y-70600000D01*
X89800000Y-70600000D02*
X89800000Y-76100000D01*
X86900000Y-79000000D02*
X85200000Y-79000000D01*
X89800000Y-76100000D02*
X86900000Y-79000000D01*
X86200000Y-70400000D02*
X86200000Y-74800000D01*
X85500000Y-69700000D02*
X86200000Y-70400000D01*
X90900000Y-78800000D02*
X90800000Y-78900000D01*
X90900000Y-74500000D02*
X90900000Y-78800000D01*
D15*
G36*
X92648001Y-79648000D02*
G01*
X85535332Y-79648000D01*
X85544364Y-79644259D01*
X85663436Y-79564698D01*
X85764698Y-79463436D01*
X85772339Y-79452000D01*
X86877795Y-79452000D01*
X86900000Y-79454187D01*
X86922205Y-79452000D01*
X86988607Y-79445460D01*
X87073810Y-79419614D01*
X87152333Y-79377643D01*
X87221159Y-79321159D01*
X87235323Y-79303900D01*
X90103911Y-76435314D01*
X90121159Y-76421159D01*
X90177643Y-76352333D01*
X90219614Y-76273810D01*
X90245460Y-76188607D01*
X90252000Y-76122205D01*
X90254187Y-76100001D01*
X90252000Y-76077796D01*
X90252000Y-74835332D01*
X90255741Y-74844364D01*
X90335302Y-74963436D01*
X90436564Y-75064698D01*
X90448000Y-75072339D01*
X90448001Y-78260843D01*
X90336564Y-78335302D01*
X90235302Y-78436564D01*
X90155741Y-78555636D01*
X90100938Y-78687942D01*
X90073000Y-78828397D01*
X90073000Y-78971603D01*
X90100938Y-79112058D01*
X90155741Y-79244364D01*
X90235302Y-79363436D01*
X90336564Y-79464698D01*
X90455636Y-79544259D01*
X90587942Y-79599062D01*
X90728397Y-79627000D01*
X90871603Y-79627000D01*
X91012058Y-79599062D01*
X91144364Y-79544259D01*
X91263436Y-79464698D01*
X91364698Y-79363436D01*
X91444259Y-79244364D01*
X91499062Y-79112058D01*
X91527000Y-78971603D01*
X91527000Y-78828397D01*
X91499062Y-78687942D01*
X91444259Y-78555636D01*
X91364698Y-78436564D01*
X91352000Y-78423866D01*
X91352000Y-75072339D01*
X91363436Y-75064698D01*
X91464698Y-74963436D01*
X91544259Y-74844364D01*
X91599062Y-74712058D01*
X91627000Y-74571603D01*
X91627000Y-74428397D01*
X91599062Y-74287942D01*
X91544259Y-74155636D01*
X91464698Y-74036564D01*
X91363436Y-73935302D01*
X91244364Y-73855741D01*
X91112058Y-73800938D01*
X90971603Y-73773000D01*
X90828397Y-73773000D01*
X90687942Y-73800938D01*
X90555636Y-73855741D01*
X90436564Y-73935302D01*
X90335302Y-74036564D01*
X90255741Y-74155636D01*
X90252000Y-74164668D01*
X90252000Y-70827000D01*
X90371603Y-70827000D01*
X90512058Y-70799062D01*
X90644364Y-70744259D01*
X90763436Y-70664698D01*
X90864698Y-70563436D01*
X90944259Y-70444364D01*
X90999062Y-70312058D01*
X91027000Y-70171603D01*
X91027000Y-70028397D01*
X90999062Y-69887942D01*
X90944259Y-69755636D01*
X90864698Y-69636564D01*
X90763436Y-69535302D01*
X90644364Y-69455741D01*
X90512058Y-69400938D01*
X90371603Y-69373000D01*
X90228397Y-69373000D01*
X90087942Y-69400938D01*
X89955636Y-69455741D01*
X89836564Y-69535302D01*
X89735302Y-69636564D01*
X89655741Y-69755636D01*
X89600938Y-69887942D01*
X89573000Y-70028397D01*
X89573000Y-70171603D01*
X89575683Y-70185093D01*
X89496100Y-70264677D01*
X89478841Y-70278841D01*
X89422357Y-70347668D01*
X89394887Y-70399062D01*
X89380386Y-70426191D01*
X89354540Y-70511393D01*
X89345813Y-70600000D01*
X89348000Y-70622205D01*
X89348001Y-75912774D01*
X86712777Y-78548000D01*
X85772339Y-78548000D01*
X85764698Y-78536564D01*
X85663436Y-78435302D01*
X85544364Y-78355741D01*
X85412058Y-78300938D01*
X85271603Y-78273000D01*
X85128397Y-78273000D01*
X84987942Y-78300938D01*
X84855636Y-78355741D01*
X84736564Y-78435302D01*
X84635302Y-78536564D01*
X84555741Y-78655636D01*
X84500938Y-78787942D01*
X84473000Y-78928397D01*
X84473000Y-79071603D01*
X84500938Y-79212058D01*
X84555741Y-79344364D01*
X84635302Y-79463436D01*
X84736564Y-79564698D01*
X84855636Y-79644259D01*
X84864668Y-79648000D01*
X81827000Y-79648000D01*
X81827000Y-76000000D01*
X81820717Y-75936205D01*
X81802109Y-75874863D01*
X81771891Y-75818329D01*
X81731224Y-75768776D01*
X80731224Y-74768776D01*
X80681671Y-74728109D01*
X80625137Y-74697891D01*
X80563795Y-74679283D01*
X80500000Y-74673000D01*
X78901451Y-74673000D01*
X78894259Y-74655636D01*
X78893775Y-74654911D01*
X83014957Y-74654911D01*
X83014957Y-74798117D01*
X83042895Y-74938572D01*
X83097698Y-75070878D01*
X83165101Y-75171755D01*
X83173306Y-75255068D01*
X83184271Y-75291212D01*
X83206300Y-75363833D01*
X83259879Y-75464072D01*
X83288595Y-75499062D01*
X83313920Y-75529921D01*
X83313923Y-75529924D01*
X83331984Y-75551931D01*
X83353990Y-75569991D01*
X84171965Y-76387967D01*
X84190026Y-76409974D01*
X84212033Y-76428035D01*
X84212035Y-76428037D01*
X84231980Y-76444405D01*
X84277885Y-76482079D01*
X84378124Y-76535657D01*
X84486888Y-76568650D01*
X84571664Y-76577000D01*
X84571670Y-76577000D01*
X84599999Y-76579790D01*
X84628328Y-76577000D01*
X86771669Y-76577000D01*
X86800000Y-76579790D01*
X86828331Y-76577000D01*
X86828336Y-76577000D01*
X86858045Y-76574074D01*
X86913111Y-76568651D01*
X86960790Y-76554187D01*
X87021876Y-76535657D01*
X87122115Y-76482079D01*
X87209974Y-76409974D01*
X87228039Y-76387962D01*
X88137963Y-75478038D01*
X88159974Y-75459974D01*
X88232079Y-75372115D01*
X88285657Y-75271876D01*
X88300824Y-75221877D01*
X88318651Y-75163112D01*
X88324363Y-75105114D01*
X88327000Y-75078336D01*
X88327000Y-75078331D01*
X88329790Y-75050000D01*
X88327000Y-75021669D01*
X88327000Y-74945025D01*
X88394259Y-74844364D01*
X88449062Y-74712058D01*
X88477000Y-74571603D01*
X88477000Y-74428397D01*
X88449062Y-74287942D01*
X88394259Y-74155636D01*
X88314698Y-74036564D01*
X88213436Y-73935302D01*
X88094364Y-73855741D01*
X87962058Y-73800938D01*
X87821603Y-73773000D01*
X87678397Y-73773000D01*
X87537942Y-73800938D01*
X87405636Y-73855741D01*
X87286564Y-73935302D01*
X87185302Y-74036564D01*
X87105741Y-74155636D01*
X87050938Y-74287942D01*
X87023000Y-74428397D01*
X87023000Y-74571603D01*
X87050938Y-74712058D01*
X87105741Y-74844364D01*
X87119317Y-74864682D01*
X86847529Y-75136470D01*
X86899062Y-75012058D01*
X86927000Y-74871603D01*
X86927000Y-74728397D01*
X86899062Y-74587942D01*
X86844259Y-74455636D01*
X86764698Y-74336564D01*
X86663436Y-74235302D01*
X86652000Y-74227661D01*
X86652000Y-70422202D01*
X86654187Y-70399999D01*
X86649492Y-70352334D01*
X86645460Y-70311393D01*
X86619614Y-70226190D01*
X86577643Y-70147667D01*
X86521159Y-70078841D01*
X86503911Y-70064686D01*
X86224317Y-69785093D01*
X86227000Y-69771603D01*
X86227000Y-69628397D01*
X86199062Y-69487942D01*
X86144259Y-69355636D01*
X86064698Y-69236564D01*
X85963436Y-69135302D01*
X85844364Y-69055741D01*
X85712058Y-69000938D01*
X85571603Y-68973000D01*
X85428397Y-68973000D01*
X85287942Y-69000938D01*
X85155636Y-69055741D01*
X85036564Y-69135302D01*
X84935302Y-69236564D01*
X84855741Y-69355636D01*
X84800938Y-69487942D01*
X84773000Y-69628397D01*
X84773000Y-69771603D01*
X84800938Y-69912058D01*
X84855741Y-70044364D01*
X84935302Y-70163436D01*
X85036564Y-70264698D01*
X85155636Y-70344259D01*
X85287942Y-70399062D01*
X85428397Y-70427000D01*
X85571603Y-70427000D01*
X85585093Y-70424317D01*
X85748000Y-70587225D01*
X85748001Y-74227660D01*
X85736564Y-74235302D01*
X85635302Y-74336564D01*
X85555741Y-74455636D01*
X85500938Y-74587942D01*
X85473000Y-74728397D01*
X85473000Y-74871603D01*
X85500938Y-75012058D01*
X85555741Y-75144364D01*
X85635302Y-75263436D01*
X85736564Y-75364698D01*
X85823820Y-75423000D01*
X84839002Y-75423000D01*
X84415700Y-74999698D01*
X84441019Y-74938572D01*
X84468957Y-74798117D01*
X84468957Y-74654911D01*
X84441019Y-74514456D01*
X84386216Y-74382150D01*
X84306655Y-74263078D01*
X84205393Y-74161816D01*
X84086321Y-74082255D01*
X83954015Y-74027452D01*
X83813560Y-73999514D01*
X83670354Y-73999514D01*
X83529899Y-74027452D01*
X83397593Y-74082255D01*
X83278521Y-74161816D01*
X83177259Y-74263078D01*
X83097698Y-74382150D01*
X83042895Y-74514456D01*
X83014957Y-74654911D01*
X78893775Y-74654911D01*
X78814698Y-74536564D01*
X78713436Y-74435302D01*
X78594364Y-74355741D01*
X78462058Y-74300938D01*
X78321603Y-74273000D01*
X78178397Y-74273000D01*
X78037942Y-74300938D01*
X77905636Y-74355741D01*
X77786564Y-74435302D01*
X77685302Y-74536564D01*
X77605741Y-74655636D01*
X77598549Y-74673000D01*
X73351851Y-74673000D01*
X73388569Y-74618048D01*
X73447141Y-74476643D01*
X73477000Y-74326528D01*
X73477000Y-74173472D01*
X73447141Y-74023357D01*
X73388569Y-73881952D01*
X73303536Y-73754691D01*
X73195309Y-73646464D01*
X73068048Y-73561431D01*
X72926643Y-73502859D01*
X72776528Y-73473000D01*
X72623472Y-73473000D01*
X72473357Y-73502859D01*
X72331952Y-73561431D01*
X72204691Y-73646464D01*
X72096464Y-73754691D01*
X72011431Y-73881952D01*
X71952859Y-74023357D01*
X71923000Y-74173472D01*
X71923000Y-74326528D01*
X71952859Y-74476643D01*
X72011431Y-74618048D01*
X72048149Y-74673000D01*
X69635448Y-74673000D01*
X69062370Y-74099922D01*
X69047141Y-74023357D01*
X68988569Y-73881952D01*
X68903536Y-73754691D01*
X68795309Y-73646464D01*
X68668048Y-73561431D01*
X68526643Y-73502859D01*
X68450078Y-73487630D01*
X68327000Y-73364552D01*
X68327000Y-66928397D01*
X71523000Y-66928397D01*
X71523000Y-67071603D01*
X71550938Y-67212058D01*
X71605741Y-67344364D01*
X71685302Y-67463436D01*
X71786564Y-67564698D01*
X71798001Y-67572340D01*
X71798000Y-67927660D01*
X71786564Y-67935302D01*
X71685302Y-68036564D01*
X71605741Y-68155636D01*
X71550938Y-68287942D01*
X71523000Y-68428397D01*
X71523000Y-68571603D01*
X71550938Y-68712058D01*
X71605741Y-68844364D01*
X71685302Y-68963436D01*
X71786564Y-69064698D01*
X71905636Y-69144259D01*
X72037942Y-69199062D01*
X72178397Y-69227000D01*
X72321603Y-69227000D01*
X72462058Y-69199062D01*
X72594364Y-69144259D01*
X72713436Y-69064698D01*
X72814698Y-68963436D01*
X72894259Y-68844364D01*
X72949062Y-68712058D01*
X72977000Y-68571603D01*
X72977000Y-68428397D01*
X72949062Y-68287942D01*
X72894259Y-68155636D01*
X72814698Y-68036564D01*
X72713436Y-67935302D01*
X72702000Y-67927661D01*
X72702000Y-67572339D01*
X72713436Y-67564698D01*
X72814698Y-67463436D01*
X72894259Y-67344364D01*
X72949062Y-67212058D01*
X72977000Y-67071603D01*
X72977000Y-66928397D01*
X72949062Y-66787942D01*
X72894259Y-66655636D01*
X72814698Y-66536564D01*
X72713436Y-66435302D01*
X72594364Y-66355741D01*
X72462058Y-66300938D01*
X72321603Y-66273000D01*
X72178397Y-66273000D01*
X72037942Y-66300938D01*
X71905636Y-66355741D01*
X71786564Y-66435302D01*
X71685302Y-66536564D01*
X71605741Y-66655636D01*
X71550938Y-66787942D01*
X71523000Y-66928397D01*
X68327000Y-66928397D01*
X68327000Y-65500000D01*
X68320717Y-65436205D01*
X68302109Y-65374863D01*
X68271891Y-65318329D01*
X68231224Y-65268776D01*
X67231224Y-64268776D01*
X67181671Y-64228109D01*
X67125137Y-64197891D01*
X67063795Y-64179283D01*
X67000000Y-64173000D01*
X66717039Y-64173000D01*
X66719679Y-64171346D01*
X66887547Y-64013048D01*
X67021307Y-63825042D01*
X67115819Y-63614553D01*
X67135855Y-63548485D01*
X67087862Y-63367000D01*
X66127000Y-63367000D01*
X66127000Y-63387000D01*
X65873000Y-63387000D01*
X65873000Y-63367000D01*
X64912138Y-63367000D01*
X64864145Y-63548485D01*
X64884181Y-63614553D01*
X64978693Y-63825042D01*
X65112453Y-64013048D01*
X65280321Y-64171346D01*
X65282961Y-64173000D01*
X65000000Y-64173000D01*
X64936205Y-64179283D01*
X64874863Y-64197891D01*
X64818329Y-64228109D01*
X64768776Y-64268776D01*
X64352000Y-64685552D01*
X64352000Y-62931515D01*
X64864145Y-62931515D01*
X64912138Y-63113000D01*
X65873000Y-63113000D01*
X65873000Y-62151616D01*
X66127000Y-62151616D01*
X66127000Y-63113000D01*
X67087862Y-63113000D01*
X67135855Y-62931515D01*
X67115819Y-62865447D01*
X67021307Y-62654958D01*
X66887547Y-62466952D01*
X66719679Y-62308654D01*
X66524154Y-62186147D01*
X66308486Y-62104139D01*
X66127000Y-62151616D01*
X65873000Y-62151616D01*
X65691514Y-62104139D01*
X65475846Y-62186147D01*
X65280321Y-62308654D01*
X65112453Y-62466952D01*
X64978693Y-62654958D01*
X64884181Y-62865447D01*
X64864145Y-62931515D01*
X64352000Y-62931515D01*
X64352000Y-61008485D01*
X64864145Y-61008485D01*
X64884181Y-61074553D01*
X64978693Y-61285042D01*
X65112453Y-61473048D01*
X65280321Y-61631346D01*
X65475846Y-61753853D01*
X65691514Y-61835861D01*
X65873000Y-61788384D01*
X65873000Y-60827000D01*
X66127000Y-60827000D01*
X66127000Y-61788384D01*
X66308486Y-61835861D01*
X66524154Y-61753853D01*
X66645280Y-61677961D01*
X69217128Y-61677961D01*
X69217128Y-61821167D01*
X69245066Y-61961622D01*
X69299869Y-62093928D01*
X69379430Y-62213000D01*
X69480692Y-62314262D01*
X69532677Y-62348997D01*
X69532678Y-63304898D01*
X69521241Y-63312540D01*
X69419979Y-63413802D01*
X69340418Y-63532874D01*
X69285615Y-63665180D01*
X69257677Y-63805635D01*
X69257677Y-63948841D01*
X69285615Y-64089296D01*
X69340418Y-64221602D01*
X69419979Y-64340674D01*
X69521241Y-64441936D01*
X69640313Y-64521497D01*
X69772619Y-64576300D01*
X69913074Y-64604238D01*
X70056280Y-64604238D01*
X70196735Y-64576300D01*
X70329041Y-64521497D01*
X70448113Y-64441936D01*
X70549375Y-64340674D01*
X70628936Y-64221602D01*
X70683739Y-64089296D01*
X70711677Y-63948841D01*
X70711677Y-63805635D01*
X70683739Y-63665180D01*
X70628936Y-63532874D01*
X70549375Y-63413802D01*
X70448113Y-63312540D01*
X70436677Y-63304899D01*
X70436677Y-62285149D01*
X70508826Y-62213000D01*
X70588387Y-62093928D01*
X70643190Y-61961622D01*
X70671128Y-61821167D01*
X70671128Y-61677961D01*
X70643190Y-61537506D01*
X70588387Y-61405200D01*
X70508826Y-61286128D01*
X70407564Y-61184866D01*
X70288492Y-61105305D01*
X70156186Y-61050502D01*
X70015731Y-61022564D01*
X69872525Y-61022564D01*
X69732070Y-61050502D01*
X69599764Y-61105305D01*
X69480692Y-61184866D01*
X69379430Y-61286128D01*
X69299869Y-61405200D01*
X69245066Y-61537506D01*
X69217128Y-61677961D01*
X66645280Y-61677961D01*
X66719679Y-61631346D01*
X66887547Y-61473048D01*
X67021307Y-61285042D01*
X67115819Y-61074553D01*
X67135855Y-61008485D01*
X67087862Y-60827000D01*
X66127000Y-60827000D01*
X65873000Y-60827000D01*
X64912138Y-60827000D01*
X64864145Y-61008485D01*
X64352000Y-61008485D01*
X64352000Y-60391515D01*
X64864145Y-60391515D01*
X64912138Y-60573000D01*
X65873000Y-60573000D01*
X65873000Y-59611616D01*
X66127000Y-59611616D01*
X66127000Y-60573000D01*
X67087862Y-60573000D01*
X67135855Y-60391515D01*
X67115819Y-60325447D01*
X67021307Y-60114958D01*
X66887547Y-59926952D01*
X66719679Y-59768654D01*
X66524154Y-59646147D01*
X66308486Y-59564139D01*
X66127000Y-59611616D01*
X65873000Y-59611616D01*
X65691514Y-59564139D01*
X65475846Y-59646147D01*
X65280321Y-59768654D01*
X65112453Y-59926952D01*
X64978693Y-60114958D01*
X64884181Y-60325447D01*
X64864145Y-60391515D01*
X64352000Y-60391515D01*
X64352000Y-58044076D01*
X64823000Y-58044076D01*
X64823000Y-58275924D01*
X64868231Y-58503318D01*
X64956956Y-58717519D01*
X65085764Y-58910294D01*
X65249706Y-59074236D01*
X65442481Y-59203044D01*
X65656682Y-59291769D01*
X65884076Y-59337000D01*
X66115924Y-59337000D01*
X66343318Y-59291769D01*
X66557519Y-59203044D01*
X66750294Y-59074236D01*
X66914236Y-58910294D01*
X67043044Y-58717519D01*
X67131769Y-58503318D01*
X67177000Y-58275924D01*
X67177000Y-58044076D01*
X67131769Y-57816682D01*
X67043044Y-57602481D01*
X66993543Y-57528397D01*
X73473000Y-57528397D01*
X73473000Y-57671603D01*
X73500938Y-57812058D01*
X73555741Y-57944364D01*
X73622912Y-58044893D01*
X73623000Y-58045787D01*
X73623000Y-58045792D01*
X73625926Y-58075501D01*
X73631349Y-58130567D01*
X73635503Y-58144259D01*
X73664343Y-58239332D01*
X73717922Y-58339571D01*
X73741787Y-58368650D01*
X73771963Y-58405420D01*
X73771966Y-58405423D01*
X73790027Y-58427430D01*
X73812034Y-58445491D01*
X76323000Y-60956457D01*
X76323001Y-61771654D01*
X76320209Y-61800000D01*
X76323001Y-61828346D01*
X76323000Y-62928335D01*
X76323001Y-62928345D01*
X76323000Y-64754975D01*
X76255741Y-64855636D01*
X76200938Y-64987942D01*
X76173000Y-65128397D01*
X76173000Y-65271603D01*
X76200938Y-65412058D01*
X76255741Y-65544364D01*
X76335302Y-65663436D01*
X76436564Y-65764698D01*
X76555636Y-65844259D01*
X76687942Y-65899062D01*
X76828397Y-65927000D01*
X76971603Y-65927000D01*
X77112058Y-65899062D01*
X77244364Y-65844259D01*
X77363436Y-65764698D01*
X77464698Y-65663436D01*
X77544259Y-65544364D01*
X77599062Y-65412058D01*
X77627000Y-65271603D01*
X77627000Y-65128397D01*
X77599062Y-64987942D01*
X77544259Y-64855636D01*
X77477000Y-64754975D01*
X77477000Y-62377000D01*
X77571669Y-62377000D01*
X77600000Y-62379790D01*
X77628331Y-62377000D01*
X77628336Y-62377000D01*
X77658045Y-62374074D01*
X77713111Y-62368651D01*
X77757770Y-62355103D01*
X77821876Y-62335657D01*
X77922115Y-62282079D01*
X78009974Y-62209974D01*
X78028039Y-62187962D01*
X78173000Y-62043001D01*
X78173000Y-69364552D01*
X77268776Y-70268776D01*
X77228109Y-70318329D01*
X77197891Y-70374863D01*
X77179283Y-70436205D01*
X77173000Y-70500000D01*
X77173000Y-72500000D01*
X77179283Y-72563795D01*
X77197891Y-72625137D01*
X77228109Y-72681671D01*
X77268776Y-72731224D01*
X78268776Y-73731224D01*
X78318329Y-73771891D01*
X78374863Y-73802109D01*
X78436205Y-73820717D01*
X78500000Y-73827000D01*
X81500000Y-73827000D01*
X81563795Y-73820717D01*
X81625137Y-73802109D01*
X81681671Y-73771891D01*
X81731224Y-73731224D01*
X82731224Y-72731224D01*
X82771891Y-72681671D01*
X82802109Y-72625137D01*
X82820717Y-72563795D01*
X82827000Y-72500000D01*
X82827000Y-70666224D01*
X83175683Y-71014907D01*
X83173000Y-71028397D01*
X83173000Y-71171603D01*
X83200938Y-71312058D01*
X83255741Y-71444364D01*
X83335302Y-71563436D01*
X83436564Y-71664698D01*
X83555636Y-71744259D01*
X83687942Y-71799062D01*
X83828397Y-71827000D01*
X83971603Y-71827000D01*
X84112058Y-71799062D01*
X84244364Y-71744259D01*
X84363436Y-71664698D01*
X84464698Y-71563436D01*
X84544259Y-71444364D01*
X84599062Y-71312058D01*
X84627000Y-71171603D01*
X84627000Y-71028397D01*
X84599062Y-70887942D01*
X84544259Y-70755636D01*
X84464698Y-70636564D01*
X84363436Y-70535302D01*
X84244364Y-70455741D01*
X84112058Y-70400938D01*
X83971603Y-70373000D01*
X83828397Y-70373000D01*
X83814907Y-70375683D01*
X81952000Y-68512777D01*
X81952000Y-59228397D01*
X87673000Y-59228397D01*
X87673000Y-59371603D01*
X87700938Y-59512058D01*
X87755741Y-59644364D01*
X87835302Y-59763436D01*
X87936564Y-59864698D01*
X88055636Y-59944259D01*
X88187942Y-59999062D01*
X88328397Y-60027000D01*
X88471603Y-60027000D01*
X88612058Y-59999062D01*
X88744364Y-59944259D01*
X88863436Y-59864698D01*
X88964698Y-59763436D01*
X88972339Y-59752000D01*
X90212777Y-59752000D01*
X90548001Y-60087225D01*
X90548000Y-65123866D01*
X90535302Y-65136564D01*
X90455741Y-65255636D01*
X90400938Y-65387942D01*
X90373000Y-65528397D01*
X90373000Y-65671603D01*
X90400938Y-65812058D01*
X90455741Y-65944364D01*
X90535302Y-66063436D01*
X90636564Y-66164698D01*
X90755636Y-66244259D01*
X90887942Y-66299062D01*
X91028397Y-66327000D01*
X91171603Y-66327000D01*
X91312058Y-66299062D01*
X91444364Y-66244259D01*
X91563436Y-66164698D01*
X91664698Y-66063436D01*
X91744259Y-65944364D01*
X91799062Y-65812058D01*
X91827000Y-65671603D01*
X91827000Y-65528397D01*
X91799062Y-65387942D01*
X91744259Y-65255636D01*
X91664698Y-65136564D01*
X91563436Y-65035302D01*
X91452000Y-64960843D01*
X91452000Y-59922204D01*
X91454187Y-59899999D01*
X91445460Y-59811392D01*
X91419614Y-59726190D01*
X91377642Y-59647666D01*
X91321159Y-59578841D01*
X91303910Y-59564685D01*
X90735323Y-58996100D01*
X90721159Y-58978841D01*
X90652333Y-58922357D01*
X90573810Y-58880386D01*
X90488607Y-58854540D01*
X90422205Y-58848000D01*
X90400000Y-58845813D01*
X90377795Y-58848000D01*
X88972339Y-58848000D01*
X88964698Y-58836564D01*
X88863436Y-58735302D01*
X88744364Y-58655741D01*
X88612058Y-58600938D01*
X88471603Y-58573000D01*
X88328397Y-58573000D01*
X88187942Y-58600938D01*
X88055636Y-58655741D01*
X87936564Y-58735302D01*
X87835302Y-58836564D01*
X87755741Y-58955636D01*
X87700938Y-59087942D01*
X87673000Y-59228397D01*
X81952000Y-59228397D01*
X81952000Y-58887223D01*
X83414908Y-57424317D01*
X83428397Y-57427000D01*
X83571603Y-57427000D01*
X83712058Y-57399062D01*
X83844364Y-57344259D01*
X83963436Y-57264698D01*
X84064698Y-57163436D01*
X84144259Y-57044364D01*
X84199062Y-56912058D01*
X84227000Y-56771603D01*
X84227000Y-56628397D01*
X84199062Y-56487942D01*
X84144259Y-56355636D01*
X84064698Y-56236564D01*
X83963436Y-56135302D01*
X83844364Y-56055741D01*
X83712058Y-56000938D01*
X83571603Y-55973000D01*
X83428397Y-55973000D01*
X83287942Y-56000938D01*
X83155636Y-56055741D01*
X83036564Y-56135302D01*
X82935302Y-56236564D01*
X82855741Y-56355636D01*
X82800938Y-56487942D01*
X82773000Y-56628397D01*
X82773000Y-56771603D01*
X82775683Y-56785092D01*
X81196096Y-58364681D01*
X81178842Y-58378841D01*
X81138966Y-58427430D01*
X81122358Y-58447667D01*
X81080386Y-58526191D01*
X81054540Y-58611393D01*
X81045813Y-58700000D01*
X81048001Y-58722215D01*
X81048001Y-60085553D01*
X77231224Y-56268776D01*
X77181671Y-56228109D01*
X77125137Y-56197891D01*
X77063795Y-56179283D01*
X77000000Y-56173000D01*
X75500000Y-56173000D01*
X75436205Y-56179283D01*
X75374863Y-56197891D01*
X75318329Y-56228109D01*
X75268776Y-56268776D01*
X74768776Y-56768776D01*
X74728109Y-56818329D01*
X74697891Y-56874863D01*
X74679283Y-56936205D01*
X74673000Y-57000000D01*
X74673000Y-57044866D01*
X74663436Y-57035302D01*
X74544364Y-56955741D01*
X74412058Y-56900938D01*
X74271603Y-56873000D01*
X74128397Y-56873000D01*
X73987942Y-56900938D01*
X73855636Y-56955741D01*
X73736564Y-57035302D01*
X73635302Y-57136564D01*
X73555741Y-57255636D01*
X73500938Y-57387942D01*
X73473000Y-57528397D01*
X66993543Y-57528397D01*
X66914236Y-57409706D01*
X66750294Y-57245764D01*
X66557519Y-57116956D01*
X66343318Y-57028231D01*
X66115924Y-56983000D01*
X65884076Y-56983000D01*
X65656682Y-57028231D01*
X65442481Y-57116956D01*
X65249706Y-57245764D01*
X65085764Y-57409706D01*
X64956956Y-57602481D01*
X64868231Y-57816682D01*
X64823000Y-58044076D01*
X64352000Y-58044076D01*
X64352000Y-55504076D01*
X64823000Y-55504076D01*
X64823000Y-55735924D01*
X64868231Y-55963318D01*
X64956956Y-56177519D01*
X65085764Y-56370294D01*
X65249706Y-56534236D01*
X65442481Y-56663044D01*
X65656682Y-56751769D01*
X65884076Y-56797000D01*
X66115924Y-56797000D01*
X66343318Y-56751769D01*
X66557519Y-56663044D01*
X66750294Y-56534236D01*
X66914236Y-56370294D01*
X67043044Y-56177519D01*
X67131769Y-55963318D01*
X67177000Y-55735924D01*
X67177000Y-55504076D01*
X67131769Y-55276682D01*
X67043044Y-55062481D01*
X66914236Y-54869706D01*
X66750294Y-54705764D01*
X66557519Y-54576956D01*
X66343318Y-54488231D01*
X66115924Y-54443000D01*
X65884076Y-54443000D01*
X65656682Y-54488231D01*
X65442481Y-54576956D01*
X65249706Y-54705764D01*
X65085764Y-54869706D01*
X64956956Y-55062481D01*
X64868231Y-55276682D01*
X64823000Y-55504076D01*
X64352000Y-55504076D01*
X64352000Y-52964076D01*
X64823000Y-52964076D01*
X64823000Y-53195924D01*
X64868231Y-53423318D01*
X64956956Y-53637519D01*
X65085764Y-53830294D01*
X65249706Y-53994236D01*
X65442481Y-54123044D01*
X65656682Y-54211769D01*
X65884076Y-54257000D01*
X66115924Y-54257000D01*
X66343318Y-54211769D01*
X66557519Y-54123044D01*
X66750294Y-53994236D01*
X66914236Y-53830294D01*
X67043044Y-53637519D01*
X67131769Y-53423318D01*
X67177000Y-53195924D01*
X67177000Y-52964076D01*
X67131769Y-52736682D01*
X67043044Y-52522481D01*
X66914236Y-52329706D01*
X66750294Y-52165764D01*
X66557519Y-52036956D01*
X66343318Y-51948231D01*
X66115924Y-51903000D01*
X65884076Y-51903000D01*
X65656682Y-51948231D01*
X65442481Y-52036956D01*
X65249706Y-52165764D01*
X65085764Y-52329706D01*
X64956956Y-52522481D01*
X64868231Y-52736682D01*
X64823000Y-52964076D01*
X64352000Y-52964076D01*
X64352000Y-50424076D01*
X64823000Y-50424076D01*
X64823000Y-50655924D01*
X64868231Y-50883318D01*
X64956956Y-51097519D01*
X65085764Y-51290294D01*
X65249706Y-51454236D01*
X65442481Y-51583044D01*
X65656682Y-51671769D01*
X65884076Y-51717000D01*
X66115924Y-51717000D01*
X66343318Y-51671769D01*
X66557519Y-51583044D01*
X66750294Y-51454236D01*
X66914236Y-51290294D01*
X67043044Y-51097519D01*
X67131769Y-50883318D01*
X67177000Y-50655924D01*
X67177000Y-50424076D01*
X67131769Y-50196682D01*
X67043044Y-49982481D01*
X66914236Y-49789706D01*
X66750294Y-49625764D01*
X66557519Y-49496956D01*
X66343318Y-49408231D01*
X66115924Y-49363000D01*
X65884076Y-49363000D01*
X65656682Y-49408231D01*
X65442481Y-49496956D01*
X65249706Y-49625764D01*
X65085764Y-49789706D01*
X64956956Y-49982481D01*
X64868231Y-50196682D01*
X64823000Y-50424076D01*
X64352000Y-50424076D01*
X64352000Y-47150000D01*
X64821418Y-47150000D01*
X64821418Y-48850000D01*
X64827732Y-48914103D01*
X64846430Y-48975743D01*
X64876794Y-49032550D01*
X64917657Y-49082343D01*
X64967450Y-49123206D01*
X65024257Y-49153570D01*
X65085897Y-49172268D01*
X65150000Y-49178582D01*
X66850000Y-49178582D01*
X66914103Y-49172268D01*
X66975743Y-49153570D01*
X67032550Y-49123206D01*
X67082343Y-49082343D01*
X67123206Y-49032550D01*
X67153570Y-48975743D01*
X67172268Y-48914103D01*
X67178582Y-48850000D01*
X67178582Y-47150000D01*
X67172268Y-47085897D01*
X67153570Y-47024257D01*
X67123206Y-46967450D01*
X67082343Y-46917657D01*
X67032550Y-46876794D01*
X66975743Y-46846430D01*
X66914103Y-46827732D01*
X66850000Y-46821418D01*
X65150000Y-46821418D01*
X65085897Y-46827732D01*
X65024257Y-46846430D01*
X64967450Y-46876794D01*
X64917657Y-46917657D01*
X64876794Y-46967450D01*
X64846430Y-47024257D01*
X64827732Y-47085897D01*
X64821418Y-47150000D01*
X64352000Y-47150000D01*
X64352000Y-46352000D01*
X92648000Y-46352000D01*
X92648001Y-79648000D01*
G37*
X92648001Y-79648000D02*
X85535332Y-79648000D01*
X85544364Y-79644259D01*
X85663436Y-79564698D01*
X85764698Y-79463436D01*
X85772339Y-79452000D01*
X86877795Y-79452000D01*
X86900000Y-79454187D01*
X86922205Y-79452000D01*
X86988607Y-79445460D01*
X87073810Y-79419614D01*
X87152333Y-79377643D01*
X87221159Y-79321159D01*
X87235323Y-79303900D01*
X90103911Y-76435314D01*
X90121159Y-76421159D01*
X90177643Y-76352333D01*
X90219614Y-76273810D01*
X90245460Y-76188607D01*
X90252000Y-76122205D01*
X90254187Y-76100001D01*
X90252000Y-76077796D01*
X90252000Y-74835332D01*
X90255741Y-74844364D01*
X90335302Y-74963436D01*
X90436564Y-75064698D01*
X90448000Y-75072339D01*
X90448001Y-78260843D01*
X90336564Y-78335302D01*
X90235302Y-78436564D01*
X90155741Y-78555636D01*
X90100938Y-78687942D01*
X90073000Y-78828397D01*
X90073000Y-78971603D01*
X90100938Y-79112058D01*
X90155741Y-79244364D01*
X90235302Y-79363436D01*
X90336564Y-79464698D01*
X90455636Y-79544259D01*
X90587942Y-79599062D01*
X90728397Y-79627000D01*
X90871603Y-79627000D01*
X91012058Y-79599062D01*
X91144364Y-79544259D01*
X91263436Y-79464698D01*
X91364698Y-79363436D01*
X91444259Y-79244364D01*
X91499062Y-79112058D01*
X91527000Y-78971603D01*
X91527000Y-78828397D01*
X91499062Y-78687942D01*
X91444259Y-78555636D01*
X91364698Y-78436564D01*
X91352000Y-78423866D01*
X91352000Y-75072339D01*
X91363436Y-75064698D01*
X91464698Y-74963436D01*
X91544259Y-74844364D01*
X91599062Y-74712058D01*
X91627000Y-74571603D01*
X91627000Y-74428397D01*
X91599062Y-74287942D01*
X91544259Y-74155636D01*
X91464698Y-74036564D01*
X91363436Y-73935302D01*
X91244364Y-73855741D01*
X91112058Y-73800938D01*
X90971603Y-73773000D01*
X90828397Y-73773000D01*
X90687942Y-73800938D01*
X90555636Y-73855741D01*
X90436564Y-73935302D01*
X90335302Y-74036564D01*
X90255741Y-74155636D01*
X90252000Y-74164668D01*
X90252000Y-70827000D01*
X90371603Y-70827000D01*
X90512058Y-70799062D01*
X90644364Y-70744259D01*
X90763436Y-70664698D01*
X90864698Y-70563436D01*
X90944259Y-70444364D01*
X90999062Y-70312058D01*
X91027000Y-70171603D01*
X91027000Y-70028397D01*
X90999062Y-69887942D01*
X90944259Y-69755636D01*
X90864698Y-69636564D01*
X90763436Y-69535302D01*
X90644364Y-69455741D01*
X90512058Y-69400938D01*
X90371603Y-69373000D01*
X90228397Y-69373000D01*
X90087942Y-69400938D01*
X89955636Y-69455741D01*
X89836564Y-69535302D01*
X89735302Y-69636564D01*
X89655741Y-69755636D01*
X89600938Y-69887942D01*
X89573000Y-70028397D01*
X89573000Y-70171603D01*
X89575683Y-70185093D01*
X89496100Y-70264677D01*
X89478841Y-70278841D01*
X89422357Y-70347668D01*
X89394887Y-70399062D01*
X89380386Y-70426191D01*
X89354540Y-70511393D01*
X89345813Y-70600000D01*
X89348000Y-70622205D01*
X89348001Y-75912774D01*
X86712777Y-78548000D01*
X85772339Y-78548000D01*
X85764698Y-78536564D01*
X85663436Y-78435302D01*
X85544364Y-78355741D01*
X85412058Y-78300938D01*
X85271603Y-78273000D01*
X85128397Y-78273000D01*
X84987942Y-78300938D01*
X84855636Y-78355741D01*
X84736564Y-78435302D01*
X84635302Y-78536564D01*
X84555741Y-78655636D01*
X84500938Y-78787942D01*
X84473000Y-78928397D01*
X84473000Y-79071603D01*
X84500938Y-79212058D01*
X84555741Y-79344364D01*
X84635302Y-79463436D01*
X84736564Y-79564698D01*
X84855636Y-79644259D01*
X84864668Y-79648000D01*
X81827000Y-79648000D01*
X81827000Y-76000000D01*
X81820717Y-75936205D01*
X81802109Y-75874863D01*
X81771891Y-75818329D01*
X81731224Y-75768776D01*
X80731224Y-74768776D01*
X80681671Y-74728109D01*
X80625137Y-74697891D01*
X80563795Y-74679283D01*
X80500000Y-74673000D01*
X78901451Y-74673000D01*
X78894259Y-74655636D01*
X78893775Y-74654911D01*
X83014957Y-74654911D01*
X83014957Y-74798117D01*
X83042895Y-74938572D01*
X83097698Y-75070878D01*
X83165101Y-75171755D01*
X83173306Y-75255068D01*
X83184271Y-75291212D01*
X83206300Y-75363833D01*
X83259879Y-75464072D01*
X83288595Y-75499062D01*
X83313920Y-75529921D01*
X83313923Y-75529924D01*
X83331984Y-75551931D01*
X83353990Y-75569991D01*
X84171965Y-76387967D01*
X84190026Y-76409974D01*
X84212033Y-76428035D01*
X84212035Y-76428037D01*
X84231980Y-76444405D01*
X84277885Y-76482079D01*
X84378124Y-76535657D01*
X84486888Y-76568650D01*
X84571664Y-76577000D01*
X84571670Y-76577000D01*
X84599999Y-76579790D01*
X84628328Y-76577000D01*
X86771669Y-76577000D01*
X86800000Y-76579790D01*
X86828331Y-76577000D01*
X86828336Y-76577000D01*
X86858045Y-76574074D01*
X86913111Y-76568651D01*
X86960790Y-76554187D01*
X87021876Y-76535657D01*
X87122115Y-76482079D01*
X87209974Y-76409974D01*
X87228039Y-76387962D01*
X88137963Y-75478038D01*
X88159974Y-75459974D01*
X88232079Y-75372115D01*
X88285657Y-75271876D01*
X88300824Y-75221877D01*
X88318651Y-75163112D01*
X88324363Y-75105114D01*
X88327000Y-75078336D01*
X88327000Y-75078331D01*
X88329790Y-75050000D01*
X88327000Y-75021669D01*
X88327000Y-74945025D01*
X88394259Y-74844364D01*
X88449062Y-74712058D01*
X88477000Y-74571603D01*
X88477000Y-74428397D01*
X88449062Y-74287942D01*
X88394259Y-74155636D01*
X88314698Y-74036564D01*
X88213436Y-73935302D01*
X88094364Y-73855741D01*
X87962058Y-73800938D01*
X87821603Y-73773000D01*
X87678397Y-73773000D01*
X87537942Y-73800938D01*
X87405636Y-73855741D01*
X87286564Y-73935302D01*
X87185302Y-74036564D01*
X87105741Y-74155636D01*
X87050938Y-74287942D01*
X87023000Y-74428397D01*
X87023000Y-74571603D01*
X87050938Y-74712058D01*
X87105741Y-74844364D01*
X87119317Y-74864682D01*
X86847529Y-75136470D01*
X86899062Y-75012058D01*
X86927000Y-74871603D01*
X86927000Y-74728397D01*
X86899062Y-74587942D01*
X86844259Y-74455636D01*
X86764698Y-74336564D01*
X86663436Y-74235302D01*
X86652000Y-74227661D01*
X86652000Y-70422202D01*
X86654187Y-70399999D01*
X86649492Y-70352334D01*
X86645460Y-70311393D01*
X86619614Y-70226190D01*
X86577643Y-70147667D01*
X86521159Y-70078841D01*
X86503911Y-70064686D01*
X86224317Y-69785093D01*
X86227000Y-69771603D01*
X86227000Y-69628397D01*
X86199062Y-69487942D01*
X86144259Y-69355636D01*
X86064698Y-69236564D01*
X85963436Y-69135302D01*
X85844364Y-69055741D01*
X85712058Y-69000938D01*
X85571603Y-68973000D01*
X85428397Y-68973000D01*
X85287942Y-69000938D01*
X85155636Y-69055741D01*
X85036564Y-69135302D01*
X84935302Y-69236564D01*
X84855741Y-69355636D01*
X84800938Y-69487942D01*
X84773000Y-69628397D01*
X84773000Y-69771603D01*
X84800938Y-69912058D01*
X84855741Y-70044364D01*
X84935302Y-70163436D01*
X85036564Y-70264698D01*
X85155636Y-70344259D01*
X85287942Y-70399062D01*
X85428397Y-70427000D01*
X85571603Y-70427000D01*
X85585093Y-70424317D01*
X85748000Y-70587225D01*
X85748001Y-74227660D01*
X85736564Y-74235302D01*
X85635302Y-74336564D01*
X85555741Y-74455636D01*
X85500938Y-74587942D01*
X85473000Y-74728397D01*
X85473000Y-74871603D01*
X85500938Y-75012058D01*
X85555741Y-75144364D01*
X85635302Y-75263436D01*
X85736564Y-75364698D01*
X85823820Y-75423000D01*
X84839002Y-75423000D01*
X84415700Y-74999698D01*
X84441019Y-74938572D01*
X84468957Y-74798117D01*
X84468957Y-74654911D01*
X84441019Y-74514456D01*
X84386216Y-74382150D01*
X84306655Y-74263078D01*
X84205393Y-74161816D01*
X84086321Y-74082255D01*
X83954015Y-74027452D01*
X83813560Y-73999514D01*
X83670354Y-73999514D01*
X83529899Y-74027452D01*
X83397593Y-74082255D01*
X83278521Y-74161816D01*
X83177259Y-74263078D01*
X83097698Y-74382150D01*
X83042895Y-74514456D01*
X83014957Y-74654911D01*
X78893775Y-74654911D01*
X78814698Y-74536564D01*
X78713436Y-74435302D01*
X78594364Y-74355741D01*
X78462058Y-74300938D01*
X78321603Y-74273000D01*
X78178397Y-74273000D01*
X78037942Y-74300938D01*
X77905636Y-74355741D01*
X77786564Y-74435302D01*
X77685302Y-74536564D01*
X77605741Y-74655636D01*
X77598549Y-74673000D01*
X73351851Y-74673000D01*
X73388569Y-74618048D01*
X73447141Y-74476643D01*
X73477000Y-74326528D01*
X73477000Y-74173472D01*
X73447141Y-74023357D01*
X73388569Y-73881952D01*
X73303536Y-73754691D01*
X73195309Y-73646464D01*
X73068048Y-73561431D01*
X72926643Y-73502859D01*
X72776528Y-73473000D01*
X72623472Y-73473000D01*
X72473357Y-73502859D01*
X72331952Y-73561431D01*
X72204691Y-73646464D01*
X72096464Y-73754691D01*
X72011431Y-73881952D01*
X71952859Y-74023357D01*
X71923000Y-74173472D01*
X71923000Y-74326528D01*
X71952859Y-74476643D01*
X72011431Y-74618048D01*
X72048149Y-74673000D01*
X69635448Y-74673000D01*
X69062370Y-74099922D01*
X69047141Y-74023357D01*
X68988569Y-73881952D01*
X68903536Y-73754691D01*
X68795309Y-73646464D01*
X68668048Y-73561431D01*
X68526643Y-73502859D01*
X68450078Y-73487630D01*
X68327000Y-73364552D01*
X68327000Y-66928397D01*
X71523000Y-66928397D01*
X71523000Y-67071603D01*
X71550938Y-67212058D01*
X71605741Y-67344364D01*
X71685302Y-67463436D01*
X71786564Y-67564698D01*
X71798001Y-67572340D01*
X71798000Y-67927660D01*
X71786564Y-67935302D01*
X71685302Y-68036564D01*
X71605741Y-68155636D01*
X71550938Y-68287942D01*
X71523000Y-68428397D01*
X71523000Y-68571603D01*
X71550938Y-68712058D01*
X71605741Y-68844364D01*
X71685302Y-68963436D01*
X71786564Y-69064698D01*
X71905636Y-69144259D01*
X72037942Y-69199062D01*
X72178397Y-69227000D01*
X72321603Y-69227000D01*
X72462058Y-69199062D01*
X72594364Y-69144259D01*
X72713436Y-69064698D01*
X72814698Y-68963436D01*
X72894259Y-68844364D01*
X72949062Y-68712058D01*
X72977000Y-68571603D01*
X72977000Y-68428397D01*
X72949062Y-68287942D01*
X72894259Y-68155636D01*
X72814698Y-68036564D01*
X72713436Y-67935302D01*
X72702000Y-67927661D01*
X72702000Y-67572339D01*
X72713436Y-67564698D01*
X72814698Y-67463436D01*
X72894259Y-67344364D01*
X72949062Y-67212058D01*
X72977000Y-67071603D01*
X72977000Y-66928397D01*
X72949062Y-66787942D01*
X72894259Y-66655636D01*
X72814698Y-66536564D01*
X72713436Y-66435302D01*
X72594364Y-66355741D01*
X72462058Y-66300938D01*
X72321603Y-66273000D01*
X72178397Y-66273000D01*
X72037942Y-66300938D01*
X71905636Y-66355741D01*
X71786564Y-66435302D01*
X71685302Y-66536564D01*
X71605741Y-66655636D01*
X71550938Y-66787942D01*
X71523000Y-66928397D01*
X68327000Y-66928397D01*
X68327000Y-65500000D01*
X68320717Y-65436205D01*
X68302109Y-65374863D01*
X68271891Y-65318329D01*
X68231224Y-65268776D01*
X67231224Y-64268776D01*
X67181671Y-64228109D01*
X67125137Y-64197891D01*
X67063795Y-64179283D01*
X67000000Y-64173000D01*
X66717039Y-64173000D01*
X66719679Y-64171346D01*
X66887547Y-64013048D01*
X67021307Y-63825042D01*
X67115819Y-63614553D01*
X67135855Y-63548485D01*
X67087862Y-63367000D01*
X66127000Y-63367000D01*
X66127000Y-63387000D01*
X65873000Y-63387000D01*
X65873000Y-63367000D01*
X64912138Y-63367000D01*
X64864145Y-63548485D01*
X64884181Y-63614553D01*
X64978693Y-63825042D01*
X65112453Y-64013048D01*
X65280321Y-64171346D01*
X65282961Y-64173000D01*
X65000000Y-64173000D01*
X64936205Y-64179283D01*
X64874863Y-64197891D01*
X64818329Y-64228109D01*
X64768776Y-64268776D01*
X64352000Y-64685552D01*
X64352000Y-62931515D01*
X64864145Y-62931515D01*
X64912138Y-63113000D01*
X65873000Y-63113000D01*
X65873000Y-62151616D01*
X66127000Y-62151616D01*
X66127000Y-63113000D01*
X67087862Y-63113000D01*
X67135855Y-62931515D01*
X67115819Y-62865447D01*
X67021307Y-62654958D01*
X66887547Y-62466952D01*
X66719679Y-62308654D01*
X66524154Y-62186147D01*
X66308486Y-62104139D01*
X66127000Y-62151616D01*
X65873000Y-62151616D01*
X65691514Y-62104139D01*
X65475846Y-62186147D01*
X65280321Y-62308654D01*
X65112453Y-62466952D01*
X64978693Y-62654958D01*
X64884181Y-62865447D01*
X64864145Y-62931515D01*
X64352000Y-62931515D01*
X64352000Y-61008485D01*
X64864145Y-61008485D01*
X64884181Y-61074553D01*
X64978693Y-61285042D01*
X65112453Y-61473048D01*
X65280321Y-61631346D01*
X65475846Y-61753853D01*
X65691514Y-61835861D01*
X65873000Y-61788384D01*
X65873000Y-60827000D01*
X66127000Y-60827000D01*
X66127000Y-61788384D01*
X66308486Y-61835861D01*
X66524154Y-61753853D01*
X66645280Y-61677961D01*
X69217128Y-61677961D01*
X69217128Y-61821167D01*
X69245066Y-61961622D01*
X69299869Y-62093928D01*
X69379430Y-62213000D01*
X69480692Y-62314262D01*
X69532677Y-62348997D01*
X69532678Y-63304898D01*
X69521241Y-63312540D01*
X69419979Y-63413802D01*
X69340418Y-63532874D01*
X69285615Y-63665180D01*
X69257677Y-63805635D01*
X69257677Y-63948841D01*
X69285615Y-64089296D01*
X69340418Y-64221602D01*
X69419979Y-64340674D01*
X69521241Y-64441936D01*
X69640313Y-64521497D01*
X69772619Y-64576300D01*
X69913074Y-64604238D01*
X70056280Y-64604238D01*
X70196735Y-64576300D01*
X70329041Y-64521497D01*
X70448113Y-64441936D01*
X70549375Y-64340674D01*
X70628936Y-64221602D01*
X70683739Y-64089296D01*
X70711677Y-63948841D01*
X70711677Y-63805635D01*
X70683739Y-63665180D01*
X70628936Y-63532874D01*
X70549375Y-63413802D01*
X70448113Y-63312540D01*
X70436677Y-63304899D01*
X70436677Y-62285149D01*
X70508826Y-62213000D01*
X70588387Y-62093928D01*
X70643190Y-61961622D01*
X70671128Y-61821167D01*
X70671128Y-61677961D01*
X70643190Y-61537506D01*
X70588387Y-61405200D01*
X70508826Y-61286128D01*
X70407564Y-61184866D01*
X70288492Y-61105305D01*
X70156186Y-61050502D01*
X70015731Y-61022564D01*
X69872525Y-61022564D01*
X69732070Y-61050502D01*
X69599764Y-61105305D01*
X69480692Y-61184866D01*
X69379430Y-61286128D01*
X69299869Y-61405200D01*
X69245066Y-61537506D01*
X69217128Y-61677961D01*
X66645280Y-61677961D01*
X66719679Y-61631346D01*
X66887547Y-61473048D01*
X67021307Y-61285042D01*
X67115819Y-61074553D01*
X67135855Y-61008485D01*
X67087862Y-60827000D01*
X66127000Y-60827000D01*
X65873000Y-60827000D01*
X64912138Y-60827000D01*
X64864145Y-61008485D01*
X64352000Y-61008485D01*
X64352000Y-60391515D01*
X64864145Y-60391515D01*
X64912138Y-60573000D01*
X65873000Y-60573000D01*
X65873000Y-59611616D01*
X66127000Y-59611616D01*
X66127000Y-60573000D01*
X67087862Y-60573000D01*
X67135855Y-60391515D01*
X67115819Y-60325447D01*
X67021307Y-60114958D01*
X66887547Y-59926952D01*
X66719679Y-59768654D01*
X66524154Y-59646147D01*
X66308486Y-59564139D01*
X66127000Y-59611616D01*
X65873000Y-59611616D01*
X65691514Y-59564139D01*
X65475846Y-59646147D01*
X65280321Y-59768654D01*
X65112453Y-59926952D01*
X64978693Y-60114958D01*
X64884181Y-60325447D01*
X64864145Y-60391515D01*
X64352000Y-60391515D01*
X64352000Y-58044076D01*
X64823000Y-58044076D01*
X64823000Y-58275924D01*
X64868231Y-58503318D01*
X64956956Y-58717519D01*
X65085764Y-58910294D01*
X65249706Y-59074236D01*
X65442481Y-59203044D01*
X65656682Y-59291769D01*
X65884076Y-59337000D01*
X66115924Y-59337000D01*
X66343318Y-59291769D01*
X66557519Y-59203044D01*
X66750294Y-59074236D01*
X66914236Y-58910294D01*
X67043044Y-58717519D01*
X67131769Y-58503318D01*
X67177000Y-58275924D01*
X67177000Y-58044076D01*
X67131769Y-57816682D01*
X67043044Y-57602481D01*
X66993543Y-57528397D01*
X73473000Y-57528397D01*
X73473000Y-57671603D01*
X73500938Y-57812058D01*
X73555741Y-57944364D01*
X73622912Y-58044893D01*
X73623000Y-58045787D01*
X73623000Y-58045792D01*
X73625926Y-58075501D01*
X73631349Y-58130567D01*
X73635503Y-58144259D01*
X73664343Y-58239332D01*
X73717922Y-58339571D01*
X73741787Y-58368650D01*
X73771963Y-58405420D01*
X73771966Y-58405423D01*
X73790027Y-58427430D01*
X73812034Y-58445491D01*
X76323000Y-60956457D01*
X76323001Y-61771654D01*
X76320209Y-61800000D01*
X76323001Y-61828346D01*
X76323000Y-62928335D01*
X76323001Y-62928345D01*
X76323000Y-64754975D01*
X76255741Y-64855636D01*
X76200938Y-64987942D01*
X76173000Y-65128397D01*
X76173000Y-65271603D01*
X76200938Y-65412058D01*
X76255741Y-65544364D01*
X76335302Y-65663436D01*
X76436564Y-65764698D01*
X76555636Y-65844259D01*
X76687942Y-65899062D01*
X76828397Y-65927000D01*
X76971603Y-65927000D01*
X77112058Y-65899062D01*
X77244364Y-65844259D01*
X77363436Y-65764698D01*
X77464698Y-65663436D01*
X77544259Y-65544364D01*
X77599062Y-65412058D01*
X77627000Y-65271603D01*
X77627000Y-65128397D01*
X77599062Y-64987942D01*
X77544259Y-64855636D01*
X77477000Y-64754975D01*
X77477000Y-62377000D01*
X77571669Y-62377000D01*
X77600000Y-62379790D01*
X77628331Y-62377000D01*
X77628336Y-62377000D01*
X77658045Y-62374074D01*
X77713111Y-62368651D01*
X77757770Y-62355103D01*
X77821876Y-62335657D01*
X77922115Y-62282079D01*
X78009974Y-62209974D01*
X78028039Y-62187962D01*
X78173000Y-62043001D01*
X78173000Y-69364552D01*
X77268776Y-70268776D01*
X77228109Y-70318329D01*
X77197891Y-70374863D01*
X77179283Y-70436205D01*
X77173000Y-70500000D01*
X77173000Y-72500000D01*
X77179283Y-72563795D01*
X77197891Y-72625137D01*
X77228109Y-72681671D01*
X77268776Y-72731224D01*
X78268776Y-73731224D01*
X78318329Y-73771891D01*
X78374863Y-73802109D01*
X78436205Y-73820717D01*
X78500000Y-73827000D01*
X81500000Y-73827000D01*
X81563795Y-73820717D01*
X81625137Y-73802109D01*
X81681671Y-73771891D01*
X81731224Y-73731224D01*
X82731224Y-72731224D01*
X82771891Y-72681671D01*
X82802109Y-72625137D01*
X82820717Y-72563795D01*
X82827000Y-72500000D01*
X82827000Y-70666224D01*
X83175683Y-71014907D01*
X83173000Y-71028397D01*
X83173000Y-71171603D01*
X83200938Y-71312058D01*
X83255741Y-71444364D01*
X83335302Y-71563436D01*
X83436564Y-71664698D01*
X83555636Y-71744259D01*
X83687942Y-71799062D01*
X83828397Y-71827000D01*
X83971603Y-71827000D01*
X84112058Y-71799062D01*
X84244364Y-71744259D01*
X84363436Y-71664698D01*
X84464698Y-71563436D01*
X84544259Y-71444364D01*
X84599062Y-71312058D01*
X84627000Y-71171603D01*
X84627000Y-71028397D01*
X84599062Y-70887942D01*
X84544259Y-70755636D01*
X84464698Y-70636564D01*
X84363436Y-70535302D01*
X84244364Y-70455741D01*
X84112058Y-70400938D01*
X83971603Y-70373000D01*
X83828397Y-70373000D01*
X83814907Y-70375683D01*
X81952000Y-68512777D01*
X81952000Y-59228397D01*
X87673000Y-59228397D01*
X87673000Y-59371603D01*
X87700938Y-59512058D01*
X87755741Y-59644364D01*
X87835302Y-59763436D01*
X87936564Y-59864698D01*
X88055636Y-59944259D01*
X88187942Y-59999062D01*
X88328397Y-60027000D01*
X88471603Y-60027000D01*
X88612058Y-59999062D01*
X88744364Y-59944259D01*
X88863436Y-59864698D01*
X88964698Y-59763436D01*
X88972339Y-59752000D01*
X90212777Y-59752000D01*
X90548001Y-60087225D01*
X90548000Y-65123866D01*
X90535302Y-65136564D01*
X90455741Y-65255636D01*
X90400938Y-65387942D01*
X90373000Y-65528397D01*
X90373000Y-65671603D01*
X90400938Y-65812058D01*
X90455741Y-65944364D01*
X90535302Y-66063436D01*
X90636564Y-66164698D01*
X90755636Y-66244259D01*
X90887942Y-66299062D01*
X91028397Y-66327000D01*
X91171603Y-66327000D01*
X91312058Y-66299062D01*
X91444364Y-66244259D01*
X91563436Y-66164698D01*
X91664698Y-66063436D01*
X91744259Y-65944364D01*
X91799062Y-65812058D01*
X91827000Y-65671603D01*
X91827000Y-65528397D01*
X91799062Y-65387942D01*
X91744259Y-65255636D01*
X91664698Y-65136564D01*
X91563436Y-65035302D01*
X91452000Y-64960843D01*
X91452000Y-59922204D01*
X91454187Y-59899999D01*
X91445460Y-59811392D01*
X91419614Y-59726190D01*
X91377642Y-59647666D01*
X91321159Y-59578841D01*
X91303910Y-59564685D01*
X90735323Y-58996100D01*
X90721159Y-58978841D01*
X90652333Y-58922357D01*
X90573810Y-58880386D01*
X90488607Y-58854540D01*
X90422205Y-58848000D01*
X90400000Y-58845813D01*
X90377795Y-58848000D01*
X88972339Y-58848000D01*
X88964698Y-58836564D01*
X88863436Y-58735302D01*
X88744364Y-58655741D01*
X88612058Y-58600938D01*
X88471603Y-58573000D01*
X88328397Y-58573000D01*
X88187942Y-58600938D01*
X88055636Y-58655741D01*
X87936564Y-58735302D01*
X87835302Y-58836564D01*
X87755741Y-58955636D01*
X87700938Y-59087942D01*
X87673000Y-59228397D01*
X81952000Y-59228397D01*
X81952000Y-58887223D01*
X83414908Y-57424317D01*
X83428397Y-57427000D01*
X83571603Y-57427000D01*
X83712058Y-57399062D01*
X83844364Y-57344259D01*
X83963436Y-57264698D01*
X84064698Y-57163436D01*
X84144259Y-57044364D01*
X84199062Y-56912058D01*
X84227000Y-56771603D01*
X84227000Y-56628397D01*
X84199062Y-56487942D01*
X84144259Y-56355636D01*
X84064698Y-56236564D01*
X83963436Y-56135302D01*
X83844364Y-56055741D01*
X83712058Y-56000938D01*
X83571603Y-55973000D01*
X83428397Y-55973000D01*
X83287942Y-56000938D01*
X83155636Y-56055741D01*
X83036564Y-56135302D01*
X82935302Y-56236564D01*
X82855741Y-56355636D01*
X82800938Y-56487942D01*
X82773000Y-56628397D01*
X82773000Y-56771603D01*
X82775683Y-56785092D01*
X81196096Y-58364681D01*
X81178842Y-58378841D01*
X81138966Y-58427430D01*
X81122358Y-58447667D01*
X81080386Y-58526191D01*
X81054540Y-58611393D01*
X81045813Y-58700000D01*
X81048001Y-58722215D01*
X81048001Y-60085553D01*
X77231224Y-56268776D01*
X77181671Y-56228109D01*
X77125137Y-56197891D01*
X77063795Y-56179283D01*
X77000000Y-56173000D01*
X75500000Y-56173000D01*
X75436205Y-56179283D01*
X75374863Y-56197891D01*
X75318329Y-56228109D01*
X75268776Y-56268776D01*
X74768776Y-56768776D01*
X74728109Y-56818329D01*
X74697891Y-56874863D01*
X74679283Y-56936205D01*
X74673000Y-57000000D01*
X74673000Y-57044866D01*
X74663436Y-57035302D01*
X74544364Y-56955741D01*
X74412058Y-56900938D01*
X74271603Y-56873000D01*
X74128397Y-56873000D01*
X73987942Y-56900938D01*
X73855636Y-56955741D01*
X73736564Y-57035302D01*
X73635302Y-57136564D01*
X73555741Y-57255636D01*
X73500938Y-57387942D01*
X73473000Y-57528397D01*
X66993543Y-57528397D01*
X66914236Y-57409706D01*
X66750294Y-57245764D01*
X66557519Y-57116956D01*
X66343318Y-57028231D01*
X66115924Y-56983000D01*
X65884076Y-56983000D01*
X65656682Y-57028231D01*
X65442481Y-57116956D01*
X65249706Y-57245764D01*
X65085764Y-57409706D01*
X64956956Y-57602481D01*
X64868231Y-57816682D01*
X64823000Y-58044076D01*
X64352000Y-58044076D01*
X64352000Y-55504076D01*
X64823000Y-55504076D01*
X64823000Y-55735924D01*
X64868231Y-55963318D01*
X64956956Y-56177519D01*
X65085764Y-56370294D01*
X65249706Y-56534236D01*
X65442481Y-56663044D01*
X65656682Y-56751769D01*
X65884076Y-56797000D01*
X66115924Y-56797000D01*
X66343318Y-56751769D01*
X66557519Y-56663044D01*
X66750294Y-56534236D01*
X66914236Y-56370294D01*
X67043044Y-56177519D01*
X67131769Y-55963318D01*
X67177000Y-55735924D01*
X67177000Y-55504076D01*
X67131769Y-55276682D01*
X67043044Y-55062481D01*
X66914236Y-54869706D01*
X66750294Y-54705764D01*
X66557519Y-54576956D01*
X66343318Y-54488231D01*
X66115924Y-54443000D01*
X65884076Y-54443000D01*
X65656682Y-54488231D01*
X65442481Y-54576956D01*
X65249706Y-54705764D01*
X65085764Y-54869706D01*
X64956956Y-55062481D01*
X64868231Y-55276682D01*
X64823000Y-55504076D01*
X64352000Y-55504076D01*
X64352000Y-52964076D01*
X64823000Y-52964076D01*
X64823000Y-53195924D01*
X64868231Y-53423318D01*
X64956956Y-53637519D01*
X65085764Y-53830294D01*
X65249706Y-53994236D01*
X65442481Y-54123044D01*
X65656682Y-54211769D01*
X65884076Y-54257000D01*
X66115924Y-54257000D01*
X66343318Y-54211769D01*
X66557519Y-54123044D01*
X66750294Y-53994236D01*
X66914236Y-53830294D01*
X67043044Y-53637519D01*
X67131769Y-53423318D01*
X67177000Y-53195924D01*
X67177000Y-52964076D01*
X67131769Y-52736682D01*
X67043044Y-52522481D01*
X66914236Y-52329706D01*
X66750294Y-52165764D01*
X66557519Y-52036956D01*
X66343318Y-51948231D01*
X66115924Y-51903000D01*
X65884076Y-51903000D01*
X65656682Y-51948231D01*
X65442481Y-52036956D01*
X65249706Y-52165764D01*
X65085764Y-52329706D01*
X64956956Y-52522481D01*
X64868231Y-52736682D01*
X64823000Y-52964076D01*
X64352000Y-52964076D01*
X64352000Y-50424076D01*
X64823000Y-50424076D01*
X64823000Y-50655924D01*
X64868231Y-50883318D01*
X64956956Y-51097519D01*
X65085764Y-51290294D01*
X65249706Y-51454236D01*
X65442481Y-51583044D01*
X65656682Y-51671769D01*
X65884076Y-51717000D01*
X66115924Y-51717000D01*
X66343318Y-51671769D01*
X66557519Y-51583044D01*
X66750294Y-51454236D01*
X66914236Y-51290294D01*
X67043044Y-51097519D01*
X67131769Y-50883318D01*
X67177000Y-50655924D01*
X67177000Y-50424076D01*
X67131769Y-50196682D01*
X67043044Y-49982481D01*
X66914236Y-49789706D01*
X66750294Y-49625764D01*
X66557519Y-49496956D01*
X66343318Y-49408231D01*
X66115924Y-49363000D01*
X65884076Y-49363000D01*
X65656682Y-49408231D01*
X65442481Y-49496956D01*
X65249706Y-49625764D01*
X65085764Y-49789706D01*
X64956956Y-49982481D01*
X64868231Y-50196682D01*
X64823000Y-50424076D01*
X64352000Y-50424076D01*
X64352000Y-47150000D01*
X64821418Y-47150000D01*
X64821418Y-48850000D01*
X64827732Y-48914103D01*
X64846430Y-48975743D01*
X64876794Y-49032550D01*
X64917657Y-49082343D01*
X64967450Y-49123206D01*
X65024257Y-49153570D01*
X65085897Y-49172268D01*
X65150000Y-49178582D01*
X66850000Y-49178582D01*
X66914103Y-49172268D01*
X66975743Y-49153570D01*
X67032550Y-49123206D01*
X67082343Y-49082343D01*
X67123206Y-49032550D01*
X67153570Y-48975743D01*
X67172268Y-48914103D01*
X67178582Y-48850000D01*
X67178582Y-47150000D01*
X67172268Y-47085897D01*
X67153570Y-47024257D01*
X67123206Y-46967450D01*
X67082343Y-46917657D01*
X67032550Y-46876794D01*
X66975743Y-46846430D01*
X66914103Y-46827732D01*
X66850000Y-46821418D01*
X65150000Y-46821418D01*
X65085897Y-46827732D01*
X65024257Y-46846430D01*
X64967450Y-46876794D01*
X64917657Y-46917657D01*
X64876794Y-46967450D01*
X64846430Y-47024257D01*
X64827732Y-47085897D01*
X64821418Y-47150000D01*
X64352000Y-47150000D01*
X64352000Y-46352000D01*
X92648000Y-46352000D01*
X92648001Y-79648000D01*
G36*
X77503105Y-57182711D02*
G01*
X77500938Y-57187942D01*
X77473000Y-57328397D01*
X77473000Y-57471603D01*
X77500938Y-57612058D01*
X77555741Y-57744364D01*
X77635302Y-57863436D01*
X77736564Y-57964698D01*
X77855636Y-58044259D01*
X77987942Y-58099062D01*
X78128397Y-58127000D01*
X78271603Y-58127000D01*
X78412058Y-58099062D01*
X78417289Y-58096895D01*
X81048001Y-60727607D01*
X81048000Y-68677795D01*
X81045813Y-68700000D01*
X81048000Y-68722204D01*
X81054540Y-68788606D01*
X81080386Y-68873809D01*
X81122357Y-68952332D01*
X81178841Y-69021159D01*
X81196100Y-69035323D01*
X81373000Y-69212223D01*
X81373000Y-69500000D01*
X81375440Y-69524776D01*
X81382667Y-69548601D01*
X81394403Y-69570557D01*
X81410197Y-69589803D01*
X82373000Y-70552606D01*
X82373000Y-72447394D01*
X81447394Y-73373000D01*
X78552606Y-73373000D01*
X77627000Y-72447394D01*
X77627000Y-70552606D01*
X77672719Y-70506887D01*
X77712058Y-70499062D01*
X77844364Y-70444259D01*
X77963436Y-70364698D01*
X78064698Y-70263436D01*
X78144259Y-70144364D01*
X78199062Y-70012058D01*
X78206887Y-69972719D01*
X78589803Y-69589803D01*
X78605597Y-69570557D01*
X78617333Y-69548601D01*
X78624560Y-69524776D01*
X78627000Y-69500000D01*
X78627000Y-68215981D01*
X78712058Y-68199062D01*
X78844364Y-68144259D01*
X78963436Y-68064698D01*
X79064698Y-67963436D01*
X79144259Y-67844364D01*
X79199062Y-67712058D01*
X79227000Y-67571603D01*
X79227000Y-67428397D01*
X79199062Y-67287942D01*
X79144259Y-67155636D01*
X79064698Y-67036564D01*
X78963436Y-66935302D01*
X78844364Y-66855741D01*
X78712058Y-66800938D01*
X78627000Y-66784019D01*
X78627000Y-61751451D01*
X78644364Y-61744259D01*
X78763436Y-61664698D01*
X78864698Y-61563436D01*
X78944259Y-61444364D01*
X78999062Y-61312058D01*
X79027000Y-61171603D01*
X79027000Y-61028397D01*
X78999062Y-60887942D01*
X78944259Y-60755636D01*
X78864698Y-60636564D01*
X78763436Y-60535302D01*
X78644364Y-60455741D01*
X78512058Y-60400938D01*
X78371603Y-60373000D01*
X78228397Y-60373000D01*
X78087942Y-60400938D01*
X77955636Y-60455741D01*
X77836564Y-60535302D01*
X77775736Y-60596130D01*
X75127000Y-57947394D01*
X75127000Y-57052606D01*
X75552606Y-56627000D01*
X76947394Y-56627000D01*
X77503105Y-57182711D01*
G37*
X77503105Y-57182711D02*
X77500938Y-57187942D01*
X77473000Y-57328397D01*
X77473000Y-57471603D01*
X77500938Y-57612058D01*
X77555741Y-57744364D01*
X77635302Y-57863436D01*
X77736564Y-57964698D01*
X77855636Y-58044259D01*
X77987942Y-58099062D01*
X78128397Y-58127000D01*
X78271603Y-58127000D01*
X78412058Y-58099062D01*
X78417289Y-58096895D01*
X81048001Y-60727607D01*
X81048000Y-68677795D01*
X81045813Y-68700000D01*
X81048000Y-68722204D01*
X81054540Y-68788606D01*
X81080386Y-68873809D01*
X81122357Y-68952332D01*
X81178841Y-69021159D01*
X81196100Y-69035323D01*
X81373000Y-69212223D01*
X81373000Y-69500000D01*
X81375440Y-69524776D01*
X81382667Y-69548601D01*
X81394403Y-69570557D01*
X81410197Y-69589803D01*
X82373000Y-70552606D01*
X82373000Y-72447394D01*
X81447394Y-73373000D01*
X78552606Y-73373000D01*
X77627000Y-72447394D01*
X77627000Y-70552606D01*
X77672719Y-70506887D01*
X77712058Y-70499062D01*
X77844364Y-70444259D01*
X77963436Y-70364698D01*
X78064698Y-70263436D01*
X78144259Y-70144364D01*
X78199062Y-70012058D01*
X78206887Y-69972719D01*
X78589803Y-69589803D01*
X78605597Y-69570557D01*
X78617333Y-69548601D01*
X78624560Y-69524776D01*
X78627000Y-69500000D01*
X78627000Y-68215981D01*
X78712058Y-68199062D01*
X78844364Y-68144259D01*
X78963436Y-68064698D01*
X79064698Y-67963436D01*
X79144259Y-67844364D01*
X79199062Y-67712058D01*
X79227000Y-67571603D01*
X79227000Y-67428397D01*
X79199062Y-67287942D01*
X79144259Y-67155636D01*
X79064698Y-67036564D01*
X78963436Y-66935302D01*
X78844364Y-66855741D01*
X78712058Y-66800938D01*
X78627000Y-66784019D01*
X78627000Y-61751451D01*
X78644364Y-61744259D01*
X78763436Y-61664698D01*
X78864698Y-61563436D01*
X78944259Y-61444364D01*
X78999062Y-61312058D01*
X79027000Y-61171603D01*
X79027000Y-61028397D01*
X78999062Y-60887942D01*
X78944259Y-60755636D01*
X78864698Y-60636564D01*
X78763436Y-60535302D01*
X78644364Y-60455741D01*
X78512058Y-60400938D01*
X78371603Y-60373000D01*
X78228397Y-60373000D01*
X78087942Y-60400938D01*
X77955636Y-60455741D01*
X77836564Y-60535302D01*
X77775736Y-60596130D01*
X75127000Y-57947394D01*
X75127000Y-57052606D01*
X75552606Y-56627000D01*
X76947394Y-56627000D01*
X77503105Y-57182711D01*
G36*
X65872998Y-64691615D02*
G01*
X65691514Y-64644139D01*
X65475846Y-64726147D01*
X65280321Y-64848654D01*
X65112453Y-65006952D01*
X64978693Y-65194958D01*
X64884181Y-65405447D01*
X64864145Y-65471515D01*
X64912138Y-65653000D01*
X65873000Y-65653000D01*
X65873000Y-65633000D01*
X66127000Y-65633000D01*
X66127000Y-65653000D01*
X67087862Y-65653000D01*
X67135855Y-65471515D01*
X67115819Y-65405447D01*
X67021307Y-65194958D01*
X66887547Y-65006952D01*
X66719679Y-64848654D01*
X66524154Y-64726147D01*
X66308486Y-64644139D01*
X66127002Y-64691615D01*
X66127002Y-64627000D01*
X66947394Y-64627000D01*
X67873000Y-65552606D01*
X67873000Y-68629806D01*
X67855741Y-68655636D01*
X67800938Y-68787942D01*
X67773000Y-68928397D01*
X67773000Y-69071603D01*
X67800938Y-69212058D01*
X67855741Y-69344364D01*
X67873000Y-69370194D01*
X67873000Y-73500000D01*
X67875440Y-73524776D01*
X67882667Y-73548601D01*
X67894403Y-73570557D01*
X67902864Y-73580867D01*
X67804691Y-73646464D01*
X67696464Y-73754691D01*
X67611431Y-73881952D01*
X67552859Y-74023357D01*
X67523000Y-74173472D01*
X67523000Y-74326528D01*
X67552859Y-74476643D01*
X67611431Y-74618048D01*
X67696464Y-74745309D01*
X67804691Y-74853536D01*
X67931952Y-74938569D01*
X68073357Y-74997141D01*
X68223472Y-75027000D01*
X68376528Y-75027000D01*
X68526643Y-74997141D01*
X68668048Y-74938569D01*
X68795309Y-74853536D01*
X68903536Y-74745309D01*
X68968491Y-74648097D01*
X69410197Y-75089803D01*
X69429443Y-75105597D01*
X69451399Y-75117333D01*
X69475224Y-75124560D01*
X69500000Y-75127000D01*
X80447394Y-75127000D01*
X81373000Y-76052606D01*
X81373000Y-79648000D01*
X64352000Y-79648000D01*
X64352000Y-66088485D01*
X64864145Y-66088485D01*
X64884181Y-66154553D01*
X64978693Y-66365042D01*
X65112453Y-66553048D01*
X65280321Y-66711346D01*
X65475846Y-66833853D01*
X65691514Y-66915861D01*
X65873000Y-66868384D01*
X65873000Y-65907000D01*
X66127000Y-65907000D01*
X66127000Y-66868384D01*
X66308486Y-66915861D01*
X66524154Y-66833853D01*
X66719679Y-66711346D01*
X66887547Y-66553048D01*
X67021307Y-66365042D01*
X67115819Y-66154553D01*
X67135855Y-66088485D01*
X67087862Y-65907000D01*
X66127000Y-65907000D01*
X65873000Y-65907000D01*
X64912138Y-65907000D01*
X64864145Y-66088485D01*
X64352000Y-66088485D01*
X64352000Y-65327606D01*
X65052606Y-64627000D01*
X65872998Y-64627000D01*
X65872998Y-64691615D01*
G37*
X65872998Y-64691615D02*
X65691514Y-64644139D01*
X65475846Y-64726147D01*
X65280321Y-64848654D01*
X65112453Y-65006952D01*
X64978693Y-65194958D01*
X64884181Y-65405447D01*
X64864145Y-65471515D01*
X64912138Y-65653000D01*
X65873000Y-65653000D01*
X65873000Y-65633000D01*
X66127000Y-65633000D01*
X66127000Y-65653000D01*
X67087862Y-65653000D01*
X67135855Y-65471515D01*
X67115819Y-65405447D01*
X67021307Y-65194958D01*
X66887547Y-65006952D01*
X66719679Y-64848654D01*
X66524154Y-64726147D01*
X66308486Y-64644139D01*
X66127002Y-64691615D01*
X66127002Y-64627000D01*
X66947394Y-64627000D01*
X67873000Y-65552606D01*
X67873000Y-68629806D01*
X67855741Y-68655636D01*
X67800938Y-68787942D01*
X67773000Y-68928397D01*
X67773000Y-69071603D01*
X67800938Y-69212058D01*
X67855741Y-69344364D01*
X67873000Y-69370194D01*
X67873000Y-73500000D01*
X67875440Y-73524776D01*
X67882667Y-73548601D01*
X67894403Y-73570557D01*
X67902864Y-73580867D01*
X67804691Y-73646464D01*
X67696464Y-73754691D01*
X67611431Y-73881952D01*
X67552859Y-74023357D01*
X67523000Y-74173472D01*
X67523000Y-74326528D01*
X67552859Y-74476643D01*
X67611431Y-74618048D01*
X67696464Y-74745309D01*
X67804691Y-74853536D01*
X67931952Y-74938569D01*
X68073357Y-74997141D01*
X68223472Y-75027000D01*
X68376528Y-75027000D01*
X68526643Y-74997141D01*
X68668048Y-74938569D01*
X68795309Y-74853536D01*
X68903536Y-74745309D01*
X68968491Y-74648097D01*
X69410197Y-75089803D01*
X69429443Y-75105597D01*
X69451399Y-75117333D01*
X69475224Y-75124560D01*
X69500000Y-75127000D01*
X80447394Y-75127000D01*
X81373000Y-76052606D01*
X81373000Y-79648000D01*
X64352000Y-79648000D01*
X64352000Y-66088485D01*
X64864145Y-66088485D01*
X64884181Y-66154553D01*
X64978693Y-66365042D01*
X65112453Y-66553048D01*
X65280321Y-66711346D01*
X65475846Y-66833853D01*
X65691514Y-66915861D01*
X65873000Y-66868384D01*
X65873000Y-65907000D01*
X66127000Y-65907000D01*
X66127000Y-66868384D01*
X66308486Y-66915861D01*
X66524154Y-66833853D01*
X66719679Y-66711346D01*
X66887547Y-66553048D01*
X67021307Y-66365042D01*
X67115819Y-66154553D01*
X67135855Y-66088485D01*
X67087862Y-65907000D01*
X66127000Y-65907000D01*
X65873000Y-65907000D01*
X64912138Y-65907000D01*
X64864145Y-66088485D01*
X64352000Y-66088485D01*
X64352000Y-65327606D01*
X65052606Y-64627000D01*
X65872998Y-64627000D01*
X65872998Y-64691615D01*
M02*
