G04 #@! TF.GenerationSoftware,KiCad,Pcbnew,5.1.5*
G04 #@! TF.CreationDate,2020-02-06T17:38:06+01:00*
G04 #@! TF.ProjectId,lichtenprog,6c696368-7465-46e7-9072-6f672e6b6963,rev?*
G04 #@! TF.SameCoordinates,Original*
G04 #@! TF.FileFunction,Legend,Top*
G04 #@! TF.FilePolarity,Positive*
%FSLAX46Y46*%
G04 Gerber Fmt 4.6, Leading zero omitted, Abs format (unit mm)*
G04 Created by KiCad (PCBNEW 5.1.5) date 2020-02-06 17:38:06*
%MOMM*%
%LPD*%
G04 APERTURE LIST*
%ADD10C,0.150000*%
%ADD11C,0.120000*%
G04 APERTURE END LIST*
D10*
X83488095Y-62321428D02*
X84250000Y-62321428D01*
X83869047Y-62702380D02*
X83869047Y-61940476D01*
X84630952Y-61702380D02*
X85250000Y-61702380D01*
X84916666Y-62083333D01*
X85059523Y-62083333D01*
X85154761Y-62130952D01*
X85202380Y-62178571D01*
X85250000Y-62273809D01*
X85250000Y-62511904D01*
X85202380Y-62607142D01*
X85154761Y-62654761D01*
X85059523Y-62702380D01*
X84773809Y-62702380D01*
X84678571Y-62654761D01*
X84630952Y-62607142D01*
X85535714Y-61702380D02*
X85869047Y-62702380D01*
X86202380Y-61702380D01*
X86440476Y-61702380D02*
X87059523Y-61702380D01*
X86726190Y-62083333D01*
X86869047Y-62083333D01*
X86964285Y-62130952D01*
X87011904Y-62178571D01*
X87059523Y-62273809D01*
X87059523Y-62511904D01*
X87011904Y-62607142D01*
X86964285Y-62654761D01*
X86869047Y-62702380D01*
X86583333Y-62702380D01*
X86488095Y-62654761D01*
X86440476Y-62607142D01*
X85202380Y-60202380D02*
X84869047Y-59726190D01*
X84630952Y-60202380D02*
X84630952Y-59202380D01*
X85011904Y-59202380D01*
X85107142Y-59250000D01*
X85154761Y-59297619D01*
X85202380Y-59392857D01*
X85202380Y-59535714D01*
X85154761Y-59630952D01*
X85107142Y-59678571D01*
X85011904Y-59726190D01*
X84630952Y-59726190D01*
X85488095Y-59202380D02*
X86059523Y-59202380D01*
X85773809Y-60202380D02*
X85773809Y-59202380D01*
X86345238Y-60154761D02*
X86488095Y-60202380D01*
X86726190Y-60202380D01*
X86821428Y-60154761D01*
X86869047Y-60107142D01*
X86916666Y-60011904D01*
X86916666Y-59916666D01*
X86869047Y-59821428D01*
X86821428Y-59773809D01*
X86726190Y-59726190D01*
X86535714Y-59678571D01*
X86440476Y-59630952D01*
X86392857Y-59583333D01*
X86345238Y-59488095D01*
X86345238Y-59392857D01*
X86392857Y-59297619D01*
X86440476Y-59250000D01*
X86535714Y-59202380D01*
X86773809Y-59202380D01*
X86916666Y-59250000D01*
X84607142Y-57702380D02*
X84607142Y-56702380D01*
X84845238Y-56702380D01*
X84988095Y-56750000D01*
X85083333Y-56845238D01*
X85130952Y-56940476D01*
X85178571Y-57130952D01*
X85178571Y-57273809D01*
X85130952Y-57464285D01*
X85083333Y-57559523D01*
X84988095Y-57654761D01*
X84845238Y-57702380D01*
X84607142Y-57702380D01*
X85464285Y-56702380D02*
X86035714Y-56702380D01*
X85750000Y-57702380D02*
X85750000Y-56702380D01*
X86940476Y-57702380D02*
X86607142Y-57226190D01*
X86369047Y-57702380D02*
X86369047Y-56702380D01*
X86750000Y-56702380D01*
X86845238Y-56750000D01*
X86892857Y-56797619D01*
X86940476Y-56892857D01*
X86940476Y-57035714D01*
X86892857Y-57130952D01*
X86845238Y-57178571D01*
X86750000Y-57226190D01*
X86369047Y-57226190D01*
X85083333Y-55202380D02*
X84750000Y-54726190D01*
X84511904Y-55202380D02*
X84511904Y-54202380D01*
X84892857Y-54202380D01*
X84988095Y-54250000D01*
X85035714Y-54297619D01*
X85083333Y-54392857D01*
X85083333Y-54535714D01*
X85035714Y-54630952D01*
X84988095Y-54678571D01*
X84892857Y-54726190D01*
X84511904Y-54726190D01*
X85416666Y-54202380D02*
X86083333Y-55202380D01*
X86083333Y-54202380D02*
X85416666Y-55202380D01*
X86464285Y-55202380D02*
X86464285Y-54202380D01*
X86702380Y-54202380D01*
X86845238Y-54250000D01*
X86940476Y-54345238D01*
X86988095Y-54440476D01*
X87035714Y-54630952D01*
X87035714Y-54773809D01*
X86988095Y-54964285D01*
X86940476Y-55059523D01*
X86845238Y-55154761D01*
X86702380Y-55202380D01*
X86464285Y-55202380D01*
X84488095Y-51702380D02*
X85059523Y-51702380D01*
X84773809Y-52702380D02*
X84773809Y-51702380D01*
X85297619Y-51702380D02*
X85964285Y-52702380D01*
X85964285Y-51702380D02*
X85297619Y-52702380D01*
X86345238Y-52702380D02*
X86345238Y-51702380D01*
X86583333Y-51702380D01*
X86726190Y-51750000D01*
X86821428Y-51845238D01*
X86869047Y-51940476D01*
X86916666Y-52130952D01*
X86916666Y-52273809D01*
X86869047Y-52464285D01*
X86821428Y-52559523D01*
X86726190Y-52654761D01*
X86583333Y-52702380D01*
X86345238Y-52702380D01*
X84988095Y-49250000D02*
X84892857Y-49202380D01*
X84750000Y-49202380D01*
X84607142Y-49250000D01*
X84511904Y-49345238D01*
X84464285Y-49440476D01*
X84416666Y-49630952D01*
X84416666Y-49773809D01*
X84464285Y-49964285D01*
X84511904Y-50059523D01*
X84607142Y-50154761D01*
X84750000Y-50202380D01*
X84845238Y-50202380D01*
X84988095Y-50154761D01*
X85035714Y-50107142D01*
X85035714Y-49773809D01*
X84845238Y-49773809D01*
X85464285Y-50202380D02*
X85464285Y-49202380D01*
X86035714Y-50202380D01*
X86035714Y-49202380D01*
X86511904Y-50202380D02*
X86511904Y-49202380D01*
X86750000Y-49202380D01*
X86892857Y-49250000D01*
X86988095Y-49345238D01*
X87035714Y-49440476D01*
X87083333Y-49630952D01*
X87083333Y-49773809D01*
X87035714Y-49964285D01*
X86988095Y-50059523D01*
X86892857Y-50154761D01*
X86750000Y-50202380D01*
X86511904Y-50202380D01*
D11*
X74821555Y-62887348D02*
X74308903Y-63400000D01*
X81691097Y-63400000D02*
X81178445Y-62887348D01*
X81178445Y-63912652D02*
X81691097Y-63400000D01*
X78000000Y-67091097D02*
X77487348Y-66578445D01*
X78512652Y-66578445D02*
X78000000Y-67091097D01*
X78000000Y-59708903D02*
X78512652Y-60221555D01*
X77487348Y-60221555D02*
X78000000Y-59708903D01*
X83590000Y-73450000D02*
X83590000Y-67440000D01*
X90410000Y-71200000D02*
X90410000Y-67440000D01*
X83590000Y-67440000D02*
X84850000Y-67440000D01*
X90410000Y-67440000D02*
X89150000Y-67440000D01*
X82990000Y-59828733D02*
X82990000Y-60171267D01*
X84010000Y-59828733D02*
X84010000Y-60171267D01*
X81240000Y-59853733D02*
X81240000Y-60196267D01*
X82260000Y-59853733D02*
X82260000Y-60196267D01*
X82810000Y-67746266D02*
X82810000Y-67403732D01*
X81790000Y-67746266D02*
X81790000Y-67403732D01*
X82810000Y-72296267D02*
X82810000Y-71953733D01*
X81790000Y-72296267D02*
X81790000Y-71953733D01*
X82810000Y-77196267D02*
X82810000Y-76853733D01*
X81790000Y-77196267D02*
X81790000Y-76853733D01*
X84963748Y-78460000D02*
X85486252Y-78460000D01*
X84963748Y-77040000D02*
X85486252Y-77040000D01*
X90330000Y-63670000D02*
X89000000Y-63670000D01*
X90330000Y-62340000D02*
X90330000Y-63670000D01*
X90330000Y-61070000D02*
X87670000Y-61070000D01*
X87670000Y-61070000D02*
X87670000Y-48310000D01*
X90330000Y-61070000D02*
X90330000Y-48310000D01*
X90330000Y-48310000D02*
X87670000Y-48310000D01*
X78960000Y-80110000D02*
X78960000Y-78450000D01*
X71040000Y-80110000D02*
X78960000Y-80110000D01*
X71040000Y-78450000D02*
X71040000Y-80110000D01*
X77050000Y-70640000D02*
X78200000Y-70640000D01*
X72950000Y-70050000D02*
X73650000Y-70050000D01*
X72950000Y-70640000D02*
X72950000Y-70050000D01*
X71800000Y-70640000D02*
X72950000Y-70640000D01*
X78960000Y-72950000D02*
X78960000Y-75550000D01*
X71040000Y-75550000D02*
X71040000Y-72950000D01*
X80165000Y-53360000D02*
X83025000Y-53360000D01*
X80165000Y-51440000D02*
X80165000Y-53360000D01*
X83025000Y-51440000D02*
X80165000Y-51440000D01*
X80165000Y-55760000D02*
X83025000Y-55760000D01*
X80165000Y-53840000D02*
X80165000Y-55760000D01*
X83025000Y-53840000D02*
X80165000Y-53840000D01*
X75799553Y-68220802D02*
X76041762Y-68463011D01*
X76520802Y-67499553D02*
X76763011Y-67741762D01*
X79958238Y-68500447D02*
X80200447Y-68258238D01*
X79236989Y-67779198D02*
X79479198Y-67536989D01*
X85296267Y-74490000D02*
X84953733Y-74490000D01*
X85296267Y-75510000D02*
X84953733Y-75510000D01*
X89096267Y-74490000D02*
X88753733Y-74490000D01*
X89096267Y-75510000D02*
X88753733Y-75510000D01*
D10*
X73174026Y-61951522D02*
X73746446Y-62523942D01*
X73847461Y-62557614D01*
X73914805Y-62557614D01*
X74015820Y-62523942D01*
X74150507Y-62389255D01*
X74184179Y-62288240D01*
X74184179Y-62220896D01*
X74150507Y-62119881D01*
X73578087Y-61547461D01*
X73948477Y-61311759D02*
X73948477Y-61244416D01*
X73982148Y-61143400D01*
X74150507Y-60975042D01*
X74251522Y-60941370D01*
X74318866Y-60941370D01*
X74419881Y-60975042D01*
X74487225Y-61042385D01*
X74554568Y-61177072D01*
X74554568Y-61985194D01*
X74992301Y-61547461D01*
X89452380Y-66761904D02*
X90261904Y-66761904D01*
X90357142Y-66714285D01*
X90404761Y-66666666D01*
X90452380Y-66571428D01*
X90452380Y-66380952D01*
X90404761Y-66285714D01*
X90357142Y-66238095D01*
X90261904Y-66190476D01*
X89452380Y-66190476D01*
X90452380Y-65190476D02*
X90452380Y-65761904D01*
X90452380Y-65476190D02*
X89452380Y-65476190D01*
X89595238Y-65571428D01*
X89690476Y-65666666D01*
X89738095Y-65761904D01*
X83902380Y-57566666D02*
X83426190Y-57900000D01*
X83902380Y-58138095D02*
X82902380Y-58138095D01*
X82902380Y-57757142D01*
X82950000Y-57661904D01*
X82997619Y-57614285D01*
X83092857Y-57566666D01*
X83235714Y-57566666D01*
X83330952Y-57614285D01*
X83378571Y-57661904D01*
X83426190Y-57757142D01*
X83426190Y-58138095D01*
X82902380Y-56661904D02*
X82902380Y-57138095D01*
X83378571Y-57185714D01*
X83330952Y-57138095D01*
X83283333Y-57042857D01*
X83283333Y-56804761D01*
X83330952Y-56709523D01*
X83378571Y-56661904D01*
X83473809Y-56614285D01*
X83711904Y-56614285D01*
X83807142Y-56661904D01*
X83854761Y-56709523D01*
X83902380Y-56804761D01*
X83902380Y-57042857D01*
X83854761Y-57138095D01*
X83807142Y-57185714D01*
X82302380Y-57566666D02*
X81826190Y-57900000D01*
X82302380Y-58138095D02*
X81302380Y-58138095D01*
X81302380Y-57757142D01*
X81350000Y-57661904D01*
X81397619Y-57614285D01*
X81492857Y-57566666D01*
X81635714Y-57566666D01*
X81730952Y-57614285D01*
X81778571Y-57661904D01*
X81826190Y-57757142D01*
X81826190Y-58138095D01*
X81635714Y-56709523D02*
X82302380Y-56709523D01*
X81254761Y-56947619D02*
X81969047Y-57185714D01*
X81969047Y-56566666D01*
X82333333Y-69952380D02*
X82000000Y-69476190D01*
X81761904Y-69952380D02*
X81761904Y-68952380D01*
X82142857Y-68952380D01*
X82238095Y-69000000D01*
X82285714Y-69047619D01*
X82333333Y-69142857D01*
X82333333Y-69285714D01*
X82285714Y-69380952D01*
X82238095Y-69428571D01*
X82142857Y-69476190D01*
X81761904Y-69476190D01*
X82666666Y-68952380D02*
X83285714Y-68952380D01*
X82952380Y-69333333D01*
X83095238Y-69333333D01*
X83190476Y-69380952D01*
X83238095Y-69428571D01*
X83285714Y-69523809D01*
X83285714Y-69761904D01*
X83238095Y-69857142D01*
X83190476Y-69904761D01*
X83095238Y-69952380D01*
X82809523Y-69952380D01*
X82714285Y-69904761D01*
X82666666Y-69857142D01*
X82133333Y-75002380D02*
X81800000Y-74526190D01*
X81561904Y-75002380D02*
X81561904Y-74002380D01*
X81942857Y-74002380D01*
X82038095Y-74050000D01*
X82085714Y-74097619D01*
X82133333Y-74192857D01*
X82133333Y-74335714D01*
X82085714Y-74430952D01*
X82038095Y-74478571D01*
X81942857Y-74526190D01*
X81561904Y-74526190D01*
X82514285Y-74097619D02*
X82561904Y-74050000D01*
X82657142Y-74002380D01*
X82895238Y-74002380D01*
X82990476Y-74050000D01*
X83038095Y-74097619D01*
X83085714Y-74192857D01*
X83085714Y-74288095D01*
X83038095Y-74430952D01*
X82466666Y-75002380D01*
X83085714Y-75002380D01*
X82233333Y-79702380D02*
X81900000Y-79226190D01*
X81661904Y-79702380D02*
X81661904Y-78702380D01*
X82042857Y-78702380D01*
X82138095Y-78750000D01*
X82185714Y-78797619D01*
X82233333Y-78892857D01*
X82233333Y-79035714D01*
X82185714Y-79130952D01*
X82138095Y-79178571D01*
X82042857Y-79226190D01*
X81661904Y-79226190D01*
X83185714Y-79702380D02*
X82614285Y-79702380D01*
X82900000Y-79702380D02*
X82900000Y-78702380D01*
X82804761Y-78845238D01*
X82709523Y-78940476D01*
X82614285Y-78988095D01*
X86333333Y-79702380D02*
X85857142Y-79702380D01*
X85857142Y-78702380D01*
X87190476Y-79702380D02*
X86619047Y-79702380D01*
X86904761Y-79702380D02*
X86904761Y-78702380D01*
X86809523Y-78845238D01*
X86714285Y-78940476D01*
X86619047Y-78988095D01*
X86166666Y-63452380D02*
X86166666Y-64166666D01*
X86119047Y-64309523D01*
X86023809Y-64404761D01*
X85880952Y-64452380D01*
X85785714Y-64452380D01*
X86595238Y-63547619D02*
X86642857Y-63500000D01*
X86738095Y-63452380D01*
X86976190Y-63452380D01*
X87071428Y-63500000D01*
X87119047Y-63547619D01*
X87166666Y-63642857D01*
X87166666Y-63738095D01*
X87119047Y-63880952D01*
X86547619Y-64452380D01*
X87166666Y-64452380D01*
X71666666Y-68302380D02*
X71666666Y-69016666D01*
X71619047Y-69159523D01*
X71523809Y-69254761D01*
X71380952Y-69302380D01*
X71285714Y-69302380D01*
X72666666Y-69302380D02*
X72095238Y-69302380D01*
X72380952Y-69302380D02*
X72380952Y-68302380D01*
X72285714Y-68445238D01*
X72190476Y-68540476D01*
X72095238Y-68588095D01*
X78261904Y-52952380D02*
X78261904Y-51952380D01*
X78500000Y-51952380D01*
X78642857Y-52000000D01*
X78738095Y-52095238D01*
X78785714Y-52190476D01*
X78833333Y-52380952D01*
X78833333Y-52523809D01*
X78785714Y-52714285D01*
X78738095Y-52809523D01*
X78642857Y-52904761D01*
X78500000Y-52952380D01*
X78261904Y-52952380D01*
X79214285Y-52047619D02*
X79261904Y-52000000D01*
X79357142Y-51952380D01*
X79595238Y-51952380D01*
X79690476Y-52000000D01*
X79738095Y-52047619D01*
X79785714Y-52142857D01*
X79785714Y-52238095D01*
X79738095Y-52380952D01*
X79166666Y-52952380D01*
X79785714Y-52952380D01*
X78261904Y-55202380D02*
X78261904Y-54202380D01*
X78500000Y-54202380D01*
X78642857Y-54250000D01*
X78738095Y-54345238D01*
X78785714Y-54440476D01*
X78833333Y-54630952D01*
X78833333Y-54773809D01*
X78785714Y-54964285D01*
X78738095Y-55059523D01*
X78642857Y-55154761D01*
X78500000Y-55202380D01*
X78261904Y-55202380D01*
X79785714Y-55202380D02*
X79214285Y-55202380D01*
X79500000Y-55202380D02*
X79500000Y-54202380D01*
X79404761Y-54345238D01*
X79309523Y-54440476D01*
X79214285Y-54488095D01*
X74329610Y-65934687D02*
X74262267Y-65934687D01*
X74127580Y-65867343D01*
X74060236Y-65800000D01*
X73992893Y-65665312D01*
X73992893Y-65530625D01*
X74026564Y-65429610D01*
X74127580Y-65261251D01*
X74228595Y-65160236D01*
X74396954Y-65059221D01*
X74497969Y-65025549D01*
X74632656Y-65025549D01*
X74767343Y-65092893D01*
X74834687Y-65160236D01*
X74902030Y-65294923D01*
X74902030Y-65362267D01*
X75339763Y-66136717D02*
X74868358Y-66608122D01*
X75440778Y-65698984D02*
X74767343Y-66035702D01*
X75205076Y-66473435D01*
X81284687Y-66020389D02*
X81284687Y-66087732D01*
X81217343Y-66222419D01*
X81150000Y-66289763D01*
X81015312Y-66357106D01*
X80880625Y-66357106D01*
X80779610Y-66323435D01*
X80611251Y-66222419D01*
X80510236Y-66121404D01*
X80409221Y-65953045D01*
X80375549Y-65852030D01*
X80375549Y-65717343D01*
X80442893Y-65582656D01*
X80510236Y-65515312D01*
X80644923Y-65447969D01*
X80712267Y-65447969D01*
X80880625Y-65144923D02*
X81318358Y-64707190D01*
X81352030Y-65212267D01*
X81453045Y-65111251D01*
X81554061Y-65077580D01*
X81621404Y-65077580D01*
X81722419Y-65111251D01*
X81890778Y-65279610D01*
X81924450Y-65380625D01*
X81924450Y-65447969D01*
X81890778Y-65548984D01*
X81688748Y-65751015D01*
X81587732Y-65784687D01*
X81520389Y-65784687D01*
X84083333Y-76607142D02*
X84035714Y-76654761D01*
X83892857Y-76702380D01*
X83797619Y-76702380D01*
X83654761Y-76654761D01*
X83559523Y-76559523D01*
X83511904Y-76464285D01*
X83464285Y-76273809D01*
X83464285Y-76130952D01*
X83511904Y-75940476D01*
X83559523Y-75845238D01*
X83654761Y-75750000D01*
X83797619Y-75702380D01*
X83892857Y-75702380D01*
X84035714Y-75750000D01*
X84083333Y-75797619D01*
X84464285Y-75797619D02*
X84511904Y-75750000D01*
X84607142Y-75702380D01*
X84845238Y-75702380D01*
X84940476Y-75750000D01*
X84988095Y-75797619D01*
X85035714Y-75892857D01*
X85035714Y-75988095D01*
X84988095Y-76130952D01*
X84416666Y-76702380D01*
X85035714Y-76702380D01*
X89833333Y-76607142D02*
X89785714Y-76654761D01*
X89642857Y-76702380D01*
X89547619Y-76702380D01*
X89404761Y-76654761D01*
X89309523Y-76559523D01*
X89261904Y-76464285D01*
X89214285Y-76273809D01*
X89214285Y-76130952D01*
X89261904Y-75940476D01*
X89309523Y-75845238D01*
X89404761Y-75750000D01*
X89547619Y-75702380D01*
X89642857Y-75702380D01*
X89785714Y-75750000D01*
X89833333Y-75797619D01*
X90785714Y-76702380D02*
X90214285Y-76702380D01*
X90500000Y-76702380D02*
X90500000Y-75702380D01*
X90404761Y-75845238D01*
X90309523Y-75940476D01*
X90214285Y-75988095D01*
M02*
